M48
; DRILL file {KiCad (5.1.8)-1} date 11/28/20 16:02:57
; FORMAT={-:-/ absolute / metric / decimal}
; #@! TF.CreationDate,2020-11-28T16:02:57+09:00
; #@! TF.GenerationSoftware,Kicad,Pcbnew,(5.1.8)-1
FMAT,2
METRIC
T1C0.300
T2C0.762
T3C0.800
T4C0.900
T5C1.000
T6C3.000
%
G90
G05
T1
X69.62Y-116.725
X69.718Y-119.043
X71.525Y-133.87
X72.52Y-120.502
X74.7Y-126.25
X75.335Y-121.805
X79.145Y-108.47
X79.856Y-115.453
X80.098Y-121.017
X82.32Y-121.17
X82.32Y-147.84
X83.59Y-125.615
X84.225Y-117.36
X86.13Y-103.39
X90.575Y-138.315
X91.21Y-105.93
X91.21Y-111.01
X97.447Y-137.285
X99.319Y-135.04
X99.367Y-113.24
X99.549Y-117.806
X99.654Y-141.561
X101.453Y-152.041
X115.62Y-116.725
X115.718Y-119.043
X117.525Y-133.87
X118.52Y-120.502
X120.7Y-126.25
X121.335Y-121.805
X125.145Y-108.47
X125.856Y-115.453
X126.098Y-121.017
X128.32Y-121.17
X128.32Y-147.84
X129.59Y-125.615
X130.225Y-117.36
X132.13Y-103.39
X136.575Y-138.315
X137.21Y-105.93
X137.21Y-111.01
X143.446Y-137.285
X145.319Y-135.04
X145.367Y-113.24
X145.549Y-117.806
X145.654Y-141.561
X147.453Y-152.041
T2
X95.655Y-102.755
X95.655Y-104.755
X95.655Y-106.755
X95.655Y-108.755
X95.655Y-126.885
X95.655Y-128.885
X95.655Y-130.885
X95.655Y-132.885
X141.655Y-102.755
X141.655Y-104.755
X141.655Y-106.755
X141.655Y-108.755
X141.655Y-126.885
X141.655Y-128.885
X141.655Y-130.885
X141.655Y-132.885
T3
X115.62Y-104.66
X115.62Y-112.28
X118.16Y-104.66
X118.16Y-112.28
X120.7Y-104.66
X120.7Y-112.28
X123.24Y-104.66
X123.24Y-112.28
X115.62Y-130.06
X115.62Y-137.68
X118.16Y-130.06
X118.16Y-137.68
X120.7Y-130.06
X120.7Y-137.68
X123.24Y-130.06
X123.24Y-137.68
X69.62Y-130.06
X69.62Y-137.68
X72.16Y-130.06
X72.16Y-137.68
X74.7Y-130.06
X74.7Y-137.68
X77.24Y-130.06
X77.24Y-137.68
X69.62Y-104.66
X69.62Y-112.28
X72.16Y-104.66
X72.16Y-112.28
X74.7Y-104.66
X74.7Y-112.28
X77.24Y-104.66
X77.24Y-112.28
X69.7Y-141.49
X74.7Y-141.49
X115.7Y-141.49
X120.7Y-141.49
T4
X134.67Y-140.22
X134.67Y-142.76
X134.67Y-145.3
X139.75Y-140.22
X139.75Y-142.76
X139.75Y-145.3
X134.67Y-116.09
X134.67Y-118.63
X134.67Y-121.17
X139.75Y-116.09
X139.75Y-118.63
X139.75Y-121.17
X88.67Y-140.22
X88.67Y-142.76
X88.67Y-145.3
X93.75Y-140.22
X93.75Y-142.76
X93.75Y-145.3
X88.67Y-116.09
X88.67Y-118.63
X88.67Y-121.17
X93.75Y-116.09
X93.75Y-118.63
X93.75Y-121.17
X134.67Y-151.65
X134.67Y-154.19
X139.75Y-151.65
X139.75Y-154.19
X88.67Y-151.65
X88.67Y-154.19
X93.75Y-151.65
X93.75Y-154.19
T5
X72.16Y-147.84
X72.16Y-150.34
X118.16Y-147.84
X118.16Y-150.34
T6
X92.0Y-98.0
X102.0Y-108.0
X108.0Y-128.0
X62.0Y-128.0
X148.0Y-128.0
X62.0Y-108.0
X148.0Y-148.0
X118.0Y-158.0
X102.0Y-128.0
X138.0Y-98.0
X118.0Y-98.0
X148.0Y-108.0
X92.0Y-158.0
X62.0Y-148.0
X72.0Y-98.0
X108.0Y-148.0
X108.0Y-108.0
X138.0Y-158.0
X72.0Y-158.0
X102.0Y-148.0
T0
M30
