G04 #@! TF.GenerationSoftware,KiCad,Pcbnew,(5.1.8)-1*
G04 #@! TF.CreationDate,2020-11-28T16:02:54+09:00*
G04 #@! TF.ProjectId,DigitalOutput4chS,44696769-7461-46c4-9f75-747075743463,2*
G04 #@! TF.SameCoordinates,Original*
G04 #@! TF.FileFunction,Legend,Bot*
G04 #@! TF.FilePolarity,Positive*
%FSLAX46Y46*%
G04 Gerber Fmt 4.6, Leading zero omitted, Abs format (unit mm)*
G04 Created by KiCad (PCBNEW (5.1.8)-1) date 2020-11-28 16:02:54*
%MOMM*%
%LPD*%
G01*
G04 APERTURE LIST*
%ADD10C,0.120000*%
%ADD11C,0.150000*%
%ADD12C,0.200000*%
%ADD13C,0.381000*%
G04 APERTURE END LIST*
D10*
X128320000Y-144030000D02*
X129590000Y-144030000D01*
X129590000Y-144030000D02*
X129590000Y-155460000D01*
X129590000Y-155460000D02*
X128320000Y-155460000D01*
D11*
X124795714Y-151467380D02*
X124795714Y-150467380D01*
X124224285Y-151467380D01*
X124224285Y-150467380D01*
D12*
X137378571Y-133142857D02*
X137778571Y-132571428D01*
X138064285Y-133142857D02*
X138064285Y-131942857D01*
X137607142Y-131942857D01*
X137492857Y-132000000D01*
X137435714Y-132057142D01*
X137378571Y-132171428D01*
X137378571Y-132342857D01*
X137435714Y-132457142D01*
X137492857Y-132514285D01*
X137607142Y-132571428D01*
X138064285Y-132571428D01*
X136407142Y-133085714D02*
X136521428Y-133142857D01*
X136750000Y-133142857D01*
X136864285Y-133085714D01*
X136921428Y-132971428D01*
X136921428Y-132514285D01*
X136864285Y-132400000D01*
X136750000Y-132342857D01*
X136521428Y-132342857D01*
X136407142Y-132400000D01*
X136350000Y-132514285D01*
X136350000Y-132628571D01*
X136921428Y-132742857D01*
X135950000Y-132342857D02*
X135664285Y-133142857D01*
X135378571Y-132342857D01*
X134921428Y-133028571D02*
X134864285Y-133085714D01*
X134921428Y-133142857D01*
X134978571Y-133085714D01*
X134921428Y-133028571D01*
X134921428Y-133142857D01*
X134407142Y-132057142D02*
X134350000Y-132000000D01*
X134235714Y-131942857D01*
X133950000Y-131942857D01*
X133835714Y-132000000D01*
X133778571Y-132057142D01*
X133721428Y-132171428D01*
X133721428Y-132285714D01*
X133778571Y-132457142D01*
X134464285Y-133142857D01*
X133721428Y-133142857D01*
X132350000Y-132057142D02*
X132292857Y-132000000D01*
X132178571Y-131942857D01*
X131892857Y-131942857D01*
X131778571Y-132000000D01*
X131721428Y-132057142D01*
X131664285Y-132171428D01*
X131664285Y-132285714D01*
X131721428Y-132457142D01*
X132407142Y-133142857D01*
X131664285Y-133142857D01*
X130921428Y-131942857D02*
X130807142Y-131942857D01*
X130692857Y-132000000D01*
X130635714Y-132057142D01*
X130578571Y-132171428D01*
X130521428Y-132400000D01*
X130521428Y-132685714D01*
X130578571Y-132914285D01*
X130635714Y-133028571D01*
X130692857Y-133085714D01*
X130807142Y-133142857D01*
X130921428Y-133142857D01*
X131035714Y-133085714D01*
X131092857Y-133028571D01*
X131150000Y-132914285D01*
X131207142Y-132685714D01*
X131207142Y-132400000D01*
X131150000Y-132171428D01*
X131092857Y-132057142D01*
X131035714Y-132000000D01*
X130921428Y-131942857D01*
X130064285Y-132057142D02*
X130007142Y-132000000D01*
X129892857Y-131942857D01*
X129607142Y-131942857D01*
X129492857Y-132000000D01*
X129435714Y-132057142D01*
X129378571Y-132171428D01*
X129378571Y-132285714D01*
X129435714Y-132457142D01*
X130121428Y-133142857D01*
X129378571Y-133142857D01*
X128635714Y-131942857D02*
X128521428Y-131942857D01*
X128407142Y-132000000D01*
X128350000Y-132057142D01*
X128292857Y-132171428D01*
X128235714Y-132400000D01*
X128235714Y-132685714D01*
X128292857Y-132914285D01*
X128350000Y-133028571D01*
X128407142Y-133085714D01*
X128521428Y-133142857D01*
X128635714Y-133142857D01*
X128750000Y-133085714D01*
X128807142Y-133028571D01*
X128864285Y-132914285D01*
X128921428Y-132685714D01*
X128921428Y-132400000D01*
X128864285Y-132171428D01*
X128807142Y-132057142D01*
X128750000Y-132000000D01*
X128635714Y-131942857D01*
X127721428Y-133028571D02*
X127664285Y-133085714D01*
X127721428Y-133142857D01*
X127778571Y-133085714D01*
X127721428Y-133028571D01*
X127721428Y-133142857D01*
X126521428Y-133142857D02*
X127207142Y-133142857D01*
X126864285Y-133142857D02*
X126864285Y-131942857D01*
X126978571Y-132114285D01*
X127092857Y-132228571D01*
X127207142Y-132285714D01*
X125378571Y-133142857D02*
X126064285Y-133142857D01*
X125721428Y-133142857D02*
X125721428Y-131942857D01*
X125835714Y-132114285D01*
X125950000Y-132228571D01*
X126064285Y-132285714D01*
D11*
X124795714Y-143847380D02*
X124795714Y-142847380D01*
X124224285Y-143847380D01*
X124224285Y-142847380D01*
X127311904Y-151467380D02*
X127311904Y-150467380D01*
X126930952Y-150467380D01*
X126835714Y-150515000D01*
X126788095Y-150562619D01*
X126740476Y-150657857D01*
X126740476Y-150800714D01*
X126788095Y-150895952D01*
X126835714Y-150943571D01*
X126930952Y-150991190D01*
X127311904Y-150991190D01*
X132780714Y-148689761D02*
X132637857Y-148737380D01*
X132399761Y-148737380D01*
X132304523Y-148689761D01*
X132256904Y-148642142D01*
X132209285Y-148546904D01*
X132209285Y-148451666D01*
X132256904Y-148356428D01*
X132304523Y-148308809D01*
X132399761Y-148261190D01*
X132590238Y-148213571D01*
X132685476Y-148165952D01*
X132733095Y-148118333D01*
X132780714Y-148023095D01*
X132780714Y-147927857D01*
X132733095Y-147832619D01*
X132685476Y-147785000D01*
X132590238Y-147737380D01*
X132352142Y-147737380D01*
X132209285Y-147785000D01*
X131066428Y-147689761D02*
X131923571Y-148975476D01*
X130780714Y-148689761D02*
X130637857Y-148737380D01*
X130399761Y-148737380D01*
X130304523Y-148689761D01*
X130256904Y-148642142D01*
X130209285Y-148546904D01*
X130209285Y-148451666D01*
X130256904Y-148356428D01*
X130304523Y-148308809D01*
X130399761Y-148261190D01*
X130590238Y-148213571D01*
X130685476Y-148165952D01*
X130733095Y-148118333D01*
X130780714Y-148023095D01*
X130780714Y-147927857D01*
X130733095Y-147832619D01*
X130685476Y-147785000D01*
X130590238Y-147737380D01*
X130352142Y-147737380D01*
X130209285Y-147785000D01*
X132471190Y-150339761D02*
X132328333Y-150387380D01*
X132090238Y-150387380D01*
X131995000Y-150339761D01*
X131947380Y-150292142D01*
X131899761Y-150196904D01*
X131899761Y-150101666D01*
X131947380Y-150006428D01*
X131995000Y-149958809D01*
X132090238Y-149911190D01*
X132280714Y-149863571D01*
X132375952Y-149815952D01*
X132423571Y-149768333D01*
X132471190Y-149673095D01*
X132471190Y-149577857D01*
X132423571Y-149482619D01*
X132375952Y-149435000D01*
X132280714Y-149387380D01*
X132042619Y-149387380D01*
X131899761Y-149435000D01*
X131090238Y-150339761D02*
X131185476Y-150387380D01*
X131375952Y-150387380D01*
X131471190Y-150339761D01*
X131518809Y-150244523D01*
X131518809Y-149863571D01*
X131471190Y-149768333D01*
X131375952Y-149720714D01*
X131185476Y-149720714D01*
X131090238Y-149768333D01*
X131042619Y-149863571D01*
X131042619Y-149958809D01*
X131518809Y-150054047D01*
X130471190Y-150387380D02*
X130566428Y-150339761D01*
X130614047Y-150244523D01*
X130614047Y-149387380D01*
X127311904Y-143847380D02*
X127311904Y-142847380D01*
X126930952Y-142847380D01*
X126835714Y-142895000D01*
X126788095Y-142942619D01*
X126740476Y-143037857D01*
X126740476Y-143180714D01*
X126788095Y-143275952D01*
X126835714Y-143323571D01*
X126930952Y-143371190D01*
X127311904Y-143371190D01*
D12*
X138974285Y-127062857D02*
X138974285Y-125862857D01*
X138688571Y-125862857D01*
X138517142Y-125920000D01*
X138402857Y-126034285D01*
X138345714Y-126148571D01*
X138288571Y-126377142D01*
X138288571Y-126548571D01*
X138345714Y-126777142D01*
X138402857Y-126891428D01*
X138517142Y-127005714D01*
X138688571Y-127062857D01*
X138974285Y-127062857D01*
X137774285Y-127062857D02*
X137774285Y-126262857D01*
X137774285Y-125862857D02*
X137831428Y-125920000D01*
X137774285Y-125977142D01*
X137717142Y-125920000D01*
X137774285Y-125862857D01*
X137774285Y-125977142D01*
X136688571Y-126262857D02*
X136688571Y-127234285D01*
X136745714Y-127348571D01*
X136802857Y-127405714D01*
X136917142Y-127462857D01*
X137088571Y-127462857D01*
X137202857Y-127405714D01*
X136688571Y-127005714D02*
X136802857Y-127062857D01*
X137031428Y-127062857D01*
X137145714Y-127005714D01*
X137202857Y-126948571D01*
X137260000Y-126834285D01*
X137260000Y-126491428D01*
X137202857Y-126377142D01*
X137145714Y-126320000D01*
X137031428Y-126262857D01*
X136802857Y-126262857D01*
X136688571Y-126320000D01*
X136117142Y-127062857D02*
X136117142Y-126262857D01*
X136117142Y-125862857D02*
X136174285Y-125920000D01*
X136117142Y-125977142D01*
X136060000Y-125920000D01*
X136117142Y-125862857D01*
X136117142Y-125977142D01*
X135717142Y-126262857D02*
X135260000Y-126262857D01*
X135545714Y-125862857D02*
X135545714Y-126891428D01*
X135488571Y-127005714D01*
X135374285Y-127062857D01*
X135260000Y-127062857D01*
X134345714Y-127062857D02*
X134345714Y-126434285D01*
X134402857Y-126320000D01*
X134517142Y-126262857D01*
X134745714Y-126262857D01*
X134860000Y-126320000D01*
X134345714Y-127005714D02*
X134460000Y-127062857D01*
X134745714Y-127062857D01*
X134860000Y-127005714D01*
X134917142Y-126891428D01*
X134917142Y-126777142D01*
X134860000Y-126662857D01*
X134745714Y-126605714D01*
X134460000Y-126605714D01*
X134345714Y-126548571D01*
X133602857Y-127062857D02*
X133717142Y-127005714D01*
X133774285Y-126891428D01*
X133774285Y-125862857D01*
X132002857Y-125862857D02*
X131774285Y-125862857D01*
X131660000Y-125920000D01*
X131545714Y-126034285D01*
X131488571Y-126262857D01*
X131488571Y-126662857D01*
X131545714Y-126891428D01*
X131660000Y-127005714D01*
X131774285Y-127062857D01*
X132002857Y-127062857D01*
X132117142Y-127005714D01*
X132231428Y-126891428D01*
X132288571Y-126662857D01*
X132288571Y-126262857D01*
X132231428Y-126034285D01*
X132117142Y-125920000D01*
X132002857Y-125862857D01*
X130460000Y-126262857D02*
X130460000Y-127062857D01*
X130974285Y-126262857D02*
X130974285Y-126891428D01*
X130917142Y-127005714D01*
X130802857Y-127062857D01*
X130631428Y-127062857D01*
X130517142Y-127005714D01*
X130460000Y-126948571D01*
X130060000Y-126262857D02*
X129602857Y-126262857D01*
X129888571Y-125862857D02*
X129888571Y-126891428D01*
X129831428Y-127005714D01*
X129717142Y-127062857D01*
X129602857Y-127062857D01*
X129202857Y-126262857D02*
X129202857Y-127462857D01*
X129202857Y-126320000D02*
X129088571Y-126262857D01*
X128860000Y-126262857D01*
X128745714Y-126320000D01*
X128688571Y-126377142D01*
X128631428Y-126491428D01*
X128631428Y-126834285D01*
X128688571Y-126948571D01*
X128745714Y-127005714D01*
X128860000Y-127062857D01*
X129088571Y-127062857D01*
X129202857Y-127005714D01*
X127602857Y-126262857D02*
X127602857Y-127062857D01*
X128117142Y-126262857D02*
X128117142Y-126891428D01*
X128060000Y-127005714D01*
X127945714Y-127062857D01*
X127774285Y-127062857D01*
X127660000Y-127005714D01*
X127602857Y-126948571D01*
X127202857Y-126262857D02*
X126745714Y-126262857D01*
X127031428Y-125862857D02*
X127031428Y-126891428D01*
X126974285Y-127005714D01*
X126860000Y-127062857D01*
X126745714Y-127062857D01*
X124917142Y-126262857D02*
X124917142Y-127062857D01*
X125202857Y-125805714D02*
X125488571Y-126662857D01*
X124745714Y-126662857D01*
X123774285Y-127005714D02*
X123888571Y-127062857D01*
X124117142Y-127062857D01*
X124231428Y-127005714D01*
X124288571Y-126948571D01*
X124345714Y-126834285D01*
X124345714Y-126491428D01*
X124288571Y-126377142D01*
X124231428Y-126320000D01*
X124117142Y-126262857D01*
X123888571Y-126262857D01*
X123774285Y-126320000D01*
X123260000Y-127062857D02*
X123260000Y-125862857D01*
X122745714Y-127062857D02*
X122745714Y-126434285D01*
X122802857Y-126320000D01*
X122917142Y-126262857D01*
X123088571Y-126262857D01*
X123202857Y-126320000D01*
X123260000Y-126377142D01*
X135345714Y-128262857D02*
X134888571Y-128262857D01*
X135174285Y-129062857D02*
X135174285Y-128034285D01*
X135117142Y-127920000D01*
X135002857Y-127862857D01*
X134888571Y-127862857D01*
X134317142Y-129062857D02*
X134431428Y-129005714D01*
X134488571Y-128948571D01*
X134545714Y-128834285D01*
X134545714Y-128491428D01*
X134488571Y-128377142D01*
X134431428Y-128320000D01*
X134317142Y-128262857D01*
X134145714Y-128262857D01*
X134031428Y-128320000D01*
X133974285Y-128377142D01*
X133917142Y-128491428D01*
X133917142Y-128834285D01*
X133974285Y-128948571D01*
X134031428Y-129005714D01*
X134145714Y-129062857D01*
X134317142Y-129062857D01*
X133402857Y-129062857D02*
X133402857Y-128262857D01*
X133402857Y-128491428D02*
X133345714Y-128377142D01*
X133288571Y-128320000D01*
X133174285Y-128262857D01*
X133060000Y-128262857D01*
X131117142Y-127920000D02*
X131231428Y-127862857D01*
X131402857Y-127862857D01*
X131574285Y-127920000D01*
X131688571Y-128034285D01*
X131745714Y-128148571D01*
X131802857Y-128377142D01*
X131802857Y-128548571D01*
X131745714Y-128777142D01*
X131688571Y-128891428D01*
X131574285Y-129005714D01*
X131402857Y-129062857D01*
X131288571Y-129062857D01*
X131117142Y-129005714D01*
X131060000Y-128948571D01*
X131060000Y-128548571D01*
X131288571Y-128548571D01*
X129860000Y-129062857D02*
X130260000Y-128491428D01*
X130545714Y-129062857D02*
X130545714Y-127862857D01*
X130088571Y-127862857D01*
X129974285Y-127920000D01*
X129917142Y-127977142D01*
X129860000Y-128091428D01*
X129860000Y-128262857D01*
X129917142Y-128377142D01*
X129974285Y-128434285D01*
X130088571Y-128491428D01*
X130545714Y-128491428D01*
X129117142Y-127862857D02*
X128888571Y-127862857D01*
X128774285Y-127920000D01*
X128660000Y-128034285D01*
X128602857Y-128262857D01*
X128602857Y-128662857D01*
X128660000Y-128891428D01*
X128774285Y-129005714D01*
X128888571Y-129062857D01*
X129117142Y-129062857D01*
X129231428Y-129005714D01*
X129345714Y-128891428D01*
X129402857Y-128662857D01*
X129402857Y-128262857D01*
X129345714Y-128034285D01*
X129231428Y-127920000D01*
X129117142Y-127862857D01*
X128260000Y-127862857D02*
X127860000Y-129062857D01*
X127460000Y-127862857D01*
X127060000Y-128434285D02*
X126660000Y-128434285D01*
X126488571Y-129062857D02*
X127060000Y-129062857D01*
X127060000Y-127862857D01*
X126488571Y-127862857D01*
X91378571Y-133142857D02*
X91778571Y-132571428D01*
X92064285Y-133142857D02*
X92064285Y-131942857D01*
X91607142Y-131942857D01*
X91492857Y-132000000D01*
X91435714Y-132057142D01*
X91378571Y-132171428D01*
X91378571Y-132342857D01*
X91435714Y-132457142D01*
X91492857Y-132514285D01*
X91607142Y-132571428D01*
X92064285Y-132571428D01*
X90407142Y-133085714D02*
X90521428Y-133142857D01*
X90750000Y-133142857D01*
X90864285Y-133085714D01*
X90921428Y-132971428D01*
X90921428Y-132514285D01*
X90864285Y-132400000D01*
X90750000Y-132342857D01*
X90521428Y-132342857D01*
X90407142Y-132400000D01*
X90350000Y-132514285D01*
X90350000Y-132628571D01*
X90921428Y-132742857D01*
X89950000Y-132342857D02*
X89664285Y-133142857D01*
X89378571Y-132342857D01*
X88921428Y-133028571D02*
X88864285Y-133085714D01*
X88921428Y-133142857D01*
X88978571Y-133085714D01*
X88921428Y-133028571D01*
X88921428Y-133142857D01*
X88407142Y-132057142D02*
X88350000Y-132000000D01*
X88235714Y-131942857D01*
X87950000Y-131942857D01*
X87835714Y-132000000D01*
X87778571Y-132057142D01*
X87721428Y-132171428D01*
X87721428Y-132285714D01*
X87778571Y-132457142D01*
X88464285Y-133142857D01*
X87721428Y-133142857D01*
X86350000Y-132057142D02*
X86292857Y-132000000D01*
X86178571Y-131942857D01*
X85892857Y-131942857D01*
X85778571Y-132000000D01*
X85721428Y-132057142D01*
X85664285Y-132171428D01*
X85664285Y-132285714D01*
X85721428Y-132457142D01*
X86407142Y-133142857D01*
X85664285Y-133142857D01*
X84921428Y-131942857D02*
X84807142Y-131942857D01*
X84692857Y-132000000D01*
X84635714Y-132057142D01*
X84578571Y-132171428D01*
X84521428Y-132400000D01*
X84521428Y-132685714D01*
X84578571Y-132914285D01*
X84635714Y-133028571D01*
X84692857Y-133085714D01*
X84807142Y-133142857D01*
X84921428Y-133142857D01*
X85035714Y-133085714D01*
X85092857Y-133028571D01*
X85150000Y-132914285D01*
X85207142Y-132685714D01*
X85207142Y-132400000D01*
X85150000Y-132171428D01*
X85092857Y-132057142D01*
X85035714Y-132000000D01*
X84921428Y-131942857D01*
X84064285Y-132057142D02*
X84007142Y-132000000D01*
X83892857Y-131942857D01*
X83607142Y-131942857D01*
X83492857Y-132000000D01*
X83435714Y-132057142D01*
X83378571Y-132171428D01*
X83378571Y-132285714D01*
X83435714Y-132457142D01*
X84121428Y-133142857D01*
X83378571Y-133142857D01*
X82635714Y-131942857D02*
X82521428Y-131942857D01*
X82407142Y-132000000D01*
X82350000Y-132057142D01*
X82292857Y-132171428D01*
X82235714Y-132400000D01*
X82235714Y-132685714D01*
X82292857Y-132914285D01*
X82350000Y-133028571D01*
X82407142Y-133085714D01*
X82521428Y-133142857D01*
X82635714Y-133142857D01*
X82750000Y-133085714D01*
X82807142Y-133028571D01*
X82864285Y-132914285D01*
X82921428Y-132685714D01*
X82921428Y-132400000D01*
X82864285Y-132171428D01*
X82807142Y-132057142D01*
X82750000Y-132000000D01*
X82635714Y-131942857D01*
X81721428Y-133028571D02*
X81664285Y-133085714D01*
X81721428Y-133142857D01*
X81778571Y-133085714D01*
X81721428Y-133028571D01*
X81721428Y-133142857D01*
X80521428Y-133142857D02*
X81207142Y-133142857D01*
X80864285Y-133142857D02*
X80864285Y-131942857D01*
X80978571Y-132114285D01*
X81092857Y-132228571D01*
X81207142Y-132285714D01*
X79378571Y-133142857D02*
X80064285Y-133142857D01*
X79721428Y-133142857D02*
X79721428Y-131942857D01*
X79835714Y-132114285D01*
X79950000Y-132228571D01*
X80064285Y-132285714D01*
D11*
X86780714Y-148689761D02*
X86637857Y-148737380D01*
X86399761Y-148737380D01*
X86304523Y-148689761D01*
X86256904Y-148642142D01*
X86209285Y-148546904D01*
X86209285Y-148451666D01*
X86256904Y-148356428D01*
X86304523Y-148308809D01*
X86399761Y-148261190D01*
X86590238Y-148213571D01*
X86685476Y-148165952D01*
X86733095Y-148118333D01*
X86780714Y-148023095D01*
X86780714Y-147927857D01*
X86733095Y-147832619D01*
X86685476Y-147785000D01*
X86590238Y-147737380D01*
X86352142Y-147737380D01*
X86209285Y-147785000D01*
X85066428Y-147689761D02*
X85923571Y-148975476D01*
X84780714Y-148689761D02*
X84637857Y-148737380D01*
X84399761Y-148737380D01*
X84304523Y-148689761D01*
X84256904Y-148642142D01*
X84209285Y-148546904D01*
X84209285Y-148451666D01*
X84256904Y-148356428D01*
X84304523Y-148308809D01*
X84399761Y-148261190D01*
X84590238Y-148213571D01*
X84685476Y-148165952D01*
X84733095Y-148118333D01*
X84780714Y-148023095D01*
X84780714Y-147927857D01*
X84733095Y-147832619D01*
X84685476Y-147785000D01*
X84590238Y-147737380D01*
X84352142Y-147737380D01*
X84209285Y-147785000D01*
X86471190Y-150339761D02*
X86328333Y-150387380D01*
X86090238Y-150387380D01*
X85995000Y-150339761D01*
X85947380Y-150292142D01*
X85899761Y-150196904D01*
X85899761Y-150101666D01*
X85947380Y-150006428D01*
X85995000Y-149958809D01*
X86090238Y-149911190D01*
X86280714Y-149863571D01*
X86375952Y-149815952D01*
X86423571Y-149768333D01*
X86471190Y-149673095D01*
X86471190Y-149577857D01*
X86423571Y-149482619D01*
X86375952Y-149435000D01*
X86280714Y-149387380D01*
X86042619Y-149387380D01*
X85899761Y-149435000D01*
X85090238Y-150339761D02*
X85185476Y-150387380D01*
X85375952Y-150387380D01*
X85471190Y-150339761D01*
X85518809Y-150244523D01*
X85518809Y-149863571D01*
X85471190Y-149768333D01*
X85375952Y-149720714D01*
X85185476Y-149720714D01*
X85090238Y-149768333D01*
X85042619Y-149863571D01*
X85042619Y-149958809D01*
X85518809Y-150054047D01*
X84471190Y-150387380D02*
X84566428Y-150339761D01*
X84614047Y-150244523D01*
X84614047Y-149387380D01*
X81311904Y-143847380D02*
X81311904Y-142847380D01*
X80930952Y-142847380D01*
X80835714Y-142895000D01*
X80788095Y-142942619D01*
X80740476Y-143037857D01*
X80740476Y-143180714D01*
X80788095Y-143275952D01*
X80835714Y-143323571D01*
X80930952Y-143371190D01*
X81311904Y-143371190D01*
X78795714Y-143847380D02*
X78795714Y-142847380D01*
X78224285Y-143847380D01*
X78224285Y-142847380D01*
X81311904Y-151467380D02*
X81311904Y-150467380D01*
X80930952Y-150467380D01*
X80835714Y-150515000D01*
X80788095Y-150562619D01*
X80740476Y-150657857D01*
X80740476Y-150800714D01*
X80788095Y-150895952D01*
X80835714Y-150943571D01*
X80930952Y-150991190D01*
X81311904Y-150991190D01*
D12*
X92974285Y-127062857D02*
X92974285Y-125862857D01*
X92688571Y-125862857D01*
X92517142Y-125920000D01*
X92402857Y-126034285D01*
X92345714Y-126148571D01*
X92288571Y-126377142D01*
X92288571Y-126548571D01*
X92345714Y-126777142D01*
X92402857Y-126891428D01*
X92517142Y-127005714D01*
X92688571Y-127062857D01*
X92974285Y-127062857D01*
X91774285Y-127062857D02*
X91774285Y-126262857D01*
X91774285Y-125862857D02*
X91831428Y-125920000D01*
X91774285Y-125977142D01*
X91717142Y-125920000D01*
X91774285Y-125862857D01*
X91774285Y-125977142D01*
X90688571Y-126262857D02*
X90688571Y-127234285D01*
X90745714Y-127348571D01*
X90802857Y-127405714D01*
X90917142Y-127462857D01*
X91088571Y-127462857D01*
X91202857Y-127405714D01*
X90688571Y-127005714D02*
X90802857Y-127062857D01*
X91031428Y-127062857D01*
X91145714Y-127005714D01*
X91202857Y-126948571D01*
X91260000Y-126834285D01*
X91260000Y-126491428D01*
X91202857Y-126377142D01*
X91145714Y-126320000D01*
X91031428Y-126262857D01*
X90802857Y-126262857D01*
X90688571Y-126320000D01*
X90117142Y-127062857D02*
X90117142Y-126262857D01*
X90117142Y-125862857D02*
X90174285Y-125920000D01*
X90117142Y-125977142D01*
X90060000Y-125920000D01*
X90117142Y-125862857D01*
X90117142Y-125977142D01*
X89717142Y-126262857D02*
X89260000Y-126262857D01*
X89545714Y-125862857D02*
X89545714Y-126891428D01*
X89488571Y-127005714D01*
X89374285Y-127062857D01*
X89260000Y-127062857D01*
X88345714Y-127062857D02*
X88345714Y-126434285D01*
X88402857Y-126320000D01*
X88517142Y-126262857D01*
X88745714Y-126262857D01*
X88860000Y-126320000D01*
X88345714Y-127005714D02*
X88460000Y-127062857D01*
X88745714Y-127062857D01*
X88860000Y-127005714D01*
X88917142Y-126891428D01*
X88917142Y-126777142D01*
X88860000Y-126662857D01*
X88745714Y-126605714D01*
X88460000Y-126605714D01*
X88345714Y-126548571D01*
X87602857Y-127062857D02*
X87717142Y-127005714D01*
X87774285Y-126891428D01*
X87774285Y-125862857D01*
X86002857Y-125862857D02*
X85774285Y-125862857D01*
X85660000Y-125920000D01*
X85545714Y-126034285D01*
X85488571Y-126262857D01*
X85488571Y-126662857D01*
X85545714Y-126891428D01*
X85660000Y-127005714D01*
X85774285Y-127062857D01*
X86002857Y-127062857D01*
X86117142Y-127005714D01*
X86231428Y-126891428D01*
X86288571Y-126662857D01*
X86288571Y-126262857D01*
X86231428Y-126034285D01*
X86117142Y-125920000D01*
X86002857Y-125862857D01*
X84460000Y-126262857D02*
X84460000Y-127062857D01*
X84974285Y-126262857D02*
X84974285Y-126891428D01*
X84917142Y-127005714D01*
X84802857Y-127062857D01*
X84631428Y-127062857D01*
X84517142Y-127005714D01*
X84460000Y-126948571D01*
X84060000Y-126262857D02*
X83602857Y-126262857D01*
X83888571Y-125862857D02*
X83888571Y-126891428D01*
X83831428Y-127005714D01*
X83717142Y-127062857D01*
X83602857Y-127062857D01*
X83202857Y-126262857D02*
X83202857Y-127462857D01*
X83202857Y-126320000D02*
X83088571Y-126262857D01*
X82860000Y-126262857D01*
X82745714Y-126320000D01*
X82688571Y-126377142D01*
X82631428Y-126491428D01*
X82631428Y-126834285D01*
X82688571Y-126948571D01*
X82745714Y-127005714D01*
X82860000Y-127062857D01*
X83088571Y-127062857D01*
X83202857Y-127005714D01*
X81602857Y-126262857D02*
X81602857Y-127062857D01*
X82117142Y-126262857D02*
X82117142Y-126891428D01*
X82060000Y-127005714D01*
X81945714Y-127062857D01*
X81774285Y-127062857D01*
X81660000Y-127005714D01*
X81602857Y-126948571D01*
X81202857Y-126262857D02*
X80745714Y-126262857D01*
X81031428Y-125862857D02*
X81031428Y-126891428D01*
X80974285Y-127005714D01*
X80860000Y-127062857D01*
X80745714Y-127062857D01*
X78917142Y-126262857D02*
X78917142Y-127062857D01*
X79202857Y-125805714D02*
X79488571Y-126662857D01*
X78745714Y-126662857D01*
X77774285Y-127005714D02*
X77888571Y-127062857D01*
X78117142Y-127062857D01*
X78231428Y-127005714D01*
X78288571Y-126948571D01*
X78345714Y-126834285D01*
X78345714Y-126491428D01*
X78288571Y-126377142D01*
X78231428Y-126320000D01*
X78117142Y-126262857D01*
X77888571Y-126262857D01*
X77774285Y-126320000D01*
X77260000Y-127062857D02*
X77260000Y-125862857D01*
X76745714Y-127062857D02*
X76745714Y-126434285D01*
X76802857Y-126320000D01*
X76917142Y-126262857D01*
X77088571Y-126262857D01*
X77202857Y-126320000D01*
X77260000Y-126377142D01*
X89345714Y-128262857D02*
X88888571Y-128262857D01*
X89174285Y-129062857D02*
X89174285Y-128034285D01*
X89117142Y-127920000D01*
X89002857Y-127862857D01*
X88888571Y-127862857D01*
X88317142Y-129062857D02*
X88431428Y-129005714D01*
X88488571Y-128948571D01*
X88545714Y-128834285D01*
X88545714Y-128491428D01*
X88488571Y-128377142D01*
X88431428Y-128320000D01*
X88317142Y-128262857D01*
X88145714Y-128262857D01*
X88031428Y-128320000D01*
X87974285Y-128377142D01*
X87917142Y-128491428D01*
X87917142Y-128834285D01*
X87974285Y-128948571D01*
X88031428Y-129005714D01*
X88145714Y-129062857D01*
X88317142Y-129062857D01*
X87402857Y-129062857D02*
X87402857Y-128262857D01*
X87402857Y-128491428D02*
X87345714Y-128377142D01*
X87288571Y-128320000D01*
X87174285Y-128262857D01*
X87060000Y-128262857D01*
X85117142Y-127920000D02*
X85231428Y-127862857D01*
X85402857Y-127862857D01*
X85574285Y-127920000D01*
X85688571Y-128034285D01*
X85745714Y-128148571D01*
X85802857Y-128377142D01*
X85802857Y-128548571D01*
X85745714Y-128777142D01*
X85688571Y-128891428D01*
X85574285Y-129005714D01*
X85402857Y-129062857D01*
X85288571Y-129062857D01*
X85117142Y-129005714D01*
X85060000Y-128948571D01*
X85060000Y-128548571D01*
X85288571Y-128548571D01*
X83860000Y-129062857D02*
X84260000Y-128491428D01*
X84545714Y-129062857D02*
X84545714Y-127862857D01*
X84088571Y-127862857D01*
X83974285Y-127920000D01*
X83917142Y-127977142D01*
X83860000Y-128091428D01*
X83860000Y-128262857D01*
X83917142Y-128377142D01*
X83974285Y-128434285D01*
X84088571Y-128491428D01*
X84545714Y-128491428D01*
X83117142Y-127862857D02*
X82888571Y-127862857D01*
X82774285Y-127920000D01*
X82660000Y-128034285D01*
X82602857Y-128262857D01*
X82602857Y-128662857D01*
X82660000Y-128891428D01*
X82774285Y-129005714D01*
X82888571Y-129062857D01*
X83117142Y-129062857D01*
X83231428Y-129005714D01*
X83345714Y-128891428D01*
X83402857Y-128662857D01*
X83402857Y-128262857D01*
X83345714Y-128034285D01*
X83231428Y-127920000D01*
X83117142Y-127862857D01*
X82260000Y-127862857D02*
X81860000Y-129062857D01*
X81460000Y-127862857D01*
X81060000Y-128434285D02*
X80660000Y-128434285D01*
X80488571Y-129062857D02*
X81060000Y-129062857D01*
X81060000Y-127862857D01*
X80488571Y-127862857D01*
D11*
X78795714Y-151467380D02*
X78795714Y-150467380D01*
X78224285Y-151467380D01*
X78224285Y-150467380D01*
D10*
X82320000Y-144030000D02*
X83590000Y-144030000D01*
X83590000Y-144030000D02*
X83590000Y-155460000D01*
X83590000Y-155460000D02*
X82320000Y-155460000D01*
X105000000Y-91100000D02*
X105000000Y-165000000D01*
D11*
X104590476Y-86361904D02*
X102923809Y-91361904D01*
X101257142Y-86361904D01*
X96733333Y-90885714D02*
X96971428Y-91123809D01*
X97685714Y-91361904D01*
X98161904Y-91361904D01*
X98876190Y-91123809D01*
X99352380Y-90647619D01*
X99590476Y-90171428D01*
X99828571Y-89219047D01*
X99828571Y-88504761D01*
X99590476Y-87552380D01*
X99352380Y-87076190D01*
X98876190Y-86600000D01*
X98161904Y-86361904D01*
X97685714Y-86361904D01*
X96971428Y-86600000D01*
X96733333Y-86838095D01*
X94590476Y-86361904D02*
X94590476Y-90409523D01*
X94352380Y-90885714D01*
X94114285Y-91123809D01*
X93638095Y-91361904D01*
X92685714Y-91361904D01*
X92209523Y-91123809D01*
X91971428Y-90885714D01*
X91733333Y-90409523D01*
X91733333Y-86361904D01*
X90066666Y-86361904D02*
X87209523Y-86361904D01*
X88638095Y-91361904D02*
X88638095Y-86361904D01*
D10*
X142745276Y-140477500D02*
X143254724Y-140477500D01*
X142745276Y-141522500D02*
X143254724Y-141522500D01*
X142745276Y-116837500D02*
X143254724Y-116837500D01*
X142745276Y-117882500D02*
X143254724Y-117882500D01*
X117940000Y-124270000D02*
X116250000Y-124270000D01*
X117940000Y-125110000D02*
X117940000Y-124270000D01*
X120700000Y-125110000D02*
X117940000Y-125110000D01*
X123460000Y-125110000D02*
X123460000Y-124270000D01*
X120700000Y-125110000D02*
X123460000Y-125110000D01*
X117940000Y-114690000D02*
X117940000Y-115530000D01*
X120700000Y-114690000D02*
X117940000Y-114690000D01*
X123460000Y-114690000D02*
X123460000Y-115530000D01*
X120700000Y-114690000D02*
X123460000Y-114690000D01*
D13*
X135622360Y-110572180D02*
X135124520Y-110074340D01*
X139323140Y-107374320D02*
X139523800Y-107773100D01*
X135124520Y-107072060D02*
X135622360Y-106574220D01*
X136724720Y-108971980D02*
X136524060Y-109373300D01*
X138723700Y-108273480D02*
X138723700Y-108672260D01*
X134624140Y-108174420D02*
X134822260Y-107572440D01*
X137522280Y-107773100D02*
X137623880Y-107674040D01*
X138423980Y-109472360D02*
X138124260Y-109573960D01*
X137722940Y-109573960D02*
X137522280Y-109373300D01*
X136823780Y-111072560D02*
X136224340Y-110874440D01*
X136122740Y-106271960D02*
X136524060Y-106172900D01*
X136524060Y-106172900D02*
X137123500Y-106073840D01*
X136422460Y-107674040D02*
X136623120Y-108072820D01*
X136224340Y-110874440D02*
X135622360Y-110572180D01*
X135622360Y-107674040D02*
X135823020Y-107572440D01*
X135823020Y-107572440D02*
X136122740Y-107572440D01*
X139622860Y-108872920D02*
X139424740Y-109673020D01*
X134624140Y-108773860D02*
X134624140Y-108174420D01*
X135924620Y-109573960D02*
X135622360Y-109573960D01*
X136122740Y-109573960D02*
X135924620Y-109573960D01*
X138822760Y-110374060D02*
X138322380Y-110772840D01*
X137623880Y-107674040D02*
X137923600Y-107572440D01*
X137222560Y-106073840D02*
X137824540Y-106172900D01*
X135523300Y-107773100D02*
X135622360Y-107674040D01*
X138322380Y-110772840D02*
X137623880Y-111072560D01*
X137623880Y-111072560D02*
X136823780Y-111072560D01*
X136524060Y-109373300D02*
X136122740Y-109573960D01*
X139622860Y-108273480D02*
X139622860Y-108872920D01*
X138624640Y-109172640D02*
X138423980Y-109472360D01*
X138322380Y-106373560D02*
X138822760Y-106772340D01*
X135124520Y-110074340D02*
X134723200Y-109373300D01*
X138322380Y-107674040D02*
X138624640Y-107872160D01*
X137824540Y-106172900D02*
X138322380Y-106373560D01*
X137923600Y-107572440D02*
X138322380Y-107674040D01*
X139523800Y-107773100D02*
X139622860Y-108273480D01*
X135622360Y-109573960D02*
X135523300Y-109373300D01*
X138723700Y-108672260D02*
X138624640Y-109172640D01*
X134723200Y-109373300D02*
X134624140Y-108773860D01*
X134822260Y-107572440D02*
X135124520Y-107072060D01*
X138822760Y-106772340D02*
X139323140Y-107374320D01*
X138124260Y-109573960D02*
X137722940Y-109573960D01*
X137123500Y-106073840D02*
X137222560Y-106073840D01*
X135622360Y-106574220D02*
X136122740Y-106271960D01*
X139424740Y-109673020D02*
X138822760Y-110374060D01*
X136623120Y-108072820D02*
X136724720Y-108573200D01*
X136724720Y-108573200D02*
X136724720Y-108971980D01*
X136122740Y-107572440D02*
X136422460Y-107674040D01*
X138624640Y-107872160D02*
X138723700Y-108273480D01*
X126026380Y-107070460D02*
X126526760Y-107271120D01*
X127225260Y-106770740D02*
X127725640Y-107372720D01*
X123925800Y-108970380D02*
X123925800Y-108571600D01*
X124225520Y-109470760D02*
X123925800Y-108970380D01*
X123925800Y-108571600D02*
X124024860Y-108071220D01*
X124024860Y-108071220D02*
X124327120Y-107570840D01*
X124327120Y-107570840D02*
X124626840Y-107271120D01*
X124626840Y-107271120D02*
X125226280Y-106971400D01*
X124626840Y-109872080D02*
X124225520Y-109470760D01*
X125226280Y-106971400D02*
X125625060Y-106971400D01*
X125526000Y-106072240D02*
X125625060Y-106072240D01*
X125127220Y-110072740D02*
X124626840Y-109872080D01*
X126724880Y-106371960D02*
X127225260Y-106770740D01*
X125625060Y-110171800D02*
X125127220Y-110072740D01*
X125625060Y-106971400D02*
X126026380Y-107070460D01*
X126227040Y-106171300D02*
X126724880Y-106371960D01*
X127725640Y-107372720D02*
X127926300Y-107771500D01*
X125625060Y-106072240D02*
X126227040Y-106171300D01*
X127926300Y-107771500D02*
X128025360Y-108271880D01*
X128025360Y-108271880D02*
X128025360Y-108871320D01*
X126625820Y-109770480D02*
X126125440Y-110072740D01*
X126125440Y-110072740D02*
X125625060Y-110171800D01*
X128025360Y-108871320D02*
X127827240Y-109671420D01*
X127827240Y-109671420D02*
X127225260Y-110372460D01*
X127225260Y-110372460D02*
X126724880Y-110771240D01*
X123026640Y-108172820D02*
X123224760Y-107570840D01*
X125226280Y-111070960D02*
X124626840Y-110872840D01*
X124024860Y-110570580D02*
X123527020Y-110072740D01*
X124024860Y-106572620D02*
X124525240Y-106270360D01*
X123527020Y-107070460D02*
X124024860Y-106572620D01*
X123026640Y-108772260D02*
X123026640Y-108172820D01*
X124926560Y-106171300D02*
X125526000Y-106072240D01*
X126026380Y-111070960D02*
X125226280Y-111070960D01*
X123224760Y-107570840D02*
X123527020Y-107070460D01*
X124525240Y-106270360D02*
X124926560Y-106171300D01*
X126724880Y-110771240D02*
X126026380Y-111070960D01*
X123125700Y-109371700D02*
X123026640Y-108772260D01*
X124626840Y-110872840D02*
X124024860Y-110570580D01*
X123527020Y-110072740D02*
X123125700Y-109371700D01*
X129668740Y-110390240D02*
X130169120Y-110789020D01*
X130567900Y-107588620D02*
X132069040Y-107588620D01*
X132069040Y-107588620D02*
X132069040Y-108790040D01*
X131683666Y-106890120D02*
G75*
G03*
X131683666Y-106890120I-315666J0D01*
G01*
X131667720Y-111088740D02*
X132267160Y-110890620D01*
X131268940Y-106090020D02*
X130666960Y-106189080D01*
X131068280Y-110390240D02*
X131568660Y-110390240D01*
X131068280Y-108889100D02*
X131068280Y-110390240D01*
X128967700Y-107789280D02*
X128868640Y-108289660D01*
X129066760Y-109689200D02*
X129668740Y-110390240D01*
X133366980Y-110090520D02*
X133768300Y-109389480D01*
X131667720Y-110390240D02*
X131667720Y-108790040D01*
X128868640Y-108889100D02*
X129066760Y-109689200D01*
X130867620Y-111088740D02*
X131667720Y-111088740D01*
X133867360Y-108790040D02*
X133867360Y-108190600D01*
X132869140Y-106590400D02*
X132368760Y-106288140D01*
X130666960Y-106189080D02*
X130169120Y-106389740D01*
X132368760Y-106288140D02*
X131967440Y-106189080D01*
X131967440Y-106189080D02*
X131368000Y-106090020D01*
X129668740Y-106788520D02*
X129168360Y-107390500D01*
X131368000Y-108889100D02*
X131368000Y-110189580D01*
X131868380Y-108190600D02*
X130666960Y-108190600D01*
X130666960Y-107888340D02*
X131967440Y-107888340D01*
X131467060Y-110390240D02*
X131667720Y-110390240D01*
X132069040Y-108790040D02*
X130567900Y-108790040D01*
X130567900Y-108790040D02*
X130567900Y-107588620D01*
X129168360Y-107390500D02*
X128967700Y-107789280D01*
X132869140Y-110588360D02*
X133366980Y-110090520D01*
X133867360Y-108190600D02*
X133669240Y-107588620D01*
X133669240Y-107588620D02*
X133366980Y-107088240D01*
X130567900Y-108490320D02*
X131868380Y-108490320D01*
X132267160Y-110890620D02*
X132869140Y-110588360D01*
X131368000Y-106090020D02*
X131268940Y-106090020D01*
X133768300Y-109389480D02*
X133867360Y-108790040D01*
X130169120Y-110789020D02*
X130867620Y-111088740D01*
X133366980Y-107088240D02*
X132869140Y-106590400D01*
X130169120Y-106389740D02*
X129668740Y-106788520D01*
X128868640Y-108289660D02*
X128868640Y-108889100D01*
X131368000Y-106689460D02*
X131368000Y-107088240D01*
D10*
X123730000Y-146300000D02*
X127830000Y-146300000D01*
X127830000Y-146300000D02*
X127830000Y-144300000D01*
X127830000Y-144300000D02*
X123730000Y-144300000D01*
X123730000Y-144300000D02*
X123730000Y-146300000D01*
X123730000Y-153920000D02*
X127830000Y-153920000D01*
X127830000Y-153920000D02*
X127830000Y-151920000D01*
X127830000Y-151920000D02*
X123730000Y-151920000D01*
X123730000Y-151920000D02*
X123730000Y-153920000D01*
X142745276Y-151477500D02*
X143254724Y-151477500D01*
X142745276Y-152522500D02*
X143254724Y-152522500D01*
X142745276Y-134477500D02*
X143254724Y-134477500D01*
X142745276Y-135522500D02*
X143254724Y-135522500D01*
X142745276Y-111757500D02*
X143254724Y-111757500D01*
X142745276Y-112802500D02*
X143254724Y-112802500D01*
X96745276Y-117882500D02*
X97254724Y-117882500D01*
X96745276Y-116837500D02*
X97254724Y-116837500D01*
X74700000Y-114690000D02*
X77460000Y-114690000D01*
X77460000Y-114690000D02*
X77460000Y-115530000D01*
X74700000Y-114690000D02*
X71940000Y-114690000D01*
X71940000Y-114690000D02*
X71940000Y-115530000D01*
X74700000Y-125110000D02*
X77460000Y-125110000D01*
X77460000Y-125110000D02*
X77460000Y-124270000D01*
X74700000Y-125110000D02*
X71940000Y-125110000D01*
X71940000Y-125110000D02*
X71940000Y-124270000D01*
X71940000Y-124270000D02*
X70250000Y-124270000D01*
X96745276Y-141522500D02*
X97254724Y-141522500D01*
X96745276Y-140477500D02*
X97254724Y-140477500D01*
X96745276Y-152522500D02*
X97254724Y-152522500D01*
X96745276Y-151477500D02*
X97254724Y-151477500D01*
X96745276Y-135522500D02*
X97254724Y-135522500D01*
X96745276Y-134477500D02*
X97254724Y-134477500D01*
X96745276Y-112802500D02*
X97254724Y-112802500D01*
X96745276Y-111757500D02*
X97254724Y-111757500D01*
X77730000Y-144300000D02*
X77730000Y-146300000D01*
X81830000Y-144300000D02*
X77730000Y-144300000D01*
X81830000Y-146300000D02*
X81830000Y-144300000D01*
X77730000Y-146300000D02*
X81830000Y-146300000D01*
X77730000Y-151920000D02*
X77730000Y-153920000D01*
X81830000Y-151920000D02*
X77730000Y-151920000D01*
X81830000Y-153920000D02*
X81830000Y-151920000D01*
X77730000Y-153920000D02*
X81830000Y-153920000D01*
D13*
X85368000Y-106689460D02*
X85368000Y-107088240D01*
X82868640Y-108289660D02*
X82868640Y-108889100D01*
X84169120Y-106389740D02*
X83668740Y-106788520D01*
X87366980Y-107088240D02*
X86869140Y-106590400D01*
X84169120Y-110789020D02*
X84867620Y-111088740D01*
X87768300Y-109389480D02*
X87867360Y-108790040D01*
X85368000Y-106090020D02*
X85268940Y-106090020D01*
X86267160Y-110890620D02*
X86869140Y-110588360D01*
X84567900Y-108490320D02*
X85868380Y-108490320D01*
X87669240Y-107588620D02*
X87366980Y-107088240D01*
X87867360Y-108190600D02*
X87669240Y-107588620D01*
X86869140Y-110588360D02*
X87366980Y-110090520D01*
X83168360Y-107390500D02*
X82967700Y-107789280D01*
X84567900Y-108790040D02*
X84567900Y-107588620D01*
X86069040Y-108790040D02*
X84567900Y-108790040D01*
X85467060Y-110390240D02*
X85667720Y-110390240D01*
X84666960Y-107888340D02*
X85967440Y-107888340D01*
X85868380Y-108190600D02*
X84666960Y-108190600D01*
X85368000Y-108889100D02*
X85368000Y-110189580D01*
X83668740Y-106788520D02*
X83168360Y-107390500D01*
X85967440Y-106189080D02*
X85368000Y-106090020D01*
X86368760Y-106288140D02*
X85967440Y-106189080D01*
X84666960Y-106189080D02*
X84169120Y-106389740D01*
X86869140Y-106590400D02*
X86368760Y-106288140D01*
X87867360Y-108790040D02*
X87867360Y-108190600D01*
X84867620Y-111088740D02*
X85667720Y-111088740D01*
X82868640Y-108889100D02*
X83066760Y-109689200D01*
X85667720Y-110390240D02*
X85667720Y-108790040D01*
X87366980Y-110090520D02*
X87768300Y-109389480D01*
X83066760Y-109689200D02*
X83668740Y-110390240D01*
X82967700Y-107789280D02*
X82868640Y-108289660D01*
X85068280Y-108889100D02*
X85068280Y-110390240D01*
X85068280Y-110390240D02*
X85568660Y-110390240D01*
X85268940Y-106090020D02*
X84666960Y-106189080D01*
X85667720Y-111088740D02*
X86267160Y-110890620D01*
X85683666Y-106890120D02*
G75*
G03*
X85683666Y-106890120I-315666J0D01*
G01*
X86069040Y-107588620D02*
X86069040Y-108790040D01*
X84567900Y-107588620D02*
X86069040Y-107588620D01*
X83668740Y-110390240D02*
X84169120Y-110789020D01*
X77527020Y-110072740D02*
X77125700Y-109371700D01*
X78626840Y-110872840D02*
X78024860Y-110570580D01*
X77125700Y-109371700D02*
X77026640Y-108772260D01*
X80724880Y-110771240D02*
X80026380Y-111070960D01*
X78525240Y-106270360D02*
X78926560Y-106171300D01*
X77224760Y-107570840D02*
X77527020Y-107070460D01*
X80026380Y-111070960D02*
X79226280Y-111070960D01*
X78926560Y-106171300D02*
X79526000Y-106072240D01*
X77026640Y-108772260D02*
X77026640Y-108172820D01*
X77527020Y-107070460D02*
X78024860Y-106572620D01*
X78024860Y-106572620D02*
X78525240Y-106270360D01*
X78024860Y-110570580D02*
X77527020Y-110072740D01*
X79226280Y-111070960D02*
X78626840Y-110872840D01*
X77026640Y-108172820D02*
X77224760Y-107570840D01*
X81225260Y-110372460D02*
X80724880Y-110771240D01*
X81827240Y-109671420D02*
X81225260Y-110372460D01*
X82025360Y-108871320D02*
X81827240Y-109671420D01*
X80125440Y-110072740D02*
X79625060Y-110171800D01*
X80625820Y-109770480D02*
X80125440Y-110072740D01*
X82025360Y-108271880D02*
X82025360Y-108871320D01*
X81926300Y-107771500D02*
X82025360Y-108271880D01*
X79625060Y-106072240D02*
X80227040Y-106171300D01*
X81725640Y-107372720D02*
X81926300Y-107771500D01*
X80227040Y-106171300D02*
X80724880Y-106371960D01*
X79625060Y-106971400D02*
X80026380Y-107070460D01*
X79625060Y-110171800D02*
X79127220Y-110072740D01*
X80724880Y-106371960D02*
X81225260Y-106770740D01*
X79127220Y-110072740D02*
X78626840Y-109872080D01*
X79526000Y-106072240D02*
X79625060Y-106072240D01*
X79226280Y-106971400D02*
X79625060Y-106971400D01*
X78626840Y-109872080D02*
X78225520Y-109470760D01*
X78626840Y-107271120D02*
X79226280Y-106971400D01*
X78327120Y-107570840D02*
X78626840Y-107271120D01*
X78024860Y-108071220D02*
X78327120Y-107570840D01*
X77925800Y-108571600D02*
X78024860Y-108071220D01*
X78225520Y-109470760D02*
X77925800Y-108970380D01*
X77925800Y-108970380D02*
X77925800Y-108571600D01*
X81225260Y-106770740D02*
X81725640Y-107372720D01*
X80026380Y-107070460D02*
X80526760Y-107271120D01*
X92624640Y-107872160D02*
X92723700Y-108273480D01*
X90122740Y-107572440D02*
X90422460Y-107674040D01*
X90724720Y-108573200D02*
X90724720Y-108971980D01*
X90623120Y-108072820D02*
X90724720Y-108573200D01*
X93424740Y-109673020D02*
X92822760Y-110374060D01*
X89622360Y-106574220D02*
X90122740Y-106271960D01*
X91123500Y-106073840D02*
X91222560Y-106073840D01*
X92124260Y-109573960D02*
X91722940Y-109573960D01*
X92822760Y-106772340D02*
X93323140Y-107374320D01*
X88822260Y-107572440D02*
X89124520Y-107072060D01*
X88723200Y-109373300D02*
X88624140Y-108773860D01*
X92723700Y-108672260D02*
X92624640Y-109172640D01*
X89622360Y-109573960D02*
X89523300Y-109373300D01*
X93523800Y-107773100D02*
X93622860Y-108273480D01*
X91923600Y-107572440D02*
X92322380Y-107674040D01*
X91824540Y-106172900D02*
X92322380Y-106373560D01*
X92322380Y-107674040D02*
X92624640Y-107872160D01*
X89124520Y-110074340D02*
X88723200Y-109373300D01*
X92322380Y-106373560D02*
X92822760Y-106772340D01*
X92624640Y-109172640D02*
X92423980Y-109472360D01*
X93622860Y-108273480D02*
X93622860Y-108872920D01*
X90524060Y-109373300D02*
X90122740Y-109573960D01*
X91623880Y-111072560D02*
X90823780Y-111072560D01*
X92322380Y-110772840D02*
X91623880Y-111072560D01*
X89523300Y-107773100D02*
X89622360Y-107674040D01*
X91222560Y-106073840D02*
X91824540Y-106172900D01*
X91623880Y-107674040D02*
X91923600Y-107572440D01*
X92822760Y-110374060D02*
X92322380Y-110772840D01*
X90122740Y-109573960D02*
X89924620Y-109573960D01*
X89924620Y-109573960D02*
X89622360Y-109573960D01*
X88624140Y-108773860D02*
X88624140Y-108174420D01*
X93622860Y-108872920D02*
X93424740Y-109673020D01*
X89823020Y-107572440D02*
X90122740Y-107572440D01*
X89622360Y-107674040D02*
X89823020Y-107572440D01*
X90224340Y-110874440D02*
X89622360Y-110572180D01*
X90422460Y-107674040D02*
X90623120Y-108072820D01*
X90524060Y-106172900D02*
X91123500Y-106073840D01*
X90122740Y-106271960D02*
X90524060Y-106172900D01*
X90823780Y-111072560D02*
X90224340Y-110874440D01*
X91722940Y-109573960D02*
X91522280Y-109373300D01*
X92423980Y-109472360D02*
X92124260Y-109573960D01*
X91522280Y-107773100D02*
X91623880Y-107674040D01*
X88624140Y-108174420D02*
X88822260Y-107572440D01*
X92723700Y-108273480D02*
X92723700Y-108672260D01*
X90724720Y-108971980D02*
X90524060Y-109373300D01*
X89124520Y-107072060D02*
X89622360Y-106574220D01*
X93323140Y-107374320D02*
X93523800Y-107773100D01*
X89622360Y-110572180D02*
X89124520Y-110074340D01*
D11*
X143642857Y-142882380D02*
X143976190Y-142406190D01*
X144214285Y-142882380D02*
X144214285Y-141882380D01*
X143833333Y-141882380D01*
X143738095Y-141930000D01*
X143690476Y-141977619D01*
X143642857Y-142072857D01*
X143642857Y-142215714D01*
X143690476Y-142310952D01*
X143738095Y-142358571D01*
X143833333Y-142406190D01*
X144214285Y-142406190D01*
X142690476Y-142882380D02*
X143261904Y-142882380D01*
X142976190Y-142882380D02*
X142976190Y-141882380D01*
X143071428Y-142025238D01*
X143166666Y-142120476D01*
X143261904Y-142168095D01*
X141738095Y-142882380D02*
X142309523Y-142882380D01*
X142023809Y-142882380D02*
X142023809Y-141882380D01*
X142119047Y-142025238D01*
X142214285Y-142120476D01*
X142309523Y-142168095D01*
X143166666Y-119242380D02*
X143500000Y-118766190D01*
X143738095Y-119242380D02*
X143738095Y-118242380D01*
X143357142Y-118242380D01*
X143261904Y-118290000D01*
X143214285Y-118337619D01*
X143166666Y-118432857D01*
X143166666Y-118575714D01*
X143214285Y-118670952D01*
X143261904Y-118718571D01*
X143357142Y-118766190D01*
X143738095Y-118766190D01*
X142690476Y-119242380D02*
X142500000Y-119242380D01*
X142404761Y-119194761D01*
X142357142Y-119147142D01*
X142261904Y-119004285D01*
X142214285Y-118813809D01*
X142214285Y-118432857D01*
X142261904Y-118337619D01*
X142309523Y-118290000D01*
X142404761Y-118242380D01*
X142595238Y-118242380D01*
X142690476Y-118290000D01*
X142738095Y-118337619D01*
X142785714Y-118432857D01*
X142785714Y-118670952D01*
X142738095Y-118766190D01*
X142690476Y-118813809D01*
X142595238Y-118861428D01*
X142404761Y-118861428D01*
X142309523Y-118813809D01*
X142261904Y-118766190D01*
X142214285Y-118670952D01*
X116381904Y-125067380D02*
X116381904Y-125876904D01*
X116334285Y-125972142D01*
X116286666Y-126019761D01*
X116191428Y-126067380D01*
X116000952Y-126067380D01*
X115905714Y-126019761D01*
X115858095Y-125972142D01*
X115810476Y-125876904D01*
X115810476Y-125067380D01*
X114810476Y-126067380D02*
X115381904Y-126067380D01*
X115096190Y-126067380D02*
X115096190Y-125067380D01*
X115191428Y-125210238D01*
X115286666Y-125305476D01*
X115381904Y-125353095D01*
X126613333Y-146552380D02*
X126613333Y-147266666D01*
X126660952Y-147409523D01*
X126756190Y-147504761D01*
X126899047Y-147552380D01*
X126994285Y-147552380D01*
X126137142Y-147552380D02*
X126137142Y-146552380D01*
X125756190Y-146552380D01*
X125660952Y-146600000D01*
X125613333Y-146647619D01*
X125565714Y-146742857D01*
X125565714Y-146885714D01*
X125613333Y-146980952D01*
X125660952Y-147028571D01*
X125756190Y-147076190D01*
X126137142Y-147076190D01*
X124613333Y-147552380D02*
X125184761Y-147552380D01*
X124899047Y-147552380D02*
X124899047Y-146552380D01*
X124994285Y-146695238D01*
X125089523Y-146790476D01*
X125184761Y-146838095D01*
X122894285Y-145752380D02*
X123465714Y-145752380D01*
X123180000Y-145752380D02*
X123180000Y-144752380D01*
X123275238Y-144895238D01*
X123370476Y-144990476D01*
X123465714Y-145038095D01*
X128713333Y-144752380D02*
X128094285Y-144752380D01*
X128427619Y-145133333D01*
X128284761Y-145133333D01*
X128189523Y-145180952D01*
X128141904Y-145228571D01*
X128094285Y-145323809D01*
X128094285Y-145561904D01*
X128141904Y-145657142D01*
X128189523Y-145704761D01*
X128284761Y-145752380D01*
X128570476Y-145752380D01*
X128665714Y-145704761D01*
X128713333Y-145657142D01*
X126613333Y-154172380D02*
X126613333Y-154886666D01*
X126660952Y-155029523D01*
X126756190Y-155124761D01*
X126899047Y-155172380D01*
X126994285Y-155172380D01*
X126137142Y-155172380D02*
X126137142Y-154172380D01*
X125756190Y-154172380D01*
X125660952Y-154220000D01*
X125613333Y-154267619D01*
X125565714Y-154362857D01*
X125565714Y-154505714D01*
X125613333Y-154600952D01*
X125660952Y-154648571D01*
X125756190Y-154696190D01*
X126137142Y-154696190D01*
X125184761Y-154267619D02*
X125137142Y-154220000D01*
X125041904Y-154172380D01*
X124803809Y-154172380D01*
X124708571Y-154220000D01*
X124660952Y-154267619D01*
X124613333Y-154362857D01*
X124613333Y-154458095D01*
X124660952Y-154600952D01*
X125232380Y-155172380D01*
X124613333Y-155172380D01*
X122894285Y-153372380D02*
X123465714Y-153372380D01*
X123180000Y-153372380D02*
X123180000Y-152372380D01*
X123275238Y-152515238D01*
X123370476Y-152610476D01*
X123465714Y-152658095D01*
X128713333Y-152372380D02*
X128094285Y-152372380D01*
X128427619Y-152753333D01*
X128284761Y-152753333D01*
X128189523Y-152800952D01*
X128141904Y-152848571D01*
X128094285Y-152943809D01*
X128094285Y-153181904D01*
X128141904Y-153277142D01*
X128189523Y-153324761D01*
X128284761Y-153372380D01*
X128570476Y-153372380D01*
X128665714Y-153324761D01*
X128713333Y-153277142D01*
X143642857Y-153882380D02*
X143976190Y-153406190D01*
X144214285Y-153882380D02*
X144214285Y-152882380D01*
X143833333Y-152882380D01*
X143738095Y-152930000D01*
X143690476Y-152977619D01*
X143642857Y-153072857D01*
X143642857Y-153215714D01*
X143690476Y-153310952D01*
X143738095Y-153358571D01*
X143833333Y-153406190D01*
X144214285Y-153406190D01*
X142690476Y-153882380D02*
X143261904Y-153882380D01*
X142976190Y-153882380D02*
X142976190Y-152882380D01*
X143071428Y-153025238D01*
X143166666Y-153120476D01*
X143261904Y-153168095D01*
X141833333Y-153215714D02*
X141833333Y-153882380D01*
X142071428Y-152834761D02*
X142309523Y-153549047D01*
X141690476Y-153549047D01*
X143642857Y-136882380D02*
X143976190Y-136406190D01*
X144214285Y-136882380D02*
X144214285Y-135882380D01*
X143833333Y-135882380D01*
X143738095Y-135930000D01*
X143690476Y-135977619D01*
X143642857Y-136072857D01*
X143642857Y-136215714D01*
X143690476Y-136310952D01*
X143738095Y-136358571D01*
X143833333Y-136406190D01*
X144214285Y-136406190D01*
X142690476Y-136882380D02*
X143261904Y-136882380D01*
X142976190Y-136882380D02*
X142976190Y-135882380D01*
X143071428Y-136025238D01*
X143166666Y-136120476D01*
X143261904Y-136168095D01*
X142309523Y-135977619D02*
X142261904Y-135930000D01*
X142166666Y-135882380D01*
X141928571Y-135882380D01*
X141833333Y-135930000D01*
X141785714Y-135977619D01*
X141738095Y-136072857D01*
X141738095Y-136168095D01*
X141785714Y-136310952D01*
X142357142Y-136882380D01*
X141738095Y-136882380D01*
X143642857Y-114162380D02*
X143976190Y-113686190D01*
X144214285Y-114162380D02*
X144214285Y-113162380D01*
X143833333Y-113162380D01*
X143738095Y-113210000D01*
X143690476Y-113257619D01*
X143642857Y-113352857D01*
X143642857Y-113495714D01*
X143690476Y-113590952D01*
X143738095Y-113638571D01*
X143833333Y-113686190D01*
X144214285Y-113686190D01*
X142690476Y-114162380D02*
X143261904Y-114162380D01*
X142976190Y-114162380D02*
X142976190Y-113162380D01*
X143071428Y-113305238D01*
X143166666Y-113400476D01*
X143261904Y-113448095D01*
X142071428Y-113162380D02*
X141976190Y-113162380D01*
X141880952Y-113210000D01*
X141833333Y-113257619D01*
X141785714Y-113352857D01*
X141738095Y-113543333D01*
X141738095Y-113781428D01*
X141785714Y-113971904D01*
X141833333Y-114067142D01*
X141880952Y-114114761D01*
X141976190Y-114162380D01*
X142071428Y-114162380D01*
X142166666Y-114114761D01*
X142214285Y-114067142D01*
X142261904Y-113971904D01*
X142309523Y-113781428D01*
X142309523Y-113543333D01*
X142261904Y-113352857D01*
X142214285Y-113257619D01*
X142166666Y-113210000D01*
X142071428Y-113162380D01*
X97166666Y-119242380D02*
X97500000Y-118766190D01*
X97738095Y-119242380D02*
X97738095Y-118242380D01*
X97357142Y-118242380D01*
X97261904Y-118290000D01*
X97214285Y-118337619D01*
X97166666Y-118432857D01*
X97166666Y-118575714D01*
X97214285Y-118670952D01*
X97261904Y-118718571D01*
X97357142Y-118766190D01*
X97738095Y-118766190D01*
X96690476Y-119242380D02*
X96500000Y-119242380D01*
X96404761Y-119194761D01*
X96357142Y-119147142D01*
X96261904Y-119004285D01*
X96214285Y-118813809D01*
X96214285Y-118432857D01*
X96261904Y-118337619D01*
X96309523Y-118290000D01*
X96404761Y-118242380D01*
X96595238Y-118242380D01*
X96690476Y-118290000D01*
X96738095Y-118337619D01*
X96785714Y-118432857D01*
X96785714Y-118670952D01*
X96738095Y-118766190D01*
X96690476Y-118813809D01*
X96595238Y-118861428D01*
X96404761Y-118861428D01*
X96309523Y-118813809D01*
X96261904Y-118766190D01*
X96214285Y-118670952D01*
X70381904Y-125067380D02*
X70381904Y-125876904D01*
X70334285Y-125972142D01*
X70286666Y-126019761D01*
X70191428Y-126067380D01*
X70000952Y-126067380D01*
X69905714Y-126019761D01*
X69858095Y-125972142D01*
X69810476Y-125876904D01*
X69810476Y-125067380D01*
X68810476Y-126067380D02*
X69381904Y-126067380D01*
X69096190Y-126067380D02*
X69096190Y-125067380D01*
X69191428Y-125210238D01*
X69286666Y-125305476D01*
X69381904Y-125353095D01*
X97642857Y-142882380D02*
X97976190Y-142406190D01*
X98214285Y-142882380D02*
X98214285Y-141882380D01*
X97833333Y-141882380D01*
X97738095Y-141930000D01*
X97690476Y-141977619D01*
X97642857Y-142072857D01*
X97642857Y-142215714D01*
X97690476Y-142310952D01*
X97738095Y-142358571D01*
X97833333Y-142406190D01*
X98214285Y-142406190D01*
X96690476Y-142882380D02*
X97261904Y-142882380D01*
X96976190Y-142882380D02*
X96976190Y-141882380D01*
X97071428Y-142025238D01*
X97166666Y-142120476D01*
X97261904Y-142168095D01*
X95738095Y-142882380D02*
X96309523Y-142882380D01*
X96023809Y-142882380D02*
X96023809Y-141882380D01*
X96119047Y-142025238D01*
X96214285Y-142120476D01*
X96309523Y-142168095D01*
X97642857Y-153882380D02*
X97976190Y-153406190D01*
X98214285Y-153882380D02*
X98214285Y-152882380D01*
X97833333Y-152882380D01*
X97738095Y-152930000D01*
X97690476Y-152977619D01*
X97642857Y-153072857D01*
X97642857Y-153215714D01*
X97690476Y-153310952D01*
X97738095Y-153358571D01*
X97833333Y-153406190D01*
X98214285Y-153406190D01*
X96690476Y-153882380D02*
X97261904Y-153882380D01*
X96976190Y-153882380D02*
X96976190Y-152882380D01*
X97071428Y-153025238D01*
X97166666Y-153120476D01*
X97261904Y-153168095D01*
X95833333Y-153215714D02*
X95833333Y-153882380D01*
X96071428Y-152834761D02*
X96309523Y-153549047D01*
X95690476Y-153549047D01*
X97642857Y-136882380D02*
X97976190Y-136406190D01*
X98214285Y-136882380D02*
X98214285Y-135882380D01*
X97833333Y-135882380D01*
X97738095Y-135930000D01*
X97690476Y-135977619D01*
X97642857Y-136072857D01*
X97642857Y-136215714D01*
X97690476Y-136310952D01*
X97738095Y-136358571D01*
X97833333Y-136406190D01*
X98214285Y-136406190D01*
X96690476Y-136882380D02*
X97261904Y-136882380D01*
X96976190Y-136882380D02*
X96976190Y-135882380D01*
X97071428Y-136025238D01*
X97166666Y-136120476D01*
X97261904Y-136168095D01*
X96309523Y-135977619D02*
X96261904Y-135930000D01*
X96166666Y-135882380D01*
X95928571Y-135882380D01*
X95833333Y-135930000D01*
X95785714Y-135977619D01*
X95738095Y-136072857D01*
X95738095Y-136168095D01*
X95785714Y-136310952D01*
X96357142Y-136882380D01*
X95738095Y-136882380D01*
X97642857Y-114162380D02*
X97976190Y-113686190D01*
X98214285Y-114162380D02*
X98214285Y-113162380D01*
X97833333Y-113162380D01*
X97738095Y-113210000D01*
X97690476Y-113257619D01*
X97642857Y-113352857D01*
X97642857Y-113495714D01*
X97690476Y-113590952D01*
X97738095Y-113638571D01*
X97833333Y-113686190D01*
X98214285Y-113686190D01*
X96690476Y-114162380D02*
X97261904Y-114162380D01*
X96976190Y-114162380D02*
X96976190Y-113162380D01*
X97071428Y-113305238D01*
X97166666Y-113400476D01*
X97261904Y-113448095D01*
X96071428Y-113162380D02*
X95976190Y-113162380D01*
X95880952Y-113210000D01*
X95833333Y-113257619D01*
X95785714Y-113352857D01*
X95738095Y-113543333D01*
X95738095Y-113781428D01*
X95785714Y-113971904D01*
X95833333Y-114067142D01*
X95880952Y-114114761D01*
X95976190Y-114162380D01*
X96071428Y-114162380D01*
X96166666Y-114114761D01*
X96214285Y-114067142D01*
X96261904Y-113971904D01*
X96309523Y-113781428D01*
X96309523Y-113543333D01*
X96261904Y-113352857D01*
X96214285Y-113257619D01*
X96166666Y-113210000D01*
X96071428Y-113162380D01*
X80613333Y-146552380D02*
X80613333Y-147266666D01*
X80660952Y-147409523D01*
X80756190Y-147504761D01*
X80899047Y-147552380D01*
X80994285Y-147552380D01*
X80137142Y-147552380D02*
X80137142Y-146552380D01*
X79756190Y-146552380D01*
X79660952Y-146600000D01*
X79613333Y-146647619D01*
X79565714Y-146742857D01*
X79565714Y-146885714D01*
X79613333Y-146980952D01*
X79660952Y-147028571D01*
X79756190Y-147076190D01*
X80137142Y-147076190D01*
X78613333Y-147552380D02*
X79184761Y-147552380D01*
X78899047Y-147552380D02*
X78899047Y-146552380D01*
X78994285Y-146695238D01*
X79089523Y-146790476D01*
X79184761Y-146838095D01*
X82713333Y-144752380D02*
X82094285Y-144752380D01*
X82427619Y-145133333D01*
X82284761Y-145133333D01*
X82189523Y-145180952D01*
X82141904Y-145228571D01*
X82094285Y-145323809D01*
X82094285Y-145561904D01*
X82141904Y-145657142D01*
X82189523Y-145704761D01*
X82284761Y-145752380D01*
X82570476Y-145752380D01*
X82665714Y-145704761D01*
X82713333Y-145657142D01*
X76894285Y-145752380D02*
X77465714Y-145752380D01*
X77180000Y-145752380D02*
X77180000Y-144752380D01*
X77275238Y-144895238D01*
X77370476Y-144990476D01*
X77465714Y-145038095D01*
X80613333Y-154172380D02*
X80613333Y-154886666D01*
X80660952Y-155029523D01*
X80756190Y-155124761D01*
X80899047Y-155172380D01*
X80994285Y-155172380D01*
X80137142Y-155172380D02*
X80137142Y-154172380D01*
X79756190Y-154172380D01*
X79660952Y-154220000D01*
X79613333Y-154267619D01*
X79565714Y-154362857D01*
X79565714Y-154505714D01*
X79613333Y-154600952D01*
X79660952Y-154648571D01*
X79756190Y-154696190D01*
X80137142Y-154696190D01*
X79184761Y-154267619D02*
X79137142Y-154220000D01*
X79041904Y-154172380D01*
X78803809Y-154172380D01*
X78708571Y-154220000D01*
X78660952Y-154267619D01*
X78613333Y-154362857D01*
X78613333Y-154458095D01*
X78660952Y-154600952D01*
X79232380Y-155172380D01*
X78613333Y-155172380D01*
X82713333Y-152372380D02*
X82094285Y-152372380D01*
X82427619Y-152753333D01*
X82284761Y-152753333D01*
X82189523Y-152800952D01*
X82141904Y-152848571D01*
X82094285Y-152943809D01*
X82094285Y-153181904D01*
X82141904Y-153277142D01*
X82189523Y-153324761D01*
X82284761Y-153372380D01*
X82570476Y-153372380D01*
X82665714Y-153324761D01*
X82713333Y-153277142D01*
X76894285Y-153372380D02*
X77465714Y-153372380D01*
X77180000Y-153372380D02*
X77180000Y-152372380D01*
X77275238Y-152515238D01*
X77370476Y-152610476D01*
X77465714Y-152658095D01*
M02*
