G04 #@! TF.GenerationSoftware,KiCad,Pcbnew,(5.1.8)-1*
G04 #@! TF.CreationDate,2020-11-28T16:02:08+09:00*
G04 #@! TF.ProjectId,DigitalInput4chS,44696769-7461-46c4-996e-707574346368,2*
G04 #@! TF.SameCoordinates,Original*
G04 #@! TF.FileFunction,Soldermask,Bot*
G04 #@! TF.FilePolarity,Negative*
%FSLAX46Y46*%
G04 Gerber Fmt 4.6, Leading zero omitted, Abs format (unit mm)*
G04 Created by KiCad (PCBNEW (5.1.8)-1) date 2020-11-28 16:02:08*
%MOMM*%
%LPD*%
G01*
G04 APERTURE LIST*
%ADD10C,1.524000*%
%ADD11R,1.524000X1.524000*%
%ADD12C,3.000000*%
%ADD13O,1.600000X1.600000*%
%ADD14R,1.600000X1.600000*%
%ADD15O,2.000000X1.700000*%
%ADD16C,1.600000*%
%ADD17R,1.000000X1.500000*%
G04 APERTURE END LIST*
G36*
G01*
X143425000Y-141237500D02*
X143425000Y-140762500D01*
G75*
G02*
X143662500Y-140525000I237500J0D01*
G01*
X144162500Y-140525000D01*
G75*
G02*
X144400000Y-140762500I0J-237500D01*
G01*
X144400000Y-141237500D01*
G75*
G02*
X144162500Y-141475000I-237500J0D01*
G01*
X143662500Y-141475000D01*
G75*
G02*
X143425000Y-141237500I0J237500D01*
G01*
G37*
G36*
G01*
X141600000Y-141237500D02*
X141600000Y-140762500D01*
G75*
G02*
X141837500Y-140525000I237500J0D01*
G01*
X142337500Y-140525000D01*
G75*
G02*
X142575000Y-140762500I0J-237500D01*
G01*
X142575000Y-141237500D01*
G75*
G02*
X142337500Y-141475000I-237500J0D01*
G01*
X141837500Y-141475000D01*
G75*
G02*
X141600000Y-141237500I0J237500D01*
G01*
G37*
D10*
X141655000Y-132885000D03*
X141655000Y-130885000D03*
X141655000Y-128885000D03*
D11*
X141655000Y-126885000D03*
G36*
G01*
X143425000Y-117597500D02*
X143425000Y-117122500D01*
G75*
G02*
X143662500Y-116885000I237500J0D01*
G01*
X144162500Y-116885000D01*
G75*
G02*
X144400000Y-117122500I0J-237500D01*
G01*
X144400000Y-117597500D01*
G75*
G02*
X144162500Y-117835000I-237500J0D01*
G01*
X143662500Y-117835000D01*
G75*
G02*
X143425000Y-117597500I0J237500D01*
G01*
G37*
G36*
G01*
X141600000Y-117597500D02*
X141600000Y-117122500D01*
G75*
G02*
X141837500Y-116885000I237500J0D01*
G01*
X142337500Y-116885000D01*
G75*
G02*
X142575000Y-117122500I0J-237500D01*
G01*
X142575000Y-117597500D01*
G75*
G02*
X142337500Y-117835000I-237500J0D01*
G01*
X141837500Y-117835000D01*
G75*
G02*
X141600000Y-117597500I0J237500D01*
G01*
G37*
G36*
G01*
X143425000Y-152237500D02*
X143425000Y-151762500D01*
G75*
G02*
X143662500Y-151525000I237500J0D01*
G01*
X144162500Y-151525000D01*
G75*
G02*
X144400000Y-151762500I0J-237500D01*
G01*
X144400000Y-152237500D01*
G75*
G02*
X144162500Y-152475000I-237500J0D01*
G01*
X143662500Y-152475000D01*
G75*
G02*
X143425000Y-152237500I0J237500D01*
G01*
G37*
G36*
G01*
X141600000Y-152237500D02*
X141600000Y-151762500D01*
G75*
G02*
X141837500Y-151525000I237500J0D01*
G01*
X142337500Y-151525000D01*
G75*
G02*
X142575000Y-151762500I0J-237500D01*
G01*
X142575000Y-152237500D01*
G75*
G02*
X142337500Y-152475000I-237500J0D01*
G01*
X141837500Y-152475000D01*
G75*
G02*
X141600000Y-152237500I0J237500D01*
G01*
G37*
D12*
X148000000Y-128000000D03*
X138000000Y-158000000D03*
D13*
X113080000Y-114820000D03*
X120700000Y-112280000D03*
X113080000Y-112280000D03*
D14*
X120700000Y-114820000D03*
D13*
X113080000Y-109740000D03*
X120700000Y-107200000D03*
X113080000Y-107200000D03*
D14*
X120700000Y-109740000D03*
D10*
X134670000Y-140220000D03*
X139750000Y-140220000D03*
X139750000Y-145300000D03*
X134670000Y-145300000D03*
X139750000Y-142760000D03*
X134670000Y-142760000D03*
D12*
X118000000Y-158000000D03*
D15*
X118160000Y-150340000D03*
G36*
G01*
X117410000Y-146990000D02*
X118910000Y-146990000D01*
G75*
G02*
X119160000Y-147240000I0J-250000D01*
G01*
X119160000Y-148440000D01*
G75*
G02*
X118910000Y-148690000I-250000J0D01*
G01*
X117410000Y-148690000D01*
G75*
G02*
X117160000Y-148440000I0J250000D01*
G01*
X117160000Y-147240000D01*
G75*
G02*
X117410000Y-146990000I250000J0D01*
G01*
G37*
D13*
X113220000Y-132600000D03*
X120840000Y-130060000D03*
X113220000Y-130060000D03*
D14*
X120840000Y-132600000D03*
D12*
X108000000Y-128000000D03*
G36*
G01*
X143425000Y-135237500D02*
X143425000Y-134762500D01*
G75*
G02*
X143662500Y-134525000I237500J0D01*
G01*
X144162500Y-134525000D01*
G75*
G02*
X144400000Y-134762500I0J-237500D01*
G01*
X144400000Y-135237500D01*
G75*
G02*
X144162500Y-135475000I-237500J0D01*
G01*
X143662500Y-135475000D01*
G75*
G02*
X143425000Y-135237500I0J237500D01*
G01*
G37*
G36*
G01*
X141600000Y-135237500D02*
X141600000Y-134762500D01*
G75*
G02*
X141837500Y-134525000I237500J0D01*
G01*
X142337500Y-134525000D01*
G75*
G02*
X142575000Y-134762500I0J-237500D01*
G01*
X142575000Y-135237500D01*
G75*
G02*
X142337500Y-135475000I-237500J0D01*
G01*
X141837500Y-135475000D01*
G75*
G02*
X141600000Y-135237500I0J237500D01*
G01*
G37*
D13*
X113220000Y-137680000D03*
X120840000Y-135140000D03*
X113220000Y-135140000D03*
D14*
X120840000Y-137680000D03*
D12*
X118000000Y-98000000D03*
X108000000Y-108000000D03*
D16*
X115700000Y-141490000D03*
X120700000Y-141490000D03*
G36*
G01*
X138055000Y-103152500D02*
X138055000Y-103627500D01*
G75*
G02*
X137817500Y-103865000I-237500J0D01*
G01*
X137317500Y-103865000D01*
G75*
G02*
X137080000Y-103627500I0J237500D01*
G01*
X137080000Y-103152500D01*
G75*
G02*
X137317500Y-102915000I237500J0D01*
G01*
X137817500Y-102915000D01*
G75*
G02*
X138055000Y-103152500I0J-237500D01*
G01*
G37*
G36*
G01*
X139880000Y-103152500D02*
X139880000Y-103627500D01*
G75*
G02*
X139642500Y-103865000I-237500J0D01*
G01*
X139142500Y-103865000D01*
G75*
G02*
X138905000Y-103627500I0J237500D01*
G01*
X138905000Y-103152500D01*
G75*
G02*
X139142500Y-102915000I237500J0D01*
G01*
X139642500Y-102915000D01*
G75*
G02*
X139880000Y-103152500I0J-237500D01*
G01*
G37*
D12*
X148000000Y-148000000D03*
X148000000Y-108000000D03*
D17*
X124480000Y-145300000D03*
X125780000Y-145300000D03*
X127080000Y-145300000D03*
D10*
X134670000Y-116090000D03*
X139750000Y-116090000D03*
X139750000Y-121170000D03*
X134670000Y-121170000D03*
X139750000Y-118630000D03*
X134670000Y-118630000D03*
X141655000Y-108755000D03*
X141655000Y-106755000D03*
X141655000Y-104755000D03*
D11*
X141655000Y-102755000D03*
D12*
X108000000Y-148000000D03*
G36*
G01*
X138055000Y-129822500D02*
X138055000Y-130297500D01*
G75*
G02*
X137817500Y-130535000I-237500J0D01*
G01*
X137317500Y-130535000D01*
G75*
G02*
X137080000Y-130297500I0J237500D01*
G01*
X137080000Y-129822500D01*
G75*
G02*
X137317500Y-129585000I237500J0D01*
G01*
X137817500Y-129585000D01*
G75*
G02*
X138055000Y-129822500I0J-237500D01*
G01*
G37*
G36*
G01*
X139880000Y-129822500D02*
X139880000Y-130297500D01*
G75*
G02*
X139642500Y-130535000I-237500J0D01*
G01*
X139142500Y-130535000D01*
G75*
G02*
X138905000Y-130297500I0J237500D01*
G01*
X138905000Y-129822500D01*
G75*
G02*
X139142500Y-129585000I237500J0D01*
G01*
X139642500Y-129585000D01*
G75*
G02*
X139880000Y-129822500I0J-237500D01*
G01*
G37*
G36*
G01*
X138055000Y-127282500D02*
X138055000Y-127757500D01*
G75*
G02*
X137817500Y-127995000I-237500J0D01*
G01*
X137317500Y-127995000D01*
G75*
G02*
X137080000Y-127757500I0J237500D01*
G01*
X137080000Y-127282500D01*
G75*
G02*
X137317500Y-127045000I237500J0D01*
G01*
X137817500Y-127045000D01*
G75*
G02*
X138055000Y-127282500I0J-237500D01*
G01*
G37*
G36*
G01*
X139880000Y-127282500D02*
X139880000Y-127757500D01*
G75*
G02*
X139642500Y-127995000I-237500J0D01*
G01*
X139142500Y-127995000D01*
G75*
G02*
X138905000Y-127757500I0J237500D01*
G01*
X138905000Y-127282500D01*
G75*
G02*
X139142500Y-127045000I237500J0D01*
G01*
X139642500Y-127045000D01*
G75*
G02*
X139880000Y-127282500I0J-237500D01*
G01*
G37*
D10*
X139750000Y-154190000D03*
X134670000Y-154190000D03*
X139750000Y-151650000D03*
X134670000Y-151650000D03*
D12*
X138000000Y-98000000D03*
G36*
G01*
X138055000Y-105692500D02*
X138055000Y-106167500D01*
G75*
G02*
X137817500Y-106405000I-237500J0D01*
G01*
X137317500Y-106405000D01*
G75*
G02*
X137080000Y-106167500I0J237500D01*
G01*
X137080000Y-105692500D01*
G75*
G02*
X137317500Y-105455000I237500J0D01*
G01*
X137817500Y-105455000D01*
G75*
G02*
X138055000Y-105692500I0J-237500D01*
G01*
G37*
G36*
G01*
X139880000Y-105692500D02*
X139880000Y-106167500D01*
G75*
G02*
X139642500Y-106405000I-237500J0D01*
G01*
X139142500Y-106405000D01*
G75*
G02*
X138905000Y-106167500I0J237500D01*
G01*
X138905000Y-105692500D01*
G75*
G02*
X139142500Y-105455000I237500J0D01*
G01*
X139642500Y-105455000D01*
G75*
G02*
X139880000Y-105692500I0J-237500D01*
G01*
G37*
G36*
G01*
X143425000Y-112517500D02*
X143425000Y-112042500D01*
G75*
G02*
X143662500Y-111805000I237500J0D01*
G01*
X144162500Y-111805000D01*
G75*
G02*
X144400000Y-112042500I0J-237500D01*
G01*
X144400000Y-112517500D01*
G75*
G02*
X144162500Y-112755000I-237500J0D01*
G01*
X143662500Y-112755000D01*
G75*
G02*
X143425000Y-112517500I0J237500D01*
G01*
G37*
G36*
G01*
X141600000Y-112517500D02*
X141600000Y-112042500D01*
G75*
G02*
X141837500Y-111805000I237500J0D01*
G01*
X142337500Y-111805000D01*
G75*
G02*
X142575000Y-112042500I0J-237500D01*
G01*
X142575000Y-112517500D01*
G75*
G02*
X142337500Y-112755000I-237500J0D01*
G01*
X141837500Y-112755000D01*
G75*
G02*
X141600000Y-112517500I0J237500D01*
G01*
G37*
D17*
X124480000Y-152920000D03*
X125780000Y-152920000D03*
X127080000Y-152920000D03*
G36*
G01*
X95600000Y-141237500D02*
X95600000Y-140762500D01*
G75*
G02*
X95837500Y-140525000I237500J0D01*
G01*
X96337500Y-140525000D01*
G75*
G02*
X96575000Y-140762500I0J-237500D01*
G01*
X96575000Y-141237500D01*
G75*
G02*
X96337500Y-141475000I-237500J0D01*
G01*
X95837500Y-141475000D01*
G75*
G02*
X95600000Y-141237500I0J237500D01*
G01*
G37*
G36*
G01*
X97425000Y-141237500D02*
X97425000Y-140762500D01*
G75*
G02*
X97662500Y-140525000I237500J0D01*
G01*
X98162500Y-140525000D01*
G75*
G02*
X98400000Y-140762500I0J-237500D01*
G01*
X98400000Y-141237500D01*
G75*
G02*
X98162500Y-141475000I-237500J0D01*
G01*
X97662500Y-141475000D01*
G75*
G02*
X97425000Y-141237500I0J237500D01*
G01*
G37*
G36*
G01*
X95600000Y-152237500D02*
X95600000Y-151762500D01*
G75*
G02*
X95837500Y-151525000I237500J0D01*
G01*
X96337500Y-151525000D01*
G75*
G02*
X96575000Y-151762500I0J-237500D01*
G01*
X96575000Y-152237500D01*
G75*
G02*
X96337500Y-152475000I-237500J0D01*
G01*
X95837500Y-152475000D01*
G75*
G02*
X95600000Y-152237500I0J237500D01*
G01*
G37*
G36*
G01*
X97425000Y-152237500D02*
X97425000Y-151762500D01*
G75*
G02*
X97662500Y-151525000I237500J0D01*
G01*
X98162500Y-151525000D01*
G75*
G02*
X98400000Y-151762500I0J-237500D01*
G01*
X98400000Y-152237500D01*
G75*
G02*
X98162500Y-152475000I-237500J0D01*
G01*
X97662500Y-152475000D01*
G75*
G02*
X97425000Y-152237500I0J237500D01*
G01*
G37*
G36*
G01*
X95600000Y-117597500D02*
X95600000Y-117122500D01*
G75*
G02*
X95837500Y-116885000I237500J0D01*
G01*
X96337500Y-116885000D01*
G75*
G02*
X96575000Y-117122500I0J-237500D01*
G01*
X96575000Y-117597500D01*
G75*
G02*
X96337500Y-117835000I-237500J0D01*
G01*
X95837500Y-117835000D01*
G75*
G02*
X95600000Y-117597500I0J237500D01*
G01*
G37*
G36*
G01*
X97425000Y-117597500D02*
X97425000Y-117122500D01*
G75*
G02*
X97662500Y-116885000I237500J0D01*
G01*
X98162500Y-116885000D01*
G75*
G02*
X98400000Y-117122500I0J-237500D01*
G01*
X98400000Y-117597500D01*
G75*
G02*
X98162500Y-117835000I-237500J0D01*
G01*
X97662500Y-117835000D01*
G75*
G02*
X97425000Y-117597500I0J237500D01*
G01*
G37*
D11*
X95655000Y-126885000D03*
D10*
X95655000Y-128885000D03*
X95655000Y-130885000D03*
X95655000Y-132885000D03*
X88670000Y-118630000D03*
X93750000Y-118630000D03*
X88670000Y-121170000D03*
X93750000Y-121170000D03*
X93750000Y-116090000D03*
X88670000Y-116090000D03*
D17*
X81080000Y-152920000D03*
X79780000Y-152920000D03*
X78480000Y-152920000D03*
D11*
X95655000Y-102755000D03*
D10*
X95655000Y-104755000D03*
X95655000Y-106755000D03*
X95655000Y-108755000D03*
X88670000Y-142760000D03*
X93750000Y-142760000D03*
X88670000Y-145300000D03*
X93750000Y-145300000D03*
X93750000Y-140220000D03*
X88670000Y-140220000D03*
D17*
X81080000Y-145300000D03*
X79780000Y-145300000D03*
X78480000Y-145300000D03*
G36*
G01*
X95600000Y-112517500D02*
X95600000Y-112042500D01*
G75*
G02*
X95837500Y-111805000I237500J0D01*
G01*
X96337500Y-111805000D01*
G75*
G02*
X96575000Y-112042500I0J-237500D01*
G01*
X96575000Y-112517500D01*
G75*
G02*
X96337500Y-112755000I-237500J0D01*
G01*
X95837500Y-112755000D01*
G75*
G02*
X95600000Y-112517500I0J237500D01*
G01*
G37*
G36*
G01*
X97425000Y-112517500D02*
X97425000Y-112042500D01*
G75*
G02*
X97662500Y-111805000I237500J0D01*
G01*
X98162500Y-111805000D01*
G75*
G02*
X98400000Y-112042500I0J-237500D01*
G01*
X98400000Y-112517500D01*
G75*
G02*
X98162500Y-112755000I-237500J0D01*
G01*
X97662500Y-112755000D01*
G75*
G02*
X97425000Y-112517500I0J237500D01*
G01*
G37*
D10*
X88670000Y-151650000D03*
X93750000Y-151650000D03*
X88670000Y-154190000D03*
X93750000Y-154190000D03*
G36*
G01*
X95600000Y-135237500D02*
X95600000Y-134762500D01*
G75*
G02*
X95837500Y-134525000I237500J0D01*
G01*
X96337500Y-134525000D01*
G75*
G02*
X96575000Y-134762500I0J-237500D01*
G01*
X96575000Y-135237500D01*
G75*
G02*
X96337500Y-135475000I-237500J0D01*
G01*
X95837500Y-135475000D01*
G75*
G02*
X95600000Y-135237500I0J237500D01*
G01*
G37*
G36*
G01*
X97425000Y-135237500D02*
X97425000Y-134762500D01*
G75*
G02*
X97662500Y-134525000I237500J0D01*
G01*
X98162500Y-134525000D01*
G75*
G02*
X98400000Y-134762500I0J-237500D01*
G01*
X98400000Y-135237500D01*
G75*
G02*
X98162500Y-135475000I-237500J0D01*
G01*
X97662500Y-135475000D01*
G75*
G02*
X97425000Y-135237500I0J237500D01*
G01*
G37*
G36*
G01*
X71410000Y-146990000D02*
X72910000Y-146990000D01*
G75*
G02*
X73160000Y-147240000I0J-250000D01*
G01*
X73160000Y-148440000D01*
G75*
G02*
X72910000Y-148690000I-250000J0D01*
G01*
X71410000Y-148690000D01*
G75*
G02*
X71160000Y-148440000I0J250000D01*
G01*
X71160000Y-147240000D01*
G75*
G02*
X71410000Y-146990000I250000J0D01*
G01*
G37*
D15*
X72160000Y-150340000D03*
D14*
X74840000Y-137680000D03*
D13*
X67220000Y-135140000D03*
X74840000Y-135140000D03*
X67220000Y-137680000D03*
D14*
X74840000Y-132600000D03*
D13*
X67220000Y-130060000D03*
X74840000Y-130060000D03*
X67220000Y-132600000D03*
D12*
X62000000Y-108000000D03*
G36*
G01*
X93880000Y-105692500D02*
X93880000Y-106167500D01*
G75*
G02*
X93642500Y-106405000I-237500J0D01*
G01*
X93142500Y-106405000D01*
G75*
G02*
X92905000Y-106167500I0J237500D01*
G01*
X92905000Y-105692500D01*
G75*
G02*
X93142500Y-105455000I237500J0D01*
G01*
X93642500Y-105455000D01*
G75*
G02*
X93880000Y-105692500I0J-237500D01*
G01*
G37*
G36*
G01*
X92055000Y-105692500D02*
X92055000Y-106167500D01*
G75*
G02*
X91817500Y-106405000I-237500J0D01*
G01*
X91317500Y-106405000D01*
G75*
G02*
X91080000Y-106167500I0J237500D01*
G01*
X91080000Y-105692500D01*
G75*
G02*
X91317500Y-105455000I237500J0D01*
G01*
X91817500Y-105455000D01*
G75*
G02*
X92055000Y-105692500I0J-237500D01*
G01*
G37*
X92000000Y-98000000D03*
D16*
X74700000Y-141490000D03*
X69700000Y-141490000D03*
D12*
X102000000Y-108000000D03*
X72000000Y-98000000D03*
G36*
G01*
X93880000Y-103152500D02*
X93880000Y-103627500D01*
G75*
G02*
X93642500Y-103865000I-237500J0D01*
G01*
X93142500Y-103865000D01*
G75*
G02*
X92905000Y-103627500I0J237500D01*
G01*
X92905000Y-103152500D01*
G75*
G02*
X93142500Y-102915000I237500J0D01*
G01*
X93642500Y-102915000D01*
G75*
G02*
X93880000Y-103152500I0J-237500D01*
G01*
G37*
G36*
G01*
X92055000Y-103152500D02*
X92055000Y-103627500D01*
G75*
G02*
X91817500Y-103865000I-237500J0D01*
G01*
X91317500Y-103865000D01*
G75*
G02*
X91080000Y-103627500I0J237500D01*
G01*
X91080000Y-103152500D01*
G75*
G02*
X91317500Y-102915000I237500J0D01*
G01*
X91817500Y-102915000D01*
G75*
G02*
X92055000Y-103152500I0J-237500D01*
G01*
G37*
X62000000Y-128000000D03*
X72000000Y-158000000D03*
X102000000Y-148000000D03*
G36*
G01*
X93880000Y-127282500D02*
X93880000Y-127757500D01*
G75*
G02*
X93642500Y-127995000I-237500J0D01*
G01*
X93142500Y-127995000D01*
G75*
G02*
X92905000Y-127757500I0J237500D01*
G01*
X92905000Y-127282500D01*
G75*
G02*
X93142500Y-127045000I237500J0D01*
G01*
X93642500Y-127045000D01*
G75*
G02*
X93880000Y-127282500I0J-237500D01*
G01*
G37*
G36*
G01*
X92055000Y-127282500D02*
X92055000Y-127757500D01*
G75*
G02*
X91817500Y-127995000I-237500J0D01*
G01*
X91317500Y-127995000D01*
G75*
G02*
X91080000Y-127757500I0J237500D01*
G01*
X91080000Y-127282500D01*
G75*
G02*
X91317500Y-127045000I237500J0D01*
G01*
X91817500Y-127045000D01*
G75*
G02*
X92055000Y-127282500I0J-237500D01*
G01*
G37*
X62000000Y-148000000D03*
G36*
G01*
X93880000Y-129822500D02*
X93880000Y-130297500D01*
G75*
G02*
X93642500Y-130535000I-237500J0D01*
G01*
X93142500Y-130535000D01*
G75*
G02*
X92905000Y-130297500I0J237500D01*
G01*
X92905000Y-129822500D01*
G75*
G02*
X93142500Y-129585000I237500J0D01*
G01*
X93642500Y-129585000D01*
G75*
G02*
X93880000Y-129822500I0J-237500D01*
G01*
G37*
G36*
G01*
X92055000Y-129822500D02*
X92055000Y-130297500D01*
G75*
G02*
X91817500Y-130535000I-237500J0D01*
G01*
X91317500Y-130535000D01*
G75*
G02*
X91080000Y-130297500I0J237500D01*
G01*
X91080000Y-129822500D01*
G75*
G02*
X91317500Y-129585000I237500J0D01*
G01*
X91817500Y-129585000D01*
G75*
G02*
X92055000Y-129822500I0J-237500D01*
G01*
G37*
X102000000Y-128000000D03*
X92000000Y-158000000D03*
D14*
X74700000Y-114820000D03*
D13*
X67080000Y-112280000D03*
X74700000Y-112280000D03*
X67080000Y-114820000D03*
D14*
X74700000Y-109740000D03*
D13*
X67080000Y-107200000D03*
X74700000Y-107200000D03*
X67080000Y-109740000D03*
M02*
