M48
; DRILL file {KiCad (5.1.8)-1} date 11/28/20 16:02:10
; FORMAT={-:-/ absolute / metric / decimal}
; #@! TF.CreationDate,2020-11-28T16:02:10+09:00
; #@! TF.GenerationSoftware,Kicad,Pcbnew,(5.1.8)-1
FMAT,2
METRIC
T1C0.300
T2C0.762
T3C0.800
T4C0.900
T5C1.000
T6C3.000
%
G90
G05
T1
X86.528Y-132.536
X86.528Y-135.463
X87.908Y-103.644
X91.34Y-131.106
X99.319Y-112.338
X99.319Y-118.192
X99.319Y-135.355
X99.319Y-140.259
X101.453Y-152.041
X132.528Y-132.536
X132.528Y-135.463
X133.908Y-103.644
X137.34Y-131.106
X145.319Y-112.338
X145.319Y-118.192
X145.319Y-135.355
X145.319Y-140.259
X147.453Y-152.041
T2
X95.655Y-102.755
X95.655Y-104.755
X95.655Y-106.755
X95.655Y-108.755
X95.655Y-126.885
X95.655Y-128.885
X95.655Y-130.885
X95.655Y-132.885
X141.655Y-126.885
X141.655Y-128.885
X141.655Y-130.885
X141.655Y-132.885
X141.655Y-102.755
X141.655Y-104.755
X141.655Y-106.755
X141.655Y-108.755
T3
X113.08Y-112.28
X113.08Y-114.82
X120.7Y-112.28
X120.7Y-114.82
X113.22Y-130.06
X113.22Y-132.6
X120.84Y-130.06
X120.84Y-132.6
X113.08Y-107.2
X113.08Y-109.74
X120.7Y-107.2
X120.7Y-109.74
X115.7Y-141.49
X120.7Y-141.49
X67.08Y-112.28
X67.08Y-114.82
X74.7Y-112.28
X74.7Y-114.82
X113.22Y-135.14
X113.22Y-137.68
X120.84Y-135.14
X120.84Y-137.68
X67.08Y-107.2
X67.08Y-109.74
X74.7Y-107.2
X74.7Y-109.74
X67.22Y-135.14
X67.22Y-137.68
X74.84Y-135.14
X74.84Y-137.68
X67.22Y-130.06
X67.22Y-132.6
X74.84Y-130.06
X74.84Y-132.6
X69.7Y-141.49
X74.7Y-141.49
T4
X134.67Y-116.09
X134.67Y-118.63
X134.67Y-121.17
X139.75Y-116.09
X139.75Y-118.63
X139.75Y-121.17
X134.67Y-151.65
X134.67Y-154.19
X139.75Y-151.65
X139.75Y-154.19
X88.67Y-116.09
X88.67Y-118.63
X88.67Y-121.17
X93.75Y-116.09
X93.75Y-118.63
X93.75Y-121.17
X88.67Y-151.65
X88.67Y-154.19
X93.75Y-151.65
X93.75Y-154.19
X88.67Y-140.22
X88.67Y-142.76
X88.67Y-145.3
X93.75Y-140.22
X93.75Y-142.76
X93.75Y-145.3
X134.67Y-140.22
X134.67Y-142.76
X134.67Y-145.3
X139.75Y-140.22
X139.75Y-142.76
X139.75Y-145.3
T5
X118.16Y-147.84
X118.16Y-150.34
X72.16Y-147.84
X72.16Y-150.34
T6
X102.0Y-108.0
X118.0Y-98.0
X148.0Y-108.0
X92.0Y-158.0
X118.0Y-158.0
X62.0Y-148.0
X108.0Y-108.0
X148.0Y-148.0
X92.0Y-98.0
X72.0Y-158.0
X102.0Y-128.0
X138.0Y-98.0
X102.0Y-148.0
X138.0Y-158.0
X62.0Y-108.0
X108.0Y-148.0
X108.0Y-128.0
X148.0Y-128.0
X72.0Y-98.0
X62.0Y-128.0
T0
M30
