G04 #@! TF.GenerationSoftware,KiCad,Pcbnew,(5.1.8)-1*
G04 #@! TF.CreationDate,2020-11-28T16:02:08+09:00*
G04 #@! TF.ProjectId,DigitalInput4chS,44696769-7461-46c4-996e-707574346368,2*
G04 #@! TF.SameCoordinates,Original*
G04 #@! TF.FileFunction,Legend,Bot*
G04 #@! TF.FilePolarity,Positive*
%FSLAX46Y46*%
G04 Gerber Fmt 4.6, Leading zero omitted, Abs format (unit mm)*
G04 Created by KiCad (PCBNEW (5.1.8)-1) date 2020-11-28 16:02:08*
%MOMM*%
%LPD*%
G01*
G04 APERTURE LIST*
%ADD10C,0.120000*%
%ADD11C,0.150000*%
%ADD12C,0.200000*%
%ADD13C,0.381000*%
G04 APERTURE END LIST*
D10*
X129590000Y-155460000D02*
X128320000Y-155460000D01*
X128320000Y-144030000D02*
X129590000Y-144030000D01*
X129590000Y-144030000D02*
X129590000Y-155460000D01*
D11*
X127311904Y-151467380D02*
X127311904Y-150467380D01*
X126930952Y-150467380D01*
X126835714Y-150515000D01*
X126788095Y-150562619D01*
X126740476Y-150657857D01*
X126740476Y-150800714D01*
X126788095Y-150895952D01*
X126835714Y-150943571D01*
X126930952Y-150991190D01*
X127311904Y-150991190D01*
X127311904Y-143847380D02*
X127311904Y-142847380D01*
X126930952Y-142847380D01*
X126835714Y-142895000D01*
X126788095Y-142942619D01*
X126740476Y-143037857D01*
X126740476Y-143180714D01*
X126788095Y-143275952D01*
X126835714Y-143323571D01*
X126930952Y-143371190D01*
X127311904Y-143371190D01*
X124795714Y-143847380D02*
X124795714Y-142847380D01*
X124224285Y-143847380D01*
X124224285Y-142847380D01*
X132780714Y-148689761D02*
X132637857Y-148737380D01*
X132399761Y-148737380D01*
X132304523Y-148689761D01*
X132256904Y-148642142D01*
X132209285Y-148546904D01*
X132209285Y-148451666D01*
X132256904Y-148356428D01*
X132304523Y-148308809D01*
X132399761Y-148261190D01*
X132590238Y-148213571D01*
X132685476Y-148165952D01*
X132733095Y-148118333D01*
X132780714Y-148023095D01*
X132780714Y-147927857D01*
X132733095Y-147832619D01*
X132685476Y-147785000D01*
X132590238Y-147737380D01*
X132352142Y-147737380D01*
X132209285Y-147785000D01*
X131066428Y-147689761D02*
X131923571Y-148975476D01*
X130780714Y-148689761D02*
X130637857Y-148737380D01*
X130399761Y-148737380D01*
X130304523Y-148689761D01*
X130256904Y-148642142D01*
X130209285Y-148546904D01*
X130209285Y-148451666D01*
X130256904Y-148356428D01*
X130304523Y-148308809D01*
X130399761Y-148261190D01*
X130590238Y-148213571D01*
X130685476Y-148165952D01*
X130733095Y-148118333D01*
X130780714Y-148023095D01*
X130780714Y-147927857D01*
X130733095Y-147832619D01*
X130685476Y-147785000D01*
X130590238Y-147737380D01*
X130352142Y-147737380D01*
X130209285Y-147785000D01*
X132471190Y-150339761D02*
X132328333Y-150387380D01*
X132090238Y-150387380D01*
X131995000Y-150339761D01*
X131947380Y-150292142D01*
X131899761Y-150196904D01*
X131899761Y-150101666D01*
X131947380Y-150006428D01*
X131995000Y-149958809D01*
X132090238Y-149911190D01*
X132280714Y-149863571D01*
X132375952Y-149815952D01*
X132423571Y-149768333D01*
X132471190Y-149673095D01*
X132471190Y-149577857D01*
X132423571Y-149482619D01*
X132375952Y-149435000D01*
X132280714Y-149387380D01*
X132042619Y-149387380D01*
X131899761Y-149435000D01*
X131090238Y-150339761D02*
X131185476Y-150387380D01*
X131375952Y-150387380D01*
X131471190Y-150339761D01*
X131518809Y-150244523D01*
X131518809Y-149863571D01*
X131471190Y-149768333D01*
X131375952Y-149720714D01*
X131185476Y-149720714D01*
X131090238Y-149768333D01*
X131042619Y-149863571D01*
X131042619Y-149958809D01*
X131518809Y-150054047D01*
X130471190Y-150387380D02*
X130566428Y-150339761D01*
X130614047Y-150244523D01*
X130614047Y-149387380D01*
D12*
X125948571Y-125522857D02*
X126348571Y-124951428D01*
X126634285Y-125522857D02*
X126634285Y-124322857D01*
X126177142Y-124322857D01*
X126062857Y-124380000D01*
X126005714Y-124437142D01*
X125948571Y-124551428D01*
X125948571Y-124722857D01*
X126005714Y-124837142D01*
X126062857Y-124894285D01*
X126177142Y-124951428D01*
X126634285Y-124951428D01*
X124977142Y-125465714D02*
X125091428Y-125522857D01*
X125320000Y-125522857D01*
X125434285Y-125465714D01*
X125491428Y-125351428D01*
X125491428Y-124894285D01*
X125434285Y-124780000D01*
X125320000Y-124722857D01*
X125091428Y-124722857D01*
X124977142Y-124780000D01*
X124920000Y-124894285D01*
X124920000Y-125008571D01*
X125491428Y-125122857D01*
X124520000Y-124722857D02*
X124234285Y-125522857D01*
X123948571Y-124722857D01*
X123491428Y-125408571D02*
X123434285Y-125465714D01*
X123491428Y-125522857D01*
X123548571Y-125465714D01*
X123491428Y-125408571D01*
X123491428Y-125522857D01*
X122977142Y-124437142D02*
X122920000Y-124380000D01*
X122805714Y-124322857D01*
X122520000Y-124322857D01*
X122405714Y-124380000D01*
X122348571Y-124437142D01*
X122291428Y-124551428D01*
X122291428Y-124665714D01*
X122348571Y-124837142D01*
X123034285Y-125522857D01*
X122291428Y-125522857D01*
X120920000Y-124437142D02*
X120862857Y-124380000D01*
X120748571Y-124322857D01*
X120462857Y-124322857D01*
X120348571Y-124380000D01*
X120291428Y-124437142D01*
X120234285Y-124551428D01*
X120234285Y-124665714D01*
X120291428Y-124837142D01*
X120977142Y-125522857D01*
X120234285Y-125522857D01*
X119491428Y-124322857D02*
X119377142Y-124322857D01*
X119262857Y-124380000D01*
X119205714Y-124437142D01*
X119148571Y-124551428D01*
X119091428Y-124780000D01*
X119091428Y-125065714D01*
X119148571Y-125294285D01*
X119205714Y-125408571D01*
X119262857Y-125465714D01*
X119377142Y-125522857D01*
X119491428Y-125522857D01*
X119605714Y-125465714D01*
X119662857Y-125408571D01*
X119720000Y-125294285D01*
X119777142Y-125065714D01*
X119777142Y-124780000D01*
X119720000Y-124551428D01*
X119662857Y-124437142D01*
X119605714Y-124380000D01*
X119491428Y-124322857D01*
X118634285Y-124437142D02*
X118577142Y-124380000D01*
X118462857Y-124322857D01*
X118177142Y-124322857D01*
X118062857Y-124380000D01*
X118005714Y-124437142D01*
X117948571Y-124551428D01*
X117948571Y-124665714D01*
X118005714Y-124837142D01*
X118691428Y-125522857D01*
X117948571Y-125522857D01*
X117205714Y-124322857D02*
X117091428Y-124322857D01*
X116977142Y-124380000D01*
X116920000Y-124437142D01*
X116862857Y-124551428D01*
X116805714Y-124780000D01*
X116805714Y-125065714D01*
X116862857Y-125294285D01*
X116920000Y-125408571D01*
X116977142Y-125465714D01*
X117091428Y-125522857D01*
X117205714Y-125522857D01*
X117320000Y-125465714D01*
X117377142Y-125408571D01*
X117434285Y-125294285D01*
X117491428Y-125065714D01*
X117491428Y-124780000D01*
X117434285Y-124551428D01*
X117377142Y-124437142D01*
X117320000Y-124380000D01*
X117205714Y-124322857D01*
X116291428Y-125408571D02*
X116234285Y-125465714D01*
X116291428Y-125522857D01*
X116348571Y-125465714D01*
X116291428Y-125408571D01*
X116291428Y-125522857D01*
X115091428Y-125522857D02*
X115777142Y-125522857D01*
X115434285Y-125522857D02*
X115434285Y-124322857D01*
X115548571Y-124494285D01*
X115662857Y-124608571D01*
X115777142Y-124665714D01*
X113948571Y-125522857D02*
X114634285Y-125522857D01*
X114291428Y-125522857D02*
X114291428Y-124322857D01*
X114405714Y-124494285D01*
X114520000Y-124608571D01*
X114634285Y-124665714D01*
D11*
X124795714Y-151467380D02*
X124795714Y-150467380D01*
X124224285Y-151467380D01*
X124224285Y-150467380D01*
D12*
X128128571Y-102932857D02*
X128128571Y-101732857D01*
X127842857Y-101732857D01*
X127671428Y-101790000D01*
X127557142Y-101904285D01*
X127500000Y-102018571D01*
X127442857Y-102247142D01*
X127442857Y-102418571D01*
X127500000Y-102647142D01*
X127557142Y-102761428D01*
X127671428Y-102875714D01*
X127842857Y-102932857D01*
X128128571Y-102932857D01*
X126928571Y-102932857D02*
X126928571Y-102132857D01*
X126928571Y-101732857D02*
X126985714Y-101790000D01*
X126928571Y-101847142D01*
X126871428Y-101790000D01*
X126928571Y-101732857D01*
X126928571Y-101847142D01*
X125842857Y-102132857D02*
X125842857Y-103104285D01*
X125900000Y-103218571D01*
X125957142Y-103275714D01*
X126071428Y-103332857D01*
X126242857Y-103332857D01*
X126357142Y-103275714D01*
X125842857Y-102875714D02*
X125957142Y-102932857D01*
X126185714Y-102932857D01*
X126300000Y-102875714D01*
X126357142Y-102818571D01*
X126414285Y-102704285D01*
X126414285Y-102361428D01*
X126357142Y-102247142D01*
X126300000Y-102190000D01*
X126185714Y-102132857D01*
X125957142Y-102132857D01*
X125842857Y-102190000D01*
X125271428Y-102932857D02*
X125271428Y-102132857D01*
X125271428Y-101732857D02*
X125328571Y-101790000D01*
X125271428Y-101847142D01*
X125214285Y-101790000D01*
X125271428Y-101732857D01*
X125271428Y-101847142D01*
X124871428Y-102132857D02*
X124414285Y-102132857D01*
X124700000Y-101732857D02*
X124700000Y-102761428D01*
X124642857Y-102875714D01*
X124528571Y-102932857D01*
X124414285Y-102932857D01*
X123500000Y-102932857D02*
X123500000Y-102304285D01*
X123557142Y-102190000D01*
X123671428Y-102132857D01*
X123900000Y-102132857D01*
X124014285Y-102190000D01*
X123500000Y-102875714D02*
X123614285Y-102932857D01*
X123900000Y-102932857D01*
X124014285Y-102875714D01*
X124071428Y-102761428D01*
X124071428Y-102647142D01*
X124014285Y-102532857D01*
X123900000Y-102475714D01*
X123614285Y-102475714D01*
X123500000Y-102418571D01*
X122757142Y-102932857D02*
X122871428Y-102875714D01*
X122928571Y-102761428D01*
X122928571Y-101732857D01*
X121385714Y-102932857D02*
X121385714Y-101732857D01*
X120814285Y-102132857D02*
X120814285Y-102932857D01*
X120814285Y-102247142D02*
X120757142Y-102190000D01*
X120642857Y-102132857D01*
X120471428Y-102132857D01*
X120357142Y-102190000D01*
X120300000Y-102304285D01*
X120300000Y-102932857D01*
X119728571Y-102132857D02*
X119728571Y-103332857D01*
X119728571Y-102190000D02*
X119614285Y-102132857D01*
X119385714Y-102132857D01*
X119271428Y-102190000D01*
X119214285Y-102247142D01*
X119157142Y-102361428D01*
X119157142Y-102704285D01*
X119214285Y-102818571D01*
X119271428Y-102875714D01*
X119385714Y-102932857D01*
X119614285Y-102932857D01*
X119728571Y-102875714D01*
X118128571Y-102132857D02*
X118128571Y-102932857D01*
X118642857Y-102132857D02*
X118642857Y-102761428D01*
X118585714Y-102875714D01*
X118471428Y-102932857D01*
X118300000Y-102932857D01*
X118185714Y-102875714D01*
X118128571Y-102818571D01*
X117728571Y-102132857D02*
X117271428Y-102132857D01*
X117557142Y-101732857D02*
X117557142Y-102761428D01*
X117500000Y-102875714D01*
X117385714Y-102932857D01*
X117271428Y-102932857D01*
X115442857Y-102132857D02*
X115442857Y-102932857D01*
X115728571Y-101675714D02*
X116014285Y-102532857D01*
X115271428Y-102532857D01*
X114300000Y-102875714D02*
X114414285Y-102932857D01*
X114642857Y-102932857D01*
X114757142Y-102875714D01*
X114814285Y-102818571D01*
X114871428Y-102704285D01*
X114871428Y-102361428D01*
X114814285Y-102247142D01*
X114757142Y-102190000D01*
X114642857Y-102132857D01*
X114414285Y-102132857D01*
X114300000Y-102190000D01*
X113785714Y-102932857D02*
X113785714Y-101732857D01*
X113271428Y-102932857D02*
X113271428Y-102304285D01*
X113328571Y-102190000D01*
X113442857Y-102132857D01*
X113614285Y-102132857D01*
X113728571Y-102190000D01*
X113785714Y-102247142D01*
X125185714Y-104132857D02*
X124728571Y-104132857D01*
X125014285Y-104932857D02*
X125014285Y-103904285D01*
X124957142Y-103790000D01*
X124842857Y-103732857D01*
X124728571Y-103732857D01*
X124157142Y-104932857D02*
X124271428Y-104875714D01*
X124328571Y-104818571D01*
X124385714Y-104704285D01*
X124385714Y-104361428D01*
X124328571Y-104247142D01*
X124271428Y-104190000D01*
X124157142Y-104132857D01*
X123985714Y-104132857D01*
X123871428Y-104190000D01*
X123814285Y-104247142D01*
X123757142Y-104361428D01*
X123757142Y-104704285D01*
X123814285Y-104818571D01*
X123871428Y-104875714D01*
X123985714Y-104932857D01*
X124157142Y-104932857D01*
X123242857Y-104932857D02*
X123242857Y-104132857D01*
X123242857Y-104361428D02*
X123185714Y-104247142D01*
X123128571Y-104190000D01*
X123014285Y-104132857D01*
X122900000Y-104132857D01*
X120957142Y-103790000D02*
X121071428Y-103732857D01*
X121242857Y-103732857D01*
X121414285Y-103790000D01*
X121528571Y-103904285D01*
X121585714Y-104018571D01*
X121642857Y-104247142D01*
X121642857Y-104418571D01*
X121585714Y-104647142D01*
X121528571Y-104761428D01*
X121414285Y-104875714D01*
X121242857Y-104932857D01*
X121128571Y-104932857D01*
X120957142Y-104875714D01*
X120900000Y-104818571D01*
X120900000Y-104418571D01*
X121128571Y-104418571D01*
X119700000Y-104932857D02*
X120100000Y-104361428D01*
X120385714Y-104932857D02*
X120385714Y-103732857D01*
X119928571Y-103732857D01*
X119814285Y-103790000D01*
X119757142Y-103847142D01*
X119700000Y-103961428D01*
X119700000Y-104132857D01*
X119757142Y-104247142D01*
X119814285Y-104304285D01*
X119928571Y-104361428D01*
X120385714Y-104361428D01*
X118957142Y-103732857D02*
X118728571Y-103732857D01*
X118614285Y-103790000D01*
X118500000Y-103904285D01*
X118442857Y-104132857D01*
X118442857Y-104532857D01*
X118500000Y-104761428D01*
X118614285Y-104875714D01*
X118728571Y-104932857D01*
X118957142Y-104932857D01*
X119071428Y-104875714D01*
X119185714Y-104761428D01*
X119242857Y-104532857D01*
X119242857Y-104132857D01*
X119185714Y-103904285D01*
X119071428Y-103790000D01*
X118957142Y-103732857D01*
X118100000Y-103732857D02*
X117700000Y-104932857D01*
X117300000Y-103732857D01*
X116900000Y-104304285D02*
X116500000Y-104304285D01*
X116328571Y-104932857D02*
X116900000Y-104932857D01*
X116900000Y-103732857D01*
X116328571Y-103732857D01*
D11*
X81311904Y-151467380D02*
X81311904Y-150467380D01*
X80930952Y-150467380D01*
X80835714Y-150515000D01*
X80788095Y-150562619D01*
X80740476Y-150657857D01*
X80740476Y-150800714D01*
X80788095Y-150895952D01*
X80835714Y-150943571D01*
X80930952Y-150991190D01*
X81311904Y-150991190D01*
X78795714Y-143847380D02*
X78795714Y-142847380D01*
X78224285Y-143847380D01*
X78224285Y-142847380D01*
D12*
X82128571Y-102932857D02*
X82128571Y-101732857D01*
X81842857Y-101732857D01*
X81671428Y-101790000D01*
X81557142Y-101904285D01*
X81500000Y-102018571D01*
X81442857Y-102247142D01*
X81442857Y-102418571D01*
X81500000Y-102647142D01*
X81557142Y-102761428D01*
X81671428Y-102875714D01*
X81842857Y-102932857D01*
X82128571Y-102932857D01*
X80928571Y-102932857D02*
X80928571Y-102132857D01*
X80928571Y-101732857D02*
X80985714Y-101790000D01*
X80928571Y-101847142D01*
X80871428Y-101790000D01*
X80928571Y-101732857D01*
X80928571Y-101847142D01*
X79842857Y-102132857D02*
X79842857Y-103104285D01*
X79900000Y-103218571D01*
X79957142Y-103275714D01*
X80071428Y-103332857D01*
X80242857Y-103332857D01*
X80357142Y-103275714D01*
X79842857Y-102875714D02*
X79957142Y-102932857D01*
X80185714Y-102932857D01*
X80300000Y-102875714D01*
X80357142Y-102818571D01*
X80414285Y-102704285D01*
X80414285Y-102361428D01*
X80357142Y-102247142D01*
X80300000Y-102190000D01*
X80185714Y-102132857D01*
X79957142Y-102132857D01*
X79842857Y-102190000D01*
X79271428Y-102932857D02*
X79271428Y-102132857D01*
X79271428Y-101732857D02*
X79328571Y-101790000D01*
X79271428Y-101847142D01*
X79214285Y-101790000D01*
X79271428Y-101732857D01*
X79271428Y-101847142D01*
X78871428Y-102132857D02*
X78414285Y-102132857D01*
X78700000Y-101732857D02*
X78700000Y-102761428D01*
X78642857Y-102875714D01*
X78528571Y-102932857D01*
X78414285Y-102932857D01*
X77500000Y-102932857D02*
X77500000Y-102304285D01*
X77557142Y-102190000D01*
X77671428Y-102132857D01*
X77900000Y-102132857D01*
X78014285Y-102190000D01*
X77500000Y-102875714D02*
X77614285Y-102932857D01*
X77900000Y-102932857D01*
X78014285Y-102875714D01*
X78071428Y-102761428D01*
X78071428Y-102647142D01*
X78014285Y-102532857D01*
X77900000Y-102475714D01*
X77614285Y-102475714D01*
X77500000Y-102418571D01*
X76757142Y-102932857D02*
X76871428Y-102875714D01*
X76928571Y-102761428D01*
X76928571Y-101732857D01*
X75385714Y-102932857D02*
X75385714Y-101732857D01*
X74814285Y-102132857D02*
X74814285Y-102932857D01*
X74814285Y-102247142D02*
X74757142Y-102190000D01*
X74642857Y-102132857D01*
X74471428Y-102132857D01*
X74357142Y-102190000D01*
X74300000Y-102304285D01*
X74300000Y-102932857D01*
X73728571Y-102132857D02*
X73728571Y-103332857D01*
X73728571Y-102190000D02*
X73614285Y-102132857D01*
X73385714Y-102132857D01*
X73271428Y-102190000D01*
X73214285Y-102247142D01*
X73157142Y-102361428D01*
X73157142Y-102704285D01*
X73214285Y-102818571D01*
X73271428Y-102875714D01*
X73385714Y-102932857D01*
X73614285Y-102932857D01*
X73728571Y-102875714D01*
X72128571Y-102132857D02*
X72128571Y-102932857D01*
X72642857Y-102132857D02*
X72642857Y-102761428D01*
X72585714Y-102875714D01*
X72471428Y-102932857D01*
X72300000Y-102932857D01*
X72185714Y-102875714D01*
X72128571Y-102818571D01*
X71728571Y-102132857D02*
X71271428Y-102132857D01*
X71557142Y-101732857D02*
X71557142Y-102761428D01*
X71500000Y-102875714D01*
X71385714Y-102932857D01*
X71271428Y-102932857D01*
X69442857Y-102132857D02*
X69442857Y-102932857D01*
X69728571Y-101675714D02*
X70014285Y-102532857D01*
X69271428Y-102532857D01*
X68300000Y-102875714D02*
X68414285Y-102932857D01*
X68642857Y-102932857D01*
X68757142Y-102875714D01*
X68814285Y-102818571D01*
X68871428Y-102704285D01*
X68871428Y-102361428D01*
X68814285Y-102247142D01*
X68757142Y-102190000D01*
X68642857Y-102132857D01*
X68414285Y-102132857D01*
X68300000Y-102190000D01*
X67785714Y-102932857D02*
X67785714Y-101732857D01*
X67271428Y-102932857D02*
X67271428Y-102304285D01*
X67328571Y-102190000D01*
X67442857Y-102132857D01*
X67614285Y-102132857D01*
X67728571Y-102190000D01*
X67785714Y-102247142D01*
X79185714Y-104132857D02*
X78728571Y-104132857D01*
X79014285Y-104932857D02*
X79014285Y-103904285D01*
X78957142Y-103790000D01*
X78842857Y-103732857D01*
X78728571Y-103732857D01*
X78157142Y-104932857D02*
X78271428Y-104875714D01*
X78328571Y-104818571D01*
X78385714Y-104704285D01*
X78385714Y-104361428D01*
X78328571Y-104247142D01*
X78271428Y-104190000D01*
X78157142Y-104132857D01*
X77985714Y-104132857D01*
X77871428Y-104190000D01*
X77814285Y-104247142D01*
X77757142Y-104361428D01*
X77757142Y-104704285D01*
X77814285Y-104818571D01*
X77871428Y-104875714D01*
X77985714Y-104932857D01*
X78157142Y-104932857D01*
X77242857Y-104932857D02*
X77242857Y-104132857D01*
X77242857Y-104361428D02*
X77185714Y-104247142D01*
X77128571Y-104190000D01*
X77014285Y-104132857D01*
X76900000Y-104132857D01*
X74957142Y-103790000D02*
X75071428Y-103732857D01*
X75242857Y-103732857D01*
X75414285Y-103790000D01*
X75528571Y-103904285D01*
X75585714Y-104018571D01*
X75642857Y-104247142D01*
X75642857Y-104418571D01*
X75585714Y-104647142D01*
X75528571Y-104761428D01*
X75414285Y-104875714D01*
X75242857Y-104932857D01*
X75128571Y-104932857D01*
X74957142Y-104875714D01*
X74900000Y-104818571D01*
X74900000Y-104418571D01*
X75128571Y-104418571D01*
X73700000Y-104932857D02*
X74100000Y-104361428D01*
X74385714Y-104932857D02*
X74385714Y-103732857D01*
X73928571Y-103732857D01*
X73814285Y-103790000D01*
X73757142Y-103847142D01*
X73700000Y-103961428D01*
X73700000Y-104132857D01*
X73757142Y-104247142D01*
X73814285Y-104304285D01*
X73928571Y-104361428D01*
X74385714Y-104361428D01*
X72957142Y-103732857D02*
X72728571Y-103732857D01*
X72614285Y-103790000D01*
X72500000Y-103904285D01*
X72442857Y-104132857D01*
X72442857Y-104532857D01*
X72500000Y-104761428D01*
X72614285Y-104875714D01*
X72728571Y-104932857D01*
X72957142Y-104932857D01*
X73071428Y-104875714D01*
X73185714Y-104761428D01*
X73242857Y-104532857D01*
X73242857Y-104132857D01*
X73185714Y-103904285D01*
X73071428Y-103790000D01*
X72957142Y-103732857D01*
X72100000Y-103732857D02*
X71700000Y-104932857D01*
X71300000Y-103732857D01*
X70900000Y-104304285D02*
X70500000Y-104304285D01*
X70328571Y-104932857D02*
X70900000Y-104932857D01*
X70900000Y-103732857D01*
X70328571Y-103732857D01*
X79948571Y-125522857D02*
X80348571Y-124951428D01*
X80634285Y-125522857D02*
X80634285Y-124322857D01*
X80177142Y-124322857D01*
X80062857Y-124380000D01*
X80005714Y-124437142D01*
X79948571Y-124551428D01*
X79948571Y-124722857D01*
X80005714Y-124837142D01*
X80062857Y-124894285D01*
X80177142Y-124951428D01*
X80634285Y-124951428D01*
X78977142Y-125465714D02*
X79091428Y-125522857D01*
X79320000Y-125522857D01*
X79434285Y-125465714D01*
X79491428Y-125351428D01*
X79491428Y-124894285D01*
X79434285Y-124780000D01*
X79320000Y-124722857D01*
X79091428Y-124722857D01*
X78977142Y-124780000D01*
X78920000Y-124894285D01*
X78920000Y-125008571D01*
X79491428Y-125122857D01*
X78520000Y-124722857D02*
X78234285Y-125522857D01*
X77948571Y-124722857D01*
X77491428Y-125408571D02*
X77434285Y-125465714D01*
X77491428Y-125522857D01*
X77548571Y-125465714D01*
X77491428Y-125408571D01*
X77491428Y-125522857D01*
X76977142Y-124437142D02*
X76920000Y-124380000D01*
X76805714Y-124322857D01*
X76520000Y-124322857D01*
X76405714Y-124380000D01*
X76348571Y-124437142D01*
X76291428Y-124551428D01*
X76291428Y-124665714D01*
X76348571Y-124837142D01*
X77034285Y-125522857D01*
X76291428Y-125522857D01*
X74920000Y-124437142D02*
X74862857Y-124380000D01*
X74748571Y-124322857D01*
X74462857Y-124322857D01*
X74348571Y-124380000D01*
X74291428Y-124437142D01*
X74234285Y-124551428D01*
X74234285Y-124665714D01*
X74291428Y-124837142D01*
X74977142Y-125522857D01*
X74234285Y-125522857D01*
X73491428Y-124322857D02*
X73377142Y-124322857D01*
X73262857Y-124380000D01*
X73205714Y-124437142D01*
X73148571Y-124551428D01*
X73091428Y-124780000D01*
X73091428Y-125065714D01*
X73148571Y-125294285D01*
X73205714Y-125408571D01*
X73262857Y-125465714D01*
X73377142Y-125522857D01*
X73491428Y-125522857D01*
X73605714Y-125465714D01*
X73662857Y-125408571D01*
X73720000Y-125294285D01*
X73777142Y-125065714D01*
X73777142Y-124780000D01*
X73720000Y-124551428D01*
X73662857Y-124437142D01*
X73605714Y-124380000D01*
X73491428Y-124322857D01*
X72634285Y-124437142D02*
X72577142Y-124380000D01*
X72462857Y-124322857D01*
X72177142Y-124322857D01*
X72062857Y-124380000D01*
X72005714Y-124437142D01*
X71948571Y-124551428D01*
X71948571Y-124665714D01*
X72005714Y-124837142D01*
X72691428Y-125522857D01*
X71948571Y-125522857D01*
X71205714Y-124322857D02*
X71091428Y-124322857D01*
X70977142Y-124380000D01*
X70920000Y-124437142D01*
X70862857Y-124551428D01*
X70805714Y-124780000D01*
X70805714Y-125065714D01*
X70862857Y-125294285D01*
X70920000Y-125408571D01*
X70977142Y-125465714D01*
X71091428Y-125522857D01*
X71205714Y-125522857D01*
X71320000Y-125465714D01*
X71377142Y-125408571D01*
X71434285Y-125294285D01*
X71491428Y-125065714D01*
X71491428Y-124780000D01*
X71434285Y-124551428D01*
X71377142Y-124437142D01*
X71320000Y-124380000D01*
X71205714Y-124322857D01*
X70291428Y-125408571D02*
X70234285Y-125465714D01*
X70291428Y-125522857D01*
X70348571Y-125465714D01*
X70291428Y-125408571D01*
X70291428Y-125522857D01*
X69091428Y-125522857D02*
X69777142Y-125522857D01*
X69434285Y-125522857D02*
X69434285Y-124322857D01*
X69548571Y-124494285D01*
X69662857Y-124608571D01*
X69777142Y-124665714D01*
X67948571Y-125522857D02*
X68634285Y-125522857D01*
X68291428Y-125522857D02*
X68291428Y-124322857D01*
X68405714Y-124494285D01*
X68520000Y-124608571D01*
X68634285Y-124665714D01*
D11*
X78795714Y-151467380D02*
X78795714Y-150467380D01*
X78224285Y-151467380D01*
X78224285Y-150467380D01*
X86780714Y-148689761D02*
X86637857Y-148737380D01*
X86399761Y-148737380D01*
X86304523Y-148689761D01*
X86256904Y-148642142D01*
X86209285Y-148546904D01*
X86209285Y-148451666D01*
X86256904Y-148356428D01*
X86304523Y-148308809D01*
X86399761Y-148261190D01*
X86590238Y-148213571D01*
X86685476Y-148165952D01*
X86733095Y-148118333D01*
X86780714Y-148023095D01*
X86780714Y-147927857D01*
X86733095Y-147832619D01*
X86685476Y-147785000D01*
X86590238Y-147737380D01*
X86352142Y-147737380D01*
X86209285Y-147785000D01*
X85066428Y-147689761D02*
X85923571Y-148975476D01*
X84780714Y-148689761D02*
X84637857Y-148737380D01*
X84399761Y-148737380D01*
X84304523Y-148689761D01*
X84256904Y-148642142D01*
X84209285Y-148546904D01*
X84209285Y-148451666D01*
X84256904Y-148356428D01*
X84304523Y-148308809D01*
X84399761Y-148261190D01*
X84590238Y-148213571D01*
X84685476Y-148165952D01*
X84733095Y-148118333D01*
X84780714Y-148023095D01*
X84780714Y-147927857D01*
X84733095Y-147832619D01*
X84685476Y-147785000D01*
X84590238Y-147737380D01*
X84352142Y-147737380D01*
X84209285Y-147785000D01*
X86471190Y-150339761D02*
X86328333Y-150387380D01*
X86090238Y-150387380D01*
X85995000Y-150339761D01*
X85947380Y-150292142D01*
X85899761Y-150196904D01*
X85899761Y-150101666D01*
X85947380Y-150006428D01*
X85995000Y-149958809D01*
X86090238Y-149911190D01*
X86280714Y-149863571D01*
X86375952Y-149815952D01*
X86423571Y-149768333D01*
X86471190Y-149673095D01*
X86471190Y-149577857D01*
X86423571Y-149482619D01*
X86375952Y-149435000D01*
X86280714Y-149387380D01*
X86042619Y-149387380D01*
X85899761Y-149435000D01*
X85090238Y-150339761D02*
X85185476Y-150387380D01*
X85375952Y-150387380D01*
X85471190Y-150339761D01*
X85518809Y-150244523D01*
X85518809Y-149863571D01*
X85471190Y-149768333D01*
X85375952Y-149720714D01*
X85185476Y-149720714D01*
X85090238Y-149768333D01*
X85042619Y-149863571D01*
X85042619Y-149958809D01*
X85518809Y-150054047D01*
X84471190Y-150387380D02*
X84566428Y-150339761D01*
X84614047Y-150244523D01*
X84614047Y-149387380D01*
X81311904Y-143847380D02*
X81311904Y-142847380D01*
X80930952Y-142847380D01*
X80835714Y-142895000D01*
X80788095Y-142942619D01*
X80740476Y-143037857D01*
X80740476Y-143180714D01*
X80788095Y-143275952D01*
X80835714Y-143323571D01*
X80930952Y-143371190D01*
X81311904Y-143371190D01*
D10*
X83590000Y-144030000D02*
X83590000Y-155460000D01*
X83590000Y-155460000D02*
X82320000Y-155460000D01*
X82320000Y-144030000D02*
X83590000Y-144030000D01*
X105000000Y-91100000D02*
X105000000Y-165000000D01*
D11*
X104590476Y-86361904D02*
X102923809Y-91361904D01*
X101257142Y-86361904D01*
X96733333Y-90885714D02*
X96971428Y-91123809D01*
X97685714Y-91361904D01*
X98161904Y-91361904D01*
X98876190Y-91123809D01*
X99352380Y-90647619D01*
X99590476Y-90171428D01*
X99828571Y-89219047D01*
X99828571Y-88504761D01*
X99590476Y-87552380D01*
X99352380Y-87076190D01*
X98876190Y-86600000D01*
X98161904Y-86361904D01*
X97685714Y-86361904D01*
X96971428Y-86600000D01*
X96733333Y-86838095D01*
X94590476Y-86361904D02*
X94590476Y-90409523D01*
X94352380Y-90885714D01*
X94114285Y-91123809D01*
X93638095Y-91361904D01*
X92685714Y-91361904D01*
X92209523Y-91123809D01*
X91971428Y-90885714D01*
X91733333Y-90409523D01*
X91733333Y-86361904D01*
X90066666Y-86361904D02*
X87209523Y-86361904D01*
X88638095Y-91361904D02*
X88638095Y-86361904D01*
D10*
X142745276Y-140477500D02*
X143254724Y-140477500D01*
X142745276Y-141522500D02*
X143254724Y-141522500D01*
X142745276Y-116837500D02*
X143254724Y-116837500D01*
X142745276Y-117882500D02*
X143254724Y-117882500D01*
X142745276Y-151477500D02*
X143254724Y-151477500D01*
X142745276Y-152522500D02*
X143254724Y-152522500D01*
D13*
X124954360Y-121748180D02*
X124456520Y-121250340D01*
X128655140Y-118550320D02*
X128855800Y-118949100D01*
X124456520Y-118248060D02*
X124954360Y-117750220D01*
X126056720Y-120147980D02*
X125856060Y-120549300D01*
X128055700Y-119449480D02*
X128055700Y-119848260D01*
X123956140Y-119350420D02*
X124154260Y-118748440D01*
X126854280Y-118949100D02*
X126955880Y-118850040D01*
X127755980Y-120648360D02*
X127456260Y-120749960D01*
X127054940Y-120749960D02*
X126854280Y-120549300D01*
X126155780Y-122248560D02*
X125556340Y-122050440D01*
X125454740Y-117447960D02*
X125856060Y-117348900D01*
X125856060Y-117348900D02*
X126455500Y-117249840D01*
X125754460Y-118850040D02*
X125955120Y-119248820D01*
X125556340Y-122050440D02*
X124954360Y-121748180D01*
X124954360Y-118850040D02*
X125155020Y-118748440D01*
X125155020Y-118748440D02*
X125454740Y-118748440D01*
X128954860Y-120048920D02*
X128756740Y-120849020D01*
X123956140Y-119949860D02*
X123956140Y-119350420D01*
X125256620Y-120749960D02*
X124954360Y-120749960D01*
X125454740Y-120749960D02*
X125256620Y-120749960D01*
X128154760Y-121550060D02*
X127654380Y-121948840D01*
X126955880Y-118850040D02*
X127255600Y-118748440D01*
X126554560Y-117249840D02*
X127156540Y-117348900D01*
X124855300Y-118949100D02*
X124954360Y-118850040D01*
X127654380Y-121948840D02*
X126955880Y-122248560D01*
X126955880Y-122248560D02*
X126155780Y-122248560D01*
X125856060Y-120549300D02*
X125454740Y-120749960D01*
X128954860Y-119449480D02*
X128954860Y-120048920D01*
X127956640Y-120348640D02*
X127755980Y-120648360D01*
X127654380Y-117549560D02*
X128154760Y-117948340D01*
X124456520Y-121250340D02*
X124055200Y-120549300D01*
X127654380Y-118850040D02*
X127956640Y-119048160D01*
X127156540Y-117348900D02*
X127654380Y-117549560D01*
X127255600Y-118748440D02*
X127654380Y-118850040D01*
X128855800Y-118949100D02*
X128954860Y-119449480D01*
X124954360Y-120749960D02*
X124855300Y-120549300D01*
X128055700Y-119848260D02*
X127956640Y-120348640D01*
X124055200Y-120549300D02*
X123956140Y-119949860D01*
X124154260Y-118748440D02*
X124456520Y-118248060D01*
X128154760Y-117948340D02*
X128655140Y-118550320D01*
X127456260Y-120749960D02*
X127054940Y-120749960D01*
X126455500Y-117249840D02*
X126554560Y-117249840D01*
X124954360Y-117750220D02*
X125454740Y-117447960D01*
X128756740Y-120849020D02*
X128154760Y-121550060D01*
X125955120Y-119248820D02*
X126056720Y-119749200D01*
X126056720Y-119749200D02*
X126056720Y-120147980D01*
X125454740Y-118748440D02*
X125754460Y-118850040D01*
X127956640Y-119048160D02*
X128055700Y-119449480D01*
X115358380Y-118246460D02*
X115858760Y-118447120D01*
X116557260Y-117946740D02*
X117057640Y-118548720D01*
X113257800Y-120146380D02*
X113257800Y-119747600D01*
X113557520Y-120646760D02*
X113257800Y-120146380D01*
X113257800Y-119747600D02*
X113356860Y-119247220D01*
X113356860Y-119247220D02*
X113659120Y-118746840D01*
X113659120Y-118746840D02*
X113958840Y-118447120D01*
X113958840Y-118447120D02*
X114558280Y-118147400D01*
X113958840Y-121048080D02*
X113557520Y-120646760D01*
X114558280Y-118147400D02*
X114957060Y-118147400D01*
X114858000Y-117248240D02*
X114957060Y-117248240D01*
X114459220Y-121248740D02*
X113958840Y-121048080D01*
X116056880Y-117547960D02*
X116557260Y-117946740D01*
X114957060Y-121347800D02*
X114459220Y-121248740D01*
X114957060Y-118147400D02*
X115358380Y-118246460D01*
X115559040Y-117347300D02*
X116056880Y-117547960D01*
X117057640Y-118548720D02*
X117258300Y-118947500D01*
X114957060Y-117248240D02*
X115559040Y-117347300D01*
X117258300Y-118947500D02*
X117357360Y-119447880D01*
X117357360Y-119447880D02*
X117357360Y-120047320D01*
X115957820Y-120946480D02*
X115457440Y-121248740D01*
X115457440Y-121248740D02*
X114957060Y-121347800D01*
X117357360Y-120047320D02*
X117159240Y-120847420D01*
X117159240Y-120847420D02*
X116557260Y-121548460D01*
X116557260Y-121548460D02*
X116056880Y-121947240D01*
X112358640Y-119348820D02*
X112556760Y-118746840D01*
X114558280Y-122246960D02*
X113958840Y-122048840D01*
X113356860Y-121746580D02*
X112859020Y-121248740D01*
X113356860Y-117748620D02*
X113857240Y-117446360D01*
X112859020Y-118246460D02*
X113356860Y-117748620D01*
X112358640Y-119948260D02*
X112358640Y-119348820D01*
X114258560Y-117347300D02*
X114858000Y-117248240D01*
X115358380Y-122246960D02*
X114558280Y-122246960D01*
X112556760Y-118746840D02*
X112859020Y-118246460D01*
X113857240Y-117446360D02*
X114258560Y-117347300D01*
X116056880Y-121947240D02*
X115358380Y-122246960D01*
X112457700Y-120547700D02*
X112358640Y-119948260D01*
X113958840Y-122048840D02*
X113356860Y-121746580D01*
X112859020Y-121248740D02*
X112457700Y-120547700D01*
X119000740Y-121566240D02*
X119501120Y-121965020D01*
X119899900Y-118764620D02*
X121401040Y-118764620D01*
X121401040Y-118764620D02*
X121401040Y-119966040D01*
X121015666Y-118066120D02*
G75*
G03*
X121015666Y-118066120I-315666J0D01*
G01*
X120999720Y-122264740D02*
X121599160Y-122066620D01*
X120600940Y-117266020D02*
X119998960Y-117365080D01*
X120400280Y-121566240D02*
X120900660Y-121566240D01*
X120400280Y-120065100D02*
X120400280Y-121566240D01*
X118299700Y-118965280D02*
X118200640Y-119465660D01*
X118398760Y-120865200D02*
X119000740Y-121566240D01*
X122698980Y-121266520D02*
X123100300Y-120565480D01*
X120999720Y-121566240D02*
X120999720Y-119966040D01*
X118200640Y-120065100D02*
X118398760Y-120865200D01*
X120199620Y-122264740D02*
X120999720Y-122264740D01*
X123199360Y-119966040D02*
X123199360Y-119366600D01*
X122201140Y-117766400D02*
X121700760Y-117464140D01*
X119998960Y-117365080D02*
X119501120Y-117565740D01*
X121700760Y-117464140D02*
X121299440Y-117365080D01*
X121299440Y-117365080D02*
X120700000Y-117266020D01*
X119000740Y-117964520D02*
X118500360Y-118566500D01*
X120700000Y-120065100D02*
X120700000Y-121365580D01*
X121200380Y-119366600D02*
X119998960Y-119366600D01*
X119998960Y-119064340D02*
X121299440Y-119064340D01*
X120799060Y-121566240D02*
X120999720Y-121566240D01*
X121401040Y-119966040D02*
X119899900Y-119966040D01*
X119899900Y-119966040D02*
X119899900Y-118764620D01*
X118500360Y-118566500D02*
X118299700Y-118965280D01*
X122201140Y-121764360D02*
X122698980Y-121266520D01*
X123199360Y-119366600D02*
X123001240Y-118764620D01*
X123001240Y-118764620D02*
X122698980Y-118264240D01*
X119899900Y-119666320D02*
X121200380Y-119666320D01*
X121599160Y-122066620D02*
X122201140Y-121764360D01*
X120700000Y-117266020D02*
X120600940Y-117266020D01*
X123100300Y-120565480D02*
X123199360Y-119966040D01*
X119501120Y-121965020D02*
X120199620Y-122264740D01*
X122698980Y-118264240D02*
X122201140Y-117766400D01*
X119501120Y-117565740D02*
X119000740Y-117964520D01*
X118200640Y-119465660D02*
X118200640Y-120065100D01*
X120700000Y-117865460D02*
X120700000Y-118264240D01*
D10*
X142745276Y-134477500D02*
X143254724Y-134477500D01*
X142745276Y-135522500D02*
X143254724Y-135522500D01*
X138734724Y-102867500D02*
X138225276Y-102867500D01*
X138734724Y-103912500D02*
X138225276Y-103912500D01*
X123730000Y-146300000D02*
X127830000Y-146300000D01*
X127830000Y-146300000D02*
X127830000Y-144300000D01*
X127830000Y-144300000D02*
X123730000Y-144300000D01*
X123730000Y-144300000D02*
X123730000Y-146300000D01*
X138734724Y-129537500D02*
X138225276Y-129537500D01*
X138734724Y-130582500D02*
X138225276Y-130582500D01*
X138734724Y-126997500D02*
X138225276Y-126997500D01*
X138734724Y-128042500D02*
X138225276Y-128042500D01*
X138734724Y-105407500D02*
X138225276Y-105407500D01*
X138734724Y-106452500D02*
X138225276Y-106452500D01*
X142745276Y-111757500D02*
X143254724Y-111757500D01*
X142745276Y-112802500D02*
X143254724Y-112802500D01*
X123730000Y-153920000D02*
X127830000Y-153920000D01*
X127830000Y-153920000D02*
X127830000Y-151920000D01*
X127830000Y-151920000D02*
X123730000Y-151920000D01*
X123730000Y-151920000D02*
X123730000Y-153920000D01*
X96745276Y-141522500D02*
X97254724Y-141522500D01*
X96745276Y-140477500D02*
X97254724Y-140477500D01*
X96745276Y-152522500D02*
X97254724Y-152522500D01*
X96745276Y-151477500D02*
X97254724Y-151477500D01*
X96745276Y-117882500D02*
X97254724Y-117882500D01*
X96745276Y-116837500D02*
X97254724Y-116837500D01*
D13*
X74700000Y-117865460D02*
X74700000Y-118264240D01*
X72200640Y-119465660D02*
X72200640Y-120065100D01*
X73501120Y-117565740D02*
X73000740Y-117964520D01*
X76698980Y-118264240D02*
X76201140Y-117766400D01*
X73501120Y-121965020D02*
X74199620Y-122264740D01*
X77100300Y-120565480D02*
X77199360Y-119966040D01*
X74700000Y-117266020D02*
X74600940Y-117266020D01*
X75599160Y-122066620D02*
X76201140Y-121764360D01*
X73899900Y-119666320D02*
X75200380Y-119666320D01*
X77001240Y-118764620D02*
X76698980Y-118264240D01*
X77199360Y-119366600D02*
X77001240Y-118764620D01*
X76201140Y-121764360D02*
X76698980Y-121266520D01*
X72500360Y-118566500D02*
X72299700Y-118965280D01*
X73899900Y-119966040D02*
X73899900Y-118764620D01*
X75401040Y-119966040D02*
X73899900Y-119966040D01*
X74799060Y-121566240D02*
X74999720Y-121566240D01*
X73998960Y-119064340D02*
X75299440Y-119064340D01*
X75200380Y-119366600D02*
X73998960Y-119366600D01*
X74700000Y-120065100D02*
X74700000Y-121365580D01*
X73000740Y-117964520D02*
X72500360Y-118566500D01*
X75299440Y-117365080D02*
X74700000Y-117266020D01*
X75700760Y-117464140D02*
X75299440Y-117365080D01*
X73998960Y-117365080D02*
X73501120Y-117565740D01*
X76201140Y-117766400D02*
X75700760Y-117464140D01*
X77199360Y-119966040D02*
X77199360Y-119366600D01*
X74199620Y-122264740D02*
X74999720Y-122264740D01*
X72200640Y-120065100D02*
X72398760Y-120865200D01*
X74999720Y-121566240D02*
X74999720Y-119966040D01*
X76698980Y-121266520D02*
X77100300Y-120565480D01*
X72398760Y-120865200D02*
X73000740Y-121566240D01*
X72299700Y-118965280D02*
X72200640Y-119465660D01*
X74400280Y-120065100D02*
X74400280Y-121566240D01*
X74400280Y-121566240D02*
X74900660Y-121566240D01*
X74600940Y-117266020D02*
X73998960Y-117365080D01*
X74999720Y-122264740D02*
X75599160Y-122066620D01*
X75015666Y-118066120D02*
G75*
G03*
X75015666Y-118066120I-315666J0D01*
G01*
X75401040Y-118764620D02*
X75401040Y-119966040D01*
X73899900Y-118764620D02*
X75401040Y-118764620D01*
X73000740Y-121566240D02*
X73501120Y-121965020D01*
X66859020Y-121248740D02*
X66457700Y-120547700D01*
X67958840Y-122048840D02*
X67356860Y-121746580D01*
X66457700Y-120547700D02*
X66358640Y-119948260D01*
X70056880Y-121947240D02*
X69358380Y-122246960D01*
X67857240Y-117446360D02*
X68258560Y-117347300D01*
X66556760Y-118746840D02*
X66859020Y-118246460D01*
X69358380Y-122246960D02*
X68558280Y-122246960D01*
X68258560Y-117347300D02*
X68858000Y-117248240D01*
X66358640Y-119948260D02*
X66358640Y-119348820D01*
X66859020Y-118246460D02*
X67356860Y-117748620D01*
X67356860Y-117748620D02*
X67857240Y-117446360D01*
X67356860Y-121746580D02*
X66859020Y-121248740D01*
X68558280Y-122246960D02*
X67958840Y-122048840D01*
X66358640Y-119348820D02*
X66556760Y-118746840D01*
X70557260Y-121548460D02*
X70056880Y-121947240D01*
X71159240Y-120847420D02*
X70557260Y-121548460D01*
X71357360Y-120047320D02*
X71159240Y-120847420D01*
X69457440Y-121248740D02*
X68957060Y-121347800D01*
X69957820Y-120946480D02*
X69457440Y-121248740D01*
X71357360Y-119447880D02*
X71357360Y-120047320D01*
X71258300Y-118947500D02*
X71357360Y-119447880D01*
X68957060Y-117248240D02*
X69559040Y-117347300D01*
X71057640Y-118548720D02*
X71258300Y-118947500D01*
X69559040Y-117347300D02*
X70056880Y-117547960D01*
X68957060Y-118147400D02*
X69358380Y-118246460D01*
X68957060Y-121347800D02*
X68459220Y-121248740D01*
X70056880Y-117547960D02*
X70557260Y-117946740D01*
X68459220Y-121248740D02*
X67958840Y-121048080D01*
X68858000Y-117248240D02*
X68957060Y-117248240D01*
X68558280Y-118147400D02*
X68957060Y-118147400D01*
X67958840Y-121048080D02*
X67557520Y-120646760D01*
X67958840Y-118447120D02*
X68558280Y-118147400D01*
X67659120Y-118746840D02*
X67958840Y-118447120D01*
X67356860Y-119247220D02*
X67659120Y-118746840D01*
X67257800Y-119747600D02*
X67356860Y-119247220D01*
X67557520Y-120646760D02*
X67257800Y-120146380D01*
X67257800Y-120146380D02*
X67257800Y-119747600D01*
X70557260Y-117946740D02*
X71057640Y-118548720D01*
X69358380Y-118246460D02*
X69858760Y-118447120D01*
X81956640Y-119048160D02*
X82055700Y-119449480D01*
X79454740Y-118748440D02*
X79754460Y-118850040D01*
X80056720Y-119749200D02*
X80056720Y-120147980D01*
X79955120Y-119248820D02*
X80056720Y-119749200D01*
X82756740Y-120849020D02*
X82154760Y-121550060D01*
X78954360Y-117750220D02*
X79454740Y-117447960D01*
X80455500Y-117249840D02*
X80554560Y-117249840D01*
X81456260Y-120749960D02*
X81054940Y-120749960D01*
X82154760Y-117948340D02*
X82655140Y-118550320D01*
X78154260Y-118748440D02*
X78456520Y-118248060D01*
X78055200Y-120549300D02*
X77956140Y-119949860D01*
X82055700Y-119848260D02*
X81956640Y-120348640D01*
X78954360Y-120749960D02*
X78855300Y-120549300D01*
X82855800Y-118949100D02*
X82954860Y-119449480D01*
X81255600Y-118748440D02*
X81654380Y-118850040D01*
X81156540Y-117348900D02*
X81654380Y-117549560D01*
X81654380Y-118850040D02*
X81956640Y-119048160D01*
X78456520Y-121250340D02*
X78055200Y-120549300D01*
X81654380Y-117549560D02*
X82154760Y-117948340D01*
X81956640Y-120348640D02*
X81755980Y-120648360D01*
X82954860Y-119449480D02*
X82954860Y-120048920D01*
X79856060Y-120549300D02*
X79454740Y-120749960D01*
X80955880Y-122248560D02*
X80155780Y-122248560D01*
X81654380Y-121948840D02*
X80955880Y-122248560D01*
X78855300Y-118949100D02*
X78954360Y-118850040D01*
X80554560Y-117249840D02*
X81156540Y-117348900D01*
X80955880Y-118850040D02*
X81255600Y-118748440D01*
X82154760Y-121550060D02*
X81654380Y-121948840D01*
X79454740Y-120749960D02*
X79256620Y-120749960D01*
X79256620Y-120749960D02*
X78954360Y-120749960D01*
X77956140Y-119949860D02*
X77956140Y-119350420D01*
X82954860Y-120048920D02*
X82756740Y-120849020D01*
X79155020Y-118748440D02*
X79454740Y-118748440D01*
X78954360Y-118850040D02*
X79155020Y-118748440D01*
X79556340Y-122050440D02*
X78954360Y-121748180D01*
X79754460Y-118850040D02*
X79955120Y-119248820D01*
X79856060Y-117348900D02*
X80455500Y-117249840D01*
X79454740Y-117447960D02*
X79856060Y-117348900D01*
X80155780Y-122248560D02*
X79556340Y-122050440D01*
X81054940Y-120749960D02*
X80854280Y-120549300D01*
X81755980Y-120648360D02*
X81456260Y-120749960D01*
X80854280Y-118949100D02*
X80955880Y-118850040D01*
X77956140Y-119350420D02*
X78154260Y-118748440D01*
X82055700Y-119449480D02*
X82055700Y-119848260D01*
X80056720Y-120147980D02*
X79856060Y-120549300D01*
X78456520Y-118248060D02*
X78954360Y-117750220D01*
X82655140Y-118550320D02*
X82855800Y-118949100D01*
X78954360Y-121748180D02*
X78456520Y-121250340D01*
D10*
X77730000Y-151920000D02*
X77730000Y-153920000D01*
X81830000Y-151920000D02*
X77730000Y-151920000D01*
X81830000Y-153920000D02*
X81830000Y-151920000D01*
X77730000Y-153920000D02*
X81830000Y-153920000D01*
X77730000Y-144300000D02*
X77730000Y-146300000D01*
X81830000Y-144300000D02*
X77730000Y-144300000D01*
X81830000Y-146300000D02*
X81830000Y-144300000D01*
X77730000Y-146300000D02*
X81830000Y-146300000D01*
X96745276Y-112802500D02*
X97254724Y-112802500D01*
X96745276Y-111757500D02*
X97254724Y-111757500D01*
X96745276Y-135522500D02*
X97254724Y-135522500D01*
X96745276Y-134477500D02*
X97254724Y-134477500D01*
X92734724Y-106452500D02*
X92225276Y-106452500D01*
X92734724Y-105407500D02*
X92225276Y-105407500D01*
X92734724Y-103912500D02*
X92225276Y-103912500D01*
X92734724Y-102867500D02*
X92225276Y-102867500D01*
X92734724Y-128042500D02*
X92225276Y-128042500D01*
X92734724Y-126997500D02*
X92225276Y-126997500D01*
X92734724Y-130582500D02*
X92225276Y-130582500D01*
X92734724Y-129537500D02*
X92225276Y-129537500D01*
D11*
X143642857Y-142882380D02*
X143976190Y-142406190D01*
X144214285Y-142882380D02*
X144214285Y-141882380D01*
X143833333Y-141882380D01*
X143738095Y-141930000D01*
X143690476Y-141977619D01*
X143642857Y-142072857D01*
X143642857Y-142215714D01*
X143690476Y-142310952D01*
X143738095Y-142358571D01*
X143833333Y-142406190D01*
X144214285Y-142406190D01*
X142690476Y-142882380D02*
X143261904Y-142882380D01*
X142976190Y-142882380D02*
X142976190Y-141882380D01*
X143071428Y-142025238D01*
X143166666Y-142120476D01*
X143261904Y-142168095D01*
X141738095Y-142882380D02*
X142309523Y-142882380D01*
X142023809Y-142882380D02*
X142023809Y-141882380D01*
X142119047Y-142025238D01*
X142214285Y-142120476D01*
X142309523Y-142168095D01*
X143166666Y-119242380D02*
X143500000Y-118766190D01*
X143738095Y-119242380D02*
X143738095Y-118242380D01*
X143357142Y-118242380D01*
X143261904Y-118290000D01*
X143214285Y-118337619D01*
X143166666Y-118432857D01*
X143166666Y-118575714D01*
X143214285Y-118670952D01*
X143261904Y-118718571D01*
X143357142Y-118766190D01*
X143738095Y-118766190D01*
X142690476Y-119242380D02*
X142500000Y-119242380D01*
X142404761Y-119194761D01*
X142357142Y-119147142D01*
X142261904Y-119004285D01*
X142214285Y-118813809D01*
X142214285Y-118432857D01*
X142261904Y-118337619D01*
X142309523Y-118290000D01*
X142404761Y-118242380D01*
X142595238Y-118242380D01*
X142690476Y-118290000D01*
X142738095Y-118337619D01*
X142785714Y-118432857D01*
X142785714Y-118670952D01*
X142738095Y-118766190D01*
X142690476Y-118813809D01*
X142595238Y-118861428D01*
X142404761Y-118861428D01*
X142309523Y-118813809D01*
X142261904Y-118766190D01*
X142214285Y-118670952D01*
X143642857Y-153882380D02*
X143976190Y-153406190D01*
X144214285Y-153882380D02*
X144214285Y-152882380D01*
X143833333Y-152882380D01*
X143738095Y-152930000D01*
X143690476Y-152977619D01*
X143642857Y-153072857D01*
X143642857Y-153215714D01*
X143690476Y-153310952D01*
X143738095Y-153358571D01*
X143833333Y-153406190D01*
X144214285Y-153406190D01*
X143261904Y-152977619D02*
X143214285Y-152930000D01*
X143119047Y-152882380D01*
X142880952Y-152882380D01*
X142785714Y-152930000D01*
X142738095Y-152977619D01*
X142690476Y-153072857D01*
X142690476Y-153168095D01*
X142738095Y-153310952D01*
X143309523Y-153882380D01*
X142690476Y-153882380D01*
X142309523Y-152977619D02*
X142261904Y-152930000D01*
X142166666Y-152882380D01*
X141928571Y-152882380D01*
X141833333Y-152930000D01*
X141785714Y-152977619D01*
X141738095Y-153072857D01*
X141738095Y-153168095D01*
X141785714Y-153310952D01*
X142357142Y-153882380D01*
X141738095Y-153882380D01*
X143642857Y-136882380D02*
X143976190Y-136406190D01*
X144214285Y-136882380D02*
X144214285Y-135882380D01*
X143833333Y-135882380D01*
X143738095Y-135930000D01*
X143690476Y-135977619D01*
X143642857Y-136072857D01*
X143642857Y-136215714D01*
X143690476Y-136310952D01*
X143738095Y-136358571D01*
X143833333Y-136406190D01*
X144214285Y-136406190D01*
X142690476Y-136882380D02*
X143261904Y-136882380D01*
X142976190Y-136882380D02*
X142976190Y-135882380D01*
X143071428Y-136025238D01*
X143166666Y-136120476D01*
X143261904Y-136168095D01*
X142309523Y-135977619D02*
X142261904Y-135930000D01*
X142166666Y-135882380D01*
X141928571Y-135882380D01*
X141833333Y-135930000D01*
X141785714Y-135977619D01*
X141738095Y-136072857D01*
X141738095Y-136168095D01*
X141785714Y-136310952D01*
X142357142Y-136882380D01*
X141738095Y-136882380D01*
X136106666Y-103842380D02*
X136440000Y-103366190D01*
X136678095Y-103842380D02*
X136678095Y-102842380D01*
X136297142Y-102842380D01*
X136201904Y-102890000D01*
X136154285Y-102937619D01*
X136106666Y-103032857D01*
X136106666Y-103175714D01*
X136154285Y-103270952D01*
X136201904Y-103318571D01*
X136297142Y-103366190D01*
X136678095Y-103366190D01*
X135154285Y-103842380D02*
X135725714Y-103842380D01*
X135440000Y-103842380D02*
X135440000Y-102842380D01*
X135535238Y-102985238D01*
X135630476Y-103080476D01*
X135725714Y-103128095D01*
X126613333Y-146552380D02*
X126613333Y-147266666D01*
X126660952Y-147409523D01*
X126756190Y-147504761D01*
X126899047Y-147552380D01*
X126994285Y-147552380D01*
X126137142Y-147552380D02*
X126137142Y-146552380D01*
X125756190Y-146552380D01*
X125660952Y-146600000D01*
X125613333Y-146647619D01*
X125565714Y-146742857D01*
X125565714Y-146885714D01*
X125613333Y-146980952D01*
X125660952Y-147028571D01*
X125756190Y-147076190D01*
X126137142Y-147076190D01*
X124613333Y-147552380D02*
X125184761Y-147552380D01*
X124899047Y-147552380D02*
X124899047Y-146552380D01*
X124994285Y-146695238D01*
X125089523Y-146790476D01*
X125184761Y-146838095D01*
X122894285Y-145752380D02*
X123465714Y-145752380D01*
X123180000Y-145752380D02*
X123180000Y-144752380D01*
X123275238Y-144895238D01*
X123370476Y-144990476D01*
X123465714Y-145038095D01*
X128713333Y-144752380D02*
X128094285Y-144752380D01*
X128427619Y-145133333D01*
X128284761Y-145133333D01*
X128189523Y-145180952D01*
X128141904Y-145228571D01*
X128094285Y-145323809D01*
X128094285Y-145561904D01*
X128141904Y-145657142D01*
X128189523Y-145704761D01*
X128284761Y-145752380D01*
X128570476Y-145752380D01*
X128665714Y-145704761D01*
X128713333Y-145657142D01*
X136106666Y-130512380D02*
X136440000Y-130036190D01*
X136678095Y-130512380D02*
X136678095Y-129512380D01*
X136297142Y-129512380D01*
X136201904Y-129560000D01*
X136154285Y-129607619D01*
X136106666Y-129702857D01*
X136106666Y-129845714D01*
X136154285Y-129940952D01*
X136201904Y-129988571D01*
X136297142Y-130036190D01*
X136678095Y-130036190D01*
X135249523Y-129845714D02*
X135249523Y-130512380D01*
X135487619Y-129464761D02*
X135725714Y-130179047D01*
X135106666Y-130179047D01*
X138646666Y-126542380D02*
X138980000Y-126066190D01*
X139218095Y-126542380D02*
X139218095Y-125542380D01*
X138837142Y-125542380D01*
X138741904Y-125590000D01*
X138694285Y-125637619D01*
X138646666Y-125732857D01*
X138646666Y-125875714D01*
X138694285Y-125970952D01*
X138741904Y-126018571D01*
X138837142Y-126066190D01*
X139218095Y-126066190D01*
X138313333Y-125542380D02*
X137694285Y-125542380D01*
X138027619Y-125923333D01*
X137884761Y-125923333D01*
X137789523Y-125970952D01*
X137741904Y-126018571D01*
X137694285Y-126113809D01*
X137694285Y-126351904D01*
X137741904Y-126447142D01*
X137789523Y-126494761D01*
X137884761Y-126542380D01*
X138170476Y-126542380D01*
X138265714Y-126494761D01*
X138313333Y-126447142D01*
X136106666Y-106382380D02*
X136440000Y-105906190D01*
X136678095Y-106382380D02*
X136678095Y-105382380D01*
X136297142Y-105382380D01*
X136201904Y-105430000D01*
X136154285Y-105477619D01*
X136106666Y-105572857D01*
X136106666Y-105715714D01*
X136154285Y-105810952D01*
X136201904Y-105858571D01*
X136297142Y-105906190D01*
X136678095Y-105906190D01*
X135725714Y-105477619D02*
X135678095Y-105430000D01*
X135582857Y-105382380D01*
X135344761Y-105382380D01*
X135249523Y-105430000D01*
X135201904Y-105477619D01*
X135154285Y-105572857D01*
X135154285Y-105668095D01*
X135201904Y-105810952D01*
X135773333Y-106382380D01*
X135154285Y-106382380D01*
X143642857Y-114162380D02*
X143976190Y-113686190D01*
X144214285Y-114162380D02*
X144214285Y-113162380D01*
X143833333Y-113162380D01*
X143738095Y-113210000D01*
X143690476Y-113257619D01*
X143642857Y-113352857D01*
X143642857Y-113495714D01*
X143690476Y-113590952D01*
X143738095Y-113638571D01*
X143833333Y-113686190D01*
X144214285Y-113686190D01*
X142690476Y-114162380D02*
X143261904Y-114162380D01*
X142976190Y-114162380D02*
X142976190Y-113162380D01*
X143071428Y-113305238D01*
X143166666Y-113400476D01*
X143261904Y-113448095D01*
X142071428Y-113162380D02*
X141976190Y-113162380D01*
X141880952Y-113210000D01*
X141833333Y-113257619D01*
X141785714Y-113352857D01*
X141738095Y-113543333D01*
X141738095Y-113781428D01*
X141785714Y-113971904D01*
X141833333Y-114067142D01*
X141880952Y-114114761D01*
X141976190Y-114162380D01*
X142071428Y-114162380D01*
X142166666Y-114114761D01*
X142214285Y-114067142D01*
X142261904Y-113971904D01*
X142309523Y-113781428D01*
X142309523Y-113543333D01*
X142261904Y-113352857D01*
X142214285Y-113257619D01*
X142166666Y-113210000D01*
X142071428Y-113162380D01*
X126613333Y-154172380D02*
X126613333Y-154886666D01*
X126660952Y-155029523D01*
X126756190Y-155124761D01*
X126899047Y-155172380D01*
X126994285Y-155172380D01*
X126137142Y-155172380D02*
X126137142Y-154172380D01*
X125756190Y-154172380D01*
X125660952Y-154220000D01*
X125613333Y-154267619D01*
X125565714Y-154362857D01*
X125565714Y-154505714D01*
X125613333Y-154600952D01*
X125660952Y-154648571D01*
X125756190Y-154696190D01*
X126137142Y-154696190D01*
X125184761Y-154267619D02*
X125137142Y-154220000D01*
X125041904Y-154172380D01*
X124803809Y-154172380D01*
X124708571Y-154220000D01*
X124660952Y-154267619D01*
X124613333Y-154362857D01*
X124613333Y-154458095D01*
X124660952Y-154600952D01*
X125232380Y-155172380D01*
X124613333Y-155172380D01*
X122894285Y-153372380D02*
X123465714Y-153372380D01*
X123180000Y-153372380D02*
X123180000Y-152372380D01*
X123275238Y-152515238D01*
X123370476Y-152610476D01*
X123465714Y-152658095D01*
X128713333Y-152372380D02*
X128094285Y-152372380D01*
X128427619Y-152753333D01*
X128284761Y-152753333D01*
X128189523Y-152800952D01*
X128141904Y-152848571D01*
X128094285Y-152943809D01*
X128094285Y-153181904D01*
X128141904Y-153277142D01*
X128189523Y-153324761D01*
X128284761Y-153372380D01*
X128570476Y-153372380D01*
X128665714Y-153324761D01*
X128713333Y-153277142D01*
X97642857Y-142882380D02*
X97976190Y-142406190D01*
X98214285Y-142882380D02*
X98214285Y-141882380D01*
X97833333Y-141882380D01*
X97738095Y-141930000D01*
X97690476Y-141977619D01*
X97642857Y-142072857D01*
X97642857Y-142215714D01*
X97690476Y-142310952D01*
X97738095Y-142358571D01*
X97833333Y-142406190D01*
X98214285Y-142406190D01*
X96690476Y-142882380D02*
X97261904Y-142882380D01*
X96976190Y-142882380D02*
X96976190Y-141882380D01*
X97071428Y-142025238D01*
X97166666Y-142120476D01*
X97261904Y-142168095D01*
X95738095Y-142882380D02*
X96309523Y-142882380D01*
X96023809Y-142882380D02*
X96023809Y-141882380D01*
X96119047Y-142025238D01*
X96214285Y-142120476D01*
X96309523Y-142168095D01*
X97642857Y-153882380D02*
X97976190Y-153406190D01*
X98214285Y-153882380D02*
X98214285Y-152882380D01*
X97833333Y-152882380D01*
X97738095Y-152930000D01*
X97690476Y-152977619D01*
X97642857Y-153072857D01*
X97642857Y-153215714D01*
X97690476Y-153310952D01*
X97738095Y-153358571D01*
X97833333Y-153406190D01*
X98214285Y-153406190D01*
X97261904Y-152977619D02*
X97214285Y-152930000D01*
X97119047Y-152882380D01*
X96880952Y-152882380D01*
X96785714Y-152930000D01*
X96738095Y-152977619D01*
X96690476Y-153072857D01*
X96690476Y-153168095D01*
X96738095Y-153310952D01*
X97309523Y-153882380D01*
X96690476Y-153882380D01*
X96309523Y-152977619D02*
X96261904Y-152930000D01*
X96166666Y-152882380D01*
X95928571Y-152882380D01*
X95833333Y-152930000D01*
X95785714Y-152977619D01*
X95738095Y-153072857D01*
X95738095Y-153168095D01*
X95785714Y-153310952D01*
X96357142Y-153882380D01*
X95738095Y-153882380D01*
X97166666Y-119242380D02*
X97500000Y-118766190D01*
X97738095Y-119242380D02*
X97738095Y-118242380D01*
X97357142Y-118242380D01*
X97261904Y-118290000D01*
X97214285Y-118337619D01*
X97166666Y-118432857D01*
X97166666Y-118575714D01*
X97214285Y-118670952D01*
X97261904Y-118718571D01*
X97357142Y-118766190D01*
X97738095Y-118766190D01*
X96690476Y-119242380D02*
X96500000Y-119242380D01*
X96404761Y-119194761D01*
X96357142Y-119147142D01*
X96261904Y-119004285D01*
X96214285Y-118813809D01*
X96214285Y-118432857D01*
X96261904Y-118337619D01*
X96309523Y-118290000D01*
X96404761Y-118242380D01*
X96595238Y-118242380D01*
X96690476Y-118290000D01*
X96738095Y-118337619D01*
X96785714Y-118432857D01*
X96785714Y-118670952D01*
X96738095Y-118766190D01*
X96690476Y-118813809D01*
X96595238Y-118861428D01*
X96404761Y-118861428D01*
X96309523Y-118813809D01*
X96261904Y-118766190D01*
X96214285Y-118670952D01*
X80613333Y-154172380D02*
X80613333Y-154886666D01*
X80660952Y-155029523D01*
X80756190Y-155124761D01*
X80899047Y-155172380D01*
X80994285Y-155172380D01*
X80137142Y-155172380D02*
X80137142Y-154172380D01*
X79756190Y-154172380D01*
X79660952Y-154220000D01*
X79613333Y-154267619D01*
X79565714Y-154362857D01*
X79565714Y-154505714D01*
X79613333Y-154600952D01*
X79660952Y-154648571D01*
X79756190Y-154696190D01*
X80137142Y-154696190D01*
X79184761Y-154267619D02*
X79137142Y-154220000D01*
X79041904Y-154172380D01*
X78803809Y-154172380D01*
X78708571Y-154220000D01*
X78660952Y-154267619D01*
X78613333Y-154362857D01*
X78613333Y-154458095D01*
X78660952Y-154600952D01*
X79232380Y-155172380D01*
X78613333Y-155172380D01*
X82713333Y-152372380D02*
X82094285Y-152372380D01*
X82427619Y-152753333D01*
X82284761Y-152753333D01*
X82189523Y-152800952D01*
X82141904Y-152848571D01*
X82094285Y-152943809D01*
X82094285Y-153181904D01*
X82141904Y-153277142D01*
X82189523Y-153324761D01*
X82284761Y-153372380D01*
X82570476Y-153372380D01*
X82665714Y-153324761D01*
X82713333Y-153277142D01*
X76894285Y-153372380D02*
X77465714Y-153372380D01*
X77180000Y-153372380D02*
X77180000Y-152372380D01*
X77275238Y-152515238D01*
X77370476Y-152610476D01*
X77465714Y-152658095D01*
X80613333Y-146552380D02*
X80613333Y-147266666D01*
X80660952Y-147409523D01*
X80756190Y-147504761D01*
X80899047Y-147552380D01*
X80994285Y-147552380D01*
X80137142Y-147552380D02*
X80137142Y-146552380D01*
X79756190Y-146552380D01*
X79660952Y-146600000D01*
X79613333Y-146647619D01*
X79565714Y-146742857D01*
X79565714Y-146885714D01*
X79613333Y-146980952D01*
X79660952Y-147028571D01*
X79756190Y-147076190D01*
X80137142Y-147076190D01*
X78613333Y-147552380D02*
X79184761Y-147552380D01*
X78899047Y-147552380D02*
X78899047Y-146552380D01*
X78994285Y-146695238D01*
X79089523Y-146790476D01*
X79184761Y-146838095D01*
X82713333Y-144752380D02*
X82094285Y-144752380D01*
X82427619Y-145133333D01*
X82284761Y-145133333D01*
X82189523Y-145180952D01*
X82141904Y-145228571D01*
X82094285Y-145323809D01*
X82094285Y-145561904D01*
X82141904Y-145657142D01*
X82189523Y-145704761D01*
X82284761Y-145752380D01*
X82570476Y-145752380D01*
X82665714Y-145704761D01*
X82713333Y-145657142D01*
X76894285Y-145752380D02*
X77465714Y-145752380D01*
X77180000Y-145752380D02*
X77180000Y-144752380D01*
X77275238Y-144895238D01*
X77370476Y-144990476D01*
X77465714Y-145038095D01*
X97642857Y-114162380D02*
X97976190Y-113686190D01*
X98214285Y-114162380D02*
X98214285Y-113162380D01*
X97833333Y-113162380D01*
X97738095Y-113210000D01*
X97690476Y-113257619D01*
X97642857Y-113352857D01*
X97642857Y-113495714D01*
X97690476Y-113590952D01*
X97738095Y-113638571D01*
X97833333Y-113686190D01*
X98214285Y-113686190D01*
X96690476Y-114162380D02*
X97261904Y-114162380D01*
X96976190Y-114162380D02*
X96976190Y-113162380D01*
X97071428Y-113305238D01*
X97166666Y-113400476D01*
X97261904Y-113448095D01*
X96071428Y-113162380D02*
X95976190Y-113162380D01*
X95880952Y-113210000D01*
X95833333Y-113257619D01*
X95785714Y-113352857D01*
X95738095Y-113543333D01*
X95738095Y-113781428D01*
X95785714Y-113971904D01*
X95833333Y-114067142D01*
X95880952Y-114114761D01*
X95976190Y-114162380D01*
X96071428Y-114162380D01*
X96166666Y-114114761D01*
X96214285Y-114067142D01*
X96261904Y-113971904D01*
X96309523Y-113781428D01*
X96309523Y-113543333D01*
X96261904Y-113352857D01*
X96214285Y-113257619D01*
X96166666Y-113210000D01*
X96071428Y-113162380D01*
X97642857Y-136882380D02*
X97976190Y-136406190D01*
X98214285Y-136882380D02*
X98214285Y-135882380D01*
X97833333Y-135882380D01*
X97738095Y-135930000D01*
X97690476Y-135977619D01*
X97642857Y-136072857D01*
X97642857Y-136215714D01*
X97690476Y-136310952D01*
X97738095Y-136358571D01*
X97833333Y-136406190D01*
X98214285Y-136406190D01*
X96690476Y-136882380D02*
X97261904Y-136882380D01*
X96976190Y-136882380D02*
X96976190Y-135882380D01*
X97071428Y-136025238D01*
X97166666Y-136120476D01*
X97261904Y-136168095D01*
X96309523Y-135977619D02*
X96261904Y-135930000D01*
X96166666Y-135882380D01*
X95928571Y-135882380D01*
X95833333Y-135930000D01*
X95785714Y-135977619D01*
X95738095Y-136072857D01*
X95738095Y-136168095D01*
X95785714Y-136310952D01*
X96357142Y-136882380D01*
X95738095Y-136882380D01*
X90106666Y-106382380D02*
X90440000Y-105906190D01*
X90678095Y-106382380D02*
X90678095Y-105382380D01*
X90297142Y-105382380D01*
X90201904Y-105430000D01*
X90154285Y-105477619D01*
X90106666Y-105572857D01*
X90106666Y-105715714D01*
X90154285Y-105810952D01*
X90201904Y-105858571D01*
X90297142Y-105906190D01*
X90678095Y-105906190D01*
X89725714Y-105477619D02*
X89678095Y-105430000D01*
X89582857Y-105382380D01*
X89344761Y-105382380D01*
X89249523Y-105430000D01*
X89201904Y-105477619D01*
X89154285Y-105572857D01*
X89154285Y-105668095D01*
X89201904Y-105810952D01*
X89773333Y-106382380D01*
X89154285Y-106382380D01*
X90106666Y-103842380D02*
X90440000Y-103366190D01*
X90678095Y-103842380D02*
X90678095Y-102842380D01*
X90297142Y-102842380D01*
X90201904Y-102890000D01*
X90154285Y-102937619D01*
X90106666Y-103032857D01*
X90106666Y-103175714D01*
X90154285Y-103270952D01*
X90201904Y-103318571D01*
X90297142Y-103366190D01*
X90678095Y-103366190D01*
X89154285Y-103842380D02*
X89725714Y-103842380D01*
X89440000Y-103842380D02*
X89440000Y-102842380D01*
X89535238Y-102985238D01*
X89630476Y-103080476D01*
X89725714Y-103128095D01*
X92646666Y-126542380D02*
X92980000Y-126066190D01*
X93218095Y-126542380D02*
X93218095Y-125542380D01*
X92837142Y-125542380D01*
X92741904Y-125590000D01*
X92694285Y-125637619D01*
X92646666Y-125732857D01*
X92646666Y-125875714D01*
X92694285Y-125970952D01*
X92741904Y-126018571D01*
X92837142Y-126066190D01*
X93218095Y-126066190D01*
X92313333Y-125542380D02*
X91694285Y-125542380D01*
X92027619Y-125923333D01*
X91884761Y-125923333D01*
X91789523Y-125970952D01*
X91741904Y-126018571D01*
X91694285Y-126113809D01*
X91694285Y-126351904D01*
X91741904Y-126447142D01*
X91789523Y-126494761D01*
X91884761Y-126542380D01*
X92170476Y-126542380D01*
X92265714Y-126494761D01*
X92313333Y-126447142D01*
X90106666Y-130512380D02*
X90440000Y-130036190D01*
X90678095Y-130512380D02*
X90678095Y-129512380D01*
X90297142Y-129512380D01*
X90201904Y-129560000D01*
X90154285Y-129607619D01*
X90106666Y-129702857D01*
X90106666Y-129845714D01*
X90154285Y-129940952D01*
X90201904Y-129988571D01*
X90297142Y-130036190D01*
X90678095Y-130036190D01*
X89249523Y-129845714D02*
X89249523Y-130512380D01*
X89487619Y-129464761D02*
X89725714Y-130179047D01*
X89106666Y-130179047D01*
M02*
