G04 #@! TF.GenerationSoftware,KiCad,Pcbnew,(5.1.5)-3*
G04 #@! TF.CreationDate,2020-04-22T00:17:02+09:00*
G04 #@! TF.ProjectId,IOExpander,494f4578-7061-46e6-9465-722e6b696361,Rev 2.1*
G04 #@! TF.SameCoordinates,Original*
G04 #@! TF.FileFunction,Legend,Bot*
G04 #@! TF.FilePolarity,Positive*
%FSLAX46Y46*%
G04 Gerber Fmt 4.6, Leading zero omitted, Abs format (unit mm)*
G04 Created by KiCad (PCBNEW (5.1.5)-3) date 2020-04-22 00:17:02*
%MOMM*%
%LPD*%
G04 APERTURE LIST*
%ADD10C,0.150000*%
%ADD11C,0.381000*%
G04 APERTURE END LIST*
D10*
X113337142Y-178887380D02*
X113337142Y-177887380D01*
X112146666Y-177839761D02*
X113003809Y-179125476D01*
X111622857Y-177887380D02*
X111432380Y-177887380D01*
X111337142Y-177935000D01*
X111241904Y-178030238D01*
X111194285Y-178220714D01*
X111194285Y-178554047D01*
X111241904Y-178744523D01*
X111337142Y-178839761D01*
X111432380Y-178887380D01*
X111622857Y-178887380D01*
X111718095Y-178839761D01*
X111813333Y-178744523D01*
X111860952Y-178554047D01*
X111860952Y-178220714D01*
X111813333Y-178030238D01*
X111718095Y-177935000D01*
X111622857Y-177887380D01*
X110003809Y-178363571D02*
X109670476Y-178363571D01*
X109527619Y-178887380D02*
X110003809Y-178887380D01*
X110003809Y-177887380D01*
X109527619Y-177887380D01*
X109194285Y-178887380D02*
X108670476Y-178220714D01*
X109194285Y-178220714D02*
X108670476Y-178887380D01*
X108289523Y-178220714D02*
X108289523Y-179220714D01*
X108289523Y-178268333D02*
X108194285Y-178220714D01*
X108003809Y-178220714D01*
X107908571Y-178268333D01*
X107860952Y-178315952D01*
X107813333Y-178411190D01*
X107813333Y-178696904D01*
X107860952Y-178792142D01*
X107908571Y-178839761D01*
X108003809Y-178887380D01*
X108194285Y-178887380D01*
X108289523Y-178839761D01*
X106956190Y-178887380D02*
X106956190Y-178363571D01*
X107003809Y-178268333D01*
X107099047Y-178220714D01*
X107289523Y-178220714D01*
X107384761Y-178268333D01*
X106956190Y-178839761D02*
X107051428Y-178887380D01*
X107289523Y-178887380D01*
X107384761Y-178839761D01*
X107432380Y-178744523D01*
X107432380Y-178649285D01*
X107384761Y-178554047D01*
X107289523Y-178506428D01*
X107051428Y-178506428D01*
X106956190Y-178458809D01*
X106480000Y-178220714D02*
X106480000Y-178887380D01*
X106480000Y-178315952D02*
X106432380Y-178268333D01*
X106337142Y-178220714D01*
X106194285Y-178220714D01*
X106099047Y-178268333D01*
X106051428Y-178363571D01*
X106051428Y-178887380D01*
X105146666Y-178887380D02*
X105146666Y-177887380D01*
X105146666Y-178839761D02*
X105241904Y-178887380D01*
X105432380Y-178887380D01*
X105527619Y-178839761D01*
X105575238Y-178792142D01*
X105622857Y-178696904D01*
X105622857Y-178411190D01*
X105575238Y-178315952D01*
X105527619Y-178268333D01*
X105432380Y-178220714D01*
X105241904Y-178220714D01*
X105146666Y-178268333D01*
X104289523Y-178839761D02*
X104384761Y-178887380D01*
X104575238Y-178887380D01*
X104670476Y-178839761D01*
X104718095Y-178744523D01*
X104718095Y-178363571D01*
X104670476Y-178268333D01*
X104575238Y-178220714D01*
X104384761Y-178220714D01*
X104289523Y-178268333D01*
X104241904Y-178363571D01*
X104241904Y-178458809D01*
X104718095Y-178554047D01*
X103813333Y-178887380D02*
X103813333Y-178220714D01*
X103813333Y-178411190D02*
X103765714Y-178315952D01*
X103718095Y-178268333D01*
X103622857Y-178220714D01*
X103527619Y-178220714D01*
X101908571Y-178887380D02*
X102480000Y-178887380D01*
X102194285Y-178887380D02*
X102194285Y-177887380D01*
X102289523Y-178030238D01*
X102384761Y-178125476D01*
X102480000Y-178173095D01*
X101051428Y-177887380D02*
X101241904Y-177887380D01*
X101337142Y-177935000D01*
X101384761Y-177982619D01*
X101480000Y-178125476D01*
X101527619Y-178315952D01*
X101527619Y-178696904D01*
X101480000Y-178792142D01*
X101432380Y-178839761D01*
X101337142Y-178887380D01*
X101146666Y-178887380D01*
X101051428Y-178839761D01*
X101003809Y-178792142D01*
X100956190Y-178696904D01*
X100956190Y-178458809D01*
X101003809Y-178363571D01*
X101051428Y-178315952D01*
X101146666Y-178268333D01*
X101337142Y-178268333D01*
X101432380Y-178315952D01*
X101480000Y-178363571D01*
X101527619Y-178458809D01*
X100622857Y-177887380D02*
X99956190Y-178887380D01*
X99956190Y-177887380D02*
X100622857Y-178887380D01*
X99384761Y-178411190D02*
X99384761Y-178887380D01*
X99718095Y-177887380D02*
X99384761Y-178411190D01*
X99051428Y-177887380D01*
X97956190Y-178887380D02*
X97956190Y-177887380D01*
X97527619Y-177982619D02*
X97480000Y-177935000D01*
X97384761Y-177887380D01*
X97146666Y-177887380D01*
X97051428Y-177935000D01*
X97003809Y-177982619D01*
X96956190Y-178077857D01*
X96956190Y-178173095D01*
X97003809Y-178315952D01*
X97575238Y-178887380D01*
X96956190Y-178887380D01*
X95956190Y-178792142D02*
X96003809Y-178839761D01*
X96146666Y-178887380D01*
X96241904Y-178887380D01*
X96384761Y-178839761D01*
X96480000Y-178744523D01*
X96527619Y-178649285D01*
X96575238Y-178458809D01*
X96575238Y-178315952D01*
X96527619Y-178125476D01*
X96480000Y-178030238D01*
X96384761Y-177935000D01*
X96241904Y-177887380D01*
X96146666Y-177887380D01*
X96003809Y-177935000D01*
X95956190Y-177982619D01*
X94908571Y-178220714D02*
X94527619Y-178220714D01*
X94765714Y-178887380D02*
X94765714Y-178030238D01*
X94718095Y-177935000D01*
X94622857Y-177887380D01*
X94527619Y-177887380D01*
X94051428Y-178887380D02*
X94146666Y-178839761D01*
X94194285Y-178792142D01*
X94241904Y-178696904D01*
X94241904Y-178411190D01*
X94194285Y-178315952D01*
X94146666Y-178268333D01*
X94051428Y-178220714D01*
X93908571Y-178220714D01*
X93813333Y-178268333D01*
X93765714Y-178315952D01*
X93718095Y-178411190D01*
X93718095Y-178696904D01*
X93765714Y-178792142D01*
X93813333Y-178839761D01*
X93908571Y-178887380D01*
X94051428Y-178887380D01*
X93289523Y-178887380D02*
X93289523Y-178220714D01*
X93289523Y-178411190D02*
X93241904Y-178315952D01*
X93194285Y-178268333D01*
X93099047Y-178220714D01*
X93003809Y-178220714D01*
X91384761Y-177935000D02*
X91480000Y-177887380D01*
X91622857Y-177887380D01*
X91765714Y-177935000D01*
X91860952Y-178030238D01*
X91908571Y-178125476D01*
X91956190Y-178315952D01*
X91956190Y-178458809D01*
X91908571Y-178649285D01*
X91860952Y-178744523D01*
X91765714Y-178839761D01*
X91622857Y-178887380D01*
X91527619Y-178887380D01*
X91384761Y-178839761D01*
X91337142Y-178792142D01*
X91337142Y-178458809D01*
X91527619Y-178458809D01*
X90337142Y-178887380D02*
X90670476Y-178411190D01*
X90908571Y-178887380D02*
X90908571Y-177887380D01*
X90527619Y-177887380D01*
X90432380Y-177935000D01*
X90384761Y-177982619D01*
X90337142Y-178077857D01*
X90337142Y-178220714D01*
X90384761Y-178315952D01*
X90432380Y-178363571D01*
X90527619Y-178411190D01*
X90908571Y-178411190D01*
X89718095Y-177887380D02*
X89527619Y-177887380D01*
X89432380Y-177935000D01*
X89337142Y-178030238D01*
X89289523Y-178220714D01*
X89289523Y-178554047D01*
X89337142Y-178744523D01*
X89432380Y-178839761D01*
X89527619Y-178887380D01*
X89718095Y-178887380D01*
X89813333Y-178839761D01*
X89908571Y-178744523D01*
X89956190Y-178554047D01*
X89956190Y-178220714D01*
X89908571Y-178030238D01*
X89813333Y-177935000D01*
X89718095Y-177887380D01*
X89003809Y-177887380D02*
X88670476Y-178887380D01*
X88337142Y-177887380D01*
X88003809Y-178363571D02*
X87670476Y-178363571D01*
X87527619Y-178887380D02*
X88003809Y-178887380D01*
X88003809Y-177887380D01*
X87527619Y-177887380D01*
X85765714Y-178887380D02*
X86099047Y-178411190D01*
X86337142Y-178887380D02*
X86337142Y-177887380D01*
X85956190Y-177887380D01*
X85860952Y-177935000D01*
X85813333Y-177982619D01*
X85765714Y-178077857D01*
X85765714Y-178220714D01*
X85813333Y-178315952D01*
X85860952Y-178363571D01*
X85956190Y-178411190D01*
X86337142Y-178411190D01*
X85337142Y-178887380D02*
X85337142Y-178220714D01*
X85337142Y-178411190D02*
X85289523Y-178315952D01*
X85241904Y-178268333D01*
X85146666Y-178220714D01*
X85051428Y-178220714D01*
X84813333Y-178220714D02*
X84575238Y-178887380D01*
X84337142Y-178220714D01*
X83956190Y-178792142D02*
X83908571Y-178839761D01*
X83956190Y-178887380D01*
X84003809Y-178839761D01*
X83956190Y-178792142D01*
X83956190Y-178887380D01*
X83527619Y-177982619D02*
X83480000Y-177935000D01*
X83384761Y-177887380D01*
X83146666Y-177887380D01*
X83051428Y-177935000D01*
X83003809Y-177982619D01*
X82956190Y-178077857D01*
X82956190Y-178173095D01*
X83003809Y-178315952D01*
X83575238Y-178887380D01*
X82956190Y-178887380D01*
X82527619Y-178792142D02*
X82480000Y-178839761D01*
X82527619Y-178887380D01*
X82575238Y-178839761D01*
X82527619Y-178792142D01*
X82527619Y-178887380D01*
X81527619Y-178887380D02*
X82099047Y-178887380D01*
X81813333Y-178887380D02*
X81813333Y-177887380D01*
X81908571Y-178030238D01*
X82003809Y-178125476D01*
X82099047Y-178173095D01*
X80384761Y-177982619D02*
X80337142Y-177935000D01*
X80241904Y-177887380D01*
X80003809Y-177887380D01*
X79908571Y-177935000D01*
X79860952Y-177982619D01*
X79813333Y-178077857D01*
X79813333Y-178173095D01*
X79860952Y-178315952D01*
X80432380Y-178887380D01*
X79813333Y-178887380D01*
X79194285Y-177887380D02*
X79099047Y-177887380D01*
X79003809Y-177935000D01*
X78956190Y-177982619D01*
X78908571Y-178077857D01*
X78860952Y-178268333D01*
X78860952Y-178506428D01*
X78908571Y-178696904D01*
X78956190Y-178792142D01*
X79003809Y-178839761D01*
X79099047Y-178887380D01*
X79194285Y-178887380D01*
X79289523Y-178839761D01*
X79337142Y-178792142D01*
X79384761Y-178696904D01*
X79432380Y-178506428D01*
X79432380Y-178268333D01*
X79384761Y-178077857D01*
X79337142Y-177982619D01*
X79289523Y-177935000D01*
X79194285Y-177887380D01*
X78480000Y-177982619D02*
X78432380Y-177935000D01*
X78337142Y-177887380D01*
X78099047Y-177887380D01*
X78003809Y-177935000D01*
X77956190Y-177982619D01*
X77908571Y-178077857D01*
X77908571Y-178173095D01*
X77956190Y-178315952D01*
X78527619Y-178887380D01*
X77908571Y-178887380D01*
X77289523Y-177887380D02*
X77194285Y-177887380D01*
X77099047Y-177935000D01*
X77051428Y-177982619D01*
X77003809Y-178077857D01*
X76956190Y-178268333D01*
X76956190Y-178506428D01*
X77003809Y-178696904D01*
X77051428Y-178792142D01*
X77099047Y-178839761D01*
X77194285Y-178887380D01*
X77289523Y-178887380D01*
X77384761Y-178839761D01*
X77432380Y-178792142D01*
X77480000Y-178696904D01*
X77527619Y-178506428D01*
X77527619Y-178268333D01*
X77480000Y-178077857D01*
X77432380Y-177982619D01*
X77384761Y-177935000D01*
X77289523Y-177887380D01*
X76527619Y-178792142D02*
X76480000Y-178839761D01*
X76527619Y-178887380D01*
X76575238Y-178839761D01*
X76527619Y-178792142D01*
X76527619Y-178887380D01*
X75860952Y-177887380D02*
X75765714Y-177887380D01*
X75670476Y-177935000D01*
X75622857Y-177982619D01*
X75575238Y-178077857D01*
X75527619Y-178268333D01*
X75527619Y-178506428D01*
X75575238Y-178696904D01*
X75622857Y-178792142D01*
X75670476Y-178839761D01*
X75765714Y-178887380D01*
X75860952Y-178887380D01*
X75956190Y-178839761D01*
X76003809Y-178792142D01*
X76051428Y-178696904D01*
X76099047Y-178506428D01*
X76099047Y-178268333D01*
X76051428Y-178077857D01*
X76003809Y-177982619D01*
X75956190Y-177935000D01*
X75860952Y-177887380D01*
X74670476Y-178220714D02*
X74670476Y-178887380D01*
X74908571Y-177839761D02*
X75146666Y-178554047D01*
X74527619Y-178554047D01*
D11*
X96374360Y-87188180D02*
X95876520Y-86690340D01*
X100075140Y-83990320D02*
X100275800Y-84389100D01*
X95876520Y-83688060D02*
X96374360Y-83190220D01*
X97476720Y-85587980D02*
X97276060Y-85989300D01*
X99475700Y-84889480D02*
X99475700Y-85288260D01*
X95376140Y-84790420D02*
X95574260Y-84188440D01*
X98274280Y-84389100D02*
X98375880Y-84290040D01*
X99175980Y-86088360D02*
X98876260Y-86189960D01*
X98474940Y-86189960D02*
X98274280Y-85989300D01*
X97575780Y-87688560D02*
X96976340Y-87490440D01*
X96874740Y-82887960D02*
X97276060Y-82788900D01*
X97276060Y-82788900D02*
X97875500Y-82689840D01*
X97174460Y-84290040D02*
X97375120Y-84688820D01*
X96976340Y-87490440D02*
X96374360Y-87188180D01*
X96374360Y-84290040D02*
X96575020Y-84188440D01*
X96575020Y-84188440D02*
X96874740Y-84188440D01*
X100374860Y-85488920D02*
X100176740Y-86289020D01*
X95376140Y-85389860D02*
X95376140Y-84790420D01*
X96676620Y-86189960D02*
X96374360Y-86189960D01*
X96874740Y-86189960D02*
X96676620Y-86189960D01*
X99574760Y-86990060D02*
X99074380Y-87388840D01*
X98375880Y-84290040D02*
X98675600Y-84188440D01*
X97974560Y-82689840D02*
X98576540Y-82788900D01*
X96275300Y-84389100D02*
X96374360Y-84290040D01*
X99074380Y-87388840D02*
X98375880Y-87688560D01*
X98375880Y-87688560D02*
X97575780Y-87688560D01*
X97276060Y-85989300D02*
X96874740Y-86189960D01*
X100374860Y-84889480D02*
X100374860Y-85488920D01*
X99376640Y-85788640D02*
X99175980Y-86088360D01*
X99074380Y-82989560D02*
X99574760Y-83388340D01*
X95876520Y-86690340D02*
X95475200Y-85989300D01*
X99074380Y-84290040D02*
X99376640Y-84488160D01*
X98576540Y-82788900D02*
X99074380Y-82989560D01*
X98675600Y-84188440D02*
X99074380Y-84290040D01*
X100275800Y-84389100D02*
X100374860Y-84889480D01*
X96374360Y-86189960D02*
X96275300Y-85989300D01*
X99475700Y-85288260D02*
X99376640Y-85788640D01*
X95475200Y-85989300D02*
X95376140Y-85389860D01*
X95574260Y-84188440D02*
X95876520Y-83688060D01*
X99574760Y-83388340D02*
X100075140Y-83990320D01*
X98876260Y-86189960D02*
X98474940Y-86189960D01*
X97875500Y-82689840D02*
X97974560Y-82689840D01*
X96374360Y-83190220D02*
X96874740Y-82887960D01*
X100176740Y-86289020D02*
X99574760Y-86990060D01*
X97375120Y-84688820D02*
X97476720Y-85189200D01*
X97476720Y-85189200D02*
X97476720Y-85587980D01*
X96874740Y-84188440D02*
X97174460Y-84290040D01*
X99376640Y-84488160D02*
X99475700Y-84889480D01*
X86778380Y-83686460D02*
X87278760Y-83887120D01*
X87977260Y-83386740D02*
X88477640Y-83988720D01*
X84677800Y-85586380D02*
X84677800Y-85187600D01*
X84977520Y-86086760D02*
X84677800Y-85586380D01*
X84677800Y-85187600D02*
X84776860Y-84687220D01*
X84776860Y-84687220D02*
X85079120Y-84186840D01*
X85079120Y-84186840D02*
X85378840Y-83887120D01*
X85378840Y-83887120D02*
X85978280Y-83587400D01*
X85378840Y-86488080D02*
X84977520Y-86086760D01*
X85978280Y-83587400D02*
X86377060Y-83587400D01*
X86278000Y-82688240D02*
X86377060Y-82688240D01*
X85879220Y-86688740D02*
X85378840Y-86488080D01*
X87476880Y-82987960D02*
X87977260Y-83386740D01*
X86377060Y-86787800D02*
X85879220Y-86688740D01*
X86377060Y-83587400D02*
X86778380Y-83686460D01*
X86979040Y-82787300D02*
X87476880Y-82987960D01*
X88477640Y-83988720D02*
X88678300Y-84387500D01*
X86377060Y-82688240D02*
X86979040Y-82787300D01*
X88678300Y-84387500D02*
X88777360Y-84887880D01*
X88777360Y-84887880D02*
X88777360Y-85487320D01*
X87377820Y-86386480D02*
X86877440Y-86688740D01*
X86877440Y-86688740D02*
X86377060Y-86787800D01*
X88777360Y-85487320D02*
X88579240Y-86287420D01*
X88579240Y-86287420D02*
X87977260Y-86988460D01*
X87977260Y-86988460D02*
X87476880Y-87387240D01*
X83778640Y-84788820D02*
X83976760Y-84186840D01*
X85978280Y-87686960D02*
X85378840Y-87488840D01*
X84776860Y-87186580D02*
X84279020Y-86688740D01*
X84776860Y-83188620D02*
X85277240Y-82886360D01*
X84279020Y-83686460D02*
X84776860Y-83188620D01*
X83778640Y-85388260D02*
X83778640Y-84788820D01*
X85678560Y-82787300D02*
X86278000Y-82688240D01*
X86778380Y-87686960D02*
X85978280Y-87686960D01*
X83976760Y-84186840D02*
X84279020Y-83686460D01*
X85277240Y-82886360D02*
X85678560Y-82787300D01*
X87476880Y-87387240D02*
X86778380Y-87686960D01*
X83877700Y-85987700D02*
X83778640Y-85388260D01*
X85378840Y-87488840D02*
X84776860Y-87186580D01*
X84279020Y-86688740D02*
X83877700Y-85987700D01*
X90420740Y-87006240D02*
X90921120Y-87405020D01*
X91319900Y-84204620D02*
X92821040Y-84204620D01*
X92821040Y-84204620D02*
X92821040Y-85406040D01*
X92435666Y-83506120D02*
G75*
G03X92435666Y-83506120I-315666J0D01*
G01*
X92419720Y-87704740D02*
X93019160Y-87506620D01*
X92020940Y-82706020D02*
X91418960Y-82805080D01*
X91820280Y-87006240D02*
X92320660Y-87006240D01*
X91820280Y-85505100D02*
X91820280Y-87006240D01*
X89719700Y-84405280D02*
X89620640Y-84905660D01*
X89818760Y-86305200D02*
X90420740Y-87006240D01*
X94118980Y-86706520D02*
X94520300Y-86005480D01*
X92419720Y-87006240D02*
X92419720Y-85406040D01*
X89620640Y-85505100D02*
X89818760Y-86305200D01*
X91619620Y-87704740D02*
X92419720Y-87704740D01*
X94619360Y-85406040D02*
X94619360Y-84806600D01*
X93621140Y-83206400D02*
X93120760Y-82904140D01*
X91418960Y-82805080D02*
X90921120Y-83005740D01*
X93120760Y-82904140D02*
X92719440Y-82805080D01*
X92719440Y-82805080D02*
X92120000Y-82706020D01*
X90420740Y-83404520D02*
X89920360Y-84006500D01*
X92120000Y-85505100D02*
X92120000Y-86805580D01*
X92620380Y-84806600D02*
X91418960Y-84806600D01*
X91418960Y-84504340D02*
X92719440Y-84504340D01*
X92219060Y-87006240D02*
X92419720Y-87006240D01*
X92821040Y-85406040D02*
X91319900Y-85406040D01*
X91319900Y-85406040D02*
X91319900Y-84204620D01*
X89920360Y-84006500D02*
X89719700Y-84405280D01*
X93621140Y-87204360D02*
X94118980Y-86706520D01*
X94619360Y-84806600D02*
X94421240Y-84204620D01*
X94421240Y-84204620D02*
X94118980Y-83704240D01*
X91319900Y-85106320D02*
X92620380Y-85106320D01*
X93019160Y-87506620D02*
X93621140Y-87204360D01*
X92120000Y-82706020D02*
X92020940Y-82706020D01*
X94520300Y-86005480D02*
X94619360Y-85406040D01*
X90921120Y-87405020D02*
X91619620Y-87704740D01*
X94118980Y-83704240D02*
X93621140Y-83206400D01*
X90921120Y-83005740D02*
X90420740Y-83404520D01*
X89620640Y-84905660D02*
X89620640Y-85505100D01*
X92120000Y-83305460D02*
X92120000Y-83704240D01*
M02*
