G04 #@! TF.GenerationSoftware,KiCad,Pcbnew,(5.1.5)-3*
G04 #@! TF.CreationDate,2020-04-22T00:17:02+09:00*
G04 #@! TF.ProjectId,IOExpander,494f4578-7061-46e6-9465-722e6b696361,Rev 2.1*
G04 #@! TF.SameCoordinates,Original*
G04 #@! TF.FileFunction,Legend,Top*
G04 #@! TF.FilePolarity,Positive*
%FSLAX46Y46*%
G04 Gerber Fmt 4.6, Leading zero omitted, Abs format (unit mm)*
G04 Created by KiCad (PCBNEW (5.1.5)-3) date 2020-04-22 00:17:02*
%MOMM*%
%LPD*%
G04 APERTURE LIST*
%ADD10C,0.120000*%
%ADD11C,0.150000*%
%ADD12C,0.100000*%
%ADD13C,0.300000*%
%ADD14C,0.010000*%
G04 APERTURE END LIST*
D10*
X120650000Y-175260000D02*
X125095000Y-175260000D01*
X120650000Y-172720000D02*
X120650000Y-175260000D01*
X125095000Y-172720000D02*
X120650000Y-172720000D01*
D11*
X118570476Y-143597380D02*
X119237142Y-144597380D01*
X119237142Y-143597380D02*
X118570476Y-144597380D01*
X120046666Y-143930714D02*
X120046666Y-144597380D01*
X119808571Y-143549761D02*
X119570476Y-144264047D01*
X120189523Y-144264047D01*
X118570476Y-146137380D02*
X119237142Y-147137380D01*
X119237142Y-146137380D02*
X118570476Y-147137380D01*
X120094285Y-146137380D02*
X119618095Y-146137380D01*
X119570476Y-146613571D01*
X119618095Y-146565952D01*
X119713333Y-146518333D01*
X119951428Y-146518333D01*
X120046666Y-146565952D01*
X120094285Y-146613571D01*
X120141904Y-146708809D01*
X120141904Y-146946904D01*
X120094285Y-147042142D01*
X120046666Y-147089761D01*
X119951428Y-147137380D01*
X119713333Y-147137380D01*
X119618095Y-147089761D01*
X119570476Y-147042142D01*
X118570476Y-148677380D02*
X119237142Y-149677380D01*
X119237142Y-148677380D02*
X118570476Y-149677380D01*
X120046666Y-148677380D02*
X119856190Y-148677380D01*
X119760952Y-148725000D01*
X119713333Y-148772619D01*
X119618095Y-148915476D01*
X119570476Y-149105952D01*
X119570476Y-149486904D01*
X119618095Y-149582142D01*
X119665714Y-149629761D01*
X119760952Y-149677380D01*
X119951428Y-149677380D01*
X120046666Y-149629761D01*
X120094285Y-149582142D01*
X120141904Y-149486904D01*
X120141904Y-149248809D01*
X120094285Y-149153571D01*
X120046666Y-149105952D01*
X119951428Y-149058333D01*
X119760952Y-149058333D01*
X119665714Y-149105952D01*
X119618095Y-149153571D01*
X119570476Y-149248809D01*
X118570476Y-141057380D02*
X119237142Y-142057380D01*
X119237142Y-141057380D02*
X118570476Y-142057380D01*
X119522857Y-141057380D02*
X120141904Y-141057380D01*
X119808571Y-141438333D01*
X119951428Y-141438333D01*
X120046666Y-141485952D01*
X120094285Y-141533571D01*
X120141904Y-141628809D01*
X120141904Y-141866904D01*
X120094285Y-141962142D01*
X120046666Y-142009761D01*
X119951428Y-142057380D01*
X119665714Y-142057380D01*
X119570476Y-142009761D01*
X119522857Y-141962142D01*
X118570476Y-138517380D02*
X119237142Y-139517380D01*
X119237142Y-138517380D02*
X118570476Y-139517380D01*
X119570476Y-138612619D02*
X119618095Y-138565000D01*
X119713333Y-138517380D01*
X119951428Y-138517380D01*
X120046666Y-138565000D01*
X120094285Y-138612619D01*
X120141904Y-138707857D01*
X120141904Y-138803095D01*
X120094285Y-138945952D01*
X119522857Y-139517380D01*
X120141904Y-139517380D01*
X118570476Y-135977380D02*
X119237142Y-136977380D01*
X119237142Y-135977380D02*
X118570476Y-136977380D01*
X120141904Y-136977380D02*
X119570476Y-136977380D01*
X119856190Y-136977380D02*
X119856190Y-135977380D01*
X119760952Y-136120238D01*
X119665714Y-136215476D01*
X119570476Y-136263095D01*
X118570476Y-151217380D02*
X119237142Y-152217380D01*
X119237142Y-151217380D02*
X118570476Y-152217380D01*
X119522857Y-151217380D02*
X120189523Y-151217380D01*
X119760952Y-152217380D01*
D10*
X73025000Y-139700000D02*
X65405000Y-139700000D01*
X73025000Y-173990000D02*
X73025000Y-139700000D01*
X65405000Y-173990000D02*
X73025000Y-173990000D01*
X65405000Y-139700000D02*
X65405000Y-173990000D01*
D11*
X67350000Y-168092380D02*
X67350000Y-167092380D01*
X67588095Y-167092380D01*
X67730952Y-167140000D01*
X67826190Y-167235238D01*
X67873809Y-167330476D01*
X67921428Y-167520952D01*
X67921428Y-167663809D01*
X67873809Y-167854285D01*
X67826190Y-167949523D01*
X67730952Y-168044761D01*
X67588095Y-168092380D01*
X67350000Y-168092380D01*
X68350000Y-168092380D02*
X68350000Y-167425714D01*
X68350000Y-167092380D02*
X68302380Y-167140000D01*
X68350000Y-167187619D01*
X68397619Y-167140000D01*
X68350000Y-167092380D01*
X68350000Y-167187619D01*
X68778571Y-168044761D02*
X68873809Y-168092380D01*
X69064285Y-168092380D01*
X69159523Y-168044761D01*
X69207142Y-167949523D01*
X69207142Y-167901904D01*
X69159523Y-167806666D01*
X69064285Y-167759047D01*
X68921428Y-167759047D01*
X68826190Y-167711428D01*
X68778571Y-167616190D01*
X68778571Y-167568571D01*
X68826190Y-167473333D01*
X68921428Y-167425714D01*
X69064285Y-167425714D01*
X69159523Y-167473333D01*
X70064285Y-168092380D02*
X70064285Y-167568571D01*
X70016666Y-167473333D01*
X69921428Y-167425714D01*
X69730952Y-167425714D01*
X69635714Y-167473333D01*
X70064285Y-168044761D02*
X69969047Y-168092380D01*
X69730952Y-168092380D01*
X69635714Y-168044761D01*
X69588095Y-167949523D01*
X69588095Y-167854285D01*
X69635714Y-167759047D01*
X69730952Y-167711428D01*
X69969047Y-167711428D01*
X70064285Y-167663809D01*
X70540476Y-168092380D02*
X70540476Y-167092380D01*
X70540476Y-167473333D02*
X70635714Y-167425714D01*
X70826190Y-167425714D01*
X70921428Y-167473333D01*
X70969047Y-167520952D01*
X71016666Y-167616190D01*
X71016666Y-167901904D01*
X70969047Y-167997142D01*
X70921428Y-168044761D01*
X70826190Y-168092380D01*
X70635714Y-168092380D01*
X70540476Y-168044761D01*
X71588095Y-168092380D02*
X71492857Y-168044761D01*
X71445238Y-167949523D01*
X71445238Y-167092380D01*
X72350000Y-168044761D02*
X72254761Y-168092380D01*
X72064285Y-168092380D01*
X71969047Y-168044761D01*
X71921428Y-167949523D01*
X71921428Y-167568571D01*
X71969047Y-167473333D01*
X72064285Y-167425714D01*
X72254761Y-167425714D01*
X72350000Y-167473333D01*
X72397619Y-167568571D01*
X72397619Y-167663809D01*
X71921428Y-167759047D01*
X67532380Y-137517619D02*
X67437142Y-137470000D01*
X67341904Y-137374761D01*
X67199047Y-137231904D01*
X67103809Y-137184285D01*
X67008571Y-137184285D01*
X67056190Y-137422380D02*
X66960952Y-137374761D01*
X66865714Y-137279523D01*
X66818095Y-137089047D01*
X66818095Y-136755714D01*
X66865714Y-136565238D01*
X66960952Y-136470000D01*
X67056190Y-136422380D01*
X67246666Y-136422380D01*
X67341904Y-136470000D01*
X67437142Y-136565238D01*
X67484761Y-136755714D01*
X67484761Y-137089047D01*
X67437142Y-137279523D01*
X67341904Y-137374761D01*
X67246666Y-137422380D01*
X67056190Y-137422380D01*
X67818095Y-136755714D02*
X68008571Y-137422380D01*
X68199047Y-136946190D01*
X68389523Y-137422380D01*
X68580000Y-136755714D01*
X68960952Y-137422380D02*
X68960952Y-136755714D01*
X68960952Y-136422380D02*
X68913333Y-136470000D01*
X68960952Y-136517619D01*
X69008571Y-136470000D01*
X68960952Y-136422380D01*
X68960952Y-136517619D01*
X69437142Y-137422380D02*
X69437142Y-136755714D01*
X69437142Y-136422380D02*
X69389523Y-136470000D01*
X69437142Y-136517619D01*
X69484761Y-136470000D01*
X69437142Y-136422380D01*
X69437142Y-136517619D01*
X70341904Y-137374761D02*
X70246666Y-137422380D01*
X70056190Y-137422380D01*
X69960952Y-137374761D01*
X69913333Y-137327142D01*
X69865714Y-137231904D01*
X69865714Y-136946190D01*
X69913333Y-136850952D01*
X69960952Y-136803333D01*
X70056190Y-136755714D01*
X70246666Y-136755714D01*
X70341904Y-136803333D01*
X65913333Y-139072380D02*
X65913333Y-138072380D01*
X66151428Y-138072380D01*
X66294285Y-138120000D01*
X66389523Y-138215238D01*
X66437142Y-138310476D01*
X66484761Y-138500952D01*
X66484761Y-138643809D01*
X66437142Y-138834285D01*
X66389523Y-138929523D01*
X66294285Y-139024761D01*
X66151428Y-139072380D01*
X65913333Y-139072380D01*
X66913333Y-139072380D02*
X66913333Y-138405714D01*
X66913333Y-138072380D02*
X66865714Y-138120000D01*
X66913333Y-138167619D01*
X66960952Y-138120000D01*
X66913333Y-138072380D01*
X66913333Y-138167619D01*
X67246666Y-138405714D02*
X67627619Y-138405714D01*
X67389523Y-139072380D02*
X67389523Y-138215238D01*
X67437142Y-138120000D01*
X67532380Y-138072380D01*
X67627619Y-138072380D01*
X67818095Y-138405714D02*
X68199047Y-138405714D01*
X67960952Y-139072380D02*
X67960952Y-138215238D01*
X68008571Y-138120000D01*
X68103809Y-138072380D01*
X68199047Y-138072380D01*
X69294285Y-139072380D02*
X69294285Y-138072380D01*
X69722857Y-138167619D02*
X69770476Y-138120000D01*
X69865714Y-138072380D01*
X70103809Y-138072380D01*
X70199047Y-138120000D01*
X70246666Y-138167619D01*
X70294285Y-138262857D01*
X70294285Y-138358095D01*
X70246666Y-138500952D01*
X69675238Y-139072380D01*
X70294285Y-139072380D01*
X71294285Y-138977142D02*
X71246666Y-139024761D01*
X71103809Y-139072380D01*
X71008571Y-139072380D01*
X70865714Y-139024761D01*
X70770476Y-138929523D01*
X70722857Y-138834285D01*
X70675238Y-138643809D01*
X70675238Y-138500952D01*
X70722857Y-138310476D01*
X70770476Y-138215238D01*
X70865714Y-138120000D01*
X71008571Y-138072380D01*
X71103809Y-138072380D01*
X71246666Y-138120000D01*
X71294285Y-138167619D01*
X70709404Y-88845000D02*
X70614166Y-88797380D01*
X70471309Y-88797380D01*
X70328452Y-88845000D01*
X70233214Y-88940238D01*
X70185595Y-89035476D01*
X70137976Y-89225952D01*
X70137976Y-89368809D01*
X70185595Y-89559285D01*
X70233214Y-89654523D01*
X70328452Y-89749761D01*
X70471309Y-89797380D01*
X70566547Y-89797380D01*
X70709404Y-89749761D01*
X70757023Y-89702142D01*
X70757023Y-89368809D01*
X70566547Y-89368809D01*
X71185595Y-89797380D02*
X71185595Y-88797380D01*
X71566547Y-88797380D01*
X71661785Y-88845000D01*
X71709404Y-88892619D01*
X71757023Y-88987857D01*
X71757023Y-89130714D01*
X71709404Y-89225952D01*
X71661785Y-89273571D01*
X71566547Y-89321190D01*
X71185595Y-89321190D01*
X72137976Y-89511666D02*
X72614166Y-89511666D01*
X72042738Y-89797380D02*
X72376071Y-88797380D01*
X72709404Y-89797380D01*
X73042738Y-89702142D02*
X73090357Y-89749761D01*
X73042738Y-89797380D01*
X72995119Y-89749761D01*
X73042738Y-89702142D01*
X73042738Y-89797380D01*
X73042738Y-89178333D02*
X73090357Y-89225952D01*
X73042738Y-89273571D01*
X72995119Y-89225952D01*
X73042738Y-89178333D01*
X73042738Y-89273571D01*
X73709404Y-89321190D02*
X73709404Y-89797380D01*
X73376071Y-88797380D02*
X73709404Y-89321190D01*
X74042738Y-88797380D01*
X70709404Y-90495000D02*
X70614166Y-90447380D01*
X70471309Y-90447380D01*
X70328452Y-90495000D01*
X70233214Y-90590238D01*
X70185595Y-90685476D01*
X70137976Y-90875952D01*
X70137976Y-91018809D01*
X70185595Y-91209285D01*
X70233214Y-91304523D01*
X70328452Y-91399761D01*
X70471309Y-91447380D01*
X70566547Y-91447380D01*
X70709404Y-91399761D01*
X70757023Y-91352142D01*
X70757023Y-91018809D01*
X70566547Y-91018809D01*
X71185595Y-91447380D02*
X71185595Y-90447380D01*
X71566547Y-90447380D01*
X71661785Y-90495000D01*
X71709404Y-90542619D01*
X71757023Y-90637857D01*
X71757023Y-90780714D01*
X71709404Y-90875952D01*
X71661785Y-90923571D01*
X71566547Y-90971190D01*
X71185595Y-90971190D01*
X72518928Y-90923571D02*
X72661785Y-90971190D01*
X72709404Y-91018809D01*
X72757023Y-91114047D01*
X72757023Y-91256904D01*
X72709404Y-91352142D01*
X72661785Y-91399761D01*
X72566547Y-91447380D01*
X72185595Y-91447380D01*
X72185595Y-90447380D01*
X72518928Y-90447380D01*
X72614166Y-90495000D01*
X72661785Y-90542619D01*
X72709404Y-90637857D01*
X72709404Y-90733095D01*
X72661785Y-90828333D01*
X72614166Y-90875952D01*
X72518928Y-90923571D01*
X72185595Y-90923571D01*
X73185595Y-91352142D02*
X73233214Y-91399761D01*
X73185595Y-91447380D01*
X73137976Y-91399761D01*
X73185595Y-91352142D01*
X73185595Y-91447380D01*
X73185595Y-90828333D02*
X73233214Y-90875952D01*
X73185595Y-90923571D01*
X73137976Y-90875952D01*
X73185595Y-90828333D01*
X73185595Y-90923571D01*
X73566547Y-90447380D02*
X74233214Y-91447380D01*
X74233214Y-90447380D02*
X73566547Y-91447380D01*
X121419904Y-123135000D02*
X121324666Y-123087380D01*
X121181809Y-123087380D01*
X121038952Y-123135000D01*
X120943714Y-123230238D01*
X120896095Y-123325476D01*
X120848476Y-123515952D01*
X120848476Y-123658809D01*
X120896095Y-123849285D01*
X120943714Y-123944523D01*
X121038952Y-124039761D01*
X121181809Y-124087380D01*
X121277047Y-124087380D01*
X121419904Y-124039761D01*
X121467523Y-123992142D01*
X121467523Y-123658809D01*
X121277047Y-123658809D01*
X120777047Y-125356428D02*
X121538952Y-125356428D01*
X121158000Y-125737380D02*
X121158000Y-124975476D01*
X121927904Y-86305000D02*
X121832666Y-86257380D01*
X121689809Y-86257380D01*
X121546952Y-86305000D01*
X121451714Y-86400238D01*
X121404095Y-86495476D01*
X121356476Y-86685952D01*
X121356476Y-86828809D01*
X121404095Y-87019285D01*
X121451714Y-87114523D01*
X121546952Y-87209761D01*
X121689809Y-87257380D01*
X121785047Y-87257380D01*
X121927904Y-87209761D01*
X121975523Y-87162142D01*
X121975523Y-86828809D01*
X121785047Y-86828809D01*
X121285047Y-88526428D02*
X122046952Y-88526428D01*
X121666000Y-88907380D02*
X121666000Y-88145476D01*
X105275238Y-95702380D02*
X105275238Y-94702380D01*
X105751428Y-95702380D02*
X105751428Y-94702380D01*
X106322857Y-95702380D01*
X106322857Y-94702380D01*
X106656190Y-94702380D02*
X107227619Y-94702380D01*
X106941904Y-95702380D02*
X106941904Y-94702380D01*
X107894285Y-95178571D02*
X108037142Y-95226190D01*
X108084761Y-95273809D01*
X108132380Y-95369047D01*
X108132380Y-95511904D01*
X108084761Y-95607142D01*
X108037142Y-95654761D01*
X107941904Y-95702380D01*
X107560952Y-95702380D01*
X107560952Y-94702380D01*
X107894285Y-94702380D01*
X107989523Y-94750000D01*
X108037142Y-94797619D01*
X108084761Y-94892857D01*
X108084761Y-94988095D01*
X108037142Y-95083333D01*
X107989523Y-95130952D01*
X107894285Y-95178571D01*
X107560952Y-95178571D01*
X100266666Y-95702380D02*
X100266666Y-94702380D01*
X100742857Y-95702380D02*
X100742857Y-94702380D01*
X101314285Y-95702380D01*
X101314285Y-94702380D01*
X101647619Y-94702380D02*
X102219047Y-94702380D01*
X101933333Y-95702380D02*
X101933333Y-94702380D01*
X102504761Y-95416666D02*
X102980952Y-95416666D01*
X102409523Y-95702380D02*
X102742857Y-94702380D01*
X103076190Y-95702380D01*
X120856428Y-110372380D02*
X120856428Y-109372380D01*
X121285000Y-110086666D02*
X121761190Y-110086666D01*
X121189761Y-110372380D02*
X121523095Y-109372380D01*
X121856428Y-110372380D01*
X120785000Y-112022380D02*
X120785000Y-111022380D01*
X121594523Y-111498571D02*
X121737380Y-111546190D01*
X121785000Y-111593809D01*
X121832619Y-111689047D01*
X121832619Y-111831904D01*
X121785000Y-111927142D01*
X121737380Y-111974761D01*
X121642142Y-112022380D01*
X121261190Y-112022380D01*
X121261190Y-111022380D01*
X121594523Y-111022380D01*
X121689761Y-111070000D01*
X121737380Y-111117619D01*
X121785000Y-111212857D01*
X121785000Y-111308095D01*
X121737380Y-111403333D01*
X121689761Y-111450952D01*
X121594523Y-111498571D01*
X121261190Y-111498571D01*
X120904047Y-113291428D02*
X121665952Y-113291428D01*
X121285000Y-113672380D02*
X121285000Y-112910476D01*
X121546904Y-114370000D02*
X121451666Y-114322380D01*
X121308809Y-114322380D01*
X121165952Y-114370000D01*
X121070714Y-114465238D01*
X121023095Y-114560476D01*
X120975476Y-114750952D01*
X120975476Y-114893809D01*
X121023095Y-115084285D01*
X121070714Y-115179523D01*
X121165952Y-115274761D01*
X121308809Y-115322380D01*
X121404047Y-115322380D01*
X121546904Y-115274761D01*
X121594523Y-115227142D01*
X121594523Y-114893809D01*
X121404047Y-114893809D01*
X78899047Y-101417380D02*
X78899047Y-100417380D01*
X79327619Y-100512619D02*
X79375238Y-100465000D01*
X79470476Y-100417380D01*
X79708571Y-100417380D01*
X79803809Y-100465000D01*
X79851428Y-100512619D01*
X79899047Y-100607857D01*
X79899047Y-100703095D01*
X79851428Y-100845952D01*
X79280000Y-101417380D01*
X79899047Y-101417380D01*
X80899047Y-101322142D02*
X80851428Y-101369761D01*
X80708571Y-101417380D01*
X80613333Y-101417380D01*
X80470476Y-101369761D01*
X80375238Y-101274523D01*
X80327619Y-101179285D01*
X80280000Y-100988809D01*
X80280000Y-100845952D01*
X80327619Y-100655476D01*
X80375238Y-100560238D01*
X80470476Y-100465000D01*
X80613333Y-100417380D01*
X80708571Y-100417380D01*
X80851428Y-100465000D01*
X80899047Y-100512619D01*
X82089523Y-101417380D02*
X82089523Y-100417380D01*
X82470476Y-100417380D01*
X82565714Y-100465000D01*
X82613333Y-100512619D01*
X82660952Y-100607857D01*
X82660952Y-100750714D01*
X82613333Y-100845952D01*
X82565714Y-100893571D01*
X82470476Y-100941190D01*
X82089523Y-100941190D01*
X83089523Y-100417380D02*
X83089523Y-101226904D01*
X83137142Y-101322142D01*
X83184761Y-101369761D01*
X83280000Y-101417380D01*
X83470476Y-101417380D01*
X83565714Y-101369761D01*
X83613333Y-101322142D01*
X83660952Y-101226904D01*
X83660952Y-100417380D01*
D10*
X83820000Y-102235000D02*
X83820000Y-102870000D01*
X78740000Y-102235000D02*
X83820000Y-102235000D01*
X78740000Y-102870000D02*
X78740000Y-102235000D01*
D11*
X85090000Y-132056190D02*
X85090000Y-132532380D01*
X84756666Y-131532380D02*
X85090000Y-132056190D01*
X85423333Y-131532380D01*
X87296666Y-88987380D02*
X87963333Y-89987380D01*
X87963333Y-88987380D02*
X87296666Y-89987380D01*
D10*
X86995000Y-128270000D02*
X87630000Y-128270000D01*
X86995000Y-90170000D02*
X86995000Y-128270000D01*
X87630000Y-90170000D02*
X86995000Y-90170000D01*
X85090000Y-173990000D02*
X85725000Y-173990000D01*
X85725000Y-133350000D02*
X85725000Y-173990000D01*
X85090000Y-133350000D02*
X85725000Y-133350000D01*
D11*
X118903809Y-172061190D02*
X118903809Y-172537380D01*
X118570476Y-171537380D02*
X118903809Y-172061190D01*
X119237142Y-171537380D01*
X119475238Y-171537380D02*
X120141904Y-171537380D01*
X119713333Y-172537380D01*
X118903809Y-169521190D02*
X118903809Y-169997380D01*
X118570476Y-168997380D02*
X118903809Y-169521190D01*
X119237142Y-168997380D01*
X119999047Y-168997380D02*
X119808571Y-168997380D01*
X119713333Y-169045000D01*
X119665714Y-169092619D01*
X119570476Y-169235476D01*
X119522857Y-169425952D01*
X119522857Y-169806904D01*
X119570476Y-169902142D01*
X119618095Y-169949761D01*
X119713333Y-169997380D01*
X119903809Y-169997380D01*
X119999047Y-169949761D01*
X120046666Y-169902142D01*
X120094285Y-169806904D01*
X120094285Y-169568809D01*
X120046666Y-169473571D01*
X119999047Y-169425952D01*
X119903809Y-169378333D01*
X119713333Y-169378333D01*
X119618095Y-169425952D01*
X119570476Y-169473571D01*
X119522857Y-169568809D01*
X118903809Y-166981190D02*
X118903809Y-167457380D01*
X118570476Y-166457380D02*
X118903809Y-166981190D01*
X119237142Y-166457380D01*
X120046666Y-166457380D02*
X119570476Y-166457380D01*
X119522857Y-166933571D01*
X119570476Y-166885952D01*
X119665714Y-166838333D01*
X119903809Y-166838333D01*
X119999047Y-166885952D01*
X120046666Y-166933571D01*
X120094285Y-167028809D01*
X120094285Y-167266904D01*
X120046666Y-167362142D01*
X119999047Y-167409761D01*
X119903809Y-167457380D01*
X119665714Y-167457380D01*
X119570476Y-167409761D01*
X119522857Y-167362142D01*
X118903809Y-164441190D02*
X118903809Y-164917380D01*
X118570476Y-163917380D02*
X118903809Y-164441190D01*
X119237142Y-163917380D01*
X119999047Y-164250714D02*
X119999047Y-164917380D01*
X119760952Y-163869761D02*
X119522857Y-164584047D01*
X120141904Y-164584047D01*
X118903809Y-161901190D02*
X118903809Y-162377380D01*
X118570476Y-161377380D02*
X118903809Y-161901190D01*
X119237142Y-161377380D01*
X119475238Y-161377380D02*
X120094285Y-161377380D01*
X119760952Y-161758333D01*
X119903809Y-161758333D01*
X119999047Y-161805952D01*
X120046666Y-161853571D01*
X120094285Y-161948809D01*
X120094285Y-162186904D01*
X120046666Y-162282142D01*
X119999047Y-162329761D01*
X119903809Y-162377380D01*
X119618095Y-162377380D01*
X119522857Y-162329761D01*
X119475238Y-162282142D01*
X118903809Y-159361190D02*
X118903809Y-159837380D01*
X118570476Y-158837380D02*
X118903809Y-159361190D01*
X119237142Y-158837380D01*
X119522857Y-158932619D02*
X119570476Y-158885000D01*
X119665714Y-158837380D01*
X119903809Y-158837380D01*
X119999047Y-158885000D01*
X120046666Y-158932619D01*
X120094285Y-159027857D01*
X120094285Y-159123095D01*
X120046666Y-159265952D01*
X119475238Y-159837380D01*
X120094285Y-159837380D01*
X118903809Y-156821190D02*
X118903809Y-157297380D01*
X118570476Y-156297380D02*
X118903809Y-156821190D01*
X119237142Y-156297380D01*
X120094285Y-157297380D02*
X119522857Y-157297380D01*
X119808571Y-157297380D02*
X119808571Y-156297380D01*
X119713333Y-156440238D01*
X119618095Y-156535476D01*
X119522857Y-156583095D01*
X86034523Y-93797380D02*
X85558333Y-93797380D01*
X85558333Y-92797380D01*
X85439285Y-89987380D02*
X85439285Y-88987380D01*
X85439285Y-89463571D02*
X86010714Y-89463571D01*
X86010714Y-89987380D02*
X86010714Y-88987380D01*
D10*
X85090000Y-95250000D02*
X84455000Y-95250000D01*
X85090000Y-92075000D02*
X85090000Y-95250000D01*
X84455000Y-92075000D02*
X85090000Y-92075000D01*
X85090000Y-91440000D02*
X84455000Y-91440000D01*
X85090000Y-87630000D02*
X85090000Y-91440000D01*
X84455000Y-87630000D02*
X85090000Y-87630000D01*
D11*
X102821071Y-106211714D02*
X103202023Y-106211714D01*
X102963928Y-106878380D02*
X102963928Y-106021238D01*
X103011547Y-105926000D01*
X103106785Y-105878380D01*
X103202023Y-105878380D01*
X103678214Y-106878380D02*
X103582976Y-106830761D01*
X103535357Y-106783142D01*
X103487738Y-106687904D01*
X103487738Y-106402190D01*
X103535357Y-106306952D01*
X103582976Y-106259333D01*
X103678214Y-106211714D01*
X103821071Y-106211714D01*
X103916309Y-106259333D01*
X103963928Y-106306952D01*
X104011547Y-106402190D01*
X104011547Y-106687904D01*
X103963928Y-106783142D01*
X103916309Y-106830761D01*
X103821071Y-106878380D01*
X103678214Y-106878380D01*
X104440119Y-106878380D02*
X104440119Y-106211714D01*
X104440119Y-106402190D02*
X104487738Y-106306952D01*
X104535357Y-106259333D01*
X104630595Y-106211714D01*
X104725833Y-106211714D01*
X106344880Y-105926000D02*
X106249642Y-105878380D01*
X106106785Y-105878380D01*
X105963928Y-105926000D01*
X105868690Y-106021238D01*
X105821071Y-106116476D01*
X105773452Y-106306952D01*
X105773452Y-106449809D01*
X105821071Y-106640285D01*
X105868690Y-106735523D01*
X105963928Y-106830761D01*
X106106785Y-106878380D01*
X106202023Y-106878380D01*
X106344880Y-106830761D01*
X106392500Y-106783142D01*
X106392500Y-106449809D01*
X106202023Y-106449809D01*
X107392500Y-106878380D02*
X107059166Y-106402190D01*
X106821071Y-106878380D02*
X106821071Y-105878380D01*
X107202023Y-105878380D01*
X107297261Y-105926000D01*
X107344880Y-105973619D01*
X107392500Y-106068857D01*
X107392500Y-106211714D01*
X107344880Y-106306952D01*
X107297261Y-106354571D01*
X107202023Y-106402190D01*
X106821071Y-106402190D01*
X108011547Y-105878380D02*
X108202023Y-105878380D01*
X108297261Y-105926000D01*
X108392500Y-106021238D01*
X108440119Y-106211714D01*
X108440119Y-106545047D01*
X108392500Y-106735523D01*
X108297261Y-106830761D01*
X108202023Y-106878380D01*
X108011547Y-106878380D01*
X107916309Y-106830761D01*
X107821071Y-106735523D01*
X107773452Y-106545047D01*
X107773452Y-106211714D01*
X107821071Y-106021238D01*
X107916309Y-105926000D01*
X108011547Y-105878380D01*
X108725833Y-105878380D02*
X109059166Y-106878380D01*
X109392500Y-105878380D01*
X109725833Y-106354571D02*
X110059166Y-106354571D01*
X110202023Y-106878380D02*
X109725833Y-106878380D01*
X109725833Y-105878380D01*
X110202023Y-105878380D01*
D12*
G36*
X98425000Y-105410000D02*
G01*
X97790000Y-105410000D01*
X97790000Y-97155000D01*
X98425000Y-97155000D01*
X98425000Y-105410000D01*
G37*
X98425000Y-105410000D02*
X97790000Y-105410000D01*
X97790000Y-97155000D01*
X98425000Y-97155000D01*
X98425000Y-105410000D01*
D11*
X104249642Y-104973380D02*
X103678214Y-104973380D01*
X103963928Y-104973380D02*
X103963928Y-103973380D01*
X103868690Y-104116238D01*
X103773452Y-104211476D01*
X103678214Y-104259095D01*
X105106785Y-103973380D02*
X104916309Y-103973380D01*
X104821071Y-104021000D01*
X104773452Y-104068619D01*
X104678214Y-104211476D01*
X104630595Y-104401952D01*
X104630595Y-104782904D01*
X104678214Y-104878142D01*
X104725833Y-104925761D01*
X104821071Y-104973380D01*
X105011547Y-104973380D01*
X105106785Y-104925761D01*
X105154404Y-104878142D01*
X105202023Y-104782904D01*
X105202023Y-104544809D01*
X105154404Y-104449571D01*
X105106785Y-104401952D01*
X105011547Y-104354333D01*
X104821071Y-104354333D01*
X104725833Y-104401952D01*
X104678214Y-104449571D01*
X104630595Y-104544809D01*
X105535357Y-103973380D02*
X106202023Y-104973380D01*
X106202023Y-103973380D02*
X105535357Y-104973380D01*
X106773452Y-104497190D02*
X106773452Y-104973380D01*
X106440119Y-103973380D02*
X106773452Y-104497190D01*
X107106785Y-103973380D01*
X108202023Y-104973380D02*
X108202023Y-103973380D01*
X108630595Y-104068619D02*
X108678214Y-104021000D01*
X108773452Y-103973380D01*
X109011547Y-103973380D01*
X109106785Y-104021000D01*
X109154404Y-104068619D01*
X109202023Y-104163857D01*
X109202023Y-104259095D01*
X109154404Y-104401952D01*
X108582976Y-104973380D01*
X109202023Y-104973380D01*
X110202023Y-104878142D02*
X110154404Y-104925761D01*
X110011547Y-104973380D01*
X109916309Y-104973380D01*
X109773452Y-104925761D01*
X109678214Y-104830523D01*
X109630595Y-104735285D01*
X109582976Y-104544809D01*
X109582976Y-104401952D01*
X109630595Y-104211476D01*
X109678214Y-104116238D01*
X109773452Y-104021000D01*
X109916309Y-103973380D01*
X110011547Y-103973380D01*
X110154404Y-104021000D01*
X110202023Y-104068619D01*
D10*
X98425000Y-103505000D02*
X110490000Y-103505000D01*
X110490000Y-97155000D02*
X98425000Y-97155000D01*
X110490000Y-105410000D02*
X110490000Y-97155000D01*
X98425000Y-105410000D02*
X110490000Y-105410000D01*
D13*
X98977142Y-99584761D02*
X98977142Y-97584761D01*
X100762857Y-97489523D02*
X99477142Y-100060952D01*
X101548571Y-97584761D02*
X101834285Y-97584761D01*
X101977142Y-97680000D01*
X102120000Y-97870476D01*
X102191428Y-98251428D01*
X102191428Y-98918095D01*
X102120000Y-99299047D01*
X101977142Y-99489523D01*
X101834285Y-99584761D01*
X101548571Y-99584761D01*
X101405714Y-99489523D01*
X101262857Y-99299047D01*
X101191428Y-98918095D01*
X101191428Y-98251428D01*
X101262857Y-97870476D01*
X101405714Y-97680000D01*
X101548571Y-97584761D01*
X103977142Y-98251428D02*
X105120000Y-98822857D01*
X103977142Y-99394285D01*
X105834285Y-98251428D02*
X106977142Y-98822857D01*
X105834285Y-99394285D01*
X107691428Y-98251428D02*
X108834285Y-98822857D01*
X107691428Y-99394285D01*
X98977142Y-101837142D02*
X99477142Y-101837142D01*
X99691428Y-102884761D02*
X98977142Y-102884761D01*
X98977142Y-100884761D01*
X99691428Y-100884761D01*
X100191428Y-100884761D02*
X101191428Y-102884761D01*
X101191428Y-100884761D02*
X100191428Y-102884761D01*
X101762857Y-102884761D02*
X101762857Y-100884761D01*
X102334285Y-100884761D01*
X102477142Y-100980000D01*
X102548571Y-101075238D01*
X102620000Y-101265714D01*
X102620000Y-101551428D01*
X102548571Y-101741904D01*
X102477142Y-101837142D01*
X102334285Y-101932380D01*
X101762857Y-101932380D01*
X103191428Y-102313333D02*
X103905714Y-102313333D01*
X103048571Y-102884761D02*
X103548571Y-100884761D01*
X104048571Y-102884761D01*
X104548571Y-102884761D02*
X104548571Y-100884761D01*
X105405714Y-102884761D01*
X105405714Y-100884761D01*
X106120000Y-102884761D02*
X106120000Y-100884761D01*
X106477142Y-100884761D01*
X106691428Y-100980000D01*
X106834285Y-101170476D01*
X106905714Y-101360952D01*
X106977142Y-101741904D01*
X106977142Y-102027619D01*
X106905714Y-102408571D01*
X106834285Y-102599047D01*
X106691428Y-102789523D01*
X106477142Y-102884761D01*
X106120000Y-102884761D01*
X107620000Y-101837142D02*
X108120000Y-101837142D01*
X108334285Y-102884761D02*
X107620000Y-102884761D01*
X107620000Y-100884761D01*
X108334285Y-100884761D01*
X109834285Y-102884761D02*
X109334285Y-101932380D01*
X108977142Y-102884761D02*
X108977142Y-100884761D01*
X109548571Y-100884761D01*
X109691428Y-100980000D01*
X109762857Y-101075238D01*
X109834285Y-101265714D01*
X109834285Y-101551428D01*
X109762857Y-101741904D01*
X109691428Y-101837142D01*
X109548571Y-101932380D01*
X108977142Y-101932380D01*
D11*
X70302380Y-116498095D02*
X69302380Y-116498095D01*
X69302380Y-115831428D02*
X69302380Y-115640952D01*
X69350000Y-115545714D01*
X69445238Y-115450476D01*
X69635714Y-115402857D01*
X69969047Y-115402857D01*
X70159523Y-115450476D01*
X70254761Y-115545714D01*
X70302380Y-115640952D01*
X70302380Y-115831428D01*
X70254761Y-115926666D01*
X70159523Y-116021904D01*
X69969047Y-116069523D01*
X69635714Y-116069523D01*
X69445238Y-116021904D01*
X69350000Y-115926666D01*
X69302380Y-115831428D01*
X69778571Y-114212380D02*
X69778571Y-113879047D01*
X70302380Y-113736190D02*
X70302380Y-114212380D01*
X69302380Y-114212380D01*
X69302380Y-113736190D01*
X69302380Y-113402857D02*
X70302380Y-112736190D01*
X69302380Y-112736190D02*
X70302380Y-113402857D01*
X70302380Y-112355238D02*
X69302380Y-112355238D01*
X69302380Y-111974285D01*
X69350000Y-111879047D01*
X69397619Y-111831428D01*
X69492857Y-111783809D01*
X69635714Y-111783809D01*
X69730952Y-111831428D01*
X69778571Y-111879047D01*
X69826190Y-111974285D01*
X69826190Y-112355238D01*
X70016666Y-111402857D02*
X70016666Y-110926666D01*
X70302380Y-111498095D02*
X69302380Y-111164761D01*
X70302380Y-110831428D01*
X70302380Y-110498095D02*
X69302380Y-110498095D01*
X70302380Y-109926666D01*
X69302380Y-109926666D01*
X70302380Y-109450476D02*
X69302380Y-109450476D01*
X69302380Y-109212380D01*
X69350000Y-109069523D01*
X69445238Y-108974285D01*
X69540476Y-108926666D01*
X69730952Y-108879047D01*
X69873809Y-108879047D01*
X70064285Y-108926666D01*
X70159523Y-108974285D01*
X70254761Y-109069523D01*
X70302380Y-109212380D01*
X70302380Y-109450476D01*
X69778571Y-108450476D02*
X69778571Y-108117142D01*
X70302380Y-107974285D02*
X70302380Y-108450476D01*
X69302380Y-108450476D01*
X69302380Y-107974285D01*
X70302380Y-106974285D02*
X69826190Y-107307619D01*
X70302380Y-107545714D02*
X69302380Y-107545714D01*
X69302380Y-107164761D01*
X69350000Y-107069523D01*
X69397619Y-107021904D01*
X69492857Y-106974285D01*
X69635714Y-106974285D01*
X69730952Y-107021904D01*
X69778571Y-107069523D01*
X69826190Y-107164761D01*
X69826190Y-107545714D01*
X102052380Y-117601904D02*
X101052380Y-117601904D01*
X101052380Y-117220952D01*
X101100000Y-117125714D01*
X101147619Y-117078095D01*
X101242857Y-117030476D01*
X101385714Y-117030476D01*
X101480952Y-117078095D01*
X101528571Y-117125714D01*
X101576190Y-117220952D01*
X101576190Y-117601904D01*
X102052380Y-116601904D02*
X101052380Y-116601904D01*
X101052380Y-116363809D01*
X101100000Y-116220952D01*
X101195238Y-116125714D01*
X101290476Y-116078095D01*
X101480952Y-116030476D01*
X101623809Y-116030476D01*
X101814285Y-116078095D01*
X101909523Y-116125714D01*
X102004761Y-116220952D01*
X102052380Y-116363809D01*
X102052380Y-116601904D01*
X102052380Y-139826904D02*
X101052380Y-139826904D01*
X101052380Y-139445952D01*
X101100000Y-139350714D01*
X101147619Y-139303095D01*
X101242857Y-139255476D01*
X101385714Y-139255476D01*
X101480952Y-139303095D01*
X101528571Y-139350714D01*
X101576190Y-139445952D01*
X101576190Y-139826904D01*
X102052380Y-138826904D02*
X101052380Y-138826904D01*
X101052380Y-138588809D01*
X101100000Y-138445952D01*
X101195238Y-138350714D01*
X101290476Y-138303095D01*
X101480952Y-138255476D01*
X101623809Y-138255476D01*
X101814285Y-138303095D01*
X101909523Y-138350714D01*
X102004761Y-138445952D01*
X102052380Y-138588809D01*
X102052380Y-138826904D01*
X108672380Y-167917380D02*
X108672380Y-167345952D01*
X109672380Y-167631666D02*
X108672380Y-167631666D01*
X109672380Y-166441190D02*
X109196190Y-166774523D01*
X109672380Y-167012619D02*
X108672380Y-167012619D01*
X108672380Y-166631666D01*
X108720000Y-166536428D01*
X108767619Y-166488809D01*
X108862857Y-166441190D01*
X109005714Y-166441190D01*
X109100952Y-166488809D01*
X109148571Y-166536428D01*
X109196190Y-166631666D01*
X109196190Y-167012619D01*
X109386666Y-165298333D02*
X109386666Y-164822142D01*
X109672380Y-165393571D02*
X108672380Y-165060238D01*
X109672380Y-164726904D01*
X109672380Y-163822142D02*
X109196190Y-164155476D01*
X109672380Y-164393571D02*
X108672380Y-164393571D01*
X108672380Y-164012619D01*
X108720000Y-163917380D01*
X108767619Y-163869761D01*
X108862857Y-163822142D01*
X109005714Y-163822142D01*
X109100952Y-163869761D01*
X109148571Y-163917380D01*
X109196190Y-164012619D01*
X109196190Y-164393571D01*
X109672380Y-162822142D02*
X109196190Y-163155476D01*
X109672380Y-163393571D02*
X108672380Y-163393571D01*
X108672380Y-163012619D01*
X108720000Y-162917380D01*
X108767619Y-162869761D01*
X108862857Y-162822142D01*
X109005714Y-162822142D01*
X109100952Y-162869761D01*
X109148571Y-162917380D01*
X109196190Y-163012619D01*
X109196190Y-163393571D01*
X109386666Y-162441190D02*
X109386666Y-161965000D01*
X109672380Y-162536428D02*
X108672380Y-162203095D01*
X109672380Y-161869761D01*
X109196190Y-161345952D02*
X109672380Y-161345952D01*
X108672380Y-161679285D02*
X109196190Y-161345952D01*
X108672380Y-161012619D01*
X90622380Y-165861904D02*
X89622380Y-165861904D01*
X89622380Y-165480952D01*
X89670000Y-165385714D01*
X89717619Y-165338095D01*
X89812857Y-165290476D01*
X89955714Y-165290476D01*
X90050952Y-165338095D01*
X90098571Y-165385714D01*
X90146190Y-165480952D01*
X90146190Y-165861904D01*
X90622380Y-164861904D02*
X89622380Y-164861904D01*
X89622380Y-164623809D01*
X89670000Y-164480952D01*
X89765238Y-164385714D01*
X89860476Y-164338095D01*
X90050952Y-164290476D01*
X90193809Y-164290476D01*
X90384285Y-164338095D01*
X90479523Y-164385714D01*
X90574761Y-164480952D01*
X90622380Y-164623809D01*
X90622380Y-164861904D01*
X90622380Y-143001904D02*
X89622380Y-143001904D01*
X89622380Y-142620952D01*
X89670000Y-142525714D01*
X89717619Y-142478095D01*
X89812857Y-142430476D01*
X89955714Y-142430476D01*
X90050952Y-142478095D01*
X90098571Y-142525714D01*
X90146190Y-142620952D01*
X90146190Y-143001904D01*
X90622380Y-142001904D02*
X89622380Y-142001904D01*
X89622380Y-141763809D01*
X89670000Y-141620952D01*
X89765238Y-141525714D01*
X89860476Y-141478095D01*
X90050952Y-141430476D01*
X90193809Y-141430476D01*
X90384285Y-141478095D01*
X90479523Y-141525714D01*
X90574761Y-141620952D01*
X90622380Y-141763809D01*
X90622380Y-142001904D01*
X131080000Y-104720000D02*
X130984761Y-104672380D01*
X130841904Y-104672380D01*
X130699047Y-104720000D01*
X130603809Y-104815238D01*
X130556190Y-104910476D01*
X130508571Y-105100952D01*
X130508571Y-105243809D01*
X130556190Y-105434285D01*
X130603809Y-105529523D01*
X130699047Y-105624761D01*
X130841904Y-105672380D01*
X130937142Y-105672380D01*
X131080000Y-105624761D01*
X131127619Y-105577142D01*
X131127619Y-105243809D01*
X130937142Y-105243809D01*
X131556190Y-105672380D02*
X131556190Y-104672380D01*
X131937142Y-104672380D01*
X132032380Y-104720000D01*
X132080000Y-104767619D01*
X132127619Y-104862857D01*
X132127619Y-105005714D01*
X132080000Y-105100952D01*
X132032380Y-105148571D01*
X131937142Y-105196190D01*
X131556190Y-105196190D01*
X132556190Y-105672380D02*
X132556190Y-104672380D01*
X133222857Y-104672380D02*
X133413333Y-104672380D01*
X133508571Y-104720000D01*
X133603809Y-104815238D01*
X133651428Y-105005714D01*
X133651428Y-105339047D01*
X133603809Y-105529523D01*
X133508571Y-105624761D01*
X133413333Y-105672380D01*
X133222857Y-105672380D01*
X133127619Y-105624761D01*
X133032380Y-105529523D01*
X132984761Y-105339047D01*
X132984761Y-105005714D01*
X133032380Y-104815238D01*
X133127619Y-104720000D01*
X133222857Y-104672380D01*
X130794285Y-107703333D02*
X130746666Y-107655714D01*
X130651428Y-107512857D01*
X130603809Y-107417619D01*
X130556190Y-107274761D01*
X130508571Y-107036666D01*
X130508571Y-106846190D01*
X130556190Y-106608095D01*
X130603809Y-106465238D01*
X130651428Y-106370000D01*
X130746666Y-106227142D01*
X130794285Y-106179523D01*
X131175238Y-107322380D02*
X131175238Y-106322380D01*
X131651428Y-107322380D02*
X131651428Y-106322380D01*
X132222857Y-107322380D01*
X132222857Y-106322380D01*
X132556190Y-106322380D02*
X133127619Y-106322380D01*
X132841904Y-107322380D02*
X132841904Y-106322380D01*
X133365714Y-107703333D02*
X133413333Y-107655714D01*
X133508571Y-107512857D01*
X133556190Y-107417619D01*
X133603809Y-107274761D01*
X133651428Y-107036666D01*
X133651428Y-106846190D01*
X133603809Y-106608095D01*
X133556190Y-106465238D01*
X133508571Y-106370000D01*
X133413333Y-106227142D01*
X133365714Y-106179523D01*
X131103809Y-93797380D02*
X131103809Y-92797380D01*
X131532380Y-92892619D02*
X131580000Y-92845000D01*
X131675238Y-92797380D01*
X131913333Y-92797380D01*
X132008571Y-92845000D01*
X132056190Y-92892619D01*
X132103809Y-92987857D01*
X132103809Y-93083095D01*
X132056190Y-93225952D01*
X131484761Y-93797380D01*
X132103809Y-93797380D01*
X133103809Y-93702142D02*
X133056190Y-93749761D01*
X132913333Y-93797380D01*
X132818095Y-93797380D01*
X132675238Y-93749761D01*
X132580000Y-93654523D01*
X132532380Y-93559285D01*
X132484761Y-93368809D01*
X132484761Y-93225952D01*
X132532380Y-93035476D01*
X132580000Y-92940238D01*
X132675238Y-92845000D01*
X132818095Y-92797380D01*
X132913333Y-92797380D01*
X133056190Y-92845000D01*
X133103809Y-92892619D01*
X82264285Y-85907619D02*
X82311904Y-85860000D01*
X82407142Y-85812380D01*
X82645238Y-85812380D01*
X82740476Y-85860000D01*
X82788095Y-85907619D01*
X82835714Y-86002857D01*
X82835714Y-86098095D01*
X82788095Y-86240952D01*
X82216666Y-86812380D01*
X82835714Y-86812380D01*
D10*
X83820000Y-85090000D02*
X83820000Y-85725000D01*
X76200000Y-85090000D02*
X83820000Y-85090000D01*
X76200000Y-85725000D02*
X76200000Y-85090000D01*
D11*
X77422380Y-85812380D02*
X77517619Y-85812380D01*
X77612857Y-85860000D01*
X77660476Y-85907619D01*
X77708095Y-86002857D01*
X77755714Y-86193333D01*
X77755714Y-86431428D01*
X77708095Y-86621904D01*
X77660476Y-86717142D01*
X77612857Y-86764761D01*
X77517619Y-86812380D01*
X77422380Y-86812380D01*
X77327142Y-86764761D01*
X77279523Y-86717142D01*
X77231904Y-86621904D01*
X77184285Y-86431428D01*
X77184285Y-86193333D01*
X77231904Y-86002857D01*
X77279523Y-85907619D01*
X77327142Y-85860000D01*
X77422380Y-85812380D01*
X80295714Y-86812380D02*
X79724285Y-86812380D01*
X80010000Y-86812380D02*
X80010000Y-85812380D01*
X79914761Y-85955238D01*
X79819523Y-86050476D01*
X79724285Y-86098095D01*
X76724285Y-84272380D02*
X76724285Y-83272380D01*
X77152857Y-83367619D02*
X77200476Y-83320000D01*
X77295714Y-83272380D01*
X77533809Y-83272380D01*
X77629047Y-83320000D01*
X77676666Y-83367619D01*
X77724285Y-83462857D01*
X77724285Y-83558095D01*
X77676666Y-83700952D01*
X77105238Y-84272380D01*
X77724285Y-84272380D01*
X78724285Y-84177142D02*
X78676666Y-84224761D01*
X78533809Y-84272380D01*
X78438571Y-84272380D01*
X78295714Y-84224761D01*
X78200476Y-84129523D01*
X78152857Y-84034285D01*
X78105238Y-83843809D01*
X78105238Y-83700952D01*
X78152857Y-83510476D01*
X78200476Y-83415238D01*
X78295714Y-83320000D01*
X78438571Y-83272380D01*
X78533809Y-83272380D01*
X78676666Y-83320000D01*
X78724285Y-83367619D01*
X79867142Y-83986666D02*
X80343333Y-83986666D01*
X79771904Y-84272380D02*
X80105238Y-83272380D01*
X80438571Y-84272380D01*
X80771904Y-84272380D02*
X80771904Y-83272380D01*
X81010000Y-83272380D01*
X81152857Y-83320000D01*
X81248095Y-83415238D01*
X81295714Y-83510476D01*
X81343333Y-83700952D01*
X81343333Y-83843809D01*
X81295714Y-84034285D01*
X81248095Y-84129523D01*
X81152857Y-84224761D01*
X81010000Y-84272380D01*
X80771904Y-84272380D01*
X81771904Y-84272380D02*
X81771904Y-83272380D01*
X82010000Y-83272380D01*
X82152857Y-83320000D01*
X82248095Y-83415238D01*
X82295714Y-83510476D01*
X82343333Y-83700952D01*
X82343333Y-83843809D01*
X82295714Y-84034285D01*
X82248095Y-84129523D01*
X82152857Y-84224761D01*
X82010000Y-84272380D01*
X81771904Y-84272380D01*
X83343333Y-84272380D02*
X83010000Y-83796190D01*
X82771904Y-84272380D02*
X82771904Y-83272380D01*
X83152857Y-83272380D01*
X83248095Y-83320000D01*
X83295714Y-83367619D01*
X83343333Y-83462857D01*
X83343333Y-83605714D01*
X83295714Y-83700952D01*
X83248095Y-83748571D01*
X83152857Y-83796190D01*
X82771904Y-83796190D01*
X119800714Y-117927380D02*
X119800714Y-116927380D01*
X119800714Y-117308333D02*
X119895952Y-117260714D01*
X120086428Y-117260714D01*
X120181666Y-117308333D01*
X120229285Y-117355952D01*
X120276904Y-117451190D01*
X120276904Y-117736904D01*
X120229285Y-117832142D01*
X120181666Y-117879761D01*
X120086428Y-117927380D01*
X119895952Y-117927380D01*
X119800714Y-117879761D01*
X120229285Y-109037380D02*
X120229285Y-108513571D01*
X120181666Y-108418333D01*
X120086428Y-108370714D01*
X119895952Y-108370714D01*
X119800714Y-108418333D01*
X120229285Y-108989761D02*
X120134047Y-109037380D01*
X119895952Y-109037380D01*
X119800714Y-108989761D01*
X119753095Y-108894523D01*
X119753095Y-108799285D01*
X119800714Y-108704047D01*
X119895952Y-108656428D01*
X120134047Y-108656428D01*
X120229285Y-108608809D01*
D10*
X118745000Y-118110000D02*
X119380000Y-118110000D01*
X119380000Y-107950000D02*
X119380000Y-112395000D01*
X118745000Y-107950000D02*
X119380000Y-107950000D01*
X119380000Y-118110000D02*
X119380000Y-113665000D01*
X119380000Y-112395000D02*
X118745000Y-112395000D01*
X118745000Y-113665000D02*
X119380000Y-113665000D01*
D11*
X119800714Y-105227380D02*
X119800714Y-104227380D01*
X119800714Y-104608333D02*
X119895952Y-104560714D01*
X120086428Y-104560714D01*
X120181666Y-104608333D01*
X120229285Y-104655952D01*
X120276904Y-104751190D01*
X120276904Y-105036904D01*
X120229285Y-105132142D01*
X120181666Y-105179761D01*
X120086428Y-105227380D01*
X119895952Y-105227380D01*
X119800714Y-105179761D01*
D10*
X119380000Y-105410000D02*
X119380000Y-100965000D01*
X118745000Y-105410000D02*
X119380000Y-105410000D01*
X118745000Y-100965000D02*
X119380000Y-100965000D01*
X119380000Y-99695000D02*
X118745000Y-99695000D01*
X119380000Y-95250000D02*
X119380000Y-99695000D01*
X118745000Y-95250000D02*
X119380000Y-95250000D01*
D11*
X120229285Y-96337380D02*
X120229285Y-95813571D01*
X120181666Y-95718333D01*
X120086428Y-95670714D01*
X119895952Y-95670714D01*
X119800714Y-95718333D01*
X120229285Y-96289761D02*
X120134047Y-96337380D01*
X119895952Y-96337380D01*
X119800714Y-96289761D01*
X119753095Y-96194523D01*
X119753095Y-96099285D01*
X119800714Y-96004047D01*
X119895952Y-95956428D01*
X120134047Y-95956428D01*
X120229285Y-95908809D01*
X130524285Y-176903571D02*
X130190952Y-176903571D01*
X130190952Y-177427380D02*
X130190952Y-176427380D01*
X130667142Y-176427380D01*
X131000476Y-177141666D02*
X131476666Y-177141666D01*
X130905238Y-177427380D02*
X131238571Y-176427380D01*
X131571904Y-177427380D01*
X129524285Y-178077380D02*
X130190952Y-179077380D01*
X130190952Y-178077380D02*
X129524285Y-179077380D01*
X131286190Y-178029761D02*
X130429047Y-179315476D01*
X131810000Y-178601190D02*
X131810000Y-179077380D01*
X131476666Y-178077380D02*
X131810000Y-178601190D01*
X132143333Y-178077380D01*
X126135238Y-119308571D02*
X125801904Y-119308571D01*
X125801904Y-119832380D02*
X125801904Y-118832380D01*
X126278095Y-118832380D01*
X126611428Y-119546666D02*
X127087619Y-119546666D01*
X126516190Y-119832380D02*
X126849523Y-118832380D01*
X127182857Y-119832380D01*
X128278095Y-119832380D02*
X128278095Y-118832380D01*
X128659047Y-118832380D01*
X128754285Y-118880000D01*
X128801904Y-118927619D01*
X128849523Y-119022857D01*
X128849523Y-119165714D01*
X128801904Y-119260952D01*
X128754285Y-119308571D01*
X128659047Y-119356190D01*
X128278095Y-119356190D01*
X129468571Y-118832380D02*
X129659047Y-118832380D01*
X129754285Y-118880000D01*
X129849523Y-118975238D01*
X129897142Y-119165714D01*
X129897142Y-119499047D01*
X129849523Y-119689523D01*
X129754285Y-119784761D01*
X129659047Y-119832380D01*
X129468571Y-119832380D01*
X129373333Y-119784761D01*
X129278095Y-119689523D01*
X129230476Y-119499047D01*
X129230476Y-119165714D01*
X129278095Y-118975238D01*
X129373333Y-118880000D01*
X129468571Y-118832380D01*
X130230476Y-118832380D02*
X130468571Y-119832380D01*
X130659047Y-119118095D01*
X130849523Y-119832380D01*
X131087619Y-118832380D01*
X132230476Y-119832380D02*
X132230476Y-118832380D01*
X132706666Y-119832380D02*
X132706666Y-118832380D01*
X133278095Y-119832380D01*
X133278095Y-118832380D01*
X128190952Y-82002380D02*
X128810000Y-82002380D01*
X128476666Y-82383333D01*
X128619523Y-82383333D01*
X128714761Y-82430952D01*
X128762380Y-82478571D01*
X128810000Y-82573809D01*
X128810000Y-82811904D01*
X128762380Y-82907142D01*
X128714761Y-82954761D01*
X128619523Y-83002380D01*
X128333809Y-83002380D01*
X128238571Y-82954761D01*
X128190952Y-82907142D01*
X129238571Y-82907142D02*
X129286190Y-82954761D01*
X129238571Y-83002380D01*
X129190952Y-82954761D01*
X129238571Y-82907142D01*
X129238571Y-83002380D01*
X129619523Y-82002380D02*
X130238571Y-82002380D01*
X129905238Y-82383333D01*
X130048095Y-82383333D01*
X130143333Y-82430952D01*
X130190952Y-82478571D01*
X130238571Y-82573809D01*
X130238571Y-82811904D01*
X130190952Y-82907142D01*
X130143333Y-82954761D01*
X130048095Y-83002380D01*
X129762380Y-83002380D01*
X129667142Y-82954761D01*
X129619523Y-82907142D01*
X130524285Y-82002380D02*
X130857619Y-83002380D01*
X131190952Y-82002380D01*
X132286190Y-83002380D02*
X132286190Y-82002380D01*
X132762380Y-83002380D02*
X132762380Y-82002380D01*
X133333809Y-83002380D01*
X133333809Y-82002380D01*
X112792142Y-107084761D02*
X112935000Y-107132380D01*
X113173095Y-107132380D01*
X113268333Y-107084761D01*
X113315952Y-107037142D01*
X113363571Y-106941904D01*
X113363571Y-106846666D01*
X113315952Y-106751428D01*
X113268333Y-106703809D01*
X113173095Y-106656190D01*
X112982619Y-106608571D01*
X112887380Y-106560952D01*
X112839761Y-106513333D01*
X112792142Y-106418095D01*
X112792142Y-106322857D01*
X112839761Y-106227619D01*
X112887380Y-106180000D01*
X112982619Y-106132380D01*
X113220714Y-106132380D01*
X113363571Y-106180000D01*
X114506428Y-106084761D02*
X113649285Y-107370476D01*
X114792142Y-107084761D02*
X114935000Y-107132380D01*
X115173095Y-107132380D01*
X115268333Y-107084761D01*
X115315952Y-107037142D01*
X115363571Y-106941904D01*
X115363571Y-106846666D01*
X115315952Y-106751428D01*
X115268333Y-106703809D01*
X115173095Y-106656190D01*
X114982619Y-106608571D01*
X114887380Y-106560952D01*
X114839761Y-106513333D01*
X114792142Y-106418095D01*
X114792142Y-106322857D01*
X114839761Y-106227619D01*
X114887380Y-106180000D01*
X114982619Y-106132380D01*
X115220714Y-106132380D01*
X115363571Y-106180000D01*
X116458809Y-106132380D02*
X117125476Y-107132380D01*
X117125476Y-106132380D02*
X116458809Y-107132380D01*
X112839761Y-94384761D02*
X112982619Y-94432380D01*
X113220714Y-94432380D01*
X113315952Y-94384761D01*
X113363571Y-94337142D01*
X113411190Y-94241904D01*
X113411190Y-94146666D01*
X113363571Y-94051428D01*
X113315952Y-94003809D01*
X113220714Y-93956190D01*
X113030238Y-93908571D01*
X112935000Y-93860952D01*
X112887380Y-93813333D01*
X112839761Y-93718095D01*
X112839761Y-93622857D01*
X112887380Y-93527619D01*
X112935000Y-93480000D01*
X113030238Y-93432380D01*
X113268333Y-93432380D01*
X113411190Y-93480000D01*
X114554047Y-93384761D02*
X113696904Y-94670476D01*
X114839761Y-94384761D02*
X114982619Y-94432380D01*
X115220714Y-94432380D01*
X115315952Y-94384761D01*
X115363571Y-94337142D01*
X115411190Y-94241904D01*
X115411190Y-94146666D01*
X115363571Y-94051428D01*
X115315952Y-94003809D01*
X115220714Y-93956190D01*
X115030238Y-93908571D01*
X114935000Y-93860952D01*
X114887380Y-93813333D01*
X114839761Y-93718095D01*
X114839761Y-93622857D01*
X114887380Y-93527619D01*
X114935000Y-93480000D01*
X115030238Y-93432380D01*
X115268333Y-93432380D01*
X115411190Y-93480000D01*
X116792142Y-93956190D02*
X116792142Y-94432380D01*
X116458809Y-93432380D02*
X116792142Y-93956190D01*
X117125476Y-93432380D01*
X125356904Y-176030000D02*
X125261666Y-175982380D01*
X125118809Y-175982380D01*
X124975952Y-176030000D01*
X124880714Y-176125238D01*
X124833095Y-176220476D01*
X124785476Y-176410952D01*
X124785476Y-176553809D01*
X124833095Y-176744285D01*
X124880714Y-176839523D01*
X124975952Y-176934761D01*
X125118809Y-176982380D01*
X125214047Y-176982380D01*
X125356904Y-176934761D01*
X125404523Y-176887142D01*
X125404523Y-176553809D01*
X125214047Y-176553809D01*
X122174047Y-176601428D02*
X122935952Y-176601428D01*
X122555000Y-176982380D02*
X122555000Y-176220476D01*
X118903809Y-154281190D02*
X118903809Y-154757380D01*
X118570476Y-153757380D02*
X118903809Y-154281190D01*
X119237142Y-153757380D01*
X119760952Y-153757380D02*
X119856190Y-153757380D01*
X119951428Y-153805000D01*
X119999047Y-153852619D01*
X120046666Y-153947857D01*
X120094285Y-154138333D01*
X120094285Y-154376428D01*
X120046666Y-154566904D01*
X119999047Y-154662142D01*
X119951428Y-154709761D01*
X119856190Y-154757380D01*
X119760952Y-154757380D01*
X119665714Y-154709761D01*
X119618095Y-154662142D01*
X119570476Y-154566904D01*
X119522857Y-154376428D01*
X119522857Y-154138333D01*
X119570476Y-153947857D01*
X119618095Y-153852619D01*
X119665714Y-153805000D01*
X119760952Y-153757380D01*
X121594523Y-97577142D02*
X121546904Y-97624761D01*
X121404047Y-97672380D01*
X121308809Y-97672380D01*
X121165952Y-97624761D01*
X121070714Y-97529523D01*
X121023095Y-97434285D01*
X120975476Y-97243809D01*
X120975476Y-97100952D01*
X121023095Y-96910476D01*
X121070714Y-96815238D01*
X121165952Y-96720000D01*
X121308809Y-96672380D01*
X121404047Y-96672380D01*
X121546904Y-96720000D01*
X121594523Y-96767619D01*
X121023095Y-99322380D02*
X121023095Y-98322380D01*
X121261190Y-98322380D01*
X121404047Y-98370000D01*
X121499285Y-98465238D01*
X121546904Y-98560476D01*
X121594523Y-98750952D01*
X121594523Y-98893809D01*
X121546904Y-99084285D01*
X121499285Y-99179523D01*
X121404047Y-99274761D01*
X121261190Y-99322380D01*
X121023095Y-99322380D01*
X120904047Y-100591428D02*
X121665952Y-100591428D01*
X121285000Y-100972380D02*
X121285000Y-100210476D01*
X121546904Y-101670000D02*
X121451666Y-101622380D01*
X121308809Y-101622380D01*
X121165952Y-101670000D01*
X121070714Y-101765238D01*
X121023095Y-101860476D01*
X120975476Y-102050952D01*
X120975476Y-102193809D01*
X121023095Y-102384285D01*
X121070714Y-102479523D01*
X121165952Y-102574761D01*
X121308809Y-102622380D01*
X121404047Y-102622380D01*
X121546904Y-102574761D01*
X121594523Y-102527142D01*
X121594523Y-102193809D01*
X121404047Y-102193809D01*
X122674285Y-130262380D02*
X123340952Y-131262380D01*
X123340952Y-130262380D02*
X122674285Y-131262380D01*
X124436190Y-130214761D02*
X123579047Y-131500476D01*
X124960000Y-130786190D02*
X124960000Y-131262380D01*
X124626666Y-130262380D02*
X124960000Y-130786190D01*
X125293333Y-130262380D01*
X126198095Y-131167142D02*
X126150476Y-131214761D01*
X126007619Y-131262380D01*
X125912380Y-131262380D01*
X125769523Y-131214761D01*
X125674285Y-131119523D01*
X125626666Y-131024285D01*
X125579047Y-130833809D01*
X125579047Y-130690952D01*
X125626666Y-130500476D01*
X125674285Y-130405238D01*
X125769523Y-130310000D01*
X125912380Y-130262380D01*
X126007619Y-130262380D01*
X126150476Y-130310000D01*
X126198095Y-130357619D01*
X118570476Y-133437380D02*
X119237142Y-134437380D01*
X119237142Y-133437380D02*
X118570476Y-134437380D01*
X119808571Y-133437380D02*
X119903809Y-133437380D01*
X119999047Y-133485000D01*
X120046666Y-133532619D01*
X120094285Y-133627857D01*
X120141904Y-133818333D01*
X120141904Y-134056428D01*
X120094285Y-134246904D01*
X120046666Y-134342142D01*
X119999047Y-134389761D01*
X119903809Y-134437380D01*
X119808571Y-134437380D01*
X119713333Y-134389761D01*
X119665714Y-134342142D01*
X119618095Y-134246904D01*
X119570476Y-134056428D01*
X119570476Y-133818333D01*
X119618095Y-133627857D01*
X119665714Y-133532619D01*
X119713333Y-133485000D01*
X119808571Y-133437380D01*
D10*
X115760000Y-121720000D02*
X115580000Y-121720000D01*
X118100000Y-121720000D02*
X117920000Y-121720000D01*
X115760000Y-121600000D02*
X115580000Y-121600000D01*
X118100000Y-121600000D02*
X117920000Y-121600000D01*
X115745000Y-124900000D02*
X115580000Y-124900000D01*
X118100000Y-124900000D02*
X117935000Y-124900000D01*
X115760000Y-121480000D02*
X115580000Y-121480000D01*
X118100000Y-121480000D02*
X117920000Y-121480000D01*
X115580000Y-121480000D02*
X115580000Y-124900000D01*
X118100000Y-121480000D02*
X118100000Y-124900000D01*
X67250000Y-171510000D02*
X67250000Y-170180000D01*
X68580000Y-171510000D02*
X67250000Y-171510000D01*
X69850000Y-171510000D02*
X69850000Y-168850000D01*
X69850000Y-168850000D02*
X72450000Y-168850000D01*
X69850000Y-171510000D02*
X72450000Y-171510000D01*
X72450000Y-171510000D02*
X72450000Y-168850000D01*
X67250000Y-145990000D02*
X68580000Y-145990000D01*
X67250000Y-147320000D02*
X67250000Y-145990000D01*
X67250000Y-148590000D02*
X69910000Y-148590000D01*
X69910000Y-148590000D02*
X69910000Y-158810000D01*
X67250000Y-148590000D02*
X67250000Y-158810000D01*
X67250000Y-158810000D02*
X69910000Y-158810000D01*
X100270000Y-92710000D02*
X100270000Y-91380000D01*
X100270000Y-91380000D02*
X101600000Y-91380000D01*
X102870000Y-91380000D02*
X108010000Y-91380000D01*
X108010000Y-94040000D02*
X108010000Y-91380000D01*
X102870000Y-94040000D02*
X108010000Y-94040000D01*
X102870000Y-94040000D02*
X102870000Y-91380000D01*
X77255000Y-101910000D02*
X77270000Y-101910000D01*
X75130000Y-101910000D02*
X75145000Y-101910000D01*
X77255000Y-106450000D02*
X77270000Y-106450000D01*
X75130000Y-106450000D02*
X75145000Y-106450000D01*
X77270000Y-106450000D02*
X77270000Y-101910000D01*
X75130000Y-106450000D02*
X75130000Y-101910000D01*
X82550000Y-105760000D02*
X82550000Y-105140000D01*
X83470000Y-106680000D02*
G75*
G03X83470000Y-106680000I-920000J0D01*
G01*
X80010000Y-105760000D02*
X80010000Y-105140000D01*
X80930000Y-106680000D02*
G75*
G03X80930000Y-106680000I-920000J0D01*
G01*
X92820000Y-133290000D02*
X91170000Y-133290000D01*
X92820000Y-153730000D02*
X92820000Y-133290000D01*
X87520000Y-153730000D02*
X92820000Y-153730000D01*
X87520000Y-133290000D02*
X87520000Y-153730000D01*
X89170000Y-133290000D02*
X87520000Y-133290000D01*
X91170000Y-133290000D02*
G75*
G02X89170000Y-133290000I-1000000J0D01*
G01*
X102415000Y-90204775D02*
X102915000Y-90204775D01*
X102665000Y-90454775D02*
X102665000Y-89954775D01*
X103856000Y-85049000D02*
X104424000Y-85049000D01*
X103622000Y-85089000D02*
X104658000Y-85089000D01*
X103463000Y-85129000D02*
X104817000Y-85129000D01*
X103335000Y-85169000D02*
X104945000Y-85169000D01*
X103225000Y-85209000D02*
X105055000Y-85209000D01*
X103129000Y-85249000D02*
X105151000Y-85249000D01*
X103042000Y-85289000D02*
X105238000Y-85289000D01*
X102962000Y-85329000D02*
X105318000Y-85329000D01*
X105180000Y-85369000D02*
X105391000Y-85369000D01*
X102889000Y-85369000D02*
X103100000Y-85369000D01*
X105180000Y-85409000D02*
X105459000Y-85409000D01*
X102821000Y-85409000D02*
X103100000Y-85409000D01*
X105180000Y-85449000D02*
X105523000Y-85449000D01*
X102757000Y-85449000D02*
X103100000Y-85449000D01*
X105180000Y-85489000D02*
X105583000Y-85489000D01*
X102697000Y-85489000D02*
X103100000Y-85489000D01*
X105180000Y-85529000D02*
X105640000Y-85529000D01*
X102640000Y-85529000D02*
X103100000Y-85529000D01*
X105180000Y-85569000D02*
X105694000Y-85569000D01*
X102586000Y-85569000D02*
X103100000Y-85569000D01*
X105180000Y-85609000D02*
X105745000Y-85609000D01*
X102535000Y-85609000D02*
X103100000Y-85609000D01*
X105180000Y-85649000D02*
X105793000Y-85649000D01*
X102487000Y-85649000D02*
X103100000Y-85649000D01*
X105180000Y-85689000D02*
X105839000Y-85689000D01*
X102441000Y-85689000D02*
X103100000Y-85689000D01*
X105180000Y-85729000D02*
X105883000Y-85729000D01*
X102397000Y-85729000D02*
X103100000Y-85729000D01*
X105180000Y-85769000D02*
X105925000Y-85769000D01*
X102355000Y-85769000D02*
X103100000Y-85769000D01*
X105180000Y-85809000D02*
X105966000Y-85809000D01*
X102314000Y-85809000D02*
X103100000Y-85809000D01*
X105180000Y-85849000D02*
X106004000Y-85849000D01*
X102276000Y-85849000D02*
X103100000Y-85849000D01*
X105180000Y-85889000D02*
X106041000Y-85889000D01*
X102239000Y-85889000D02*
X103100000Y-85889000D01*
X105180000Y-85929000D02*
X106077000Y-85929000D01*
X102203000Y-85929000D02*
X103100000Y-85929000D01*
X105180000Y-85969000D02*
X106111000Y-85969000D01*
X102169000Y-85969000D02*
X103100000Y-85969000D01*
X105180000Y-86009000D02*
X106144000Y-86009000D01*
X102136000Y-86009000D02*
X103100000Y-86009000D01*
X105180000Y-86049000D02*
X106175000Y-86049000D01*
X102105000Y-86049000D02*
X103100000Y-86049000D01*
X105180000Y-86089000D02*
X106205000Y-86089000D01*
X102075000Y-86089000D02*
X103100000Y-86089000D01*
X105180000Y-86129000D02*
X106235000Y-86129000D01*
X102045000Y-86129000D02*
X103100000Y-86129000D01*
X105180000Y-86169000D02*
X106262000Y-86169000D01*
X102018000Y-86169000D02*
X103100000Y-86169000D01*
X105180000Y-86209000D02*
X106289000Y-86209000D01*
X101991000Y-86209000D02*
X103100000Y-86209000D01*
X105180000Y-86249000D02*
X106315000Y-86249000D01*
X101965000Y-86249000D02*
X103100000Y-86249000D01*
X105180000Y-86289000D02*
X106340000Y-86289000D01*
X101940000Y-86289000D02*
X103100000Y-86289000D01*
X105180000Y-86329000D02*
X106364000Y-86329000D01*
X101916000Y-86329000D02*
X103100000Y-86329000D01*
X105180000Y-86369000D02*
X106387000Y-86369000D01*
X101893000Y-86369000D02*
X103100000Y-86369000D01*
X105180000Y-86409000D02*
X106408000Y-86409000D01*
X101872000Y-86409000D02*
X103100000Y-86409000D01*
X105180000Y-86449000D02*
X106430000Y-86449000D01*
X101850000Y-86449000D02*
X103100000Y-86449000D01*
X105180000Y-86489000D02*
X106450000Y-86489000D01*
X101830000Y-86489000D02*
X103100000Y-86489000D01*
X105180000Y-86529000D02*
X106469000Y-86529000D01*
X101811000Y-86529000D02*
X103100000Y-86529000D01*
X105180000Y-86569000D02*
X106488000Y-86569000D01*
X101792000Y-86569000D02*
X103100000Y-86569000D01*
X105180000Y-86609000D02*
X106505000Y-86609000D01*
X101775000Y-86609000D02*
X103100000Y-86609000D01*
X105180000Y-86649000D02*
X106522000Y-86649000D01*
X101758000Y-86649000D02*
X103100000Y-86649000D01*
X105180000Y-86689000D02*
X106538000Y-86689000D01*
X101742000Y-86689000D02*
X103100000Y-86689000D01*
X105180000Y-86729000D02*
X106554000Y-86729000D01*
X101726000Y-86729000D02*
X103100000Y-86729000D01*
X105180000Y-86769000D02*
X106568000Y-86769000D01*
X101712000Y-86769000D02*
X103100000Y-86769000D01*
X105180000Y-86809000D02*
X106582000Y-86809000D01*
X101698000Y-86809000D02*
X103100000Y-86809000D01*
X105180000Y-86849000D02*
X106595000Y-86849000D01*
X101685000Y-86849000D02*
X103100000Y-86849000D01*
X105180000Y-86889000D02*
X106608000Y-86889000D01*
X101672000Y-86889000D02*
X103100000Y-86889000D01*
X105180000Y-86929000D02*
X106620000Y-86929000D01*
X101660000Y-86929000D02*
X103100000Y-86929000D01*
X105180000Y-86970000D02*
X106631000Y-86970000D01*
X101649000Y-86970000D02*
X103100000Y-86970000D01*
X105180000Y-87010000D02*
X106641000Y-87010000D01*
X101639000Y-87010000D02*
X103100000Y-87010000D01*
X105180000Y-87050000D02*
X106651000Y-87050000D01*
X101629000Y-87050000D02*
X103100000Y-87050000D01*
X105180000Y-87090000D02*
X106660000Y-87090000D01*
X101620000Y-87090000D02*
X103100000Y-87090000D01*
X105180000Y-87130000D02*
X106668000Y-87130000D01*
X101612000Y-87130000D02*
X103100000Y-87130000D01*
X105180000Y-87170000D02*
X106676000Y-87170000D01*
X101604000Y-87170000D02*
X103100000Y-87170000D01*
X105180000Y-87210000D02*
X106683000Y-87210000D01*
X101597000Y-87210000D02*
X103100000Y-87210000D01*
X105180000Y-87250000D02*
X106690000Y-87250000D01*
X101590000Y-87250000D02*
X103100000Y-87250000D01*
X105180000Y-87290000D02*
X106696000Y-87290000D01*
X101584000Y-87290000D02*
X103100000Y-87290000D01*
X105180000Y-87330000D02*
X106701000Y-87330000D01*
X101579000Y-87330000D02*
X103100000Y-87330000D01*
X105180000Y-87370000D02*
X106705000Y-87370000D01*
X101575000Y-87370000D02*
X103100000Y-87370000D01*
X105180000Y-87410000D02*
X106709000Y-87410000D01*
X101571000Y-87410000D02*
X103100000Y-87410000D01*
X101567000Y-87450000D02*
X106713000Y-87450000D01*
X101564000Y-87490000D02*
X106716000Y-87490000D01*
X101562000Y-87530000D02*
X106718000Y-87530000D01*
X101561000Y-87570000D02*
X106719000Y-87570000D01*
X101560000Y-87610000D02*
X106720000Y-87610000D01*
X101560000Y-87650000D02*
X106720000Y-87650000D01*
X106760000Y-87650000D02*
G75*
G03X106760000Y-87650000I-2620000J0D01*
G01*
X118300000Y-88700000D02*
X118120000Y-88700000D01*
X120640000Y-88700000D02*
X120460000Y-88700000D01*
X118300000Y-88580000D02*
X118120000Y-88580000D01*
X120640000Y-88580000D02*
X120460000Y-88580000D01*
X118285000Y-91880000D02*
X118120000Y-91880000D01*
X120640000Y-91880000D02*
X120475000Y-91880000D01*
X118300000Y-88460000D02*
X118120000Y-88460000D01*
X120640000Y-88460000D02*
X120460000Y-88460000D01*
X118120000Y-88460000D02*
X118120000Y-91880000D01*
X120640000Y-88460000D02*
X120640000Y-91880000D01*
D14*
G36*
X92223910Y-82582348D02*
G01*
X92302454Y-82582778D01*
X92359298Y-82583942D01*
X92398105Y-82586207D01*
X92422538Y-82589940D01*
X92436262Y-82595506D01*
X92442940Y-82603273D01*
X92446236Y-82613605D01*
X92446556Y-82614943D01*
X92451562Y-82639079D01*
X92460829Y-82686701D01*
X92473392Y-82752741D01*
X92488287Y-82832128D01*
X92504551Y-82919796D01*
X92505119Y-82922875D01*
X92521410Y-83008789D01*
X92536652Y-83084696D01*
X92549861Y-83146045D01*
X92560054Y-83188282D01*
X92566248Y-83206855D01*
X92566543Y-83207184D01*
X92584788Y-83216253D01*
X92622405Y-83231367D01*
X92671271Y-83249262D01*
X92671543Y-83249358D01*
X92733093Y-83272493D01*
X92805657Y-83301965D01*
X92874057Y-83331597D01*
X92877294Y-83333062D01*
X92988702Y-83383626D01*
X93235399Y-83215160D01*
X93311077Y-83163803D01*
X93379631Y-83117889D01*
X93437088Y-83080030D01*
X93479476Y-83052837D01*
X93502825Y-83038921D01*
X93505042Y-83037889D01*
X93522010Y-83042484D01*
X93553701Y-83064655D01*
X93601352Y-83105447D01*
X93666198Y-83165905D01*
X93732397Y-83230227D01*
X93796214Y-83293612D01*
X93853329Y-83351451D01*
X93900305Y-83400175D01*
X93933703Y-83436210D01*
X93950085Y-83455984D01*
X93950694Y-83457002D01*
X93952505Y-83470572D01*
X93945683Y-83492733D01*
X93928540Y-83526478D01*
X93899393Y-83574800D01*
X93856555Y-83640692D01*
X93799448Y-83725517D01*
X93748766Y-83800177D01*
X93703461Y-83867140D01*
X93666150Y-83922516D01*
X93639452Y-83962420D01*
X93625985Y-83982962D01*
X93625137Y-83984356D01*
X93626781Y-84004038D01*
X93639245Y-84042293D01*
X93660048Y-84091889D01*
X93667462Y-84107728D01*
X93699814Y-84178290D01*
X93734328Y-84258353D01*
X93762365Y-84327629D01*
X93782568Y-84379045D01*
X93798615Y-84418119D01*
X93807888Y-84438541D01*
X93809041Y-84440114D01*
X93826096Y-84442721D01*
X93866298Y-84449863D01*
X93924302Y-84460523D01*
X93994763Y-84473685D01*
X94072335Y-84488333D01*
X94151672Y-84503449D01*
X94227431Y-84518018D01*
X94294264Y-84531022D01*
X94346828Y-84541445D01*
X94379776Y-84548270D01*
X94387857Y-84550199D01*
X94396205Y-84554962D01*
X94402506Y-84565718D01*
X94407045Y-84586098D01*
X94410104Y-84619734D01*
X94411967Y-84670255D01*
X94412918Y-84741292D01*
X94413240Y-84836476D01*
X94413257Y-84875492D01*
X94413257Y-85192799D01*
X94337057Y-85207839D01*
X94294663Y-85215995D01*
X94231400Y-85227899D01*
X94154962Y-85242116D01*
X94073043Y-85257210D01*
X94050400Y-85261355D01*
X93974806Y-85276053D01*
X93908953Y-85290505D01*
X93858366Y-85303375D01*
X93828574Y-85313322D01*
X93823612Y-85316287D01*
X93811426Y-85337283D01*
X93793953Y-85377967D01*
X93774577Y-85430322D01*
X93770734Y-85441600D01*
X93745339Y-85511523D01*
X93713817Y-85590418D01*
X93682969Y-85661266D01*
X93682817Y-85661595D01*
X93631447Y-85772733D01*
X93800399Y-86021253D01*
X93969352Y-86269772D01*
X93752429Y-86487058D01*
X93686819Y-86551726D01*
X93626979Y-86608733D01*
X93576267Y-86655033D01*
X93538046Y-86687584D01*
X93515675Y-86703343D01*
X93512466Y-86704343D01*
X93493626Y-86696469D01*
X93455180Y-86674578D01*
X93401330Y-86641267D01*
X93336276Y-86599131D01*
X93265940Y-86551943D01*
X93194555Y-86503810D01*
X93130908Y-86461928D01*
X93079041Y-86428871D01*
X93042995Y-86407218D01*
X93026867Y-86399543D01*
X93007189Y-86406037D01*
X92969875Y-86423150D01*
X92922621Y-86447326D01*
X92917612Y-86450013D01*
X92853977Y-86481927D01*
X92810341Y-86497579D01*
X92783202Y-86497745D01*
X92769057Y-86483204D01*
X92768975Y-86483000D01*
X92761905Y-86465779D01*
X92745042Y-86424899D01*
X92719695Y-86363525D01*
X92687171Y-86284819D01*
X92648778Y-86191947D01*
X92605822Y-86088072D01*
X92564222Y-85987502D01*
X92518504Y-85876516D01*
X92476526Y-85773703D01*
X92439548Y-85682215D01*
X92408827Y-85605201D01*
X92385622Y-85545815D01*
X92371190Y-85507209D01*
X92366743Y-85492800D01*
X92377896Y-85476272D01*
X92407069Y-85449930D01*
X92445971Y-85420887D01*
X92556757Y-85329039D01*
X92643351Y-85223759D01*
X92704716Y-85107266D01*
X92739815Y-84981776D01*
X92747608Y-84849507D01*
X92741943Y-84788457D01*
X92711078Y-84661795D01*
X92657920Y-84549941D01*
X92585767Y-84454001D01*
X92497917Y-84375076D01*
X92397665Y-84314270D01*
X92288310Y-84272687D01*
X92173147Y-84251428D01*
X92055475Y-84251599D01*
X91938590Y-84274301D01*
X91825789Y-84320638D01*
X91720369Y-84391713D01*
X91676368Y-84431911D01*
X91591979Y-84535129D01*
X91533222Y-84647925D01*
X91499704Y-84767010D01*
X91491035Y-84889095D01*
X91506823Y-85010893D01*
X91546678Y-85129116D01*
X91610207Y-85240475D01*
X91697021Y-85341684D01*
X91794029Y-85420887D01*
X91834437Y-85451162D01*
X91862982Y-85477219D01*
X91873257Y-85492825D01*
X91867877Y-85509843D01*
X91852575Y-85550500D01*
X91828612Y-85611642D01*
X91797244Y-85690119D01*
X91759732Y-85782780D01*
X91717333Y-85886472D01*
X91675663Y-85987526D01*
X91629690Y-86098607D01*
X91587107Y-86201541D01*
X91549221Y-86293165D01*
X91517340Y-86370316D01*
X91492771Y-86429831D01*
X91476820Y-86468544D01*
X91470910Y-86483000D01*
X91456948Y-86497685D01*
X91429940Y-86497642D01*
X91386413Y-86482099D01*
X91322890Y-86450284D01*
X91322388Y-86450013D01*
X91274560Y-86425323D01*
X91235897Y-86407338D01*
X91214095Y-86399614D01*
X91213133Y-86399543D01*
X91196721Y-86407378D01*
X91160487Y-86429165D01*
X91108474Y-86462328D01*
X91044725Y-86504291D01*
X90974060Y-86551943D01*
X90902116Y-86600191D01*
X90837274Y-86642151D01*
X90783735Y-86675227D01*
X90745697Y-86696821D01*
X90727533Y-86704343D01*
X90710808Y-86694457D01*
X90677180Y-86666826D01*
X90630010Y-86624495D01*
X90572658Y-86570505D01*
X90508484Y-86507899D01*
X90487497Y-86486983D01*
X90270499Y-86269623D01*
X90435668Y-86027220D01*
X90485864Y-85952781D01*
X90529919Y-85885972D01*
X90565362Y-85830665D01*
X90589719Y-85790729D01*
X90600522Y-85770036D01*
X90600838Y-85768563D01*
X90595143Y-85749058D01*
X90579826Y-85709822D01*
X90557537Y-85657430D01*
X90541893Y-85622355D01*
X90512641Y-85555201D01*
X90485094Y-85487358D01*
X90463737Y-85430034D01*
X90457935Y-85412572D01*
X90441452Y-85365938D01*
X90425340Y-85329905D01*
X90416490Y-85316287D01*
X90396960Y-85307952D01*
X90354334Y-85296137D01*
X90294145Y-85282181D01*
X90221922Y-85267422D01*
X90189600Y-85261355D01*
X90107522Y-85246273D01*
X90028795Y-85231669D01*
X89961109Y-85218980D01*
X89912160Y-85209642D01*
X89902943Y-85207839D01*
X89826743Y-85192799D01*
X89826743Y-84875492D01*
X89826914Y-84771154D01*
X89827616Y-84692213D01*
X89829134Y-84635038D01*
X89831749Y-84595999D01*
X89835746Y-84571465D01*
X89841409Y-84557805D01*
X89849020Y-84551389D01*
X89852143Y-84550199D01*
X89870978Y-84545980D01*
X89912588Y-84537562D01*
X89971630Y-84525961D01*
X90042757Y-84512195D01*
X90120625Y-84497280D01*
X90199887Y-84482232D01*
X90275198Y-84468069D01*
X90341213Y-84455806D01*
X90392587Y-84446461D01*
X90423975Y-84441050D01*
X90430959Y-84440114D01*
X90437285Y-84427596D01*
X90451290Y-84394246D01*
X90470355Y-84346377D01*
X90477634Y-84327629D01*
X90506996Y-84255195D01*
X90541571Y-84175170D01*
X90572537Y-84107728D01*
X90595323Y-84056159D01*
X90610482Y-84013785D01*
X90615542Y-83987834D01*
X90614736Y-83984356D01*
X90604041Y-83967936D01*
X90579620Y-83931417D01*
X90544095Y-83878687D01*
X90500087Y-83813635D01*
X90450217Y-83740151D01*
X90440356Y-83725645D01*
X90382492Y-83639704D01*
X90339956Y-83574261D01*
X90311054Y-83526304D01*
X90294090Y-83492820D01*
X90287367Y-83470795D01*
X90289190Y-83457217D01*
X90289236Y-83457131D01*
X90303586Y-83439297D01*
X90335323Y-83404817D01*
X90381010Y-83357268D01*
X90437204Y-83300222D01*
X90500468Y-83237255D01*
X90507602Y-83230227D01*
X90587330Y-83153020D01*
X90648857Y-83096330D01*
X90693421Y-83059110D01*
X90722257Y-83040315D01*
X90734958Y-83037889D01*
X90753494Y-83048471D01*
X90791961Y-83072916D01*
X90846386Y-83108612D01*
X90912798Y-83152947D01*
X90987225Y-83203311D01*
X91004601Y-83215160D01*
X91251297Y-83383626D01*
X91362706Y-83333062D01*
X91430457Y-83303595D01*
X91503183Y-83273959D01*
X91565703Y-83250330D01*
X91568457Y-83249358D01*
X91617360Y-83231457D01*
X91655057Y-83216320D01*
X91673425Y-83207210D01*
X91673456Y-83207184D01*
X91679285Y-83190717D01*
X91689192Y-83150219D01*
X91702195Y-83090242D01*
X91717309Y-83015340D01*
X91733552Y-82930064D01*
X91734881Y-82922875D01*
X91751175Y-82835014D01*
X91766133Y-82755260D01*
X91778791Y-82688681D01*
X91788186Y-82640347D01*
X91793354Y-82615325D01*
X91793444Y-82614943D01*
X91796589Y-82604299D01*
X91802704Y-82596262D01*
X91815453Y-82590467D01*
X91838500Y-82586547D01*
X91875509Y-82584135D01*
X91930144Y-82582865D01*
X92006067Y-82582371D01*
X92106944Y-82582286D01*
X92120000Y-82582286D01*
X92223910Y-82582348D01*
G37*
X92223910Y-82582348D02*
X92302454Y-82582778D01*
X92359298Y-82583942D01*
X92398105Y-82586207D01*
X92422538Y-82589940D01*
X92436262Y-82595506D01*
X92442940Y-82603273D01*
X92446236Y-82613605D01*
X92446556Y-82614943D01*
X92451562Y-82639079D01*
X92460829Y-82686701D01*
X92473392Y-82752741D01*
X92488287Y-82832128D01*
X92504551Y-82919796D01*
X92505119Y-82922875D01*
X92521410Y-83008789D01*
X92536652Y-83084696D01*
X92549861Y-83146045D01*
X92560054Y-83188282D01*
X92566248Y-83206855D01*
X92566543Y-83207184D01*
X92584788Y-83216253D01*
X92622405Y-83231367D01*
X92671271Y-83249262D01*
X92671543Y-83249358D01*
X92733093Y-83272493D01*
X92805657Y-83301965D01*
X92874057Y-83331597D01*
X92877294Y-83333062D01*
X92988702Y-83383626D01*
X93235399Y-83215160D01*
X93311077Y-83163803D01*
X93379631Y-83117889D01*
X93437088Y-83080030D01*
X93479476Y-83052837D01*
X93502825Y-83038921D01*
X93505042Y-83037889D01*
X93522010Y-83042484D01*
X93553701Y-83064655D01*
X93601352Y-83105447D01*
X93666198Y-83165905D01*
X93732397Y-83230227D01*
X93796214Y-83293612D01*
X93853329Y-83351451D01*
X93900305Y-83400175D01*
X93933703Y-83436210D01*
X93950085Y-83455984D01*
X93950694Y-83457002D01*
X93952505Y-83470572D01*
X93945683Y-83492733D01*
X93928540Y-83526478D01*
X93899393Y-83574800D01*
X93856555Y-83640692D01*
X93799448Y-83725517D01*
X93748766Y-83800177D01*
X93703461Y-83867140D01*
X93666150Y-83922516D01*
X93639452Y-83962420D01*
X93625985Y-83982962D01*
X93625137Y-83984356D01*
X93626781Y-84004038D01*
X93639245Y-84042293D01*
X93660048Y-84091889D01*
X93667462Y-84107728D01*
X93699814Y-84178290D01*
X93734328Y-84258353D01*
X93762365Y-84327629D01*
X93782568Y-84379045D01*
X93798615Y-84418119D01*
X93807888Y-84438541D01*
X93809041Y-84440114D01*
X93826096Y-84442721D01*
X93866298Y-84449863D01*
X93924302Y-84460523D01*
X93994763Y-84473685D01*
X94072335Y-84488333D01*
X94151672Y-84503449D01*
X94227431Y-84518018D01*
X94294264Y-84531022D01*
X94346828Y-84541445D01*
X94379776Y-84548270D01*
X94387857Y-84550199D01*
X94396205Y-84554962D01*
X94402506Y-84565718D01*
X94407045Y-84586098D01*
X94410104Y-84619734D01*
X94411967Y-84670255D01*
X94412918Y-84741292D01*
X94413240Y-84836476D01*
X94413257Y-84875492D01*
X94413257Y-85192799D01*
X94337057Y-85207839D01*
X94294663Y-85215995D01*
X94231400Y-85227899D01*
X94154962Y-85242116D01*
X94073043Y-85257210D01*
X94050400Y-85261355D01*
X93974806Y-85276053D01*
X93908953Y-85290505D01*
X93858366Y-85303375D01*
X93828574Y-85313322D01*
X93823612Y-85316287D01*
X93811426Y-85337283D01*
X93793953Y-85377967D01*
X93774577Y-85430322D01*
X93770734Y-85441600D01*
X93745339Y-85511523D01*
X93713817Y-85590418D01*
X93682969Y-85661266D01*
X93682817Y-85661595D01*
X93631447Y-85772733D01*
X93800399Y-86021253D01*
X93969352Y-86269772D01*
X93752429Y-86487058D01*
X93686819Y-86551726D01*
X93626979Y-86608733D01*
X93576267Y-86655033D01*
X93538046Y-86687584D01*
X93515675Y-86703343D01*
X93512466Y-86704343D01*
X93493626Y-86696469D01*
X93455180Y-86674578D01*
X93401330Y-86641267D01*
X93336276Y-86599131D01*
X93265940Y-86551943D01*
X93194555Y-86503810D01*
X93130908Y-86461928D01*
X93079041Y-86428871D01*
X93042995Y-86407218D01*
X93026867Y-86399543D01*
X93007189Y-86406037D01*
X92969875Y-86423150D01*
X92922621Y-86447326D01*
X92917612Y-86450013D01*
X92853977Y-86481927D01*
X92810341Y-86497579D01*
X92783202Y-86497745D01*
X92769057Y-86483204D01*
X92768975Y-86483000D01*
X92761905Y-86465779D01*
X92745042Y-86424899D01*
X92719695Y-86363525D01*
X92687171Y-86284819D01*
X92648778Y-86191947D01*
X92605822Y-86088072D01*
X92564222Y-85987502D01*
X92518504Y-85876516D01*
X92476526Y-85773703D01*
X92439548Y-85682215D01*
X92408827Y-85605201D01*
X92385622Y-85545815D01*
X92371190Y-85507209D01*
X92366743Y-85492800D01*
X92377896Y-85476272D01*
X92407069Y-85449930D01*
X92445971Y-85420887D01*
X92556757Y-85329039D01*
X92643351Y-85223759D01*
X92704716Y-85107266D01*
X92739815Y-84981776D01*
X92747608Y-84849507D01*
X92741943Y-84788457D01*
X92711078Y-84661795D01*
X92657920Y-84549941D01*
X92585767Y-84454001D01*
X92497917Y-84375076D01*
X92397665Y-84314270D01*
X92288310Y-84272687D01*
X92173147Y-84251428D01*
X92055475Y-84251599D01*
X91938590Y-84274301D01*
X91825789Y-84320638D01*
X91720369Y-84391713D01*
X91676368Y-84431911D01*
X91591979Y-84535129D01*
X91533222Y-84647925D01*
X91499704Y-84767010D01*
X91491035Y-84889095D01*
X91506823Y-85010893D01*
X91546678Y-85129116D01*
X91610207Y-85240475D01*
X91697021Y-85341684D01*
X91794029Y-85420887D01*
X91834437Y-85451162D01*
X91862982Y-85477219D01*
X91873257Y-85492825D01*
X91867877Y-85509843D01*
X91852575Y-85550500D01*
X91828612Y-85611642D01*
X91797244Y-85690119D01*
X91759732Y-85782780D01*
X91717333Y-85886472D01*
X91675663Y-85987526D01*
X91629690Y-86098607D01*
X91587107Y-86201541D01*
X91549221Y-86293165D01*
X91517340Y-86370316D01*
X91492771Y-86429831D01*
X91476820Y-86468544D01*
X91470910Y-86483000D01*
X91456948Y-86497685D01*
X91429940Y-86497642D01*
X91386413Y-86482099D01*
X91322890Y-86450284D01*
X91322388Y-86450013D01*
X91274560Y-86425323D01*
X91235897Y-86407338D01*
X91214095Y-86399614D01*
X91213133Y-86399543D01*
X91196721Y-86407378D01*
X91160487Y-86429165D01*
X91108474Y-86462328D01*
X91044725Y-86504291D01*
X90974060Y-86551943D01*
X90902116Y-86600191D01*
X90837274Y-86642151D01*
X90783735Y-86675227D01*
X90745697Y-86696821D01*
X90727533Y-86704343D01*
X90710808Y-86694457D01*
X90677180Y-86666826D01*
X90630010Y-86624495D01*
X90572658Y-86570505D01*
X90508484Y-86507899D01*
X90487497Y-86486983D01*
X90270499Y-86269623D01*
X90435668Y-86027220D01*
X90485864Y-85952781D01*
X90529919Y-85885972D01*
X90565362Y-85830665D01*
X90589719Y-85790729D01*
X90600522Y-85770036D01*
X90600838Y-85768563D01*
X90595143Y-85749058D01*
X90579826Y-85709822D01*
X90557537Y-85657430D01*
X90541893Y-85622355D01*
X90512641Y-85555201D01*
X90485094Y-85487358D01*
X90463737Y-85430034D01*
X90457935Y-85412572D01*
X90441452Y-85365938D01*
X90425340Y-85329905D01*
X90416490Y-85316287D01*
X90396960Y-85307952D01*
X90354334Y-85296137D01*
X90294145Y-85282181D01*
X90221922Y-85267422D01*
X90189600Y-85261355D01*
X90107522Y-85246273D01*
X90028795Y-85231669D01*
X89961109Y-85218980D01*
X89912160Y-85209642D01*
X89902943Y-85207839D01*
X89826743Y-85192799D01*
X89826743Y-84875492D01*
X89826914Y-84771154D01*
X89827616Y-84692213D01*
X89829134Y-84635038D01*
X89831749Y-84595999D01*
X89835746Y-84571465D01*
X89841409Y-84557805D01*
X89849020Y-84551389D01*
X89852143Y-84550199D01*
X89870978Y-84545980D01*
X89912588Y-84537562D01*
X89971630Y-84525961D01*
X90042757Y-84512195D01*
X90120625Y-84497280D01*
X90199887Y-84482232D01*
X90275198Y-84468069D01*
X90341213Y-84455806D01*
X90392587Y-84446461D01*
X90423975Y-84441050D01*
X90430959Y-84440114D01*
X90437285Y-84427596D01*
X90451290Y-84394246D01*
X90470355Y-84346377D01*
X90477634Y-84327629D01*
X90506996Y-84255195D01*
X90541571Y-84175170D01*
X90572537Y-84107728D01*
X90595323Y-84056159D01*
X90610482Y-84013785D01*
X90615542Y-83987834D01*
X90614736Y-83984356D01*
X90604041Y-83967936D01*
X90579620Y-83931417D01*
X90544095Y-83878687D01*
X90500087Y-83813635D01*
X90450217Y-83740151D01*
X90440356Y-83725645D01*
X90382492Y-83639704D01*
X90339956Y-83574261D01*
X90311054Y-83526304D01*
X90294090Y-83492820D01*
X90287367Y-83470795D01*
X90289190Y-83457217D01*
X90289236Y-83457131D01*
X90303586Y-83439297D01*
X90335323Y-83404817D01*
X90381010Y-83357268D01*
X90437204Y-83300222D01*
X90500468Y-83237255D01*
X90507602Y-83230227D01*
X90587330Y-83153020D01*
X90648857Y-83096330D01*
X90693421Y-83059110D01*
X90722257Y-83040315D01*
X90734958Y-83037889D01*
X90753494Y-83048471D01*
X90791961Y-83072916D01*
X90846386Y-83108612D01*
X90912798Y-83152947D01*
X90987225Y-83203311D01*
X91004601Y-83215160D01*
X91251297Y-83383626D01*
X91362706Y-83333062D01*
X91430457Y-83303595D01*
X91503183Y-83273959D01*
X91565703Y-83250330D01*
X91568457Y-83249358D01*
X91617360Y-83231457D01*
X91655057Y-83216320D01*
X91673425Y-83207210D01*
X91673456Y-83207184D01*
X91679285Y-83190717D01*
X91689192Y-83150219D01*
X91702195Y-83090242D01*
X91717309Y-83015340D01*
X91733552Y-82930064D01*
X91734881Y-82922875D01*
X91751175Y-82835014D01*
X91766133Y-82755260D01*
X91778791Y-82688681D01*
X91788186Y-82640347D01*
X91793354Y-82615325D01*
X91793444Y-82614943D01*
X91796589Y-82604299D01*
X91802704Y-82596262D01*
X91815453Y-82590467D01*
X91838500Y-82586547D01*
X91875509Y-82584135D01*
X91930144Y-82582865D01*
X92006067Y-82582371D01*
X92106944Y-82582286D01*
X92120000Y-82582286D01*
X92223910Y-82582348D01*
G36*
X95273595Y-87306966D02*
G01*
X95331021Y-87344497D01*
X95358719Y-87378096D01*
X95380662Y-87439064D01*
X95382405Y-87487308D01*
X95378457Y-87551816D01*
X95229686Y-87616934D01*
X95157349Y-87650202D01*
X95110084Y-87676964D01*
X95085507Y-87700144D01*
X95081237Y-87722667D01*
X95094889Y-87747455D01*
X95109943Y-87763886D01*
X95153746Y-87790235D01*
X95201389Y-87792081D01*
X95245145Y-87771546D01*
X95277289Y-87730752D01*
X95283038Y-87716347D01*
X95310576Y-87671356D01*
X95342258Y-87652182D01*
X95385714Y-87635779D01*
X95385714Y-87697966D01*
X95381872Y-87740283D01*
X95366823Y-87775969D01*
X95335280Y-87816943D01*
X95330592Y-87822267D01*
X95295506Y-87858720D01*
X95265347Y-87878283D01*
X95227615Y-87887283D01*
X95196335Y-87890230D01*
X95140385Y-87890965D01*
X95100555Y-87881660D01*
X95075708Y-87867846D01*
X95036656Y-87837467D01*
X95009625Y-87804613D01*
X94992517Y-87763294D01*
X94983238Y-87707521D01*
X94979693Y-87631305D01*
X94979410Y-87592622D01*
X94980372Y-87546247D01*
X95068007Y-87546247D01*
X95069023Y-87571126D01*
X95071556Y-87575200D01*
X95088274Y-87569665D01*
X95124249Y-87555017D01*
X95172331Y-87534190D01*
X95182386Y-87529714D01*
X95243152Y-87498814D01*
X95276632Y-87471657D01*
X95283990Y-87446220D01*
X95266391Y-87420481D01*
X95251856Y-87409109D01*
X95199410Y-87386364D01*
X95150322Y-87390122D01*
X95109227Y-87417884D01*
X95080758Y-87467152D01*
X95071631Y-87506257D01*
X95068007Y-87546247D01*
X94980372Y-87546247D01*
X94981285Y-87502249D01*
X94988196Y-87435384D01*
X95001884Y-87386695D01*
X95024096Y-87350849D01*
X95056574Y-87322513D01*
X95070733Y-87313355D01*
X95135053Y-87289507D01*
X95205473Y-87288006D01*
X95273595Y-87306966D01*
G37*
X95273595Y-87306966D02*
X95331021Y-87344497D01*
X95358719Y-87378096D01*
X95380662Y-87439064D01*
X95382405Y-87487308D01*
X95378457Y-87551816D01*
X95229686Y-87616934D01*
X95157349Y-87650202D01*
X95110084Y-87676964D01*
X95085507Y-87700144D01*
X95081237Y-87722667D01*
X95094889Y-87747455D01*
X95109943Y-87763886D01*
X95153746Y-87790235D01*
X95201389Y-87792081D01*
X95245145Y-87771546D01*
X95277289Y-87730752D01*
X95283038Y-87716347D01*
X95310576Y-87671356D01*
X95342258Y-87652182D01*
X95385714Y-87635779D01*
X95385714Y-87697966D01*
X95381872Y-87740283D01*
X95366823Y-87775969D01*
X95335280Y-87816943D01*
X95330592Y-87822267D01*
X95295506Y-87858720D01*
X95265347Y-87878283D01*
X95227615Y-87887283D01*
X95196335Y-87890230D01*
X95140385Y-87890965D01*
X95100555Y-87881660D01*
X95075708Y-87867846D01*
X95036656Y-87837467D01*
X95009625Y-87804613D01*
X94992517Y-87763294D01*
X94983238Y-87707521D01*
X94979693Y-87631305D01*
X94979410Y-87592622D01*
X94980372Y-87546247D01*
X95068007Y-87546247D01*
X95069023Y-87571126D01*
X95071556Y-87575200D01*
X95088274Y-87569665D01*
X95124249Y-87555017D01*
X95172331Y-87534190D01*
X95182386Y-87529714D01*
X95243152Y-87498814D01*
X95276632Y-87471657D01*
X95283990Y-87446220D01*
X95266391Y-87420481D01*
X95251856Y-87409109D01*
X95199410Y-87386364D01*
X95150322Y-87390122D01*
X95109227Y-87417884D01*
X95080758Y-87467152D01*
X95071631Y-87506257D01*
X95068007Y-87546247D01*
X94980372Y-87546247D01*
X94981285Y-87502249D01*
X94988196Y-87435384D01*
X95001884Y-87386695D01*
X95024096Y-87350849D01*
X95056574Y-87322513D01*
X95070733Y-87313355D01*
X95135053Y-87289507D01*
X95205473Y-87288006D01*
X95273595Y-87306966D01*
G36*
X94772600Y-87298752D02*
G01*
X94789948Y-87306334D01*
X94831356Y-87339128D01*
X94866765Y-87386547D01*
X94888664Y-87437151D01*
X94892229Y-87462098D01*
X94880279Y-87496927D01*
X94854067Y-87515357D01*
X94825964Y-87526516D01*
X94813095Y-87528572D01*
X94806829Y-87513649D01*
X94794456Y-87481175D01*
X94789028Y-87466502D01*
X94758590Y-87415744D01*
X94714520Y-87390427D01*
X94658010Y-87391206D01*
X94653825Y-87392203D01*
X94623655Y-87406507D01*
X94601476Y-87434393D01*
X94586327Y-87479287D01*
X94577250Y-87544615D01*
X94573286Y-87633804D01*
X94572914Y-87681261D01*
X94572730Y-87756071D01*
X94571522Y-87807069D01*
X94568309Y-87839471D01*
X94562109Y-87858495D01*
X94551940Y-87869356D01*
X94536819Y-87877272D01*
X94535946Y-87877670D01*
X94506828Y-87889981D01*
X94492403Y-87894514D01*
X94490186Y-87880809D01*
X94488289Y-87842925D01*
X94486847Y-87785715D01*
X94485998Y-87714027D01*
X94485829Y-87661565D01*
X94486692Y-87560047D01*
X94490070Y-87483032D01*
X94497142Y-87426023D01*
X94509088Y-87384526D01*
X94527090Y-87354043D01*
X94552327Y-87330080D01*
X94577247Y-87313355D01*
X94637171Y-87291097D01*
X94706911Y-87286076D01*
X94772600Y-87298752D01*
G37*
X94772600Y-87298752D02*
X94789948Y-87306334D01*
X94831356Y-87339128D01*
X94866765Y-87386547D01*
X94888664Y-87437151D01*
X94892229Y-87462098D01*
X94880279Y-87496927D01*
X94854067Y-87515357D01*
X94825964Y-87526516D01*
X94813095Y-87528572D01*
X94806829Y-87513649D01*
X94794456Y-87481175D01*
X94789028Y-87466502D01*
X94758590Y-87415744D01*
X94714520Y-87390427D01*
X94658010Y-87391206D01*
X94653825Y-87392203D01*
X94623655Y-87406507D01*
X94601476Y-87434393D01*
X94586327Y-87479287D01*
X94577250Y-87544615D01*
X94573286Y-87633804D01*
X94572914Y-87681261D01*
X94572730Y-87756071D01*
X94571522Y-87807069D01*
X94568309Y-87839471D01*
X94562109Y-87858495D01*
X94551940Y-87869356D01*
X94536819Y-87877272D01*
X94535946Y-87877670D01*
X94506828Y-87889981D01*
X94492403Y-87894514D01*
X94490186Y-87880809D01*
X94488289Y-87842925D01*
X94486847Y-87785715D01*
X94485998Y-87714027D01*
X94485829Y-87661565D01*
X94486692Y-87560047D01*
X94490070Y-87483032D01*
X94497142Y-87426023D01*
X94509088Y-87384526D01*
X94527090Y-87354043D01*
X94552327Y-87330080D01*
X94577247Y-87313355D01*
X94637171Y-87291097D01*
X94706911Y-87286076D01*
X94772600Y-87298752D01*
G36*
X94264876Y-87296335D02*
G01*
X94306667Y-87315344D01*
X94339469Y-87338378D01*
X94363503Y-87364133D01*
X94380097Y-87397358D01*
X94390577Y-87442800D01*
X94396271Y-87505207D01*
X94398507Y-87589327D01*
X94398743Y-87644721D01*
X94398743Y-87860826D01*
X94361774Y-87877670D01*
X94332656Y-87889981D01*
X94318231Y-87894514D01*
X94315472Y-87881025D01*
X94313282Y-87844653D01*
X94311942Y-87791542D01*
X94311657Y-87749372D01*
X94310434Y-87688447D01*
X94307136Y-87640115D01*
X94302321Y-87610518D01*
X94298496Y-87604229D01*
X94272783Y-87610652D01*
X94232418Y-87627125D01*
X94185679Y-87649458D01*
X94140845Y-87673457D01*
X94106193Y-87694930D01*
X94090002Y-87709685D01*
X94089938Y-87709845D01*
X94091330Y-87737152D01*
X94103818Y-87763219D01*
X94125743Y-87784392D01*
X94157743Y-87791474D01*
X94185092Y-87790649D01*
X94223826Y-87790042D01*
X94244158Y-87799116D01*
X94256369Y-87823092D01*
X94257909Y-87827613D01*
X94263203Y-87861806D01*
X94249047Y-87882568D01*
X94212148Y-87892462D01*
X94172289Y-87894292D01*
X94100562Y-87880727D01*
X94063432Y-87861355D01*
X94017576Y-87815845D01*
X93993256Y-87759983D01*
X93991073Y-87700957D01*
X94011629Y-87645953D01*
X94042549Y-87611486D01*
X94073420Y-87592189D01*
X94121942Y-87567759D01*
X94178485Y-87542985D01*
X94187910Y-87539199D01*
X94250019Y-87511791D01*
X94285822Y-87487634D01*
X94297337Y-87463619D01*
X94286580Y-87436635D01*
X94268114Y-87415543D01*
X94224469Y-87389572D01*
X94176446Y-87387624D01*
X94132406Y-87407637D01*
X94100709Y-87447551D01*
X94096549Y-87457848D01*
X94072327Y-87495724D01*
X94036965Y-87523842D01*
X93992343Y-87546917D01*
X93992343Y-87481485D01*
X93994969Y-87441506D01*
X94006230Y-87409997D01*
X94031199Y-87376378D01*
X94055169Y-87350484D01*
X94092441Y-87313817D01*
X94121401Y-87294121D01*
X94152505Y-87286220D01*
X94187713Y-87284914D01*
X94264876Y-87296335D01*
G37*
X94264876Y-87296335D02*
X94306667Y-87315344D01*
X94339469Y-87338378D01*
X94363503Y-87364133D01*
X94380097Y-87397358D01*
X94390577Y-87442800D01*
X94396271Y-87505207D01*
X94398507Y-87589327D01*
X94398743Y-87644721D01*
X94398743Y-87860826D01*
X94361774Y-87877670D01*
X94332656Y-87889981D01*
X94318231Y-87894514D01*
X94315472Y-87881025D01*
X94313282Y-87844653D01*
X94311942Y-87791542D01*
X94311657Y-87749372D01*
X94310434Y-87688447D01*
X94307136Y-87640115D01*
X94302321Y-87610518D01*
X94298496Y-87604229D01*
X94272783Y-87610652D01*
X94232418Y-87627125D01*
X94185679Y-87649458D01*
X94140845Y-87673457D01*
X94106193Y-87694930D01*
X94090002Y-87709685D01*
X94089938Y-87709845D01*
X94091330Y-87737152D01*
X94103818Y-87763219D01*
X94125743Y-87784392D01*
X94157743Y-87791474D01*
X94185092Y-87790649D01*
X94223826Y-87790042D01*
X94244158Y-87799116D01*
X94256369Y-87823092D01*
X94257909Y-87827613D01*
X94263203Y-87861806D01*
X94249047Y-87882568D01*
X94212148Y-87892462D01*
X94172289Y-87894292D01*
X94100562Y-87880727D01*
X94063432Y-87861355D01*
X94017576Y-87815845D01*
X93993256Y-87759983D01*
X93991073Y-87700957D01*
X94011629Y-87645953D01*
X94042549Y-87611486D01*
X94073420Y-87592189D01*
X94121942Y-87567759D01*
X94178485Y-87542985D01*
X94187910Y-87539199D01*
X94250019Y-87511791D01*
X94285822Y-87487634D01*
X94297337Y-87463619D01*
X94286580Y-87436635D01*
X94268114Y-87415543D01*
X94224469Y-87389572D01*
X94176446Y-87387624D01*
X94132406Y-87407637D01*
X94100709Y-87447551D01*
X94096549Y-87457848D01*
X94072327Y-87495724D01*
X94036965Y-87523842D01*
X93992343Y-87546917D01*
X93992343Y-87481485D01*
X93994969Y-87441506D01*
X94006230Y-87409997D01*
X94031199Y-87376378D01*
X94055169Y-87350484D01*
X94092441Y-87313817D01*
X94121401Y-87294121D01*
X94152505Y-87286220D01*
X94187713Y-87284914D01*
X94264876Y-87296335D01*
G36*
X93899833Y-87298663D02*
G01*
X93902048Y-87336850D01*
X93903784Y-87394886D01*
X93904899Y-87468180D01*
X93905257Y-87545055D01*
X93905257Y-87805196D01*
X93859326Y-87851127D01*
X93827675Y-87879429D01*
X93799890Y-87890893D01*
X93761915Y-87890168D01*
X93746840Y-87888321D01*
X93699726Y-87882948D01*
X93660756Y-87879869D01*
X93651257Y-87879585D01*
X93619233Y-87881445D01*
X93573432Y-87886114D01*
X93555674Y-87888321D01*
X93512057Y-87891735D01*
X93482745Y-87884320D01*
X93453680Y-87861427D01*
X93443188Y-87851127D01*
X93397257Y-87805196D01*
X93397257Y-87318602D01*
X93434226Y-87301758D01*
X93466059Y-87289282D01*
X93484683Y-87284914D01*
X93489458Y-87298718D01*
X93493921Y-87337286D01*
X93497775Y-87396356D01*
X93500722Y-87471663D01*
X93502143Y-87535286D01*
X93506114Y-87785657D01*
X93540759Y-87790556D01*
X93572268Y-87787131D01*
X93587708Y-87776041D01*
X93592023Y-87755308D01*
X93595708Y-87711145D01*
X93598469Y-87649146D01*
X93600012Y-87574909D01*
X93600235Y-87536706D01*
X93600457Y-87316783D01*
X93646166Y-87300849D01*
X93678518Y-87290015D01*
X93696115Y-87284962D01*
X93696623Y-87284914D01*
X93698388Y-87298648D01*
X93700329Y-87336730D01*
X93702282Y-87394482D01*
X93704084Y-87467227D01*
X93705343Y-87535286D01*
X93709314Y-87785657D01*
X93796400Y-87785657D01*
X93800396Y-87557240D01*
X93804392Y-87328822D01*
X93846847Y-87306868D01*
X93878192Y-87291793D01*
X93896744Y-87284951D01*
X93897279Y-87284914D01*
X93899833Y-87298663D01*
G37*
X93899833Y-87298663D02*
X93902048Y-87336850D01*
X93903784Y-87394886D01*
X93904899Y-87468180D01*
X93905257Y-87545055D01*
X93905257Y-87805196D01*
X93859326Y-87851127D01*
X93827675Y-87879429D01*
X93799890Y-87890893D01*
X93761915Y-87890168D01*
X93746840Y-87888321D01*
X93699726Y-87882948D01*
X93660756Y-87879869D01*
X93651257Y-87879585D01*
X93619233Y-87881445D01*
X93573432Y-87886114D01*
X93555674Y-87888321D01*
X93512057Y-87891735D01*
X93482745Y-87884320D01*
X93453680Y-87861427D01*
X93443188Y-87851127D01*
X93397257Y-87805196D01*
X93397257Y-87318602D01*
X93434226Y-87301758D01*
X93466059Y-87289282D01*
X93484683Y-87284914D01*
X93489458Y-87298718D01*
X93493921Y-87337286D01*
X93497775Y-87396356D01*
X93500722Y-87471663D01*
X93502143Y-87535286D01*
X93506114Y-87785657D01*
X93540759Y-87790556D01*
X93572268Y-87787131D01*
X93587708Y-87776041D01*
X93592023Y-87755308D01*
X93595708Y-87711145D01*
X93598469Y-87649146D01*
X93600012Y-87574909D01*
X93600235Y-87536706D01*
X93600457Y-87316783D01*
X93646166Y-87300849D01*
X93678518Y-87290015D01*
X93696115Y-87284962D01*
X93696623Y-87284914D01*
X93698388Y-87298648D01*
X93700329Y-87336730D01*
X93702282Y-87394482D01*
X93704084Y-87467227D01*
X93705343Y-87535286D01*
X93709314Y-87785657D01*
X93796400Y-87785657D01*
X93800396Y-87557240D01*
X93804392Y-87328822D01*
X93846847Y-87306868D01*
X93878192Y-87291793D01*
X93896744Y-87284951D01*
X93897279Y-87284914D01*
X93899833Y-87298663D01*
G36*
X93310117Y-87405358D02*
G01*
X93309933Y-87513837D01*
X93309219Y-87597287D01*
X93307675Y-87659704D01*
X93305001Y-87705085D01*
X93300894Y-87737429D01*
X93295055Y-87760733D01*
X93287182Y-87778995D01*
X93281221Y-87789418D01*
X93231855Y-87845945D01*
X93169264Y-87881377D01*
X93100013Y-87894090D01*
X93030668Y-87882463D01*
X92989375Y-87861568D01*
X92946025Y-87825422D01*
X92916481Y-87781276D01*
X92898655Y-87723462D01*
X92890463Y-87646313D01*
X92889302Y-87589714D01*
X92889458Y-87585647D01*
X92990857Y-87585647D01*
X92991476Y-87650550D01*
X92994314Y-87693514D01*
X93000840Y-87721622D01*
X93012523Y-87741953D01*
X93026483Y-87757288D01*
X93073365Y-87786890D01*
X93123701Y-87789419D01*
X93171276Y-87764705D01*
X93174979Y-87761356D01*
X93190783Y-87743935D01*
X93200693Y-87723209D01*
X93206058Y-87692362D01*
X93208228Y-87644577D01*
X93208571Y-87591748D01*
X93207827Y-87525381D01*
X93204748Y-87481106D01*
X93198061Y-87452009D01*
X93186496Y-87431173D01*
X93177013Y-87420107D01*
X93132960Y-87392198D01*
X93082224Y-87388843D01*
X93033796Y-87410159D01*
X93024450Y-87418073D01*
X93008540Y-87435647D01*
X92998610Y-87456587D01*
X92993278Y-87487782D01*
X92991163Y-87536122D01*
X92990857Y-87585647D01*
X92889458Y-87585647D01*
X92892810Y-87498568D01*
X92904726Y-87430086D01*
X92927135Y-87378600D01*
X92962124Y-87338443D01*
X92989375Y-87317861D01*
X93038907Y-87295625D01*
X93096316Y-87285304D01*
X93149682Y-87288067D01*
X93179543Y-87299212D01*
X93191261Y-87302383D01*
X93199037Y-87290557D01*
X93204465Y-87258866D01*
X93208571Y-87210593D01*
X93213067Y-87156829D01*
X93219313Y-87124482D01*
X93230676Y-87105985D01*
X93250528Y-87093770D01*
X93263000Y-87088362D01*
X93310171Y-87068601D01*
X93310117Y-87405358D01*
G37*
X93310117Y-87405358D02*
X93309933Y-87513837D01*
X93309219Y-87597287D01*
X93307675Y-87659704D01*
X93305001Y-87705085D01*
X93300894Y-87737429D01*
X93295055Y-87760733D01*
X93287182Y-87778995D01*
X93281221Y-87789418D01*
X93231855Y-87845945D01*
X93169264Y-87881377D01*
X93100013Y-87894090D01*
X93030668Y-87882463D01*
X92989375Y-87861568D01*
X92946025Y-87825422D01*
X92916481Y-87781276D01*
X92898655Y-87723462D01*
X92890463Y-87646313D01*
X92889302Y-87589714D01*
X92889458Y-87585647D01*
X92990857Y-87585647D01*
X92991476Y-87650550D01*
X92994314Y-87693514D01*
X93000840Y-87721622D01*
X93012523Y-87741953D01*
X93026483Y-87757288D01*
X93073365Y-87786890D01*
X93123701Y-87789419D01*
X93171276Y-87764705D01*
X93174979Y-87761356D01*
X93190783Y-87743935D01*
X93200693Y-87723209D01*
X93206058Y-87692362D01*
X93208228Y-87644577D01*
X93208571Y-87591748D01*
X93207827Y-87525381D01*
X93204748Y-87481106D01*
X93198061Y-87452009D01*
X93186496Y-87431173D01*
X93177013Y-87420107D01*
X93132960Y-87392198D01*
X93082224Y-87388843D01*
X93033796Y-87410159D01*
X93024450Y-87418073D01*
X93008540Y-87435647D01*
X92998610Y-87456587D01*
X92993278Y-87487782D01*
X92991163Y-87536122D01*
X92990857Y-87585647D01*
X92889458Y-87585647D01*
X92892810Y-87498568D01*
X92904726Y-87430086D01*
X92927135Y-87378600D01*
X92962124Y-87338443D01*
X92989375Y-87317861D01*
X93038907Y-87295625D01*
X93096316Y-87285304D01*
X93149682Y-87288067D01*
X93179543Y-87299212D01*
X93191261Y-87302383D01*
X93199037Y-87290557D01*
X93204465Y-87258866D01*
X93208571Y-87210593D01*
X93213067Y-87156829D01*
X93219313Y-87124482D01*
X93230676Y-87105985D01*
X93250528Y-87093770D01*
X93263000Y-87088362D01*
X93310171Y-87068601D01*
X93310117Y-87405358D01*
G36*
X92649926Y-87289755D02*
G01*
X92715858Y-87314084D01*
X92769273Y-87357117D01*
X92790164Y-87387409D01*
X92812939Y-87442994D01*
X92812466Y-87483186D01*
X92788562Y-87510217D01*
X92779717Y-87514813D01*
X92741530Y-87529144D01*
X92722028Y-87525472D01*
X92715422Y-87501407D01*
X92715086Y-87488114D01*
X92702992Y-87439210D01*
X92671471Y-87404999D01*
X92627659Y-87388476D01*
X92578695Y-87392634D01*
X92538894Y-87414227D01*
X92525450Y-87426544D01*
X92515921Y-87441487D01*
X92509485Y-87464075D01*
X92505317Y-87499328D01*
X92502597Y-87552266D01*
X92500502Y-87627907D01*
X92499960Y-87651857D01*
X92497981Y-87733790D01*
X92495731Y-87791455D01*
X92492357Y-87829608D01*
X92487006Y-87853004D01*
X92478824Y-87866398D01*
X92466959Y-87874545D01*
X92459362Y-87878144D01*
X92427102Y-87890452D01*
X92408111Y-87894514D01*
X92401836Y-87880948D01*
X92398006Y-87839934D01*
X92396600Y-87770999D01*
X92397598Y-87673669D01*
X92397908Y-87658657D01*
X92400101Y-87569859D01*
X92402693Y-87505019D01*
X92406382Y-87459067D01*
X92411864Y-87426935D01*
X92419835Y-87403553D01*
X92430993Y-87383852D01*
X92436830Y-87375410D01*
X92470296Y-87338057D01*
X92507727Y-87309003D01*
X92512309Y-87306467D01*
X92579426Y-87286443D01*
X92649926Y-87289755D01*
G37*
X92649926Y-87289755D02*
X92715858Y-87314084D01*
X92769273Y-87357117D01*
X92790164Y-87387409D01*
X92812939Y-87442994D01*
X92812466Y-87483186D01*
X92788562Y-87510217D01*
X92779717Y-87514813D01*
X92741530Y-87529144D01*
X92722028Y-87525472D01*
X92715422Y-87501407D01*
X92715086Y-87488114D01*
X92702992Y-87439210D01*
X92671471Y-87404999D01*
X92627659Y-87388476D01*
X92578695Y-87392634D01*
X92538894Y-87414227D01*
X92525450Y-87426544D01*
X92515921Y-87441487D01*
X92509485Y-87464075D01*
X92505317Y-87499328D01*
X92502597Y-87552266D01*
X92500502Y-87627907D01*
X92499960Y-87651857D01*
X92497981Y-87733790D01*
X92495731Y-87791455D01*
X92492357Y-87829608D01*
X92487006Y-87853004D01*
X92478824Y-87866398D01*
X92466959Y-87874545D01*
X92459362Y-87878144D01*
X92427102Y-87890452D01*
X92408111Y-87894514D01*
X92401836Y-87880948D01*
X92398006Y-87839934D01*
X92396600Y-87770999D01*
X92397598Y-87673669D01*
X92397908Y-87658657D01*
X92400101Y-87569859D01*
X92402693Y-87505019D01*
X92406382Y-87459067D01*
X92411864Y-87426935D01*
X92419835Y-87403553D01*
X92430993Y-87383852D01*
X92436830Y-87375410D01*
X92470296Y-87338057D01*
X92507727Y-87309003D01*
X92512309Y-87306467D01*
X92579426Y-87286443D01*
X92649926Y-87289755D01*
G36*
X92159744Y-87290968D02*
G01*
X92216616Y-87312087D01*
X92217267Y-87312493D01*
X92252440Y-87338380D01*
X92278407Y-87368633D01*
X92296670Y-87408058D01*
X92308732Y-87461462D01*
X92316096Y-87533651D01*
X92320264Y-87629432D01*
X92320629Y-87643078D01*
X92325876Y-87848842D01*
X92281716Y-87871678D01*
X92249763Y-87887110D01*
X92230470Y-87894423D01*
X92229578Y-87894514D01*
X92226239Y-87881022D01*
X92223587Y-87844626D01*
X92221956Y-87791452D01*
X92221600Y-87748393D01*
X92221592Y-87678641D01*
X92218403Y-87634837D01*
X92207288Y-87613944D01*
X92183501Y-87612925D01*
X92142296Y-87628741D01*
X92080086Y-87657815D01*
X92034341Y-87681963D01*
X92010813Y-87702913D01*
X92003896Y-87725747D01*
X92003886Y-87726877D01*
X92015299Y-87766212D01*
X92049092Y-87787462D01*
X92100809Y-87790539D01*
X92138061Y-87790006D01*
X92157703Y-87800735D01*
X92169952Y-87826505D01*
X92177002Y-87859337D01*
X92166842Y-87877966D01*
X92163017Y-87880632D01*
X92127001Y-87891340D01*
X92076566Y-87892856D01*
X92024626Y-87885759D01*
X91987822Y-87872788D01*
X91936938Y-87829585D01*
X91908014Y-87769446D01*
X91902286Y-87722462D01*
X91906657Y-87680082D01*
X91922475Y-87645488D01*
X91953797Y-87614763D01*
X92004678Y-87583990D01*
X92079176Y-87549252D01*
X92083714Y-87547288D01*
X92150821Y-87516287D01*
X92192232Y-87490862D01*
X92209981Y-87468014D01*
X92206107Y-87444745D01*
X92182643Y-87418056D01*
X92175627Y-87411914D01*
X92128630Y-87388100D01*
X92079933Y-87389103D01*
X92037522Y-87412451D01*
X92009384Y-87455675D01*
X92006769Y-87464160D01*
X91981308Y-87505308D01*
X91949001Y-87525128D01*
X91902286Y-87544770D01*
X91902286Y-87493950D01*
X91916496Y-87420082D01*
X91958675Y-87352327D01*
X91980624Y-87329661D01*
X92030517Y-87300569D01*
X92093967Y-87287400D01*
X92159744Y-87290968D01*
G37*
X92159744Y-87290968D02*
X92216616Y-87312087D01*
X92217267Y-87312493D01*
X92252440Y-87338380D01*
X92278407Y-87368633D01*
X92296670Y-87408058D01*
X92308732Y-87461462D01*
X92316096Y-87533651D01*
X92320264Y-87629432D01*
X92320629Y-87643078D01*
X92325876Y-87848842D01*
X92281716Y-87871678D01*
X92249763Y-87887110D01*
X92230470Y-87894423D01*
X92229578Y-87894514D01*
X92226239Y-87881022D01*
X92223587Y-87844626D01*
X92221956Y-87791452D01*
X92221600Y-87748393D01*
X92221592Y-87678641D01*
X92218403Y-87634837D01*
X92207288Y-87613944D01*
X92183501Y-87612925D01*
X92142296Y-87628741D01*
X92080086Y-87657815D01*
X92034341Y-87681963D01*
X92010813Y-87702913D01*
X92003896Y-87725747D01*
X92003886Y-87726877D01*
X92015299Y-87766212D01*
X92049092Y-87787462D01*
X92100809Y-87790539D01*
X92138061Y-87790006D01*
X92157703Y-87800735D01*
X92169952Y-87826505D01*
X92177002Y-87859337D01*
X92166842Y-87877966D01*
X92163017Y-87880632D01*
X92127001Y-87891340D01*
X92076566Y-87892856D01*
X92024626Y-87885759D01*
X91987822Y-87872788D01*
X91936938Y-87829585D01*
X91908014Y-87769446D01*
X91902286Y-87722462D01*
X91906657Y-87680082D01*
X91922475Y-87645488D01*
X91953797Y-87614763D01*
X92004678Y-87583990D01*
X92079176Y-87549252D01*
X92083714Y-87547288D01*
X92150821Y-87516287D01*
X92192232Y-87490862D01*
X92209981Y-87468014D01*
X92206107Y-87444745D01*
X92182643Y-87418056D01*
X92175627Y-87411914D01*
X92128630Y-87388100D01*
X92079933Y-87389103D01*
X92037522Y-87412451D01*
X92009384Y-87455675D01*
X92006769Y-87464160D01*
X91981308Y-87505308D01*
X91949001Y-87525128D01*
X91902286Y-87544770D01*
X91902286Y-87493950D01*
X91916496Y-87420082D01*
X91958675Y-87352327D01*
X91980624Y-87329661D01*
X92030517Y-87300569D01*
X92093967Y-87287400D01*
X92159744Y-87290968D01*
G36*
X91495886Y-87191289D02*
G01*
X91500139Y-87250613D01*
X91505025Y-87285572D01*
X91511795Y-87300820D01*
X91521702Y-87301015D01*
X91524914Y-87299195D01*
X91567644Y-87286015D01*
X91623227Y-87286785D01*
X91679737Y-87300333D01*
X91715082Y-87317861D01*
X91751321Y-87345861D01*
X91777813Y-87377549D01*
X91795999Y-87417813D01*
X91807322Y-87471543D01*
X91813222Y-87543626D01*
X91815143Y-87638951D01*
X91815177Y-87657237D01*
X91815200Y-87862646D01*
X91769491Y-87878580D01*
X91737027Y-87889420D01*
X91719215Y-87894468D01*
X91718691Y-87894514D01*
X91716937Y-87880828D01*
X91715444Y-87843076D01*
X91714326Y-87786224D01*
X91713697Y-87715234D01*
X91713600Y-87672073D01*
X91713398Y-87586973D01*
X91712358Y-87525981D01*
X91709831Y-87484177D01*
X91705164Y-87456642D01*
X91697707Y-87438456D01*
X91686811Y-87424698D01*
X91680007Y-87418073D01*
X91633272Y-87391375D01*
X91582272Y-87389375D01*
X91536001Y-87411955D01*
X91527444Y-87420107D01*
X91514893Y-87435436D01*
X91506188Y-87453618D01*
X91500631Y-87479909D01*
X91497526Y-87519562D01*
X91496176Y-87577832D01*
X91495886Y-87658173D01*
X91495886Y-87862646D01*
X91450177Y-87878580D01*
X91417713Y-87889420D01*
X91399901Y-87894468D01*
X91399377Y-87894514D01*
X91398037Y-87880623D01*
X91396828Y-87841439D01*
X91395801Y-87780700D01*
X91395002Y-87702141D01*
X91394481Y-87609498D01*
X91394286Y-87506509D01*
X91394286Y-87109342D01*
X91441457Y-87089444D01*
X91488629Y-87069547D01*
X91495886Y-87191289D01*
G37*
X91495886Y-87191289D02*
X91500139Y-87250613D01*
X91505025Y-87285572D01*
X91511795Y-87300820D01*
X91521702Y-87301015D01*
X91524914Y-87299195D01*
X91567644Y-87286015D01*
X91623227Y-87286785D01*
X91679737Y-87300333D01*
X91715082Y-87317861D01*
X91751321Y-87345861D01*
X91777813Y-87377549D01*
X91795999Y-87417813D01*
X91807322Y-87471543D01*
X91813222Y-87543626D01*
X91815143Y-87638951D01*
X91815177Y-87657237D01*
X91815200Y-87862646D01*
X91769491Y-87878580D01*
X91737027Y-87889420D01*
X91719215Y-87894468D01*
X91718691Y-87894514D01*
X91716937Y-87880828D01*
X91715444Y-87843076D01*
X91714326Y-87786224D01*
X91713697Y-87715234D01*
X91713600Y-87672073D01*
X91713398Y-87586973D01*
X91712358Y-87525981D01*
X91709831Y-87484177D01*
X91705164Y-87456642D01*
X91697707Y-87438456D01*
X91686811Y-87424698D01*
X91680007Y-87418073D01*
X91633272Y-87391375D01*
X91582272Y-87389375D01*
X91536001Y-87411955D01*
X91527444Y-87420107D01*
X91514893Y-87435436D01*
X91506188Y-87453618D01*
X91500631Y-87479909D01*
X91497526Y-87519562D01*
X91496176Y-87577832D01*
X91495886Y-87658173D01*
X91495886Y-87862646D01*
X91450177Y-87878580D01*
X91417713Y-87889420D01*
X91399901Y-87894468D01*
X91399377Y-87894514D01*
X91398037Y-87880623D01*
X91396828Y-87841439D01*
X91395801Y-87780700D01*
X91395002Y-87702141D01*
X91394481Y-87609498D01*
X91394286Y-87506509D01*
X91394286Y-87109342D01*
X91441457Y-87089444D01*
X91488629Y-87069547D01*
X91495886Y-87191289D01*
G36*
X90288303Y-87271239D02*
G01*
X90345527Y-87309735D01*
X90389749Y-87365335D01*
X90416167Y-87436086D01*
X90421510Y-87488162D01*
X90420903Y-87509893D01*
X90415822Y-87526531D01*
X90401855Y-87541437D01*
X90374589Y-87557973D01*
X90329612Y-87579498D01*
X90262511Y-87609374D01*
X90262171Y-87609524D01*
X90200407Y-87637813D01*
X90149759Y-87662933D01*
X90115404Y-87682179D01*
X90102518Y-87692848D01*
X90102514Y-87692934D01*
X90113872Y-87716166D01*
X90140431Y-87741774D01*
X90170923Y-87760221D01*
X90186370Y-87763886D01*
X90228515Y-87751212D01*
X90264808Y-87719471D01*
X90282517Y-87684572D01*
X90299552Y-87658845D01*
X90332922Y-87629546D01*
X90372149Y-87604235D01*
X90406756Y-87590471D01*
X90413993Y-87589714D01*
X90422139Y-87602160D01*
X90422630Y-87633972D01*
X90416643Y-87676866D01*
X90405357Y-87722558D01*
X90389950Y-87762761D01*
X90389171Y-87764322D01*
X90342804Y-87829062D01*
X90282711Y-87873097D01*
X90214465Y-87894711D01*
X90143638Y-87892185D01*
X90075804Y-87863804D01*
X90072788Y-87861808D01*
X90019427Y-87813448D01*
X89984340Y-87750352D01*
X89964922Y-87667387D01*
X89962316Y-87644078D01*
X89957701Y-87534055D01*
X89963233Y-87482748D01*
X90102514Y-87482748D01*
X90104324Y-87514753D01*
X90114222Y-87524093D01*
X90138898Y-87517105D01*
X90177795Y-87500587D01*
X90221275Y-87479881D01*
X90222356Y-87479333D01*
X90259209Y-87459949D01*
X90274000Y-87447013D01*
X90270353Y-87433451D01*
X90254995Y-87415632D01*
X90215923Y-87389845D01*
X90173846Y-87387950D01*
X90136103Y-87406717D01*
X90110034Y-87442915D01*
X90102514Y-87482748D01*
X89963233Y-87482748D01*
X89967194Y-87446027D01*
X89991550Y-87376212D01*
X90025456Y-87327302D01*
X90086653Y-87277878D01*
X90154063Y-87253359D01*
X90222880Y-87251797D01*
X90288303Y-87271239D01*
G37*
X90288303Y-87271239D02*
X90345527Y-87309735D01*
X90389749Y-87365335D01*
X90416167Y-87436086D01*
X90421510Y-87488162D01*
X90420903Y-87509893D01*
X90415822Y-87526531D01*
X90401855Y-87541437D01*
X90374589Y-87557973D01*
X90329612Y-87579498D01*
X90262511Y-87609374D01*
X90262171Y-87609524D01*
X90200407Y-87637813D01*
X90149759Y-87662933D01*
X90115404Y-87682179D01*
X90102518Y-87692848D01*
X90102514Y-87692934D01*
X90113872Y-87716166D01*
X90140431Y-87741774D01*
X90170923Y-87760221D01*
X90186370Y-87763886D01*
X90228515Y-87751212D01*
X90264808Y-87719471D01*
X90282517Y-87684572D01*
X90299552Y-87658845D01*
X90332922Y-87629546D01*
X90372149Y-87604235D01*
X90406756Y-87590471D01*
X90413993Y-87589714D01*
X90422139Y-87602160D01*
X90422630Y-87633972D01*
X90416643Y-87676866D01*
X90405357Y-87722558D01*
X90389950Y-87762761D01*
X90389171Y-87764322D01*
X90342804Y-87829062D01*
X90282711Y-87873097D01*
X90214465Y-87894711D01*
X90143638Y-87892185D01*
X90075804Y-87863804D01*
X90072788Y-87861808D01*
X90019427Y-87813448D01*
X89984340Y-87750352D01*
X89964922Y-87667387D01*
X89962316Y-87644078D01*
X89957701Y-87534055D01*
X89963233Y-87482748D01*
X90102514Y-87482748D01*
X90104324Y-87514753D01*
X90114222Y-87524093D01*
X90138898Y-87517105D01*
X90177795Y-87500587D01*
X90221275Y-87479881D01*
X90222356Y-87479333D01*
X90259209Y-87459949D01*
X90274000Y-87447013D01*
X90270353Y-87433451D01*
X90254995Y-87415632D01*
X90215923Y-87389845D01*
X90173846Y-87387950D01*
X90136103Y-87406717D01*
X90110034Y-87442915D01*
X90102514Y-87482748D01*
X89963233Y-87482748D01*
X89967194Y-87446027D01*
X89991550Y-87376212D01*
X90025456Y-87327302D01*
X90086653Y-87277878D01*
X90154063Y-87253359D01*
X90222880Y-87251797D01*
X90288303Y-87271239D01*
G36*
X89161115Y-87261962D02*
G01*
X89229145Y-87297733D01*
X89279351Y-87355301D01*
X89297185Y-87392312D01*
X89311063Y-87447882D01*
X89318167Y-87518096D01*
X89318840Y-87594727D01*
X89313427Y-87669552D01*
X89302270Y-87734342D01*
X89285714Y-87780873D01*
X89280626Y-87788887D01*
X89220355Y-87848707D01*
X89148769Y-87884535D01*
X89071092Y-87895020D01*
X88992548Y-87878810D01*
X88970689Y-87869092D01*
X88928122Y-87839143D01*
X88890763Y-87799433D01*
X88887232Y-87794397D01*
X88872881Y-87770124D01*
X88863394Y-87744178D01*
X88857790Y-87710022D01*
X88855086Y-87661119D01*
X88854299Y-87590935D01*
X88854286Y-87575200D01*
X88854322Y-87570192D01*
X88999429Y-87570192D01*
X89000273Y-87636430D01*
X89003596Y-87680386D01*
X89010583Y-87708779D01*
X89022416Y-87728325D01*
X89028457Y-87734857D01*
X89063186Y-87759680D01*
X89096903Y-87758548D01*
X89130995Y-87737016D01*
X89151329Y-87714029D01*
X89163371Y-87680478D01*
X89170134Y-87627569D01*
X89170598Y-87621399D01*
X89171752Y-87525513D01*
X89159688Y-87454299D01*
X89134570Y-87408194D01*
X89096560Y-87387635D01*
X89082992Y-87386514D01*
X89047364Y-87392152D01*
X89022994Y-87411686D01*
X89008093Y-87449042D01*
X89000875Y-87508150D01*
X88999429Y-87570192D01*
X88854322Y-87570192D01*
X88854826Y-87500413D01*
X88857096Y-87448159D01*
X88862068Y-87411949D01*
X88870713Y-87385299D01*
X88884005Y-87361722D01*
X88886943Y-87357338D01*
X88936313Y-87298249D01*
X88990109Y-87263947D01*
X89055602Y-87250331D01*
X89077842Y-87249665D01*
X89161115Y-87261962D01*
G37*
X89161115Y-87261962D02*
X89229145Y-87297733D01*
X89279351Y-87355301D01*
X89297185Y-87392312D01*
X89311063Y-87447882D01*
X89318167Y-87518096D01*
X89318840Y-87594727D01*
X89313427Y-87669552D01*
X89302270Y-87734342D01*
X89285714Y-87780873D01*
X89280626Y-87788887D01*
X89220355Y-87848707D01*
X89148769Y-87884535D01*
X89071092Y-87895020D01*
X88992548Y-87878810D01*
X88970689Y-87869092D01*
X88928122Y-87839143D01*
X88890763Y-87799433D01*
X88887232Y-87794397D01*
X88872881Y-87770124D01*
X88863394Y-87744178D01*
X88857790Y-87710022D01*
X88855086Y-87661119D01*
X88854299Y-87590935D01*
X88854286Y-87575200D01*
X88854322Y-87570192D01*
X88999429Y-87570192D01*
X89000273Y-87636430D01*
X89003596Y-87680386D01*
X89010583Y-87708779D01*
X89022416Y-87728325D01*
X89028457Y-87734857D01*
X89063186Y-87759680D01*
X89096903Y-87758548D01*
X89130995Y-87737016D01*
X89151329Y-87714029D01*
X89163371Y-87680478D01*
X89170134Y-87627569D01*
X89170598Y-87621399D01*
X89171752Y-87525513D01*
X89159688Y-87454299D01*
X89134570Y-87408194D01*
X89096560Y-87387635D01*
X89082992Y-87386514D01*
X89047364Y-87392152D01*
X89022994Y-87411686D01*
X89008093Y-87449042D01*
X89000875Y-87508150D01*
X88999429Y-87570192D01*
X88854322Y-87570192D01*
X88854826Y-87500413D01*
X88857096Y-87448159D01*
X88862068Y-87411949D01*
X88870713Y-87385299D01*
X88884005Y-87361722D01*
X88886943Y-87357338D01*
X88936313Y-87298249D01*
X88990109Y-87263947D01*
X89055602Y-87250331D01*
X89077842Y-87249665D01*
X89161115Y-87261962D01*
G36*
X90836093Y-87267780D02*
G01*
X90882672Y-87294723D01*
X90915057Y-87321466D01*
X90938742Y-87349484D01*
X90955059Y-87383748D01*
X90965339Y-87429227D01*
X90970914Y-87490892D01*
X90973116Y-87573711D01*
X90973371Y-87633246D01*
X90973371Y-87852391D01*
X90911686Y-87880044D01*
X90850000Y-87907697D01*
X90842743Y-87667670D01*
X90839744Y-87578028D01*
X90836598Y-87512962D01*
X90832701Y-87468026D01*
X90827447Y-87438770D01*
X90820231Y-87420748D01*
X90810450Y-87409511D01*
X90807312Y-87407079D01*
X90759761Y-87388083D01*
X90711697Y-87395600D01*
X90683086Y-87415543D01*
X90671447Y-87429675D01*
X90663391Y-87448220D01*
X90658271Y-87476334D01*
X90655441Y-87519173D01*
X90654256Y-87581895D01*
X90654057Y-87647261D01*
X90654018Y-87729268D01*
X90652614Y-87787316D01*
X90647914Y-87826465D01*
X90637987Y-87851780D01*
X90620903Y-87868323D01*
X90594732Y-87881156D01*
X90559775Y-87894491D01*
X90521596Y-87909007D01*
X90526141Y-87651389D01*
X90527971Y-87558519D01*
X90530112Y-87489889D01*
X90533181Y-87440711D01*
X90537794Y-87406198D01*
X90544568Y-87381562D01*
X90554119Y-87362016D01*
X90565634Y-87344770D01*
X90621190Y-87289680D01*
X90688980Y-87257822D01*
X90762713Y-87250191D01*
X90836093Y-87267780D01*
G37*
X90836093Y-87267780D02*
X90882672Y-87294723D01*
X90915057Y-87321466D01*
X90938742Y-87349484D01*
X90955059Y-87383748D01*
X90965339Y-87429227D01*
X90970914Y-87490892D01*
X90973116Y-87573711D01*
X90973371Y-87633246D01*
X90973371Y-87852391D01*
X90911686Y-87880044D01*
X90850000Y-87907697D01*
X90842743Y-87667670D01*
X90839744Y-87578028D01*
X90836598Y-87512962D01*
X90832701Y-87468026D01*
X90827447Y-87438770D01*
X90820231Y-87420748D01*
X90810450Y-87409511D01*
X90807312Y-87407079D01*
X90759761Y-87388083D01*
X90711697Y-87395600D01*
X90683086Y-87415543D01*
X90671447Y-87429675D01*
X90663391Y-87448220D01*
X90658271Y-87476334D01*
X90655441Y-87519173D01*
X90654256Y-87581895D01*
X90654057Y-87647261D01*
X90654018Y-87729268D01*
X90652614Y-87787316D01*
X90647914Y-87826465D01*
X90637987Y-87851780D01*
X90620903Y-87868323D01*
X90594732Y-87881156D01*
X90559775Y-87894491D01*
X90521596Y-87909007D01*
X90526141Y-87651389D01*
X90527971Y-87558519D01*
X90530112Y-87489889D01*
X90533181Y-87440711D01*
X90537794Y-87406198D01*
X90544568Y-87381562D01*
X90554119Y-87362016D01*
X90565634Y-87344770D01*
X90621190Y-87289680D01*
X90688980Y-87257822D01*
X90762713Y-87250191D01*
X90836093Y-87267780D01*
G36*
X89719744Y-87259918D02*
G01*
X89775201Y-87287568D01*
X89824148Y-87338480D01*
X89837629Y-87357338D01*
X89852314Y-87382015D01*
X89861842Y-87408816D01*
X89867293Y-87444587D01*
X89869747Y-87496169D01*
X89870286Y-87564267D01*
X89867852Y-87657588D01*
X89859394Y-87727657D01*
X89843174Y-87779931D01*
X89817454Y-87819869D01*
X89780497Y-87852929D01*
X89777782Y-87854886D01*
X89741360Y-87874908D01*
X89697502Y-87884815D01*
X89641724Y-87887257D01*
X89551048Y-87887257D01*
X89551010Y-87975283D01*
X89550166Y-88024308D01*
X89545024Y-88053065D01*
X89531587Y-88070311D01*
X89505858Y-88084808D01*
X89499679Y-88087769D01*
X89470764Y-88101648D01*
X89448376Y-88110414D01*
X89431729Y-88111171D01*
X89420036Y-88101023D01*
X89412510Y-88077073D01*
X89408366Y-88036426D01*
X89406815Y-87976186D01*
X89407071Y-87893455D01*
X89408349Y-87785339D01*
X89408748Y-87753000D01*
X89410185Y-87641524D01*
X89411472Y-87568603D01*
X89550971Y-87568603D01*
X89551755Y-87630499D01*
X89555240Y-87670997D01*
X89563124Y-87697708D01*
X89577105Y-87718244D01*
X89586597Y-87728260D01*
X89625404Y-87757567D01*
X89659763Y-87759952D01*
X89695216Y-87735750D01*
X89696114Y-87734857D01*
X89710539Y-87716153D01*
X89719313Y-87690732D01*
X89723739Y-87651584D01*
X89725118Y-87591697D01*
X89725143Y-87578430D01*
X89721812Y-87495901D01*
X89710969Y-87438691D01*
X89691340Y-87403766D01*
X89661650Y-87388094D01*
X89644491Y-87386514D01*
X89603766Y-87393926D01*
X89575832Y-87418330D01*
X89559017Y-87462980D01*
X89551650Y-87531130D01*
X89550971Y-87568603D01*
X89411472Y-87568603D01*
X89411708Y-87555245D01*
X89413677Y-87490333D01*
X89416450Y-87442958D01*
X89420388Y-87409290D01*
X89425849Y-87385498D01*
X89433192Y-87367753D01*
X89442777Y-87352224D01*
X89446887Y-87346381D01*
X89501405Y-87291185D01*
X89570336Y-87259890D01*
X89650072Y-87251165D01*
X89719744Y-87259918D01*
G37*
X89719744Y-87259918D02*
X89775201Y-87287568D01*
X89824148Y-87338480D01*
X89837629Y-87357338D01*
X89852314Y-87382015D01*
X89861842Y-87408816D01*
X89867293Y-87444587D01*
X89869747Y-87496169D01*
X89870286Y-87564267D01*
X89867852Y-87657588D01*
X89859394Y-87727657D01*
X89843174Y-87779931D01*
X89817454Y-87819869D01*
X89780497Y-87852929D01*
X89777782Y-87854886D01*
X89741360Y-87874908D01*
X89697502Y-87884815D01*
X89641724Y-87887257D01*
X89551048Y-87887257D01*
X89551010Y-87975283D01*
X89550166Y-88024308D01*
X89545024Y-88053065D01*
X89531587Y-88070311D01*
X89505858Y-88084808D01*
X89499679Y-88087769D01*
X89470764Y-88101648D01*
X89448376Y-88110414D01*
X89431729Y-88111171D01*
X89420036Y-88101023D01*
X89412510Y-88077073D01*
X89408366Y-88036426D01*
X89406815Y-87976186D01*
X89407071Y-87893455D01*
X89408349Y-87785339D01*
X89408748Y-87753000D01*
X89410185Y-87641524D01*
X89411472Y-87568603D01*
X89550971Y-87568603D01*
X89551755Y-87630499D01*
X89555240Y-87670997D01*
X89563124Y-87697708D01*
X89577105Y-87718244D01*
X89586597Y-87728260D01*
X89625404Y-87757567D01*
X89659763Y-87759952D01*
X89695216Y-87735750D01*
X89696114Y-87734857D01*
X89710539Y-87716153D01*
X89719313Y-87690732D01*
X89723739Y-87651584D01*
X89725118Y-87591697D01*
X89725143Y-87578430D01*
X89721812Y-87495901D01*
X89710969Y-87438691D01*
X89691340Y-87403766D01*
X89661650Y-87388094D01*
X89644491Y-87386514D01*
X89603766Y-87393926D01*
X89575832Y-87418330D01*
X89559017Y-87462980D01*
X89551650Y-87531130D01*
X89550971Y-87568603D01*
X89411472Y-87568603D01*
X89411708Y-87555245D01*
X89413677Y-87490333D01*
X89416450Y-87442958D01*
X89420388Y-87409290D01*
X89425849Y-87385498D01*
X89433192Y-87367753D01*
X89442777Y-87352224D01*
X89446887Y-87346381D01*
X89501405Y-87291185D01*
X89570336Y-87259890D01*
X89650072Y-87251165D01*
X89719744Y-87259918D01*
D10*
X88900000Y-108300000D02*
X88900000Y-107680000D01*
X89820000Y-109220000D02*
G75*
G03X89820000Y-109220000I-920000J0D01*
G01*
X101730000Y-156210000D02*
X98930000Y-156210000D01*
X101730000Y-176700000D02*
X101730000Y-153500000D01*
X98930000Y-176700000D02*
X101730000Y-176700000D01*
X98930000Y-153500000D02*
X98930000Y-176700000D01*
X101730000Y-153500000D02*
X98930000Y-153500000D01*
X98950000Y-128330000D02*
X100600000Y-128330000D01*
X98950000Y-107890000D02*
X98950000Y-128330000D01*
X104250000Y-107890000D02*
X98950000Y-107890000D01*
X104250000Y-128330000D02*
X104250000Y-107890000D01*
X102600000Y-128330000D02*
X104250000Y-128330000D01*
X100600000Y-128330000D02*
G75*
G02X102600000Y-128330000I1000000J0D01*
G01*
X98950000Y-151190000D02*
X100600000Y-151190000D01*
X98950000Y-130750000D02*
X98950000Y-151190000D01*
X104250000Y-130750000D02*
X98950000Y-130750000D01*
X104250000Y-151190000D02*
X104250000Y-130750000D01*
X102600000Y-151190000D02*
X104250000Y-151190000D01*
X100600000Y-151190000D02*
G75*
G02X102600000Y-151190000I1000000J0D01*
G01*
X122360000Y-125430000D02*
X122960000Y-125730000D01*
X122360000Y-126030000D02*
X122360000Y-125430000D01*
X122960000Y-125730000D02*
X122360000Y-126030000D01*
X127660000Y-122980000D02*
X127660000Y-123480000D01*
X133160000Y-122980000D02*
X127660000Y-122980000D01*
X133160000Y-123480000D02*
X133160000Y-122980000D01*
X127660000Y-123480000D02*
X133160000Y-123480000D01*
X127660000Y-125480000D02*
X127660000Y-125980000D01*
X133160000Y-125480000D02*
X127660000Y-125480000D01*
X133160000Y-125980000D02*
X133160000Y-125480000D01*
X127660000Y-125980000D02*
X133160000Y-125980000D01*
X126550000Y-122090000D02*
X126550000Y-124480000D01*
X122050000Y-122090000D02*
X126550000Y-122090000D01*
X122050000Y-120670000D02*
X122050000Y-122090000D01*
X133770000Y-120670000D02*
X122050000Y-120670000D01*
X133770000Y-124480000D02*
X133770000Y-120670000D01*
X126550000Y-126870000D02*
X126550000Y-124480000D01*
X122050000Y-126870000D02*
X126550000Y-126870000D01*
X122050000Y-128290000D02*
X122050000Y-126870000D01*
X133770000Y-128290000D02*
X122050000Y-128290000D01*
X133770000Y-124480000D02*
X133770000Y-128290000D01*
X122360000Y-88600000D02*
X122960000Y-88900000D01*
X122360000Y-89200000D02*
X122360000Y-88600000D01*
X122960000Y-88900000D02*
X122360000Y-89200000D01*
X127660000Y-86150000D02*
X127660000Y-86650000D01*
X133160000Y-86150000D02*
X127660000Y-86150000D01*
X133160000Y-86650000D02*
X133160000Y-86150000D01*
X127660000Y-86650000D02*
X133160000Y-86650000D01*
X127660000Y-88650000D02*
X127660000Y-89150000D01*
X133160000Y-88650000D02*
X127660000Y-88650000D01*
X133160000Y-89150000D02*
X133160000Y-88650000D01*
X127660000Y-89150000D02*
X133160000Y-89150000D01*
X126550000Y-85260000D02*
X126550000Y-87650000D01*
X122050000Y-85260000D02*
X126550000Y-85260000D01*
X122050000Y-83840000D02*
X122050000Y-85260000D01*
X133770000Y-83840000D02*
X122050000Y-83840000D01*
X133770000Y-87650000D02*
X133770000Y-83840000D01*
X126550000Y-90040000D02*
X126550000Y-87650000D01*
X122050000Y-90040000D02*
X126550000Y-90040000D01*
X122050000Y-91460000D02*
X122050000Y-90040000D01*
X133770000Y-91460000D02*
X122050000Y-91460000D01*
X133770000Y-87650000D02*
X133770000Y-91460000D01*
X115355000Y-122230000D02*
X115370000Y-122230000D01*
X113230000Y-122230000D02*
X113245000Y-122230000D01*
X115355000Y-126770000D02*
X115370000Y-126770000D01*
X113230000Y-126770000D02*
X113245000Y-126770000D01*
X115370000Y-126770000D02*
X115370000Y-122230000D01*
X113230000Y-126770000D02*
X113230000Y-122230000D01*
X74800000Y-128270000D02*
X77600000Y-128270000D01*
X74800000Y-107780000D02*
X74800000Y-130980000D01*
X77600000Y-107780000D02*
X74800000Y-107780000D01*
X77600000Y-130980000D02*
X77600000Y-107780000D01*
X74800000Y-130980000D02*
X77600000Y-130980000D01*
X111890000Y-130810000D02*
X109090000Y-130810000D01*
X111890000Y-151300000D02*
X111890000Y-128100000D01*
X109090000Y-151300000D02*
X111890000Y-151300000D01*
X109090000Y-128100000D02*
X109090000Y-151300000D01*
X111890000Y-128100000D02*
X109090000Y-128100000D01*
X112970000Y-95190000D02*
X114300000Y-95190000D01*
X112970000Y-96520000D02*
X112970000Y-95190000D01*
X115570000Y-95190000D02*
X118170000Y-95190000D01*
X115570000Y-97790000D02*
X115570000Y-95190000D01*
X112970000Y-97790000D02*
X115570000Y-97790000D01*
X118170000Y-95190000D02*
X118170000Y-105470000D01*
X112970000Y-97790000D02*
X112970000Y-105470000D01*
X112970000Y-105470000D02*
X118170000Y-105470000D01*
X112970000Y-107890000D02*
X114300000Y-107890000D01*
X112970000Y-109220000D02*
X112970000Y-107890000D01*
X115570000Y-107890000D02*
X118170000Y-107890000D01*
X115570000Y-110490000D02*
X115570000Y-107890000D01*
X112970000Y-110490000D02*
X115570000Y-110490000D01*
X118170000Y-107890000D02*
X118170000Y-118170000D01*
X112970000Y-110490000D02*
X112970000Y-118170000D01*
X112970000Y-118170000D02*
X118170000Y-118170000D01*
X109450000Y-87845000D02*
X109450000Y-87830000D01*
X109450000Y-89970000D02*
X109450000Y-89955000D01*
X113990000Y-87845000D02*
X113990000Y-87830000D01*
X113990000Y-89970000D02*
X113990000Y-89955000D01*
X113990000Y-87830000D02*
X109450000Y-87830000D01*
X113990000Y-89970000D02*
X109450000Y-89970000D01*
X115220000Y-119380000D02*
X115840000Y-119380000D01*
X115220000Y-119380000D02*
G75*
G03X115220000Y-119380000I-920000J0D01*
G01*
X67200000Y-128330000D02*
X68850000Y-128330000D01*
X67200000Y-92650000D02*
X67200000Y-128330000D01*
X72500000Y-92650000D02*
X67200000Y-92650000D01*
X72500000Y-128330000D02*
X72500000Y-92650000D01*
X70850000Y-128330000D02*
X72500000Y-128330000D01*
X68850000Y-128330000D02*
G75*
G02X70850000Y-128330000I1000000J0D01*
G01*
X92820000Y-156150000D02*
X91170000Y-156150000D01*
X92820000Y-176590000D02*
X92820000Y-156150000D01*
X87520000Y-176590000D02*
X92820000Y-176590000D01*
X87520000Y-156150000D02*
X87520000Y-176590000D01*
X89170000Y-156150000D02*
X87520000Y-156150000D01*
X91170000Y-156150000D02*
G75*
G02X89170000Y-156150000I-1000000J0D01*
G01*
X115220000Y-91440000D02*
X115840000Y-91440000D01*
X115220000Y-91440000D02*
G75*
G03X115220000Y-91440000I-920000J0D01*
G01*
X88900000Y-128620000D02*
X88900000Y-128000000D01*
X89820000Y-129540000D02*
G75*
G03X89820000Y-129540000I-920000J0D01*
G01*
X88900000Y-123540000D02*
X88900000Y-122920000D01*
X89820000Y-124460000D02*
G75*
G03X89820000Y-124460000I-920000J0D01*
G01*
X88900000Y-118460000D02*
X88900000Y-117840000D01*
X89820000Y-119380000D02*
G75*
G03X89820000Y-119380000I-920000J0D01*
G01*
X88900000Y-113380000D02*
X88900000Y-112760000D01*
X89820000Y-114300000D02*
G75*
G03X89820000Y-114300000I-920000J0D01*
G01*
X88900000Y-103220000D02*
X88900000Y-102600000D01*
X89820000Y-104140000D02*
G75*
G03X89820000Y-104140000I-920000J0D01*
G01*
X88900000Y-98140000D02*
X88900000Y-97520000D01*
X89820000Y-99060000D02*
G75*
G03X89820000Y-99060000I-920000J0D01*
G01*
X89820000Y-93980000D02*
G75*
G03X89820000Y-93980000I-920000J0D01*
G01*
X88900000Y-93060000D02*
X88900000Y-92440000D01*
X115920000Y-152400000D02*
X115300000Y-152400000D01*
X117760000Y-152400000D02*
G75*
G03X117760000Y-152400000I-920000J0D01*
G01*
X115920000Y-149860000D02*
X115300000Y-149860000D01*
X117760000Y-149860000D02*
G75*
G03X117760000Y-149860000I-920000J0D01*
G01*
X115920000Y-147320000D02*
X115300000Y-147320000D01*
X117760000Y-147320000D02*
G75*
G03X117760000Y-147320000I-920000J0D01*
G01*
X115920000Y-144780000D02*
X115300000Y-144780000D01*
X117760000Y-144780000D02*
G75*
G03X117760000Y-144780000I-920000J0D01*
G01*
X115920000Y-142240000D02*
X115300000Y-142240000D01*
X117760000Y-142240000D02*
G75*
G03X117760000Y-142240000I-920000J0D01*
G01*
X115920000Y-139700000D02*
X115300000Y-139700000D01*
X117760000Y-139700000D02*
G75*
G03X117760000Y-139700000I-920000J0D01*
G01*
X115920000Y-137160000D02*
X115300000Y-137160000D01*
X117760000Y-137160000D02*
G75*
G03X117760000Y-137160000I-920000J0D01*
G01*
X115920000Y-134620000D02*
X115300000Y-134620000D01*
X117760000Y-134620000D02*
G75*
G03X117760000Y-134620000I-920000J0D01*
G01*
X78740000Y-171800000D02*
X78740000Y-171180000D01*
X79660000Y-172720000D02*
G75*
G03X79660000Y-172720000I-920000J0D01*
G01*
X78740000Y-166720000D02*
X78740000Y-166100000D01*
X79660000Y-167640000D02*
G75*
G03X79660000Y-167640000I-920000J0D01*
G01*
X78740000Y-161640000D02*
X78740000Y-161020000D01*
X79660000Y-162560000D02*
G75*
G03X79660000Y-162560000I-920000J0D01*
G01*
X78740000Y-156560000D02*
X78740000Y-155940000D01*
X79660000Y-157480000D02*
G75*
G03X79660000Y-157480000I-920000J0D01*
G01*
X78740000Y-151480000D02*
X78740000Y-150860000D01*
X79660000Y-152400000D02*
G75*
G03X79660000Y-152400000I-920000J0D01*
G01*
X78740000Y-146400000D02*
X78740000Y-145780000D01*
X79660000Y-147320000D02*
G75*
G03X79660000Y-147320000I-920000J0D01*
G01*
X78740000Y-141320000D02*
X78740000Y-140700000D01*
X79660000Y-142240000D02*
G75*
G03X79660000Y-142240000I-920000J0D01*
G01*
X78740000Y-136240000D02*
X78740000Y-135620000D01*
X79660000Y-137160000D02*
G75*
G03X79660000Y-137160000I-920000J0D01*
G01*
X122430000Y-115120000D02*
X122430000Y-117770000D01*
X122430000Y-106720000D02*
X122430000Y-109370000D01*
X122430000Y-117770000D02*
X128280000Y-117770000D01*
X122430000Y-110470000D02*
X122430000Y-113970000D01*
X122430000Y-106720000D02*
X128280000Y-106720000D01*
X128280000Y-106720000D02*
X128280000Y-117770000D01*
X122430000Y-109620000D02*
X122430000Y-110220000D01*
X122430000Y-114220000D02*
X122430000Y-114820000D01*
X125730000Y-106220000D02*
X128730000Y-106220000D01*
X128730000Y-106220000D02*
X128730000Y-109220000D01*
X122430000Y-102420000D02*
X122430000Y-105070000D01*
X122430000Y-94020000D02*
X122430000Y-96670000D01*
X122430000Y-105070000D02*
X128280000Y-105070000D01*
X122430000Y-97770000D02*
X122430000Y-101270000D01*
X122430000Y-94020000D02*
X128280000Y-94020000D01*
X128280000Y-94020000D02*
X128280000Y-105070000D01*
X122430000Y-96920000D02*
X122430000Y-97520000D01*
X122430000Y-101520000D02*
X122430000Y-102120000D01*
X125730000Y-93520000D02*
X128730000Y-93520000D01*
X128730000Y-93520000D02*
X128730000Y-96520000D01*
X81220000Y-87570000D02*
X82550000Y-87570000D01*
X81220000Y-88900000D02*
X81220000Y-87570000D01*
X81220000Y-90170000D02*
X83880000Y-90170000D01*
X83880000Y-90170000D02*
X83880000Y-95310000D01*
X81220000Y-90170000D02*
X81220000Y-95310000D01*
X81220000Y-95310000D02*
X83880000Y-95310000D01*
X78680000Y-87570000D02*
X80010000Y-87570000D01*
X78680000Y-88900000D02*
X78680000Y-87570000D01*
X78680000Y-90170000D02*
X81340000Y-90170000D01*
X81340000Y-90170000D02*
X81340000Y-95310000D01*
X78680000Y-90170000D02*
X78680000Y-95310000D01*
X78680000Y-95310000D02*
X81340000Y-95310000D01*
X76140000Y-87570000D02*
X77470000Y-87570000D01*
X76140000Y-88900000D02*
X76140000Y-87570000D01*
X76140000Y-90170000D02*
X78800000Y-90170000D01*
X78800000Y-90170000D02*
X78800000Y-95310000D01*
X76140000Y-90170000D02*
X76140000Y-95310000D01*
X76140000Y-95310000D02*
X78800000Y-95310000D01*
X120650000Y-132080000D02*
X121920000Y-132080000D01*
X120650000Y-133350000D02*
X120650000Y-132080000D01*
X122962929Y-174370000D02*
X123417071Y-174370000D01*
X122962929Y-173610000D02*
X123417071Y-173610000D01*
X125502929Y-174370000D02*
X125900000Y-174370000D01*
X125502929Y-173610000D02*
X125900000Y-173610000D01*
X134560000Y-174370000D02*
X128560000Y-174370000D01*
X134560000Y-173610000D02*
X134560000Y-174370000D01*
X128560000Y-173610000D02*
X134560000Y-173610000D01*
X125900000Y-172720000D02*
X128560000Y-172720000D01*
X122962929Y-171830000D02*
X123417071Y-171830000D01*
X122962929Y-171070000D02*
X123417071Y-171070000D01*
X125502929Y-171830000D02*
X125900000Y-171830000D01*
X125502929Y-171070000D02*
X125900000Y-171070000D01*
X134560000Y-171830000D02*
X128560000Y-171830000D01*
X134560000Y-171070000D02*
X134560000Y-171830000D01*
X128560000Y-171070000D02*
X134560000Y-171070000D01*
X125900000Y-170180000D02*
X128560000Y-170180000D01*
X122962929Y-169290000D02*
X123417071Y-169290000D01*
X122962929Y-168530000D02*
X123417071Y-168530000D01*
X125502929Y-169290000D02*
X125900000Y-169290000D01*
X125502929Y-168530000D02*
X125900000Y-168530000D01*
X134560000Y-169290000D02*
X128560000Y-169290000D01*
X134560000Y-168530000D02*
X134560000Y-169290000D01*
X128560000Y-168530000D02*
X134560000Y-168530000D01*
X125900000Y-167640000D02*
X128560000Y-167640000D01*
X122962929Y-166750000D02*
X123417071Y-166750000D01*
X122962929Y-165990000D02*
X123417071Y-165990000D01*
X125502929Y-166750000D02*
X125900000Y-166750000D01*
X125502929Y-165990000D02*
X125900000Y-165990000D01*
X134560000Y-166750000D02*
X128560000Y-166750000D01*
X134560000Y-165990000D02*
X134560000Y-166750000D01*
X128560000Y-165990000D02*
X134560000Y-165990000D01*
X125900000Y-165100000D02*
X128560000Y-165100000D01*
X122962929Y-164210000D02*
X123417071Y-164210000D01*
X122962929Y-163450000D02*
X123417071Y-163450000D01*
X125502929Y-164210000D02*
X125900000Y-164210000D01*
X125502929Y-163450000D02*
X125900000Y-163450000D01*
X134560000Y-164210000D02*
X128560000Y-164210000D01*
X134560000Y-163450000D02*
X134560000Y-164210000D01*
X128560000Y-163450000D02*
X134560000Y-163450000D01*
X125900000Y-162560000D02*
X128560000Y-162560000D01*
X122962929Y-161670000D02*
X123417071Y-161670000D01*
X122962929Y-160910000D02*
X123417071Y-160910000D01*
X125502929Y-161670000D02*
X125900000Y-161670000D01*
X125502929Y-160910000D02*
X125900000Y-160910000D01*
X134560000Y-161670000D02*
X128560000Y-161670000D01*
X134560000Y-160910000D02*
X134560000Y-161670000D01*
X128560000Y-160910000D02*
X134560000Y-160910000D01*
X125900000Y-160020000D02*
X128560000Y-160020000D01*
X122962929Y-159130000D02*
X123417071Y-159130000D01*
X122962929Y-158370000D02*
X123417071Y-158370000D01*
X125502929Y-159130000D02*
X125900000Y-159130000D01*
X125502929Y-158370000D02*
X125900000Y-158370000D01*
X134560000Y-159130000D02*
X128560000Y-159130000D01*
X134560000Y-158370000D02*
X134560000Y-159130000D01*
X128560000Y-158370000D02*
X134560000Y-158370000D01*
X125900000Y-157480000D02*
X128560000Y-157480000D01*
X122962929Y-156590000D02*
X123417071Y-156590000D01*
X122962929Y-155830000D02*
X123417071Y-155830000D01*
X125502929Y-156590000D02*
X125900000Y-156590000D01*
X125502929Y-155830000D02*
X125900000Y-155830000D01*
X134560000Y-156590000D02*
X128560000Y-156590000D01*
X134560000Y-155830000D02*
X134560000Y-156590000D01*
X128560000Y-155830000D02*
X134560000Y-155830000D01*
X125900000Y-154940000D02*
X128560000Y-154940000D01*
X122962929Y-154050000D02*
X123417071Y-154050000D01*
X122962929Y-153290000D02*
X123417071Y-153290000D01*
X125502929Y-154050000D02*
X125900000Y-154050000D01*
X125502929Y-153290000D02*
X125900000Y-153290000D01*
X134560000Y-154050000D02*
X128560000Y-154050000D01*
X134560000Y-153290000D02*
X134560000Y-154050000D01*
X128560000Y-153290000D02*
X134560000Y-153290000D01*
X125900000Y-152400000D02*
X128560000Y-152400000D01*
X122962929Y-151510000D02*
X123417071Y-151510000D01*
X122962929Y-150750000D02*
X123417071Y-150750000D01*
X125502929Y-151510000D02*
X125900000Y-151510000D01*
X125502929Y-150750000D02*
X125900000Y-150750000D01*
X134560000Y-151510000D02*
X128560000Y-151510000D01*
X134560000Y-150750000D02*
X134560000Y-151510000D01*
X128560000Y-150750000D02*
X134560000Y-150750000D01*
X125900000Y-149860000D02*
X128560000Y-149860000D01*
X122962929Y-148970000D02*
X123417071Y-148970000D01*
X122962929Y-148210000D02*
X123417071Y-148210000D01*
X125502929Y-148970000D02*
X125900000Y-148970000D01*
X125502929Y-148210000D02*
X125900000Y-148210000D01*
X134560000Y-148970000D02*
X128560000Y-148970000D01*
X134560000Y-148210000D02*
X134560000Y-148970000D01*
X128560000Y-148210000D02*
X134560000Y-148210000D01*
X125900000Y-147320000D02*
X128560000Y-147320000D01*
X122962929Y-146430000D02*
X123417071Y-146430000D01*
X122962929Y-145670000D02*
X123417071Y-145670000D01*
X125502929Y-146430000D02*
X125900000Y-146430000D01*
X125502929Y-145670000D02*
X125900000Y-145670000D01*
X134560000Y-146430000D02*
X128560000Y-146430000D01*
X134560000Y-145670000D02*
X134560000Y-146430000D01*
X128560000Y-145670000D02*
X134560000Y-145670000D01*
X125900000Y-144780000D02*
X128560000Y-144780000D01*
X122962929Y-143890000D02*
X123417071Y-143890000D01*
X122962929Y-143130000D02*
X123417071Y-143130000D01*
X125502929Y-143890000D02*
X125900000Y-143890000D01*
X125502929Y-143130000D02*
X125900000Y-143130000D01*
X134560000Y-143890000D02*
X128560000Y-143890000D01*
X134560000Y-143130000D02*
X134560000Y-143890000D01*
X128560000Y-143130000D02*
X134560000Y-143130000D01*
X125900000Y-142240000D02*
X128560000Y-142240000D01*
X122962929Y-141350000D02*
X123417071Y-141350000D01*
X122962929Y-140590000D02*
X123417071Y-140590000D01*
X125502929Y-141350000D02*
X125900000Y-141350000D01*
X125502929Y-140590000D02*
X125900000Y-140590000D01*
X134560000Y-141350000D02*
X128560000Y-141350000D01*
X134560000Y-140590000D02*
X134560000Y-141350000D01*
X128560000Y-140590000D02*
X134560000Y-140590000D01*
X125900000Y-139700000D02*
X128560000Y-139700000D01*
X122962929Y-138810000D02*
X123417071Y-138810000D01*
X122962929Y-138050000D02*
X123417071Y-138050000D01*
X125502929Y-138810000D02*
X125900000Y-138810000D01*
X125502929Y-138050000D02*
X125900000Y-138050000D01*
X134560000Y-138810000D02*
X128560000Y-138810000D01*
X134560000Y-138050000D02*
X134560000Y-138810000D01*
X128560000Y-138050000D02*
X134560000Y-138050000D01*
X125900000Y-137160000D02*
X128560000Y-137160000D01*
X122962929Y-136270000D02*
X123417071Y-136270000D01*
X122962929Y-135510000D02*
X123417071Y-135510000D01*
X125502929Y-136270000D02*
X125900000Y-136270000D01*
X125502929Y-135510000D02*
X125900000Y-135510000D01*
X134560000Y-136270000D02*
X128560000Y-136270000D01*
X134560000Y-135510000D02*
X134560000Y-136270000D01*
X128560000Y-135510000D02*
X134560000Y-135510000D01*
X125900000Y-134620000D02*
X128560000Y-134620000D01*
X123030000Y-133730000D02*
X123417071Y-133730000D01*
X123030000Y-132970000D02*
X123417071Y-132970000D01*
X125502929Y-133730000D02*
X125900000Y-133730000D01*
X125502929Y-132970000D02*
X125900000Y-132970000D01*
X128560000Y-133630000D02*
X134560000Y-133630000D01*
X128560000Y-133510000D02*
X134560000Y-133510000D01*
X128560000Y-133390000D02*
X134560000Y-133390000D01*
X128560000Y-133270000D02*
X134560000Y-133270000D01*
X128560000Y-133150000D02*
X134560000Y-133150000D01*
X128560000Y-133030000D02*
X134560000Y-133030000D01*
X134560000Y-133730000D02*
X128560000Y-133730000D01*
X134560000Y-132970000D02*
X134560000Y-133730000D01*
X128560000Y-132970000D02*
X134560000Y-132970000D01*
X128560000Y-132020000D02*
X125900000Y-132020000D01*
X128560000Y-175320000D02*
X128560000Y-132020000D01*
X125900000Y-175320000D02*
X128560000Y-175320000D01*
X125900000Y-132020000D02*
X125900000Y-175320000D01*
X111470000Y-153610000D02*
X110220000Y-153610000D01*
X111470000Y-176590000D02*
X111470000Y-153610000D01*
X106970000Y-176590000D02*
X111470000Y-176590000D01*
X106970000Y-153610000D02*
X106970000Y-176590000D01*
X108220000Y-153610000D02*
X106970000Y-153610000D01*
X110220000Y-153610000D02*
G75*
G02X108220000Y-153610000I-1000000J0D01*
G01*
X94180000Y-125920000D02*
X94180000Y-125740000D01*
X94180000Y-128260000D02*
X94180000Y-128080000D01*
X94300000Y-125920000D02*
X94300000Y-125740000D01*
X94300000Y-128260000D02*
X94300000Y-128080000D01*
X91000000Y-125905000D02*
X91000000Y-125740000D01*
X91000000Y-128260000D02*
X91000000Y-128095000D01*
X94420000Y-125920000D02*
X94420000Y-125740000D01*
X94420000Y-128260000D02*
X94420000Y-128080000D01*
X94420000Y-125740000D02*
X91000000Y-125740000D01*
X94420000Y-128260000D02*
X91000000Y-128260000D01*
X94180000Y-120840000D02*
X94180000Y-120660000D01*
X94180000Y-123180000D02*
X94180000Y-123000000D01*
X94300000Y-120840000D02*
X94300000Y-120660000D01*
X94300000Y-123180000D02*
X94300000Y-123000000D01*
X91000000Y-120825000D02*
X91000000Y-120660000D01*
X91000000Y-123180000D02*
X91000000Y-123015000D01*
X94420000Y-120840000D02*
X94420000Y-120660000D01*
X94420000Y-123180000D02*
X94420000Y-123000000D01*
X94420000Y-120660000D02*
X91000000Y-120660000D01*
X94420000Y-123180000D02*
X91000000Y-123180000D01*
X94180000Y-115760000D02*
X94180000Y-115580000D01*
X94180000Y-118100000D02*
X94180000Y-117920000D01*
X94300000Y-115760000D02*
X94300000Y-115580000D01*
X94300000Y-118100000D02*
X94300000Y-117920000D01*
X91000000Y-115745000D02*
X91000000Y-115580000D01*
X91000000Y-118100000D02*
X91000000Y-117935000D01*
X94420000Y-115760000D02*
X94420000Y-115580000D01*
X94420000Y-118100000D02*
X94420000Y-117920000D01*
X94420000Y-115580000D02*
X91000000Y-115580000D01*
X94420000Y-118100000D02*
X91000000Y-118100000D01*
X94180000Y-110680000D02*
X94180000Y-110500000D01*
X94180000Y-113020000D02*
X94180000Y-112840000D01*
X94300000Y-110680000D02*
X94300000Y-110500000D01*
X94300000Y-113020000D02*
X94300000Y-112840000D01*
X91000000Y-110665000D02*
X91000000Y-110500000D01*
X91000000Y-113020000D02*
X91000000Y-112855000D01*
X94420000Y-110680000D02*
X94420000Y-110500000D01*
X94420000Y-113020000D02*
X94420000Y-112840000D01*
X94420000Y-110500000D02*
X91000000Y-110500000D01*
X94420000Y-113020000D02*
X91000000Y-113020000D01*
X94180000Y-105600000D02*
X94180000Y-105420000D01*
X94180000Y-107940000D02*
X94180000Y-107760000D01*
X94300000Y-105600000D02*
X94300000Y-105420000D01*
X94300000Y-107940000D02*
X94300000Y-107760000D01*
X91000000Y-105585000D02*
X91000000Y-105420000D01*
X91000000Y-107940000D02*
X91000000Y-107775000D01*
X94420000Y-105600000D02*
X94420000Y-105420000D01*
X94420000Y-107940000D02*
X94420000Y-107760000D01*
X94420000Y-105420000D02*
X91000000Y-105420000D01*
X94420000Y-107940000D02*
X91000000Y-107940000D01*
X94180000Y-100520000D02*
X94180000Y-100340000D01*
X94180000Y-102860000D02*
X94180000Y-102680000D01*
X94300000Y-100520000D02*
X94300000Y-100340000D01*
X94300000Y-102860000D02*
X94300000Y-102680000D01*
X91000000Y-100505000D02*
X91000000Y-100340000D01*
X91000000Y-102860000D02*
X91000000Y-102695000D01*
X94420000Y-100520000D02*
X94420000Y-100340000D01*
X94420000Y-102860000D02*
X94420000Y-102680000D01*
X94420000Y-100340000D02*
X91000000Y-100340000D01*
X94420000Y-102860000D02*
X91000000Y-102860000D01*
X94180000Y-95440000D02*
X94180000Y-95260000D01*
X94180000Y-97780000D02*
X94180000Y-97600000D01*
X94300000Y-95440000D02*
X94300000Y-95260000D01*
X94300000Y-97780000D02*
X94300000Y-97600000D01*
X91000000Y-95425000D02*
X91000000Y-95260000D01*
X91000000Y-97780000D02*
X91000000Y-97615000D01*
X94420000Y-95440000D02*
X94420000Y-95260000D01*
X94420000Y-97780000D02*
X94420000Y-97600000D01*
X94420000Y-95260000D02*
X91000000Y-95260000D01*
X94420000Y-97780000D02*
X91000000Y-97780000D01*
X94180000Y-90360000D02*
X94180000Y-90180000D01*
X94180000Y-92700000D02*
X94180000Y-92520000D01*
X94300000Y-90360000D02*
X94300000Y-90180000D01*
X94300000Y-92700000D02*
X94300000Y-92520000D01*
X91000000Y-90345000D02*
X91000000Y-90180000D01*
X91000000Y-92700000D02*
X91000000Y-92535000D01*
X94420000Y-90360000D02*
X94420000Y-90180000D01*
X94420000Y-92700000D02*
X94420000Y-92520000D01*
X94420000Y-90180000D02*
X91000000Y-90180000D01*
X94420000Y-92700000D02*
X91000000Y-92700000D01*
X84020000Y-169100000D02*
X84020000Y-168920000D01*
X84020000Y-171440000D02*
X84020000Y-171260000D01*
X84140000Y-169100000D02*
X84140000Y-168920000D01*
X84140000Y-171440000D02*
X84140000Y-171260000D01*
X80840000Y-169085000D02*
X80840000Y-168920000D01*
X80840000Y-171440000D02*
X80840000Y-171275000D01*
X84260000Y-169100000D02*
X84260000Y-168920000D01*
X84260000Y-171440000D02*
X84260000Y-171260000D01*
X84260000Y-168920000D02*
X80840000Y-168920000D01*
X84260000Y-171440000D02*
X80840000Y-171440000D01*
X84020000Y-164020000D02*
X84020000Y-163840000D01*
X84020000Y-166360000D02*
X84020000Y-166180000D01*
X84140000Y-164020000D02*
X84140000Y-163840000D01*
X84140000Y-166360000D02*
X84140000Y-166180000D01*
X80840000Y-164005000D02*
X80840000Y-163840000D01*
X80840000Y-166360000D02*
X80840000Y-166195000D01*
X84260000Y-164020000D02*
X84260000Y-163840000D01*
X84260000Y-166360000D02*
X84260000Y-166180000D01*
X84260000Y-163840000D02*
X80840000Y-163840000D01*
X84260000Y-166360000D02*
X80840000Y-166360000D01*
X84020000Y-158940000D02*
X84020000Y-158760000D01*
X84020000Y-161280000D02*
X84020000Y-161100000D01*
X84140000Y-158940000D02*
X84140000Y-158760000D01*
X84140000Y-161280000D02*
X84140000Y-161100000D01*
X80840000Y-158925000D02*
X80840000Y-158760000D01*
X80840000Y-161280000D02*
X80840000Y-161115000D01*
X84260000Y-158940000D02*
X84260000Y-158760000D01*
X84260000Y-161280000D02*
X84260000Y-161100000D01*
X84260000Y-158760000D02*
X80840000Y-158760000D01*
X84260000Y-161280000D02*
X80840000Y-161280000D01*
X84020000Y-153860000D02*
X84020000Y-153680000D01*
X84020000Y-156200000D02*
X84020000Y-156020000D01*
X84140000Y-153860000D02*
X84140000Y-153680000D01*
X84140000Y-156200000D02*
X84140000Y-156020000D01*
X80840000Y-153845000D02*
X80840000Y-153680000D01*
X80840000Y-156200000D02*
X80840000Y-156035000D01*
X84260000Y-153860000D02*
X84260000Y-153680000D01*
X84260000Y-156200000D02*
X84260000Y-156020000D01*
X84260000Y-153680000D02*
X80840000Y-153680000D01*
X84260000Y-156200000D02*
X80840000Y-156200000D01*
X84020000Y-148780000D02*
X84020000Y-148600000D01*
X84020000Y-151120000D02*
X84020000Y-150940000D01*
X84140000Y-148780000D02*
X84140000Y-148600000D01*
X84140000Y-151120000D02*
X84140000Y-150940000D01*
X80840000Y-148765000D02*
X80840000Y-148600000D01*
X80840000Y-151120000D02*
X80840000Y-150955000D01*
X84260000Y-148780000D02*
X84260000Y-148600000D01*
X84260000Y-151120000D02*
X84260000Y-150940000D01*
X84260000Y-148600000D02*
X80840000Y-148600000D01*
X84260000Y-151120000D02*
X80840000Y-151120000D01*
X84020000Y-143700000D02*
X84020000Y-143520000D01*
X84020000Y-146040000D02*
X84020000Y-145860000D01*
X84140000Y-143700000D02*
X84140000Y-143520000D01*
X84140000Y-146040000D02*
X84140000Y-145860000D01*
X80840000Y-143685000D02*
X80840000Y-143520000D01*
X80840000Y-146040000D02*
X80840000Y-145875000D01*
X84260000Y-143700000D02*
X84260000Y-143520000D01*
X84260000Y-146040000D02*
X84260000Y-145860000D01*
X84260000Y-143520000D02*
X80840000Y-143520000D01*
X84260000Y-146040000D02*
X80840000Y-146040000D01*
X84020000Y-138620000D02*
X84020000Y-138440000D01*
X84020000Y-140960000D02*
X84020000Y-140780000D01*
X84140000Y-138620000D02*
X84140000Y-138440000D01*
X84140000Y-140960000D02*
X84140000Y-140780000D01*
X80840000Y-138605000D02*
X80840000Y-138440000D01*
X80840000Y-140960000D02*
X80840000Y-140795000D01*
X84260000Y-138620000D02*
X84260000Y-138440000D01*
X84260000Y-140960000D02*
X84260000Y-140780000D01*
X84260000Y-138440000D02*
X80840000Y-138440000D01*
X84260000Y-140960000D02*
X80840000Y-140960000D01*
X84020000Y-133540000D02*
X84020000Y-133360000D01*
X84020000Y-135880000D02*
X84020000Y-135700000D01*
X84140000Y-133540000D02*
X84140000Y-133360000D01*
X84140000Y-135880000D02*
X84140000Y-135700000D01*
X80840000Y-133525000D02*
X80840000Y-133360000D01*
X80840000Y-135880000D02*
X80840000Y-135715000D01*
X84260000Y-133540000D02*
X84260000Y-133360000D01*
X84260000Y-135880000D02*
X84260000Y-135700000D01*
X84260000Y-133360000D02*
X80840000Y-133360000D01*
X84260000Y-135880000D02*
X80840000Y-135880000D01*
D11*
X118800714Y-121737380D02*
X118800714Y-120737380D01*
X119038809Y-120737380D01*
X119181666Y-120785000D01*
X119276904Y-120880238D01*
X119324523Y-120975476D01*
X119372142Y-121165952D01*
X119372142Y-121308809D01*
X119324523Y-121499285D01*
X119276904Y-121594523D01*
X119181666Y-121689761D01*
X119038809Y-121737380D01*
X118800714Y-121737380D01*
X120324523Y-121737380D02*
X119753095Y-121737380D01*
X120038809Y-121737380D02*
X120038809Y-120737380D01*
X119943571Y-120880238D01*
X119848333Y-120975476D01*
X119753095Y-121023095D01*
X120895952Y-121165952D02*
X120800714Y-121118333D01*
X120753095Y-121070714D01*
X120705476Y-120975476D01*
X120705476Y-120927857D01*
X120753095Y-120832619D01*
X120800714Y-120785000D01*
X120895952Y-120737380D01*
X121086428Y-120737380D01*
X121181666Y-120785000D01*
X121229285Y-120832619D01*
X121276904Y-120927857D01*
X121276904Y-120975476D01*
X121229285Y-121070714D01*
X121181666Y-121118333D01*
X121086428Y-121165952D01*
X120895952Y-121165952D01*
X120800714Y-121213571D01*
X120753095Y-121261190D01*
X120705476Y-121356428D01*
X120705476Y-121546904D01*
X120753095Y-121642142D01*
X120800714Y-121689761D01*
X120895952Y-121737380D01*
X121086428Y-121737380D01*
X121181666Y-121689761D01*
X121229285Y-121642142D01*
X121276904Y-121546904D01*
X121276904Y-121356428D01*
X121229285Y-121261190D01*
X121181666Y-121213571D01*
X121086428Y-121165952D01*
X66500476Y-172172380D02*
X66500476Y-172886666D01*
X66452857Y-173029523D01*
X66357619Y-173124761D01*
X66214761Y-173172380D01*
X66119523Y-173172380D01*
X67500476Y-173172380D02*
X66929047Y-173172380D01*
X67214761Y-173172380D02*
X67214761Y-172172380D01*
X67119523Y-172315238D01*
X67024285Y-172410476D01*
X66929047Y-172458095D01*
X67833809Y-172172380D02*
X68452857Y-172172380D01*
X68119523Y-172553333D01*
X68262380Y-172553333D01*
X68357619Y-172600952D01*
X68405238Y-172648571D01*
X68452857Y-172743809D01*
X68452857Y-172981904D01*
X68405238Y-173077142D01*
X68357619Y-173124761D01*
X68262380Y-173172380D01*
X67976666Y-173172380D01*
X67881428Y-173124761D01*
X67833809Y-173077142D01*
X66500476Y-144232380D02*
X66500476Y-144946666D01*
X66452857Y-145089523D01*
X66357619Y-145184761D01*
X66214761Y-145232380D01*
X66119523Y-145232380D01*
X67500476Y-145232380D02*
X66929047Y-145232380D01*
X67214761Y-145232380D02*
X67214761Y-144232380D01*
X67119523Y-144375238D01*
X67024285Y-144470476D01*
X66929047Y-144518095D01*
X67881428Y-144327619D02*
X67929047Y-144280000D01*
X68024285Y-144232380D01*
X68262380Y-144232380D01*
X68357619Y-144280000D01*
X68405238Y-144327619D01*
X68452857Y-144422857D01*
X68452857Y-144518095D01*
X68405238Y-144660952D01*
X67833809Y-145232380D01*
X68452857Y-145232380D01*
X98020476Y-92162380D02*
X98020476Y-92876666D01*
X97972857Y-93019523D01*
X97877619Y-93114761D01*
X97734761Y-93162380D01*
X97639523Y-93162380D01*
X99020476Y-93162380D02*
X98449047Y-93162380D01*
X98734761Y-93162380D02*
X98734761Y-92162380D01*
X98639523Y-92305238D01*
X98544285Y-92400476D01*
X98449047Y-92448095D01*
X99972857Y-93162380D02*
X99401428Y-93162380D01*
X99687142Y-93162380D02*
X99687142Y-92162380D01*
X99591904Y-92305238D01*
X99496666Y-92400476D01*
X99401428Y-92448095D01*
X76033333Y-100052142D02*
X75985714Y-100099761D01*
X75842857Y-100147380D01*
X75747619Y-100147380D01*
X75604761Y-100099761D01*
X75509523Y-100004523D01*
X75461904Y-99909285D01*
X75414285Y-99718809D01*
X75414285Y-99575952D01*
X75461904Y-99385476D01*
X75509523Y-99290238D01*
X75604761Y-99195000D01*
X75747619Y-99147380D01*
X75842857Y-99147380D01*
X75985714Y-99195000D01*
X76033333Y-99242619D01*
X76414285Y-99242619D02*
X76461904Y-99195000D01*
X76557142Y-99147380D01*
X76795238Y-99147380D01*
X76890476Y-99195000D01*
X76938095Y-99242619D01*
X76985714Y-99337857D01*
X76985714Y-99433095D01*
X76938095Y-99575952D01*
X76366666Y-100147380D01*
X76985714Y-100147380D01*
X83177142Y-109037380D02*
X82843809Y-108561190D01*
X82605714Y-109037380D02*
X82605714Y-108037380D01*
X82986666Y-108037380D01*
X83081904Y-108085000D01*
X83129523Y-108132619D01*
X83177142Y-108227857D01*
X83177142Y-108370714D01*
X83129523Y-108465952D01*
X83081904Y-108513571D01*
X82986666Y-108561190D01*
X82605714Y-108561190D01*
X83558095Y-108132619D02*
X83605714Y-108085000D01*
X83700952Y-108037380D01*
X83939047Y-108037380D01*
X84034285Y-108085000D01*
X84081904Y-108132619D01*
X84129523Y-108227857D01*
X84129523Y-108323095D01*
X84081904Y-108465952D01*
X83510476Y-109037380D01*
X84129523Y-109037380D01*
X84700952Y-108465952D02*
X84605714Y-108418333D01*
X84558095Y-108370714D01*
X84510476Y-108275476D01*
X84510476Y-108227857D01*
X84558095Y-108132619D01*
X84605714Y-108085000D01*
X84700952Y-108037380D01*
X84891428Y-108037380D01*
X84986666Y-108085000D01*
X85034285Y-108132619D01*
X85081904Y-108227857D01*
X85081904Y-108275476D01*
X85034285Y-108370714D01*
X84986666Y-108418333D01*
X84891428Y-108465952D01*
X84700952Y-108465952D01*
X84605714Y-108513571D01*
X84558095Y-108561190D01*
X84510476Y-108656428D01*
X84510476Y-108846904D01*
X84558095Y-108942142D01*
X84605714Y-108989761D01*
X84700952Y-109037380D01*
X84891428Y-109037380D01*
X84986666Y-108989761D01*
X85034285Y-108942142D01*
X85081904Y-108846904D01*
X85081904Y-108656428D01*
X85034285Y-108561190D01*
X84986666Y-108513571D01*
X84891428Y-108465952D01*
X79367142Y-109037380D02*
X79033809Y-108561190D01*
X78795714Y-109037380D02*
X78795714Y-108037380D01*
X79176666Y-108037380D01*
X79271904Y-108085000D01*
X79319523Y-108132619D01*
X79367142Y-108227857D01*
X79367142Y-108370714D01*
X79319523Y-108465952D01*
X79271904Y-108513571D01*
X79176666Y-108561190D01*
X78795714Y-108561190D01*
X79748095Y-108132619D02*
X79795714Y-108085000D01*
X79890952Y-108037380D01*
X80129047Y-108037380D01*
X80224285Y-108085000D01*
X80271904Y-108132619D01*
X80319523Y-108227857D01*
X80319523Y-108323095D01*
X80271904Y-108465952D01*
X79700476Y-109037380D01*
X80319523Y-109037380D01*
X80652857Y-108037380D02*
X81319523Y-108037380D01*
X80890952Y-109037380D01*
X93218095Y-131742380D02*
X93218095Y-132551904D01*
X93265714Y-132647142D01*
X93313333Y-132694761D01*
X93408571Y-132742380D01*
X93599047Y-132742380D01*
X93694285Y-132694761D01*
X93741904Y-132647142D01*
X93789523Y-132551904D01*
X93789523Y-131742380D01*
X94170476Y-131742380D02*
X94789523Y-131742380D01*
X94456190Y-132123333D01*
X94599047Y-132123333D01*
X94694285Y-132170952D01*
X94741904Y-132218571D01*
X94789523Y-132313809D01*
X94789523Y-132551904D01*
X94741904Y-132647142D01*
X94694285Y-132694761D01*
X94599047Y-132742380D01*
X94313333Y-132742380D01*
X94218095Y-132694761D01*
X94170476Y-132647142D01*
X100747142Y-87816666D02*
X100794761Y-87864285D01*
X100842380Y-88007142D01*
X100842380Y-88102380D01*
X100794761Y-88245238D01*
X100699523Y-88340476D01*
X100604285Y-88388095D01*
X100413809Y-88435714D01*
X100270952Y-88435714D01*
X100080476Y-88388095D01*
X99985238Y-88340476D01*
X99890000Y-88245238D01*
X99842380Y-88102380D01*
X99842380Y-88007142D01*
X99890000Y-87864285D01*
X99937619Y-87816666D01*
X100842380Y-86864285D02*
X100842380Y-87435714D01*
X100842380Y-87150000D02*
X99842380Y-87150000D01*
X99985238Y-87245238D01*
X100080476Y-87340476D01*
X100128095Y-87435714D01*
X118800714Y-93797380D02*
X118800714Y-92797380D01*
X119038809Y-92797380D01*
X119181666Y-92845000D01*
X119276904Y-92940238D01*
X119324523Y-93035476D01*
X119372142Y-93225952D01*
X119372142Y-93368809D01*
X119324523Y-93559285D01*
X119276904Y-93654523D01*
X119181666Y-93749761D01*
X119038809Y-93797380D01*
X118800714Y-93797380D01*
X120324523Y-93797380D02*
X119753095Y-93797380D01*
X120038809Y-93797380D02*
X120038809Y-92797380D01*
X119943571Y-92940238D01*
X119848333Y-93035476D01*
X119753095Y-93083095D01*
X120657857Y-92797380D02*
X121324523Y-92797380D01*
X120895952Y-93797380D01*
X90797142Y-109672380D02*
X90463809Y-109196190D01*
X90225714Y-109672380D02*
X90225714Y-108672380D01*
X90606666Y-108672380D01*
X90701904Y-108720000D01*
X90749523Y-108767619D01*
X90797142Y-108862857D01*
X90797142Y-109005714D01*
X90749523Y-109100952D01*
X90701904Y-109148571D01*
X90606666Y-109196190D01*
X90225714Y-109196190D01*
X91749523Y-109672380D02*
X91178095Y-109672380D01*
X91463809Y-109672380D02*
X91463809Y-108672380D01*
X91368571Y-108815238D01*
X91273333Y-108910476D01*
X91178095Y-108958095D01*
X92130476Y-108767619D02*
X92178095Y-108720000D01*
X92273333Y-108672380D01*
X92511428Y-108672380D01*
X92606666Y-108720000D01*
X92654285Y-108767619D01*
X92701904Y-108862857D01*
X92701904Y-108958095D01*
X92654285Y-109100952D01*
X92082857Y-109672380D01*
X92701904Y-109672380D01*
X99639523Y-178252380D02*
X99306190Y-177776190D01*
X99068095Y-178252380D02*
X99068095Y-177252380D01*
X99449047Y-177252380D01*
X99544285Y-177300000D01*
X99591904Y-177347619D01*
X99639523Y-177442857D01*
X99639523Y-177585714D01*
X99591904Y-177680952D01*
X99544285Y-177728571D01*
X99449047Y-177776190D01*
X99068095Y-177776190D01*
X100068095Y-178252380D02*
X100068095Y-177252380D01*
X100639523Y-178252380D01*
X100639523Y-177252380D01*
X101020476Y-177252380D02*
X101639523Y-177252380D01*
X101306190Y-177633333D01*
X101449047Y-177633333D01*
X101544285Y-177680952D01*
X101591904Y-177728571D01*
X101639523Y-177823809D01*
X101639523Y-178061904D01*
X101591904Y-178157142D01*
X101544285Y-178204761D01*
X101449047Y-178252380D01*
X101163333Y-178252380D01*
X101068095Y-178204761D01*
X101020476Y-178157142D01*
X107188095Y-108672380D02*
X107188095Y-109481904D01*
X107235714Y-109577142D01*
X107283333Y-109624761D01*
X107378571Y-109672380D01*
X107569047Y-109672380D01*
X107664285Y-109624761D01*
X107711904Y-109577142D01*
X107759523Y-109481904D01*
X107759523Y-108672380D01*
X108759523Y-109672380D02*
X108188095Y-109672380D01*
X108473809Y-109672380D02*
X108473809Y-108672380D01*
X108378571Y-108815238D01*
X108283333Y-108910476D01*
X108188095Y-108958095D01*
X104648095Y-129627380D02*
X104648095Y-130436904D01*
X104695714Y-130532142D01*
X104743333Y-130579761D01*
X104838571Y-130627380D01*
X105029047Y-130627380D01*
X105124285Y-130579761D01*
X105171904Y-130532142D01*
X105219523Y-130436904D01*
X105219523Y-129627380D01*
X105648095Y-129722619D02*
X105695714Y-129675000D01*
X105790952Y-129627380D01*
X106029047Y-129627380D01*
X106124285Y-129675000D01*
X106171904Y-129722619D01*
X106219523Y-129817857D01*
X106219523Y-129913095D01*
X106171904Y-130055952D01*
X105600476Y-130627380D01*
X106219523Y-130627380D01*
X131746666Y-128992380D02*
X131746666Y-129706666D01*
X131699047Y-129849523D01*
X131603809Y-129944761D01*
X131460952Y-129992380D01*
X131365714Y-129992380D01*
X132127619Y-128992380D02*
X132746666Y-128992380D01*
X132413333Y-129373333D01*
X132556190Y-129373333D01*
X132651428Y-129420952D01*
X132699047Y-129468571D01*
X132746666Y-129563809D01*
X132746666Y-129801904D01*
X132699047Y-129897142D01*
X132651428Y-129944761D01*
X132556190Y-129992380D01*
X132270476Y-129992380D01*
X132175238Y-129944761D01*
X132127619Y-129897142D01*
X124126666Y-82002380D02*
X124126666Y-82716666D01*
X124079047Y-82859523D01*
X123983809Y-82954761D01*
X123840952Y-83002380D01*
X123745714Y-83002380D01*
X124555238Y-82097619D02*
X124602857Y-82050000D01*
X124698095Y-82002380D01*
X124936190Y-82002380D01*
X125031428Y-82050000D01*
X125079047Y-82097619D01*
X125126666Y-82192857D01*
X125126666Y-82288095D01*
X125079047Y-82430952D01*
X124507619Y-83002380D01*
X125126666Y-83002380D01*
X111426666Y-121848571D02*
X111093333Y-121848571D01*
X111093333Y-122372380D02*
X111093333Y-121372380D01*
X111569523Y-121372380D01*
X112474285Y-122372380D02*
X111902857Y-122372380D01*
X112188571Y-122372380D02*
X112188571Y-121372380D01*
X112093333Y-121515238D01*
X111998095Y-121610476D01*
X111902857Y-121658095D01*
X75509523Y-132532380D02*
X75176190Y-132056190D01*
X74938095Y-132532380D02*
X74938095Y-131532380D01*
X75319047Y-131532380D01*
X75414285Y-131580000D01*
X75461904Y-131627619D01*
X75509523Y-131722857D01*
X75509523Y-131865714D01*
X75461904Y-131960952D01*
X75414285Y-132008571D01*
X75319047Y-132056190D01*
X74938095Y-132056190D01*
X75938095Y-132532380D02*
X75938095Y-131532380D01*
X76509523Y-132532380D01*
X76509523Y-131532380D01*
X76938095Y-131627619D02*
X76985714Y-131580000D01*
X77080952Y-131532380D01*
X77319047Y-131532380D01*
X77414285Y-131580000D01*
X77461904Y-131627619D01*
X77509523Y-131722857D01*
X77509523Y-131818095D01*
X77461904Y-131960952D01*
X76890476Y-132532380D01*
X77509523Y-132532380D01*
X107259523Y-129992380D02*
X106926190Y-129516190D01*
X106688095Y-129992380D02*
X106688095Y-128992380D01*
X107069047Y-128992380D01*
X107164285Y-129040000D01*
X107211904Y-129087619D01*
X107259523Y-129182857D01*
X107259523Y-129325714D01*
X107211904Y-129420952D01*
X107164285Y-129468571D01*
X107069047Y-129516190D01*
X106688095Y-129516190D01*
X107688095Y-129992380D02*
X107688095Y-128992380D01*
X108259523Y-129992380D01*
X108259523Y-128992380D01*
X109259523Y-129992380D02*
X108688095Y-129992380D01*
X108973809Y-129992380D02*
X108973809Y-128992380D01*
X108878571Y-129135238D01*
X108783333Y-129230476D01*
X108688095Y-129278095D01*
X111212380Y-97329523D02*
X111926666Y-97329523D01*
X112069523Y-97377142D01*
X112164761Y-97472380D01*
X112212380Y-97615238D01*
X112212380Y-97710476D01*
X112212380Y-96329523D02*
X112212380Y-96900952D01*
X112212380Y-96615238D02*
X111212380Y-96615238D01*
X111355238Y-96710476D01*
X111450476Y-96805714D01*
X111498095Y-96900952D01*
X111212380Y-95710476D02*
X111212380Y-95615238D01*
X111260000Y-95520000D01*
X111307619Y-95472380D01*
X111402857Y-95424761D01*
X111593333Y-95377142D01*
X111831428Y-95377142D01*
X112021904Y-95424761D01*
X112117142Y-95472380D01*
X112164761Y-95520000D01*
X112212380Y-95615238D01*
X112212380Y-95710476D01*
X112164761Y-95805714D01*
X112117142Y-95853333D01*
X112021904Y-95900952D01*
X111831428Y-95948571D01*
X111593333Y-95948571D01*
X111402857Y-95900952D01*
X111307619Y-95853333D01*
X111260000Y-95805714D01*
X111212380Y-95710476D01*
X111212380Y-109553333D02*
X111926666Y-109553333D01*
X112069523Y-109600952D01*
X112164761Y-109696190D01*
X112212380Y-109839047D01*
X112212380Y-109934285D01*
X112212380Y-109029523D02*
X112212380Y-108839047D01*
X112164761Y-108743809D01*
X112117142Y-108696190D01*
X111974285Y-108600952D01*
X111783809Y-108553333D01*
X111402857Y-108553333D01*
X111307619Y-108600952D01*
X111260000Y-108648571D01*
X111212380Y-108743809D01*
X111212380Y-108934285D01*
X111260000Y-109029523D01*
X111307619Y-109077142D01*
X111402857Y-109124761D01*
X111640952Y-109124761D01*
X111736190Y-109077142D01*
X111783809Y-109029523D01*
X111831428Y-108934285D01*
X111831428Y-108743809D01*
X111783809Y-108648571D01*
X111736190Y-108600952D01*
X111640952Y-108553333D01*
X108886666Y-86923571D02*
X108553333Y-86923571D01*
X108553333Y-87447380D02*
X108553333Y-86447380D01*
X109029523Y-86447380D01*
X109362857Y-86542619D02*
X109410476Y-86495000D01*
X109505714Y-86447380D01*
X109743809Y-86447380D01*
X109839047Y-86495000D01*
X109886666Y-86542619D01*
X109934285Y-86637857D01*
X109934285Y-86733095D01*
X109886666Y-86875952D01*
X109315238Y-87447380D01*
X109934285Y-87447380D01*
X111117142Y-119832380D02*
X110783809Y-119356190D01*
X110545714Y-119832380D02*
X110545714Y-118832380D01*
X110926666Y-118832380D01*
X111021904Y-118880000D01*
X111069523Y-118927619D01*
X111117142Y-119022857D01*
X111117142Y-119165714D01*
X111069523Y-119260952D01*
X111021904Y-119308571D01*
X110926666Y-119356190D01*
X110545714Y-119356190D01*
X111498095Y-118927619D02*
X111545714Y-118880000D01*
X111640952Y-118832380D01*
X111879047Y-118832380D01*
X111974285Y-118880000D01*
X112021904Y-118927619D01*
X112069523Y-119022857D01*
X112069523Y-119118095D01*
X112021904Y-119260952D01*
X111450476Y-119832380D01*
X112069523Y-119832380D01*
X112926666Y-118832380D02*
X112736190Y-118832380D01*
X112640952Y-118880000D01*
X112593333Y-118927619D01*
X112498095Y-119070476D01*
X112450476Y-119260952D01*
X112450476Y-119641904D01*
X112498095Y-119737142D01*
X112545714Y-119784761D01*
X112640952Y-119832380D01*
X112831428Y-119832380D01*
X112926666Y-119784761D01*
X112974285Y-119737142D01*
X113021904Y-119641904D01*
X113021904Y-119403809D01*
X112974285Y-119308571D01*
X112926666Y-119260952D01*
X112831428Y-119213333D01*
X112640952Y-119213333D01*
X112545714Y-119260952D01*
X112498095Y-119308571D01*
X112450476Y-119403809D01*
X69088095Y-128782380D02*
X69088095Y-129591904D01*
X69135714Y-129687142D01*
X69183333Y-129734761D01*
X69278571Y-129782380D01*
X69469047Y-129782380D01*
X69564285Y-129734761D01*
X69611904Y-129687142D01*
X69659523Y-129591904D01*
X69659523Y-128782380D01*
X70611904Y-128782380D02*
X70135714Y-128782380D01*
X70088095Y-129258571D01*
X70135714Y-129210952D01*
X70230952Y-129163333D01*
X70469047Y-129163333D01*
X70564285Y-129210952D01*
X70611904Y-129258571D01*
X70659523Y-129353809D01*
X70659523Y-129591904D01*
X70611904Y-129687142D01*
X70564285Y-129734761D01*
X70469047Y-129782380D01*
X70230952Y-129782380D01*
X70135714Y-129734761D01*
X70088095Y-129687142D01*
X93218095Y-155027380D02*
X93218095Y-155836904D01*
X93265714Y-155932142D01*
X93313333Y-155979761D01*
X93408571Y-156027380D01*
X93599047Y-156027380D01*
X93694285Y-155979761D01*
X93741904Y-155932142D01*
X93789523Y-155836904D01*
X93789523Y-155027380D01*
X94694285Y-155360714D02*
X94694285Y-156027380D01*
X94456190Y-154979761D02*
X94218095Y-155694047D01*
X94837142Y-155694047D01*
X111117142Y-91892380D02*
X110783809Y-91416190D01*
X110545714Y-91892380D02*
X110545714Y-90892380D01*
X110926666Y-90892380D01*
X111021904Y-90940000D01*
X111069523Y-90987619D01*
X111117142Y-91082857D01*
X111117142Y-91225714D01*
X111069523Y-91320952D01*
X111021904Y-91368571D01*
X110926666Y-91416190D01*
X110545714Y-91416190D01*
X111498095Y-90987619D02*
X111545714Y-90940000D01*
X111640952Y-90892380D01*
X111879047Y-90892380D01*
X111974285Y-90940000D01*
X112021904Y-90987619D01*
X112069523Y-91082857D01*
X112069523Y-91178095D01*
X112021904Y-91320952D01*
X111450476Y-91892380D01*
X112069523Y-91892380D01*
X112974285Y-90892380D02*
X112498095Y-90892380D01*
X112450476Y-91368571D01*
X112498095Y-91320952D01*
X112593333Y-91273333D01*
X112831428Y-91273333D01*
X112926666Y-91320952D01*
X112974285Y-91368571D01*
X113021904Y-91463809D01*
X113021904Y-91701904D01*
X112974285Y-91797142D01*
X112926666Y-91844761D01*
X112831428Y-91892380D01*
X112593333Y-91892380D01*
X112498095Y-91844761D01*
X112450476Y-91797142D01*
X90797142Y-129992380D02*
X90463809Y-129516190D01*
X90225714Y-129992380D02*
X90225714Y-128992380D01*
X90606666Y-128992380D01*
X90701904Y-129040000D01*
X90749523Y-129087619D01*
X90797142Y-129182857D01*
X90797142Y-129325714D01*
X90749523Y-129420952D01*
X90701904Y-129468571D01*
X90606666Y-129516190D01*
X90225714Y-129516190D01*
X91749523Y-129992380D02*
X91178095Y-129992380D01*
X91463809Y-129992380D02*
X91463809Y-128992380D01*
X91368571Y-129135238D01*
X91273333Y-129230476D01*
X91178095Y-129278095D01*
X92606666Y-128992380D02*
X92416190Y-128992380D01*
X92320952Y-129040000D01*
X92273333Y-129087619D01*
X92178095Y-129230476D01*
X92130476Y-129420952D01*
X92130476Y-129801904D01*
X92178095Y-129897142D01*
X92225714Y-129944761D01*
X92320952Y-129992380D01*
X92511428Y-129992380D01*
X92606666Y-129944761D01*
X92654285Y-129897142D01*
X92701904Y-129801904D01*
X92701904Y-129563809D01*
X92654285Y-129468571D01*
X92606666Y-129420952D01*
X92511428Y-129373333D01*
X92320952Y-129373333D01*
X92225714Y-129420952D01*
X92178095Y-129468571D01*
X92130476Y-129563809D01*
X90797142Y-124912380D02*
X90463809Y-124436190D01*
X90225714Y-124912380D02*
X90225714Y-123912380D01*
X90606666Y-123912380D01*
X90701904Y-123960000D01*
X90749523Y-124007619D01*
X90797142Y-124102857D01*
X90797142Y-124245714D01*
X90749523Y-124340952D01*
X90701904Y-124388571D01*
X90606666Y-124436190D01*
X90225714Y-124436190D01*
X91749523Y-124912380D02*
X91178095Y-124912380D01*
X91463809Y-124912380D02*
X91463809Y-123912380D01*
X91368571Y-124055238D01*
X91273333Y-124150476D01*
X91178095Y-124198095D01*
X92654285Y-123912380D02*
X92178095Y-123912380D01*
X92130476Y-124388571D01*
X92178095Y-124340952D01*
X92273333Y-124293333D01*
X92511428Y-124293333D01*
X92606666Y-124340952D01*
X92654285Y-124388571D01*
X92701904Y-124483809D01*
X92701904Y-124721904D01*
X92654285Y-124817142D01*
X92606666Y-124864761D01*
X92511428Y-124912380D01*
X92273333Y-124912380D01*
X92178095Y-124864761D01*
X92130476Y-124817142D01*
X90797142Y-119832380D02*
X90463809Y-119356190D01*
X90225714Y-119832380D02*
X90225714Y-118832380D01*
X90606666Y-118832380D01*
X90701904Y-118880000D01*
X90749523Y-118927619D01*
X90797142Y-119022857D01*
X90797142Y-119165714D01*
X90749523Y-119260952D01*
X90701904Y-119308571D01*
X90606666Y-119356190D01*
X90225714Y-119356190D01*
X91749523Y-119832380D02*
X91178095Y-119832380D01*
X91463809Y-119832380D02*
X91463809Y-118832380D01*
X91368571Y-118975238D01*
X91273333Y-119070476D01*
X91178095Y-119118095D01*
X92606666Y-119165714D02*
X92606666Y-119832380D01*
X92368571Y-118784761D02*
X92130476Y-119499047D01*
X92749523Y-119499047D01*
X90797142Y-114752380D02*
X90463809Y-114276190D01*
X90225714Y-114752380D02*
X90225714Y-113752380D01*
X90606666Y-113752380D01*
X90701904Y-113800000D01*
X90749523Y-113847619D01*
X90797142Y-113942857D01*
X90797142Y-114085714D01*
X90749523Y-114180952D01*
X90701904Y-114228571D01*
X90606666Y-114276190D01*
X90225714Y-114276190D01*
X91749523Y-114752380D02*
X91178095Y-114752380D01*
X91463809Y-114752380D02*
X91463809Y-113752380D01*
X91368571Y-113895238D01*
X91273333Y-113990476D01*
X91178095Y-114038095D01*
X92082857Y-113752380D02*
X92701904Y-113752380D01*
X92368571Y-114133333D01*
X92511428Y-114133333D01*
X92606666Y-114180952D01*
X92654285Y-114228571D01*
X92701904Y-114323809D01*
X92701904Y-114561904D01*
X92654285Y-114657142D01*
X92606666Y-114704761D01*
X92511428Y-114752380D01*
X92225714Y-114752380D01*
X92130476Y-114704761D01*
X92082857Y-114657142D01*
X90797142Y-104592380D02*
X90463809Y-104116190D01*
X90225714Y-104592380D02*
X90225714Y-103592380D01*
X90606666Y-103592380D01*
X90701904Y-103640000D01*
X90749523Y-103687619D01*
X90797142Y-103782857D01*
X90797142Y-103925714D01*
X90749523Y-104020952D01*
X90701904Y-104068571D01*
X90606666Y-104116190D01*
X90225714Y-104116190D01*
X91749523Y-104592380D02*
X91178095Y-104592380D01*
X91463809Y-104592380D02*
X91463809Y-103592380D01*
X91368571Y-103735238D01*
X91273333Y-103830476D01*
X91178095Y-103878095D01*
X92701904Y-104592380D02*
X92130476Y-104592380D01*
X92416190Y-104592380D02*
X92416190Y-103592380D01*
X92320952Y-103735238D01*
X92225714Y-103830476D01*
X92130476Y-103878095D01*
X90797142Y-99512380D02*
X90463809Y-99036190D01*
X90225714Y-99512380D02*
X90225714Y-98512380D01*
X90606666Y-98512380D01*
X90701904Y-98560000D01*
X90749523Y-98607619D01*
X90797142Y-98702857D01*
X90797142Y-98845714D01*
X90749523Y-98940952D01*
X90701904Y-98988571D01*
X90606666Y-99036190D01*
X90225714Y-99036190D01*
X91749523Y-99512380D02*
X91178095Y-99512380D01*
X91463809Y-99512380D02*
X91463809Y-98512380D01*
X91368571Y-98655238D01*
X91273333Y-98750476D01*
X91178095Y-98798095D01*
X92368571Y-98512380D02*
X92463809Y-98512380D01*
X92559047Y-98560000D01*
X92606666Y-98607619D01*
X92654285Y-98702857D01*
X92701904Y-98893333D01*
X92701904Y-99131428D01*
X92654285Y-99321904D01*
X92606666Y-99417142D01*
X92559047Y-99464761D01*
X92463809Y-99512380D01*
X92368571Y-99512380D01*
X92273333Y-99464761D01*
X92225714Y-99417142D01*
X92178095Y-99321904D01*
X92130476Y-99131428D01*
X92130476Y-98893333D01*
X92178095Y-98702857D01*
X92225714Y-98607619D01*
X92273333Y-98560000D01*
X92368571Y-98512380D01*
X90638333Y-94432380D02*
X90305000Y-93956190D01*
X90066904Y-94432380D02*
X90066904Y-93432380D01*
X90447857Y-93432380D01*
X90543095Y-93480000D01*
X90590714Y-93527619D01*
X90638333Y-93622857D01*
X90638333Y-93765714D01*
X90590714Y-93860952D01*
X90543095Y-93908571D01*
X90447857Y-93956190D01*
X90066904Y-93956190D01*
X91114523Y-94432380D02*
X91305000Y-94432380D01*
X91400238Y-94384761D01*
X91447857Y-94337142D01*
X91543095Y-94194285D01*
X91590714Y-94003809D01*
X91590714Y-93622857D01*
X91543095Y-93527619D01*
X91495476Y-93480000D01*
X91400238Y-93432380D01*
X91209761Y-93432380D01*
X91114523Y-93480000D01*
X91066904Y-93527619D01*
X91019285Y-93622857D01*
X91019285Y-93860952D01*
X91066904Y-93956190D01*
X91114523Y-94003809D01*
X91209761Y-94051428D01*
X91400238Y-94051428D01*
X91495476Y-94003809D01*
X91543095Y-93956190D01*
X91590714Y-93860952D01*
X112228333Y-153487380D02*
X111895000Y-153011190D01*
X111656904Y-153487380D02*
X111656904Y-152487380D01*
X112037857Y-152487380D01*
X112133095Y-152535000D01*
X112180714Y-152582619D01*
X112228333Y-152677857D01*
X112228333Y-152820714D01*
X112180714Y-152915952D01*
X112133095Y-152963571D01*
X112037857Y-153011190D01*
X111656904Y-153011190D01*
X112799761Y-152915952D02*
X112704523Y-152868333D01*
X112656904Y-152820714D01*
X112609285Y-152725476D01*
X112609285Y-152677857D01*
X112656904Y-152582619D01*
X112704523Y-152535000D01*
X112799761Y-152487380D01*
X112990238Y-152487380D01*
X113085476Y-152535000D01*
X113133095Y-152582619D01*
X113180714Y-152677857D01*
X113180714Y-152725476D01*
X113133095Y-152820714D01*
X113085476Y-152868333D01*
X112990238Y-152915952D01*
X112799761Y-152915952D01*
X112704523Y-152963571D01*
X112656904Y-153011190D01*
X112609285Y-153106428D01*
X112609285Y-153296904D01*
X112656904Y-153392142D01*
X112704523Y-153439761D01*
X112799761Y-153487380D01*
X112990238Y-153487380D01*
X113085476Y-153439761D01*
X113133095Y-153392142D01*
X113180714Y-153296904D01*
X113180714Y-153106428D01*
X113133095Y-153011190D01*
X113085476Y-152963571D01*
X112990238Y-152915952D01*
X114133333Y-133167380D02*
X113800000Y-132691190D01*
X113561904Y-133167380D02*
X113561904Y-132167380D01*
X113942857Y-132167380D01*
X114038095Y-132215000D01*
X114085714Y-132262619D01*
X114133333Y-132357857D01*
X114133333Y-132500714D01*
X114085714Y-132595952D01*
X114038095Y-132643571D01*
X113942857Y-132691190D01*
X113561904Y-132691190D01*
X115085714Y-133167380D02*
X114514285Y-133167380D01*
X114800000Y-133167380D02*
X114800000Y-132167380D01*
X114704761Y-132310238D01*
X114609523Y-132405476D01*
X114514285Y-132453095D01*
X75557142Y-171902380D02*
X75223809Y-171426190D01*
X74985714Y-171902380D02*
X74985714Y-170902380D01*
X75366666Y-170902380D01*
X75461904Y-170950000D01*
X75509523Y-170997619D01*
X75557142Y-171092857D01*
X75557142Y-171235714D01*
X75509523Y-171330952D01*
X75461904Y-171378571D01*
X75366666Y-171426190D01*
X74985714Y-171426190D01*
X75938095Y-170997619D02*
X75985714Y-170950000D01*
X76080952Y-170902380D01*
X76319047Y-170902380D01*
X76414285Y-170950000D01*
X76461904Y-170997619D01*
X76509523Y-171092857D01*
X76509523Y-171188095D01*
X76461904Y-171330952D01*
X75890476Y-171902380D01*
X76509523Y-171902380D01*
X77366666Y-171235714D02*
X77366666Y-171902380D01*
X77128571Y-170854761D02*
X76890476Y-171569047D01*
X77509523Y-171569047D01*
X75557142Y-166822380D02*
X75223809Y-166346190D01*
X74985714Y-166822380D02*
X74985714Y-165822380D01*
X75366666Y-165822380D01*
X75461904Y-165870000D01*
X75509523Y-165917619D01*
X75557142Y-166012857D01*
X75557142Y-166155714D01*
X75509523Y-166250952D01*
X75461904Y-166298571D01*
X75366666Y-166346190D01*
X74985714Y-166346190D01*
X75938095Y-165917619D02*
X75985714Y-165870000D01*
X76080952Y-165822380D01*
X76319047Y-165822380D01*
X76414285Y-165870000D01*
X76461904Y-165917619D01*
X76509523Y-166012857D01*
X76509523Y-166108095D01*
X76461904Y-166250952D01*
X75890476Y-166822380D01*
X76509523Y-166822380D01*
X76842857Y-165822380D02*
X77461904Y-165822380D01*
X77128571Y-166203333D01*
X77271428Y-166203333D01*
X77366666Y-166250952D01*
X77414285Y-166298571D01*
X77461904Y-166393809D01*
X77461904Y-166631904D01*
X77414285Y-166727142D01*
X77366666Y-166774761D01*
X77271428Y-166822380D01*
X76985714Y-166822380D01*
X76890476Y-166774761D01*
X76842857Y-166727142D01*
X75557142Y-161742380D02*
X75223809Y-161266190D01*
X74985714Y-161742380D02*
X74985714Y-160742380D01*
X75366666Y-160742380D01*
X75461904Y-160790000D01*
X75509523Y-160837619D01*
X75557142Y-160932857D01*
X75557142Y-161075714D01*
X75509523Y-161170952D01*
X75461904Y-161218571D01*
X75366666Y-161266190D01*
X74985714Y-161266190D01*
X75938095Y-160837619D02*
X75985714Y-160790000D01*
X76080952Y-160742380D01*
X76319047Y-160742380D01*
X76414285Y-160790000D01*
X76461904Y-160837619D01*
X76509523Y-160932857D01*
X76509523Y-161028095D01*
X76461904Y-161170952D01*
X75890476Y-161742380D01*
X76509523Y-161742380D01*
X76890476Y-160837619D02*
X76938095Y-160790000D01*
X77033333Y-160742380D01*
X77271428Y-160742380D01*
X77366666Y-160790000D01*
X77414285Y-160837619D01*
X77461904Y-160932857D01*
X77461904Y-161028095D01*
X77414285Y-161170952D01*
X76842857Y-161742380D01*
X77461904Y-161742380D01*
X75557142Y-156662380D02*
X75223809Y-156186190D01*
X74985714Y-156662380D02*
X74985714Y-155662380D01*
X75366666Y-155662380D01*
X75461904Y-155710000D01*
X75509523Y-155757619D01*
X75557142Y-155852857D01*
X75557142Y-155995714D01*
X75509523Y-156090952D01*
X75461904Y-156138571D01*
X75366666Y-156186190D01*
X74985714Y-156186190D01*
X75938095Y-155757619D02*
X75985714Y-155710000D01*
X76080952Y-155662380D01*
X76319047Y-155662380D01*
X76414285Y-155710000D01*
X76461904Y-155757619D01*
X76509523Y-155852857D01*
X76509523Y-155948095D01*
X76461904Y-156090952D01*
X75890476Y-156662380D01*
X76509523Y-156662380D01*
X77461904Y-156662380D02*
X76890476Y-156662380D01*
X77176190Y-156662380D02*
X77176190Y-155662380D01*
X77080952Y-155805238D01*
X76985714Y-155900476D01*
X76890476Y-155948095D01*
X75557142Y-151582380D02*
X75223809Y-151106190D01*
X74985714Y-151582380D02*
X74985714Y-150582380D01*
X75366666Y-150582380D01*
X75461904Y-150630000D01*
X75509523Y-150677619D01*
X75557142Y-150772857D01*
X75557142Y-150915714D01*
X75509523Y-151010952D01*
X75461904Y-151058571D01*
X75366666Y-151106190D01*
X74985714Y-151106190D01*
X75938095Y-150677619D02*
X75985714Y-150630000D01*
X76080952Y-150582380D01*
X76319047Y-150582380D01*
X76414285Y-150630000D01*
X76461904Y-150677619D01*
X76509523Y-150772857D01*
X76509523Y-150868095D01*
X76461904Y-151010952D01*
X75890476Y-151582380D01*
X76509523Y-151582380D01*
X77128571Y-150582380D02*
X77223809Y-150582380D01*
X77319047Y-150630000D01*
X77366666Y-150677619D01*
X77414285Y-150772857D01*
X77461904Y-150963333D01*
X77461904Y-151201428D01*
X77414285Y-151391904D01*
X77366666Y-151487142D01*
X77319047Y-151534761D01*
X77223809Y-151582380D01*
X77128571Y-151582380D01*
X77033333Y-151534761D01*
X76985714Y-151487142D01*
X76938095Y-151391904D01*
X76890476Y-151201428D01*
X76890476Y-150963333D01*
X76938095Y-150772857D01*
X76985714Y-150677619D01*
X77033333Y-150630000D01*
X77128571Y-150582380D01*
X75557142Y-146502380D02*
X75223809Y-146026190D01*
X74985714Y-146502380D02*
X74985714Y-145502380D01*
X75366666Y-145502380D01*
X75461904Y-145550000D01*
X75509523Y-145597619D01*
X75557142Y-145692857D01*
X75557142Y-145835714D01*
X75509523Y-145930952D01*
X75461904Y-145978571D01*
X75366666Y-146026190D01*
X74985714Y-146026190D01*
X76509523Y-146502380D02*
X75938095Y-146502380D01*
X76223809Y-146502380D02*
X76223809Y-145502380D01*
X76128571Y-145645238D01*
X76033333Y-145740476D01*
X75938095Y-145788095D01*
X76985714Y-146502380D02*
X77176190Y-146502380D01*
X77271428Y-146454761D01*
X77319047Y-146407142D01*
X77414285Y-146264285D01*
X77461904Y-146073809D01*
X77461904Y-145692857D01*
X77414285Y-145597619D01*
X77366666Y-145550000D01*
X77271428Y-145502380D01*
X77080952Y-145502380D01*
X76985714Y-145550000D01*
X76938095Y-145597619D01*
X76890476Y-145692857D01*
X76890476Y-145930952D01*
X76938095Y-146026190D01*
X76985714Y-146073809D01*
X77080952Y-146121428D01*
X77271428Y-146121428D01*
X77366666Y-146073809D01*
X77414285Y-146026190D01*
X77461904Y-145930952D01*
X75557142Y-141422380D02*
X75223809Y-140946190D01*
X74985714Y-141422380D02*
X74985714Y-140422380D01*
X75366666Y-140422380D01*
X75461904Y-140470000D01*
X75509523Y-140517619D01*
X75557142Y-140612857D01*
X75557142Y-140755714D01*
X75509523Y-140850952D01*
X75461904Y-140898571D01*
X75366666Y-140946190D01*
X74985714Y-140946190D01*
X76509523Y-141422380D02*
X75938095Y-141422380D01*
X76223809Y-141422380D02*
X76223809Y-140422380D01*
X76128571Y-140565238D01*
X76033333Y-140660476D01*
X75938095Y-140708095D01*
X77080952Y-140850952D02*
X76985714Y-140803333D01*
X76938095Y-140755714D01*
X76890476Y-140660476D01*
X76890476Y-140612857D01*
X76938095Y-140517619D01*
X76985714Y-140470000D01*
X77080952Y-140422380D01*
X77271428Y-140422380D01*
X77366666Y-140470000D01*
X77414285Y-140517619D01*
X77461904Y-140612857D01*
X77461904Y-140660476D01*
X77414285Y-140755714D01*
X77366666Y-140803333D01*
X77271428Y-140850952D01*
X77080952Y-140850952D01*
X76985714Y-140898571D01*
X76938095Y-140946190D01*
X76890476Y-141041428D01*
X76890476Y-141231904D01*
X76938095Y-141327142D01*
X76985714Y-141374761D01*
X77080952Y-141422380D01*
X77271428Y-141422380D01*
X77366666Y-141374761D01*
X77414285Y-141327142D01*
X77461904Y-141231904D01*
X77461904Y-141041428D01*
X77414285Y-140946190D01*
X77366666Y-140898571D01*
X77271428Y-140850952D01*
X75557142Y-136342380D02*
X75223809Y-135866190D01*
X74985714Y-136342380D02*
X74985714Y-135342380D01*
X75366666Y-135342380D01*
X75461904Y-135390000D01*
X75509523Y-135437619D01*
X75557142Y-135532857D01*
X75557142Y-135675714D01*
X75509523Y-135770952D01*
X75461904Y-135818571D01*
X75366666Y-135866190D01*
X74985714Y-135866190D01*
X76509523Y-136342380D02*
X75938095Y-136342380D01*
X76223809Y-136342380D02*
X76223809Y-135342380D01*
X76128571Y-135485238D01*
X76033333Y-135580476D01*
X75938095Y-135628095D01*
X76842857Y-135342380D02*
X77509523Y-135342380D01*
X77080952Y-136342380D01*
X129206666Y-116292380D02*
X129206666Y-117006666D01*
X129159047Y-117149523D01*
X129063809Y-117244761D01*
X128920952Y-117292380D01*
X128825714Y-117292380D01*
X129825714Y-116720952D02*
X129730476Y-116673333D01*
X129682857Y-116625714D01*
X129635238Y-116530476D01*
X129635238Y-116482857D01*
X129682857Y-116387619D01*
X129730476Y-116340000D01*
X129825714Y-116292380D01*
X130016190Y-116292380D01*
X130111428Y-116340000D01*
X130159047Y-116387619D01*
X130206666Y-116482857D01*
X130206666Y-116530476D01*
X130159047Y-116625714D01*
X130111428Y-116673333D01*
X130016190Y-116720952D01*
X129825714Y-116720952D01*
X129730476Y-116768571D01*
X129682857Y-116816190D01*
X129635238Y-116911428D01*
X129635238Y-117101904D01*
X129682857Y-117197142D01*
X129730476Y-117244761D01*
X129825714Y-117292380D01*
X130016190Y-117292380D01*
X130111428Y-117244761D01*
X130159047Y-117197142D01*
X130206666Y-117101904D01*
X130206666Y-116911428D01*
X130159047Y-116816190D01*
X130111428Y-116768571D01*
X130016190Y-116720952D01*
X129206666Y-103592380D02*
X129206666Y-104306666D01*
X129159047Y-104449523D01*
X129063809Y-104544761D01*
X128920952Y-104592380D01*
X128825714Y-104592380D01*
X129587619Y-103592380D02*
X130254285Y-103592380D01*
X129825714Y-104592380D01*
X82216666Y-95972380D02*
X82216666Y-96686666D01*
X82169047Y-96829523D01*
X82073809Y-96924761D01*
X81930952Y-96972380D01*
X81835714Y-96972380D01*
X83121428Y-95972380D02*
X82930952Y-95972380D01*
X82835714Y-96020000D01*
X82788095Y-96067619D01*
X82692857Y-96210476D01*
X82645238Y-96400952D01*
X82645238Y-96781904D01*
X82692857Y-96877142D01*
X82740476Y-96924761D01*
X82835714Y-96972380D01*
X83026190Y-96972380D01*
X83121428Y-96924761D01*
X83169047Y-96877142D01*
X83216666Y-96781904D01*
X83216666Y-96543809D01*
X83169047Y-96448571D01*
X83121428Y-96400952D01*
X83026190Y-96353333D01*
X82835714Y-96353333D01*
X82740476Y-96400952D01*
X82692857Y-96448571D01*
X82645238Y-96543809D01*
X79676666Y-95972380D02*
X79676666Y-96686666D01*
X79629047Y-96829523D01*
X79533809Y-96924761D01*
X79390952Y-96972380D01*
X79295714Y-96972380D01*
X80629047Y-95972380D02*
X80152857Y-95972380D01*
X80105238Y-96448571D01*
X80152857Y-96400952D01*
X80248095Y-96353333D01*
X80486190Y-96353333D01*
X80581428Y-96400952D01*
X80629047Y-96448571D01*
X80676666Y-96543809D01*
X80676666Y-96781904D01*
X80629047Y-96877142D01*
X80581428Y-96924761D01*
X80486190Y-96972380D01*
X80248095Y-96972380D01*
X80152857Y-96924761D01*
X80105238Y-96877142D01*
X77136666Y-95972380D02*
X77136666Y-96686666D01*
X77089047Y-96829523D01*
X76993809Y-96924761D01*
X76850952Y-96972380D01*
X76755714Y-96972380D01*
X78041428Y-96305714D02*
X78041428Y-96972380D01*
X77803333Y-95924761D02*
X77565238Y-96639047D01*
X78184285Y-96639047D01*
X126666666Y-176617380D02*
X126666666Y-177331666D01*
X126619047Y-177474523D01*
X126523809Y-177569761D01*
X126380952Y-177617380D01*
X126285714Y-177617380D01*
X127666666Y-177617380D02*
X127095238Y-177617380D01*
X127380952Y-177617380D02*
X127380952Y-176617380D01*
X127285714Y-176760238D01*
X127190476Y-176855476D01*
X127095238Y-176903095D01*
X104433809Y-153062380D02*
X104433809Y-152062380D01*
X105481428Y-152967142D02*
X105433809Y-153014761D01*
X105290952Y-153062380D01*
X105195714Y-153062380D01*
X105052857Y-153014761D01*
X104957619Y-152919523D01*
X104910000Y-152824285D01*
X104862380Y-152633809D01*
X104862380Y-152490952D01*
X104910000Y-152300476D01*
X104957619Y-152205238D01*
X105052857Y-152110000D01*
X105195714Y-152062380D01*
X105290952Y-152062380D01*
X105433809Y-152110000D01*
X105481428Y-152157619D01*
X106433809Y-153062380D02*
X105862380Y-153062380D01*
X106148095Y-153062380D02*
X106148095Y-152062380D01*
X106052857Y-152205238D01*
X105957619Y-152300476D01*
X105862380Y-152348095D01*
X94511904Y-129712380D02*
X94511904Y-128712380D01*
X94750000Y-128712380D01*
X94892857Y-128760000D01*
X94988095Y-128855238D01*
X95035714Y-128950476D01*
X95083333Y-129140952D01*
X95083333Y-129283809D01*
X95035714Y-129474285D01*
X94988095Y-129569523D01*
X94892857Y-129664761D01*
X94750000Y-129712380D01*
X94511904Y-129712380D01*
X95654761Y-129140952D02*
X95559523Y-129093333D01*
X95511904Y-129045714D01*
X95464285Y-128950476D01*
X95464285Y-128902857D01*
X95511904Y-128807619D01*
X95559523Y-128760000D01*
X95654761Y-128712380D01*
X95845238Y-128712380D01*
X95940476Y-128760000D01*
X95988095Y-128807619D01*
X96035714Y-128902857D01*
X96035714Y-128950476D01*
X95988095Y-129045714D01*
X95940476Y-129093333D01*
X95845238Y-129140952D01*
X95654761Y-129140952D01*
X95559523Y-129188571D01*
X95511904Y-129236190D01*
X95464285Y-129331428D01*
X95464285Y-129521904D01*
X95511904Y-129617142D01*
X95559523Y-129664761D01*
X95654761Y-129712380D01*
X95845238Y-129712380D01*
X95940476Y-129664761D01*
X95988095Y-129617142D01*
X96035714Y-129521904D01*
X96035714Y-129331428D01*
X95988095Y-129236190D01*
X95940476Y-129188571D01*
X95845238Y-129140952D01*
X94511904Y-124632380D02*
X94511904Y-123632380D01*
X94750000Y-123632380D01*
X94892857Y-123680000D01*
X94988095Y-123775238D01*
X95035714Y-123870476D01*
X95083333Y-124060952D01*
X95083333Y-124203809D01*
X95035714Y-124394285D01*
X94988095Y-124489523D01*
X94892857Y-124584761D01*
X94750000Y-124632380D01*
X94511904Y-124632380D01*
X95416666Y-123632380D02*
X96083333Y-123632380D01*
X95654761Y-124632380D01*
X94511904Y-119552380D02*
X94511904Y-118552380D01*
X94750000Y-118552380D01*
X94892857Y-118600000D01*
X94988095Y-118695238D01*
X95035714Y-118790476D01*
X95083333Y-118980952D01*
X95083333Y-119123809D01*
X95035714Y-119314285D01*
X94988095Y-119409523D01*
X94892857Y-119504761D01*
X94750000Y-119552380D01*
X94511904Y-119552380D01*
X95940476Y-118552380D02*
X95750000Y-118552380D01*
X95654761Y-118600000D01*
X95607142Y-118647619D01*
X95511904Y-118790476D01*
X95464285Y-118980952D01*
X95464285Y-119361904D01*
X95511904Y-119457142D01*
X95559523Y-119504761D01*
X95654761Y-119552380D01*
X95845238Y-119552380D01*
X95940476Y-119504761D01*
X95988095Y-119457142D01*
X96035714Y-119361904D01*
X96035714Y-119123809D01*
X95988095Y-119028571D01*
X95940476Y-118980952D01*
X95845238Y-118933333D01*
X95654761Y-118933333D01*
X95559523Y-118980952D01*
X95511904Y-119028571D01*
X95464285Y-119123809D01*
X94511904Y-114472380D02*
X94511904Y-113472380D01*
X94750000Y-113472380D01*
X94892857Y-113520000D01*
X94988095Y-113615238D01*
X95035714Y-113710476D01*
X95083333Y-113900952D01*
X95083333Y-114043809D01*
X95035714Y-114234285D01*
X94988095Y-114329523D01*
X94892857Y-114424761D01*
X94750000Y-114472380D01*
X94511904Y-114472380D01*
X95988095Y-113472380D02*
X95511904Y-113472380D01*
X95464285Y-113948571D01*
X95511904Y-113900952D01*
X95607142Y-113853333D01*
X95845238Y-113853333D01*
X95940476Y-113900952D01*
X95988095Y-113948571D01*
X96035714Y-114043809D01*
X96035714Y-114281904D01*
X95988095Y-114377142D01*
X95940476Y-114424761D01*
X95845238Y-114472380D01*
X95607142Y-114472380D01*
X95511904Y-114424761D01*
X95464285Y-114377142D01*
X94511904Y-109392380D02*
X94511904Y-108392380D01*
X94750000Y-108392380D01*
X94892857Y-108440000D01*
X94988095Y-108535238D01*
X95035714Y-108630476D01*
X95083333Y-108820952D01*
X95083333Y-108963809D01*
X95035714Y-109154285D01*
X94988095Y-109249523D01*
X94892857Y-109344761D01*
X94750000Y-109392380D01*
X94511904Y-109392380D01*
X95940476Y-108725714D02*
X95940476Y-109392380D01*
X95702380Y-108344761D02*
X95464285Y-109059047D01*
X96083333Y-109059047D01*
X94511904Y-104312380D02*
X94511904Y-103312380D01*
X94750000Y-103312380D01*
X94892857Y-103360000D01*
X94988095Y-103455238D01*
X95035714Y-103550476D01*
X95083333Y-103740952D01*
X95083333Y-103883809D01*
X95035714Y-104074285D01*
X94988095Y-104169523D01*
X94892857Y-104264761D01*
X94750000Y-104312380D01*
X94511904Y-104312380D01*
X95416666Y-103312380D02*
X96035714Y-103312380D01*
X95702380Y-103693333D01*
X95845238Y-103693333D01*
X95940476Y-103740952D01*
X95988095Y-103788571D01*
X96035714Y-103883809D01*
X96035714Y-104121904D01*
X95988095Y-104217142D01*
X95940476Y-104264761D01*
X95845238Y-104312380D01*
X95559523Y-104312380D01*
X95464285Y-104264761D01*
X95416666Y-104217142D01*
X94511904Y-99232380D02*
X94511904Y-98232380D01*
X94750000Y-98232380D01*
X94892857Y-98280000D01*
X94988095Y-98375238D01*
X95035714Y-98470476D01*
X95083333Y-98660952D01*
X95083333Y-98803809D01*
X95035714Y-98994285D01*
X94988095Y-99089523D01*
X94892857Y-99184761D01*
X94750000Y-99232380D01*
X94511904Y-99232380D01*
X95464285Y-98327619D02*
X95511904Y-98280000D01*
X95607142Y-98232380D01*
X95845238Y-98232380D01*
X95940476Y-98280000D01*
X95988095Y-98327619D01*
X96035714Y-98422857D01*
X96035714Y-98518095D01*
X95988095Y-98660952D01*
X95416666Y-99232380D01*
X96035714Y-99232380D01*
X94511904Y-94152380D02*
X94511904Y-93152380D01*
X94750000Y-93152380D01*
X94892857Y-93200000D01*
X94988095Y-93295238D01*
X95035714Y-93390476D01*
X95083333Y-93580952D01*
X95083333Y-93723809D01*
X95035714Y-93914285D01*
X94988095Y-94009523D01*
X94892857Y-94104761D01*
X94750000Y-94152380D01*
X94511904Y-94152380D01*
X96035714Y-94152380D02*
X95464285Y-94152380D01*
X95750000Y-94152380D02*
X95750000Y-93152380D01*
X95654761Y-93295238D01*
X95559523Y-93390476D01*
X95464285Y-93438095D01*
X81335714Y-172892380D02*
X81335714Y-171892380D01*
X81573809Y-171892380D01*
X81716666Y-171940000D01*
X81811904Y-172035238D01*
X81859523Y-172130476D01*
X81907142Y-172320952D01*
X81907142Y-172463809D01*
X81859523Y-172654285D01*
X81811904Y-172749523D01*
X81716666Y-172844761D01*
X81573809Y-172892380D01*
X81335714Y-172892380D01*
X82859523Y-172892380D02*
X82288095Y-172892380D01*
X82573809Y-172892380D02*
X82573809Y-171892380D01*
X82478571Y-172035238D01*
X82383333Y-172130476D01*
X82288095Y-172178095D01*
X83716666Y-171892380D02*
X83526190Y-171892380D01*
X83430952Y-171940000D01*
X83383333Y-171987619D01*
X83288095Y-172130476D01*
X83240476Y-172320952D01*
X83240476Y-172701904D01*
X83288095Y-172797142D01*
X83335714Y-172844761D01*
X83430952Y-172892380D01*
X83621428Y-172892380D01*
X83716666Y-172844761D01*
X83764285Y-172797142D01*
X83811904Y-172701904D01*
X83811904Y-172463809D01*
X83764285Y-172368571D01*
X83716666Y-172320952D01*
X83621428Y-172273333D01*
X83430952Y-172273333D01*
X83335714Y-172320952D01*
X83288095Y-172368571D01*
X83240476Y-172463809D01*
X81335714Y-167812380D02*
X81335714Y-166812380D01*
X81573809Y-166812380D01*
X81716666Y-166860000D01*
X81811904Y-166955238D01*
X81859523Y-167050476D01*
X81907142Y-167240952D01*
X81907142Y-167383809D01*
X81859523Y-167574285D01*
X81811904Y-167669523D01*
X81716666Y-167764761D01*
X81573809Y-167812380D01*
X81335714Y-167812380D01*
X82859523Y-167812380D02*
X82288095Y-167812380D01*
X82573809Y-167812380D02*
X82573809Y-166812380D01*
X82478571Y-166955238D01*
X82383333Y-167050476D01*
X82288095Y-167098095D01*
X83764285Y-166812380D02*
X83288095Y-166812380D01*
X83240476Y-167288571D01*
X83288095Y-167240952D01*
X83383333Y-167193333D01*
X83621428Y-167193333D01*
X83716666Y-167240952D01*
X83764285Y-167288571D01*
X83811904Y-167383809D01*
X83811904Y-167621904D01*
X83764285Y-167717142D01*
X83716666Y-167764761D01*
X83621428Y-167812380D01*
X83383333Y-167812380D01*
X83288095Y-167764761D01*
X83240476Y-167717142D01*
X81335714Y-162732380D02*
X81335714Y-161732380D01*
X81573809Y-161732380D01*
X81716666Y-161780000D01*
X81811904Y-161875238D01*
X81859523Y-161970476D01*
X81907142Y-162160952D01*
X81907142Y-162303809D01*
X81859523Y-162494285D01*
X81811904Y-162589523D01*
X81716666Y-162684761D01*
X81573809Y-162732380D01*
X81335714Y-162732380D01*
X82859523Y-162732380D02*
X82288095Y-162732380D01*
X82573809Y-162732380D02*
X82573809Y-161732380D01*
X82478571Y-161875238D01*
X82383333Y-161970476D01*
X82288095Y-162018095D01*
X83716666Y-162065714D02*
X83716666Y-162732380D01*
X83478571Y-161684761D02*
X83240476Y-162399047D01*
X83859523Y-162399047D01*
X81335714Y-157652380D02*
X81335714Y-156652380D01*
X81573809Y-156652380D01*
X81716666Y-156700000D01*
X81811904Y-156795238D01*
X81859523Y-156890476D01*
X81907142Y-157080952D01*
X81907142Y-157223809D01*
X81859523Y-157414285D01*
X81811904Y-157509523D01*
X81716666Y-157604761D01*
X81573809Y-157652380D01*
X81335714Y-157652380D01*
X82859523Y-157652380D02*
X82288095Y-157652380D01*
X82573809Y-157652380D02*
X82573809Y-156652380D01*
X82478571Y-156795238D01*
X82383333Y-156890476D01*
X82288095Y-156938095D01*
X83192857Y-156652380D02*
X83811904Y-156652380D01*
X83478571Y-157033333D01*
X83621428Y-157033333D01*
X83716666Y-157080952D01*
X83764285Y-157128571D01*
X83811904Y-157223809D01*
X83811904Y-157461904D01*
X83764285Y-157557142D01*
X83716666Y-157604761D01*
X83621428Y-157652380D01*
X83335714Y-157652380D01*
X83240476Y-157604761D01*
X83192857Y-157557142D01*
X81335714Y-152572380D02*
X81335714Y-151572380D01*
X81573809Y-151572380D01*
X81716666Y-151620000D01*
X81811904Y-151715238D01*
X81859523Y-151810476D01*
X81907142Y-152000952D01*
X81907142Y-152143809D01*
X81859523Y-152334285D01*
X81811904Y-152429523D01*
X81716666Y-152524761D01*
X81573809Y-152572380D01*
X81335714Y-152572380D01*
X82859523Y-152572380D02*
X82288095Y-152572380D01*
X82573809Y-152572380D02*
X82573809Y-151572380D01*
X82478571Y-151715238D01*
X82383333Y-151810476D01*
X82288095Y-151858095D01*
X83240476Y-151667619D02*
X83288095Y-151620000D01*
X83383333Y-151572380D01*
X83621428Y-151572380D01*
X83716666Y-151620000D01*
X83764285Y-151667619D01*
X83811904Y-151762857D01*
X83811904Y-151858095D01*
X83764285Y-152000952D01*
X83192857Y-152572380D01*
X83811904Y-152572380D01*
X81335714Y-147492380D02*
X81335714Y-146492380D01*
X81573809Y-146492380D01*
X81716666Y-146540000D01*
X81811904Y-146635238D01*
X81859523Y-146730476D01*
X81907142Y-146920952D01*
X81907142Y-147063809D01*
X81859523Y-147254285D01*
X81811904Y-147349523D01*
X81716666Y-147444761D01*
X81573809Y-147492380D01*
X81335714Y-147492380D01*
X82859523Y-147492380D02*
X82288095Y-147492380D01*
X82573809Y-147492380D02*
X82573809Y-146492380D01*
X82478571Y-146635238D01*
X82383333Y-146730476D01*
X82288095Y-146778095D01*
X83811904Y-147492380D02*
X83240476Y-147492380D01*
X83526190Y-147492380D02*
X83526190Y-146492380D01*
X83430952Y-146635238D01*
X83335714Y-146730476D01*
X83240476Y-146778095D01*
X81335714Y-142412380D02*
X81335714Y-141412380D01*
X81573809Y-141412380D01*
X81716666Y-141460000D01*
X81811904Y-141555238D01*
X81859523Y-141650476D01*
X81907142Y-141840952D01*
X81907142Y-141983809D01*
X81859523Y-142174285D01*
X81811904Y-142269523D01*
X81716666Y-142364761D01*
X81573809Y-142412380D01*
X81335714Y-142412380D01*
X82859523Y-142412380D02*
X82288095Y-142412380D01*
X82573809Y-142412380D02*
X82573809Y-141412380D01*
X82478571Y-141555238D01*
X82383333Y-141650476D01*
X82288095Y-141698095D01*
X83478571Y-141412380D02*
X83573809Y-141412380D01*
X83669047Y-141460000D01*
X83716666Y-141507619D01*
X83764285Y-141602857D01*
X83811904Y-141793333D01*
X83811904Y-142031428D01*
X83764285Y-142221904D01*
X83716666Y-142317142D01*
X83669047Y-142364761D01*
X83573809Y-142412380D01*
X83478571Y-142412380D01*
X83383333Y-142364761D01*
X83335714Y-142317142D01*
X83288095Y-142221904D01*
X83240476Y-142031428D01*
X83240476Y-141793333D01*
X83288095Y-141602857D01*
X83335714Y-141507619D01*
X83383333Y-141460000D01*
X83478571Y-141412380D01*
X81811904Y-137332380D02*
X81811904Y-136332380D01*
X82050000Y-136332380D01*
X82192857Y-136380000D01*
X82288095Y-136475238D01*
X82335714Y-136570476D01*
X82383333Y-136760952D01*
X82383333Y-136903809D01*
X82335714Y-137094285D01*
X82288095Y-137189523D01*
X82192857Y-137284761D01*
X82050000Y-137332380D01*
X81811904Y-137332380D01*
X82859523Y-137332380D02*
X83050000Y-137332380D01*
X83145238Y-137284761D01*
X83192857Y-137237142D01*
X83288095Y-137094285D01*
X83335714Y-136903809D01*
X83335714Y-136522857D01*
X83288095Y-136427619D01*
X83240476Y-136380000D01*
X83145238Y-136332380D01*
X82954761Y-136332380D01*
X82859523Y-136380000D01*
X82811904Y-136427619D01*
X82764285Y-136522857D01*
X82764285Y-136760952D01*
X82811904Y-136856190D01*
X82859523Y-136903809D01*
X82954761Y-136951428D01*
X83145238Y-136951428D01*
X83240476Y-136903809D01*
X83288095Y-136856190D01*
X83335714Y-136760952D01*
M02*
