M48
; DRILL file {KiCad (5.1.5)-3} date 2020/04/22 0:17:12
; FORMAT={-:-/ absolute / inch / decimal}
; #@! TF.CreationDate,2020-04-22T00:17:12+09:00
; #@! TF.GenerationSoftware,Kicad,Pcbnew,(5.1.5)-3
FMAT,2
INCH
T1C0.0157
T2C0.0276
T3C0.0300
T4C0.0315
T5C0.0354
T6C0.0394
T7C0.1260
%
G90
G05
T1
X2.7016Y-3.55
X2.7016Y-3.7142
X2.75Y-4.2
X2.8Y-4.25
X2.85Y-5.95
X2.85Y-6.1
X3.1Y-4.3
X3.1Y-5.1
X3.15Y-3.9
X3.15Y-4.4
X3.15Y-4.95
X3.2Y-4.5
X3.2Y-4.75
X3.2474Y-3.8
X3.25Y-4.3
X3.25Y-4.7
X3.3Y-4.25
X3.3Y-4.8
X3.35Y-4.1
X3.35Y-4.9
X3.4Y-3.85
X3.4Y-5.0
X3.9Y-5.05
X3.9Y-5.15
X3.9278Y-3.7276
X4.3Y-6.05
X4.35Y-4.2
X4.4Y-4.6
X4.8Y-4.8
X4.85Y-4.3
T2
X4.5Y-4.7
X4.6Y-4.7
X3.1Y-5.9
X3.1Y-6.0
X3.5Y-4.2
X3.5Y-4.3
X3.5Y-5.0
X3.5Y-5.1
X3.5Y-3.8
X3.5Y-3.9
X4.5Y-5.4
X4.6Y-5.4
X4.5Y-5.3
X4.6Y-5.3
X3.15Y-4.1
X3.15Y-4.2
X4.5Y-5.8
X4.6Y-5.8
X3.5Y-4.8
X3.5Y-4.9
X3.1Y-6.1
X3.1Y-6.2
X4.5Y-5.9
X4.6Y-5.9
X3.5Y-4.0
X3.5Y-4.1
X3.1Y-6.3
X3.1Y-6.4
X3.25Y-4.1
X3.25Y-4.2
X4.5Y-5.7
X4.6Y-5.7
X3.5Y-3.6
X3.5Y-3.7
X3.1Y-6.7
X3.1Y-6.8
X3.1Y-5.7
X3.1Y-5.8
X4.5Y-6.0
X4.6Y-6.0
X3.1Y-5.3
X3.1Y-5.4
X3.1Y-6.5
X3.1Y-6.6
X4.5Y-5.5
X4.6Y-5.5
X3.5Y-4.4
X3.5Y-4.5
X3.5Y-4.6
X3.5Y-4.7
X3.1Y-5.5
X3.1Y-5.6
X4.5Y-5.6
X4.6Y-5.6
X4.5Y-3.6
X4.6Y-3.6
T3
X4.95Y-4.3
X4.95Y-4.3787
X4.95Y-4.4575
X4.95Y-4.5362
X4.95Y-3.8
X4.95Y-3.8787
X4.95Y-3.9575
X4.95Y-4.0362
T4
X3.0Y-4.3
X3.0Y-4.4
X3.0Y-4.5
X3.0Y-4.6
X3.0Y-4.7
X3.0Y-4.8
X3.0Y-4.9
X3.0Y-5.0
X3.0Y-5.1
X4.5Y-4.8031
X4.5Y-5.0
X3.85Y-4.3
X3.85Y-4.4
X3.85Y-4.5
X3.85Y-4.6
X3.85Y-4.7
X3.85Y-4.8
X3.85Y-4.9
X3.85Y-5.0
X4.15Y-4.3
X4.15Y-4.4
X4.15Y-4.5
X4.15Y-4.6
X4.15Y-4.7
X4.15Y-4.8
X4.15Y-4.9
X4.15Y-5.0
X3.0Y-4.0031
X3.0Y-4.2
X3.4Y-5.3
X3.4Y-5.4
X3.4Y-5.5
X3.4Y-5.6
X3.4Y-5.7
X3.4Y-5.8
X3.4Y-5.9
X3.4Y-6.0
X3.7Y-5.3
X3.7Y-5.4
X3.7Y-5.5
X3.7Y-5.6
X3.7Y-5.7
X3.7Y-5.8
X3.7Y-5.9
X3.7Y-6.0
X3.95Y-6.1
X3.95Y-6.2
X3.95Y-6.3
X3.95Y-6.4
X3.95Y-6.5
X3.95Y-6.6
X3.95Y-6.7
X3.95Y-6.8
X3.95Y-6.9
X2.6Y-3.7
X2.6Y-3.8
X2.6Y-3.9
X2.6Y-4.0
X2.6Y-4.1
X2.6Y-4.2
X2.6Y-4.3
X2.6Y-4.4
X2.6Y-4.5
X2.6Y-4.6
X2.6Y-4.7
X2.6Y-4.8
X2.6Y-4.9
X2.6Y-5.0
X2.9Y-3.7
X2.9Y-3.8
X2.9Y-3.9
X2.9Y-4.0
X2.9Y-4.1
X2.9Y-4.2
X2.9Y-4.3
X2.9Y-4.4
X2.9Y-4.5
X2.9Y-4.6
X2.9Y-4.7
X2.9Y-4.8
X2.9Y-4.9
X2.9Y-5.0
X4.15Y-6.1
X4.15Y-6.2
X4.15Y-6.3
X4.15Y-6.4
X4.15Y-6.5
X4.15Y-6.6
X4.15Y-6.7
X4.15Y-6.8
X4.15Y-6.9
X4.45Y-6.1
X4.45Y-6.2
X4.45Y-6.3
X4.45Y-6.4
X4.45Y-6.5
X4.45Y-6.6
X4.45Y-6.7
X4.45Y-6.8
X4.45Y-6.9
X4.35Y-5.1
X4.35Y-5.2
X4.35Y-5.3
X4.35Y-5.4
X4.35Y-5.5
X4.35Y-5.6
X4.35Y-5.7
X4.35Y-5.8
X4.35Y-5.9
X4.3Y-3.5
X4.4969Y-3.5
X4.1Y-3.4016
X4.1Y-3.5
X3.85Y-5.2
X3.85Y-5.3
X3.85Y-5.4
X3.85Y-5.5
X3.85Y-5.6
X3.85Y-5.7
X3.85Y-5.8
X3.85Y-5.9
X4.15Y-5.2
X4.15Y-5.3
X4.15Y-5.4
X4.15Y-5.5
X4.15Y-5.6
X4.15Y-5.7
X4.15Y-5.8
X4.15Y-5.9
X3.4Y-6.2
X3.4Y-6.3
X3.4Y-6.4
X3.4Y-6.5
X3.4Y-6.6
X3.4Y-6.7
X3.4Y-6.8
X3.4Y-6.9
X3.7Y-6.2
X3.7Y-6.3
X3.7Y-6.4
X3.7Y-6.5
X3.7Y-6.6
X3.7Y-6.7
X3.7Y-6.8
X3.7Y-6.9
T5
X3.6Y-4.6
X3.7Y-4.6
X3.6Y-4.4
X3.7Y-4.4
X3.6Y-4.2
X3.7Y-4.2
X4.6Y-4.8
X4.6Y-4.9
X3.2Y-5.5
X3.3Y-5.5
X3.6Y-4.8
X3.7Y-4.8
X3.2Y-5.9
X3.3Y-5.9
X3.2Y-5.3
X3.3Y-5.3
X3.6Y-4.0
X3.7Y-4.0
X3.2Y-6.7
X3.3Y-6.7
X3.6Y-5.0
X3.7Y-5.0
X3.2Y-6.3
X3.3Y-6.3
X3.2Y-6.5
X3.3Y-6.5
X3.2Y-5.7
X3.3Y-5.7
X3.6Y-3.8
X3.7Y-3.8
X3.6Y-3.6
X3.7Y-3.6
X3.2Y-6.1
X3.3Y-6.1
X4.7Y-3.5
X4.7Y-3.6
T6
X3.25Y-3.5
X3.25Y-3.6
X3.25Y-3.7
X3.05Y-3.5
X3.05Y-3.6
X3.05Y-3.7
X4.5Y-4.3
X4.5Y-4.4
X4.5Y-4.5
X4.5Y-4.6
X4.6Y-4.3
X4.6Y-4.4
X4.6Y-4.5
X4.6Y-4.6
X4.5Y-3.8
X4.5Y-3.9
X4.5Y-4.0
X4.5Y-4.1
X4.6Y-3.8
X4.6Y-3.9
X4.6Y-4.0
X4.6Y-4.1
X4.9Y-3.4016
X4.9Y-3.5
X4.0Y-3.65
X4.1Y-3.65
X4.2Y-3.65
X2.7Y-5.8
X2.7Y-5.9
X2.7Y-6.0
X2.7Y-6.1
X2.7Y-6.2
X3.15Y-3.5
X3.15Y-3.6
X3.15Y-3.7
X4.9Y-4.8516
X4.9Y-4.95
X4.8Y-5.25
X4.8Y-5.35
X4.8Y-5.45
X4.8Y-5.55
X4.8Y-5.65
X4.8Y-5.75
X4.8Y-5.85
X4.8Y-5.95
X4.8Y-6.05
X4.8Y-6.15
X4.8Y-6.25
X4.8Y-6.35
X4.8Y-6.45
X4.8Y-6.55
X4.8Y-6.65
X4.8Y-6.75
X4.8Y-6.85
X4.9Y-5.25
X4.9Y-5.35
X4.9Y-5.45
X4.9Y-5.55
X4.9Y-5.65
X4.9Y-5.75
X4.9Y-5.85
X4.9Y-5.95
X4.9Y-6.05
X4.9Y-6.15
X4.9Y-6.25
X4.9Y-6.35
X4.9Y-6.45
X4.9Y-6.55
X4.9Y-6.65
X4.9Y-6.75
X4.9Y-6.85
X2.7Y-6.7
X2.8Y-6.7
T7
X2.6622Y-6.9819
X4.6307Y-3.3205
X2.75Y-6.4
X2.75Y-5.6
X2.6622Y-3.3205
X4.5701Y-5.0921
X4.6701Y-6.9819
T0
M30
